<svg xmlns="http://www.w3.org/2000/svg" xmlns:xlink="http://www.w3.org/1999/xlink" viewBox="0 0 478.77 200.84"><defs><style>.cls-1,.cls-16,.cls-2,.cls-4,.cls-5{fill:none;}.cls-1{clip-rule:evenodd;}.cls-27,.cls-28,.cls-3{isolation:isolate;}.cls-10,.cls-12,.cls-13,.cls-14,.cls-16,.cls-23,.cls-24,.cls-25,.cls-26,.cls-4,.cls-5,.cls-7,.cls-9{stroke:#000;}.cls-4{stroke-width:0.98px;}.cls-5{stroke-width:0.95px;}.cls-6{fill:#eb1e28;}.cls-7{fill:#ebebeb;fill-opacity:0.99;stroke-width:0.52px;}.cls-10,.cls-11,.cls-12,.cls-13,.cls-14,.cls-15,.cls-17,.cls-18,.cls-19,.cls-20,.cls-21,.cls-22,.cls-23,.cls-24,.cls-25,.cls-26,.cls-27,.cls-7,.cls-8,.cls-9{stroke-miterlimit:11.34;}.cls-10,.cls-11,.cls-26,.cls-8{fill:#a11e22;}.cls-17,.cls-18,.cls-19,.cls-20,.cls-8{stroke:#a11e22;}.cls-10,.cls-12,.cls-25,.cls-26,.cls-27,.cls-8{stroke-width:0.13px;}.cls-23,.cls-24,.cls-9{fill:#de845c;}.cls-9{stroke-width:1.04px;}.cls-11{stroke:#9b1e21;stroke-width:0.14px;}.cls-11,.cls-17,.cls-18,.cls-19,.cls-20,.cls-25,.cls-26{stroke-opacity:0;}.cls-13{stroke-width:0.12px;}.cls-14{stroke-width:0.38px;}.cls-15,.cls-19,.cls-21,.cls-22,.cls-27,.cls-29{fill:#fff;}.cls-15,.cls-21,.cls-22,.cls-27{stroke:#fff;}.cls-15,.cls-22{stroke-width:0.1px;}.cls-16{stroke-linecap:round;stroke-linejoin:round;stroke-width:0.63px;}.cls-17,.cls-18{fill-opacity:0;}.cls-17{stroke-width:0.01px;}.cls-18,.cls-19,.cls-20,.cls-21{stroke-width:0.03px;}.cls-19{fill-opacity:0.55;}.cls-22{stroke-opacity:1;}.cls-23{stroke-width:0.4px;}.cls-24{stroke-width:0.45px;}.cls-27,.cls-28{opacity:0.91;}.cls-28{fill:#42393b;}.cls-29,.cls-31,.cls-32,.cls-34,.cls-35{fill-rule:evenodd;}.cls-30{clip-path:url(#clip-path);}.cls-31{fill:#f0efef;}.cls-32{fill:#ed243b;}.cls-33{clip-path:url(#clip-path-2);}.cls-34{fill:#e11e2c;}.cls-35{fill:#ed3248;}.cls-36{fill:#bf2126;}.cls-37{fill:#f8e7d3;}.cls-38{fill:#d91f26;}.cls-39{fill:#1f1b1a;}.cls-40{fill:#e12027;}.cls-41{fill:#e82125;}</style><clipPath id="clip-path"><path id="SVGID" class="cls-1" d="M266.42,40.27c-.71,3.4,4.56,8.16-.11,11.41-3.67,2.54-23.56,2.49-29.76,3.2s-36.31,2.59-34.79-1c1.88-4.46-3.38-12.52,2.16-13.51,2.48-.44,30.06-.54,41.5-1.61s15.49-2.75,17.63-2.58S267.09,37.09,266.42,40.27Z"/></clipPath><clipPath id="clip-path-2"><path id="SVGID-2" data-name="SVGID" class="cls-1" d="M263.43,37.81c-1.32-1.42-12.13-14.13-16.06-16.35s-14.63-6.76-17.8-4.72-9.28,1.78-12.77,3.92-13,17.24-13.65,18S201.34,50,204.29,55.57a109.91,109.91,0,0,1,5.68,14s3.93-2.49,4-3.82,4.81-22.94,4.81-22.94,17.8-.53,28-2.13S264.74,39.23,263.43,37.81Z"/></clipPath></defs><g id="Layer_2" data-name="Layer 2"><g id="Layer_1-2" data-name="Layer 1"><path d="M376.06,5.29a.25.25,0,0,0-.24-.13L368,5.6a.28.28,0,0,0-.24.21.25.25,0,0,0,.13.29l1,.56h-3.2a.26.26,0,0,0-.25.19.27.27,0,0,0,.1.29L368.19,9,161.05,133.15a.25.25,0,0,0-.09.36l.56.94a.26.26,0,0,0,.17.12h.06a.23.23,0,0,0,.14,0L369,10.38v3.53a.27.27,0,0,0,.5.13l1.81-3.14v1.47a.26.26,0,0,0,.19.25.25.25,0,0,0,.3-.11l4.24-6.95A.26.26,0,0,0,376.06,5.29Z"/><path class="cls-2" d="M247.09,132.91a45.19,45.19,0,0,1,8.81,2.83,37.2,37.2,0,0,0,5-3.1,44.43,44.43,0,0,0,14.83-19.36,70.7,70.7,0,0,0,5.11-27.42,76.18,76.18,0,0,0-6.65-32,56.86,56.86,0,0,0-18.3-23,43.19,43.19,0,0,0-26-8.46,37.07,37.07,0,0,0-21.68,6.69,44.3,44.3,0,0,0-15,18.67q-5.42,12-5.42,27.72a82.8,82.8,0,0,0,6,31.65,56.48,56.48,0,0,0,17.49,23.69,41.36,41.36,0,0,0,11.36,6.31A29.38,29.38,0,0,1,237,132.27,37.25,37.25,0,0,1,247.09,132.91Z"/><path d="M293.27,45.46a61.31,61.31,0,0,0-24.14-24q-15.45-8.55-34.87-8.55A68.83,68.83,0,0,0,200,21.58a63.27,63.27,0,0,0-24.34,24.08q-8.9,15.44-8.9,35.09a72.32,72.32,0,0,0,8.49,35.09,62.42,62.42,0,0,0,23.83,24.57,63.6,63.6,0,0,0,14.71,6.23,28.13,28.13,0,0,1,8.57-9.33l.35-.22a41.36,41.36,0,0,1-11.36-6.31,56.48,56.48,0,0,1-17.49-23.69,82.8,82.8,0,0,1-6-31.65q0-15.72,5.42-27.72a44.3,44.3,0,0,1,15-18.67A37.07,37.07,0,0,1,230,22.36a43.19,43.19,0,0,1,26,8.46,56.86,56.86,0,0,1,18.3,23,76.18,76.18,0,0,1,6.65,32,70.7,70.7,0,0,1-5.11,27.42A44.43,44.43,0,0,1,261,132.64a37.2,37.2,0,0,1-5,3.1l1,.43a2.19,2.19,0,0,1,1.28,2.21,63.42,63.42,0,0,0-.21,7.1,63.71,63.71,0,0,0,11.19-5.17,64.42,64.42,0,0,0,24.14-24.67A70.61,70.61,0,0,0,302,80.75Q302,60.89,293.27,45.46Z"/><g id="text1180" class="cls-3"><g class="cls-3"><path d="M99.45,111.58a26.34,26.34,0,0,1-4.23,10.85Q89.87,130,80,130q-12.58,0-17.8-7.81T57,98.21V56.13a42,42,0,0,0-.42-7A5.29,5.29,0,0,0,55,45.94a7.6,7.6,0,0,0-3.57-1.32A29.33,29.33,0,0,1,51,38.93c2.5.26,6.13.4,10.89.4,4.45,0,8.08-.14,10.9-.4a30.14,30.14,0,0,1-.47,5.69A10.27,10.27,0,0,0,68,45.88a4.65,4.65,0,0,0-1.73,3,37.89,37.89,0,0,0-.47,7.21V96.36q0,12.44,3.61,19.52T81.79,123a13,13,0,0,0,5.4-1.26,11.2,11.2,0,0,0,4.56-3.77,20.18,20.18,0,0,0,3.14-8.27,96.85,96.85,0,0,0,.89-15.42V61.42a76.8,76.8,0,0,0-.47-10.05,9.05,9.05,0,0,0-1.83-4.83,6.59,6.59,0,0,0-4.18-1.92,41.88,41.88,0,0,1-.47-5.69,76.81,76.81,0,0,0,8.83.4,85.75,85.75,0,0,0,8.92-.4,47.35,47.35,0,0,1-.47,5.69,5.38,5.38,0,0,0-3.42,1.85,10.19,10.19,0,0,0-1.65,5,81.07,81.07,0,0,0-.47,10V93.18A114.76,114.76,0,0,1,99.45,111.58Z"/></g><g class="cls-3"><path class="cls-4" d="M99.45,111.58a26.34,26.34,0,0,1-4.23,10.85Q89.87,130,80,130q-12.58,0-17.8-7.81T57,98.21V56.13a42,42,0,0,0-.42-7A5.29,5.29,0,0,0,55,45.94a7.6,7.6,0,0,0-3.57-1.32A29.33,29.33,0,0,1,51,38.93c2.5.26,6.13.4,10.89.4,4.45,0,8.08-.14,10.9-.4a30.14,30.14,0,0,1-.47,5.69A10.27,10.27,0,0,0,68,45.88a4.65,4.65,0,0,0-1.73,3,37.89,37.89,0,0,0-.47,7.21V96.36q0,12.44,3.61,19.52T81.79,123a13,13,0,0,0,5.4-1.26,11.2,11.2,0,0,0,4.56-3.77,20.18,20.18,0,0,0,3.14-8.27,96.85,96.85,0,0,0,.89-15.42V61.42a76.8,76.8,0,0,0-.47-10.05,9.05,9.05,0,0,0-1.83-4.83,6.59,6.59,0,0,0-4.18-1.92,41.88,41.88,0,0,1-.47-5.69,76.81,76.81,0,0,0,8.83.4,85.75,85.75,0,0,0,8.92-.4,47.35,47.35,0,0,1-.47,5.69,5.38,5.38,0,0,0-3.42,1.85,10.19,10.19,0,0,0-1.65,5,81.07,81.07,0,0,0-.47,10V93.18A114.76,114.76,0,0,1,99.45,111.58Z"/></g></g><g id="text1197" class="cls-3"><g class="cls-3"><path d="M165.71,37.89a31.21,31.21,0,0,1-.44,5.61,3.54,3.54,0,0,0-3.14,1.7,13.93,13.93,0,0,0-1.59,5.68A96.29,96.29,0,0,0,160.05,62v64.49a7.88,7.88,0,0,1-3.8.78L119.72,57v45.17a96.61,96.61,0,0,0,.53,11.62,12.85,12.85,0,0,0,1.86,5.81,4.4,4.4,0,0,0,3.72,1.76,27.43,27.43,0,0,1,.44,5.61q-4-.39-8.76-.39a80,80,0,0,0-8.84.39,27.43,27.43,0,0,1,.44-5.61,4.41,4.41,0,0,0,3.72-1.76,12.74,12.74,0,0,0,1.85-5.81,94.55,94.55,0,0,0,.53-11.62V48.2l-.35-.65a9.29,9.29,0,0,0-2.34-3,7.45,7.45,0,0,0-3.41-1,31.21,31.21,0,0,1-.44-5.61,46.07,46.07,0,0,0,6.54.39,37.7,37.7,0,0,0,5.93-.39l34.4,67.36V62A90.39,90.39,0,0,0,155,50.81a11.8,11.8,0,0,0-1.86-5.61,4.44,4.44,0,0,0-3.71-1.7,51.85,51.85,0,0,1-.44-5.61,81.65,81.65,0,0,0,8.31.39A79.61,79.61,0,0,0,165.71,37.89Z"/></g><g class="cls-3"><path class="cls-5" d="M165.71,37.89a31.21,31.21,0,0,1-.44,5.61,3.54,3.54,0,0,0-3.14,1.7,13.93,13.93,0,0,0-1.59,5.68A96.29,96.29,0,0,0,160.05,62v64.49a7.88,7.88,0,0,1-3.8.78L119.72,57v45.17a96.61,96.61,0,0,0,.53,11.62,12.85,12.85,0,0,0,1.86,5.81,4.4,4.4,0,0,0,3.72,1.76,27.43,27.43,0,0,1,.44,5.61q-4-.39-8.76-.39a80,80,0,0,0-8.84.39,27.43,27.43,0,0,1,.44-5.61,4.41,4.41,0,0,0,3.72-1.76,12.74,12.74,0,0,0,1.85-5.81,94.55,94.55,0,0,0,.53-11.62V48.2l-.35-.65a9.29,9.29,0,0,0-2.34-3,7.45,7.45,0,0,0-3.41-1,31.21,31.21,0,0,1-.44-5.61,46.07,46.07,0,0,0,6.54.39,37.7,37.7,0,0,0,5.93-.39l34.4,67.36V62A90.39,90.39,0,0,0,155,50.81a11.8,11.8,0,0,0-1.86-5.61,4.44,4.44,0,0,0-3.71-1.7,51.85,51.85,0,0,1-.44-5.61,81.65,81.65,0,0,0,8.31.39A79.61,79.61,0,0,0,165.71,37.89Z"/></g></g><g id="text1205" class="cls-3"><g class="cls-3"><path d="M99.45,111.58a26.34,26.34,0,0,1-4.23,10.85Q89.87,130,80,130q-12.58,0-17.8-7.81T57,98.21V56.13a42,42,0,0,0-.42-7A5.29,5.29,0,0,0,55,45.94a7.6,7.6,0,0,0-3.57-1.32A29.33,29.33,0,0,1,51,38.93c2.5.26,6.13.4,10.89.4,4.45,0,8.08-.14,10.9-.4a30.14,30.14,0,0,1-.47,5.69A10.27,10.27,0,0,0,68,45.88a4.65,4.65,0,0,0-1.73,3,37.89,37.89,0,0,0-.47,7.21V96.36q0,12.44,3.61,19.52T81.79,123a13,13,0,0,0,5.4-1.26,11.2,11.2,0,0,0,4.56-3.77,20.18,20.18,0,0,0,3.14-8.27,96.85,96.85,0,0,0,.89-15.42V61.42a76.8,76.8,0,0,0-.47-10.05,9.05,9.05,0,0,0-1.83-4.83,6.59,6.59,0,0,0-4.18-1.92,41.88,41.88,0,0,1-.47-5.69,76.81,76.81,0,0,0,8.83.4,85.75,85.75,0,0,0,8.92-.4,47.35,47.35,0,0,1-.47,5.69,5.38,5.38,0,0,0-3.42,1.85,10.19,10.19,0,0,0-1.65,5,81.07,81.07,0,0,0-.47,10V93.18A114.76,114.76,0,0,1,99.45,111.58Z"/></g><g class="cls-3"><path class="cls-4" d="M99.45,111.58a26.34,26.34,0,0,1-4.23,10.85Q89.87,130,80,130q-12.58,0-17.8-7.81T57,98.21V56.13a42,42,0,0,0-.42-7A5.29,5.29,0,0,0,55,45.94a7.6,7.6,0,0,0-3.57-1.32A29.33,29.33,0,0,1,51,38.93c2.5.26,6.13.4,10.89.4,4.45,0,8.08-.14,10.9-.4a30.14,30.14,0,0,1-.47,5.69A10.27,10.27,0,0,0,68,45.88a4.65,4.65,0,0,0-1.73,3,37.89,37.89,0,0,0-.47,7.21V96.36q0,12.44,3.61,19.52T81.79,123a13,13,0,0,0,5.4-1.26,11.2,11.2,0,0,0,4.56-3.77,20.18,20.18,0,0,0,3.14-8.27,96.85,96.85,0,0,0,.89-15.42V61.42a76.8,76.8,0,0,0-.47-10.05,9.05,9.05,0,0,0-1.83-4.83,6.59,6.59,0,0,0-4.18-1.92,41.88,41.88,0,0,1-.47-5.69,76.81,76.81,0,0,0,8.83.4,85.75,85.75,0,0,0,8.92-.4,47.35,47.35,0,0,1-.47,5.69,5.38,5.38,0,0,0-3.42,1.85,10.19,10.19,0,0,0-1.65,5,81.07,81.07,0,0,0-.47,10V93.18A114.76,114.76,0,0,1,99.45,111.58Z"/></g></g><g id="text1209" class="cls-3"><g class="cls-3"><path d="M165.71,37.89a31.21,31.21,0,0,1-.44,5.61,3.54,3.54,0,0,0-3.14,1.7,13.93,13.93,0,0,0-1.59,5.68A96.29,96.29,0,0,0,160.05,62v64.49a7.88,7.88,0,0,1-3.8.78L119.72,57v45.17a96.61,96.61,0,0,0,.53,11.62,12.85,12.85,0,0,0,1.86,5.81,4.4,4.4,0,0,0,3.72,1.76,27.43,27.43,0,0,1,.44,5.61q-4-.39-8.76-.39a80,80,0,0,0-8.84.39,27.43,27.43,0,0,1,.44-5.61,4.41,4.41,0,0,0,3.72-1.76,12.74,12.74,0,0,0,1.85-5.81,94.55,94.55,0,0,0,.53-11.62V48.2l-.35-.65a9.29,9.29,0,0,0-2.34-3,7.45,7.45,0,0,0-3.41-1,31.21,31.21,0,0,1-.44-5.61,46.07,46.07,0,0,0,6.54.39,37.7,37.7,0,0,0,5.93-.39l34.4,67.36V62A90.39,90.39,0,0,0,155,50.81a11.8,11.8,0,0,0-1.86-5.61,4.44,4.44,0,0,0-3.71-1.7,51.85,51.85,0,0,1-.44-5.61,81.65,81.65,0,0,0,8.31.39A79.61,79.61,0,0,0,165.71,37.89Z"/></g><g class="cls-3"><path class="cls-5" d="M165.71,37.89a31.21,31.21,0,0,1-.44,5.61,3.54,3.54,0,0,0-3.14,1.7,13.93,13.93,0,0,0-1.59,5.68A96.29,96.29,0,0,0,160.05,62v64.49a7.88,7.88,0,0,1-3.8.78L119.72,57v45.17a96.61,96.61,0,0,0,.53,11.62,12.85,12.85,0,0,0,1.86,5.81,4.4,4.4,0,0,0,3.72,1.76,27.43,27.43,0,0,1,.44,5.61q-4-.39-8.76-.39a80,80,0,0,0-8.84.39,27.43,27.43,0,0,1,.44-5.61,4.41,4.41,0,0,0,3.72-1.76,12.74,12.74,0,0,0,1.85-5.81,94.55,94.55,0,0,0,.53-11.62V48.2l-.35-.65a9.29,9.29,0,0,0-2.34-3,7.45,7.45,0,0,0-3.41-1,31.21,31.21,0,0,1-.44-5.61,46.07,46.07,0,0,0,6.54.39,37.7,37.7,0,0,0,5.93-.39l34.4,67.36V62A90.39,90.39,0,0,0,155,50.81a11.8,11.8,0,0,0-1.86-5.61,4.44,4.44,0,0,0-3.71-1.7,51.85,51.85,0,0,1-.44-5.61,81.65,81.65,0,0,0,8.31.39A79.61,79.61,0,0,0,165.71,37.89Z"/></g></g><path class="cls-2" d="M326.19,27.69q.09,3.16.13,6.39l2.86-1.72Q327.65,30,326.19,27.69Z"/><path class="cls-2" d="M326.2,52l-.95,31.27,36.26-6.37L341.22,49.4q-5.94-7.83-11.14-15.68L326.34,36C326.39,41.22,326.35,46.57,326.2,52Z"/><path class="cls-6" d="M407.65,108.69a10.55,10.55,0,0,1-5.26-1.13,30.78,30.78,0,0,1-5.53-5q-3.32-3.72-9.1-11.29L340,27.77l-9.93,5.95q5.19,7.86,11.14,15.68l20.29,27.54-36.26,6.37L326.2,52c.15-5.47.19-10.82.14-16.08,0-.62,0-1.26,0-1.88q0-3.22-.13-6.39,1.46,2.34,3,4.67l9.85-5.9L321.92,3.7,319.78,1c-2.44-2.89-5.46,1.11-3.3,3.47.7,1.25,1.73,3.39,2,3.83a7.28,7.28,0,0,1,.31,1.91l-1.35,29.19-.09,2-3,64.53q-.74,12.4-2.07,16.94a8.93,8.93,0,0,1-5.42,6.06,33,33,0,0,0,1.72,10.34q9.66-2.31,14.67-3.19Q335,134,341,133.53a41.28,41.28,0,0,0-4.54-10,11.89,11.89,0,0,1-7.11-1.2,10,10,0,0,1-3.92-5.66,33.87,33.87,0,0,1-1-11.07l.35-10.7q16.8-4,43.56-8.68l10.34,14.15q4.28,5.59,5.16,8.5a4.19,4.19,0,0,1-.82,4.45q-1.48,1.68-5.62,3-.24,3.93,1.78,10.53c4.26-1.16,5.1-1.37,17.39-4.67S408.86,119,412,118A40.16,40.16,0,0,0,407.65,108.69Z"/><path d="M330.08,33.72,340,27.77l-1-1.31-9.85,5.9Z"/><g id="layer34"><g id="layer11"><g id="layer15"><g id="layer17"><g id="layer19"><path id="path1258" class="cls-7" d="M239.15,127.27a35.47,35.47,0,0,0,3.15,2,24.73,24.73,0,0,0,4.38,1.81,12.74,12.74,0,0,0,3.88.56,16.38,16.38,0,0,0,4.06-.52,10.24,10.24,0,0,0,3.31-1.54,10.58,10.58,0,0,0,2.1-2.07,4.69,4.69,0,0,0,.91-1.71A4.07,4.07,0,0,0,261,124a3.28,3.28,0,0,0-.72-1.43,5.35,5.35,0,0,0-1.13-1,7,7,0,0,0-1.68-.79,17.64,17.64,0,0,0-2.7-.61c-.92-.14-1.76-.2-3.34-.48s-3.91-.79-5.84-.26a10.31,10.31,0,0,0-4.52,3.25,16.77,16.77,0,0,0-2,2.55,4.48,4.48,0,0,0-.57,1.43c0,.18.06.2.67.62Z"/></g><g id="layer16"><path id="path1254" class="cls-8" d="M239,123.2c1.92-1.62,3.18-1.77,5.2-2.8a16.06,16.06,0,0,1,5.38-1.66c1.94,0,4,1.08,2.91,1.57a19.51,19.51,0,0,1-3.34,1.68l-4.3,2.09s-4.31,2.33-5.05,1.77S239,123.2,239,123.2Z"/></g></g><g id="layer18"><g id="layer20"><path id="path1258-3" class="cls-7" d="M233.52,127.42a15.53,15.53,0,0,1-2.91,2.15,15.88,15.88,0,0,1-4,1.53,13.66,13.66,0,0,1-3.7.3,30.31,30.31,0,0,1-4.47-.4,11.79,11.79,0,0,1-3.27-1.1,9.13,9.13,0,0,1-2.33-1.64,4.19,4.19,0,0,1-1.14-2,4.52,4.52,0,0,1,.07-2.12,3.43,3.43,0,0,1,.76-1.27,4.23,4.23,0,0,1,.95-.83,7.87,7.87,0,0,1,1.53-.63c.63-.21,1.37-.42,2.63-.73s3-.71,4.74-1.06a8.34,8.34,0,0,1,4.92,0,16.16,16.16,0,0,1,4.23,3.24c1.12,1,1.87,1.54,2.28,2a2.1,2.1,0,0,1,.56,1.36c0,.35-.24.66-.85,1.23Z"/></g><g id="g1246"><path id="path1254-0" class="cls-8" d="M232.65,123.43a10.12,10.12,0,0,0-3.4-2.24c-2-.87-3.65-2.4-5.79-2.61-.7.36-2.67.47-3.32,1.45-.16.4,2,1.46,3.83,2.37a48.33,48.33,0,0,0,5,2.19c1,.31,4.59,1.61,5.33,1s-1.61-2.21-1.61-2.21Z"/></g></g></g><g id="layer9"><g id="layer12"><path id="path1149" class="cls-9" d="M236.91,82.25A39.63,39.63,0,0,0,252,79a21,21,0,0,0,6.44-4.37,20.09,20.09,0,0,0,3.36-4.88,21.33,21.33,0,0,0,1.63-3.92,31.36,31.36,0,0,0,1.05-4.8,29.45,29.45,0,0,0,.25-3.52c.06-1.66,0-3.32,0-5a11.89,11.89,0,0,0-1.75-4c-2.06-2.91-5.53-4.38-8.8-5.55-4.43-1.58-9.3-1.54-14-1.75-5.13-.24-10.36-.51-15.39.52-4.06.84-8.32,2-11.58,4.51a15.29,15.29,0,0,0-4.11,5.83,9.79,9.79,0,0,0-.71,2.84,22.27,22.27,0,0,0-.13,5.47c.33,2.8.53,5.89,1.95,8.33a24.5,24.5,0,0,0,11,10.39c4.72,2.48,10.36,3.17,15.7,3.13Z"/></g><g id="g1023"><path id="path1019" class="cls-10" d="M203.54,48.88c-.79.35-.3-3.33.66-4.82s.39-1.18,5.12-3.72,22.17-1.53,28.09-1.5,8.27.38,9.85.82,4.62.79,7.4,1.64,7.13,1.29,8.52,3.09,2.76,7.1,1.13,6-15.81-2.75-19.71-2.9-12.66-1.88-24.06-.55-16.21,1.61-17,2Z"/><path id="path1021" class="cls-11" d="M231,47s-.92,10-.73,13.85a2.89,2.89,0,0,0-2.41,3.71c.15.46,1,.74,2.61.3,0,6,.86,17.58.86,17.58s-5.8-.48-9.76-2.6-5.48-2.28-7-5.14c-.62-2.85-.79-10.68-.79-10.68a95.85,95.85,0,0,1,.79-16Z"/></g><g id="g141"><path id="path137" class="cls-10" d="M203.54,48.88c-.79.35-.3-3.33.66-4.82s.39-1.18,5.12-3.72,22.17-1.53,28.09-1.5,8.27.38,9.85.82,4.62.79,7.4,1.64,7.13,1.29,8.52,3.09,2.76,7.1,1.13,6-15.81-2.75-19.71-2.9-12.66-1.88-24.06-.55-16.21,1.61-17,2Z"/><path id="path139" class="cls-11" d="M231,47s-.82,10.73-.73,13.85.06.13.2,4,.86,17.58.86,17.58-5.8-.48-9.76-2.6-5.48-2.28-7-5.14c-.62-2.85-.79-10.68-.79-10.68a95.85,95.85,0,0,1,.79-16Z"/></g><g id="layer4"><path id="path1872" class="cls-12" d="M235,28.73c-24,0-33.1,10.86-32.73,17.79s1.64,8.48,2.17,9.67a5,5,0,0,0,.82,1.44c5.45-7,21.94-7.67,21.94-7.67l.43-3.51c-3-.23-17.49,1-23.79,2.32a6.56,6.56,0,0,1,3.7-7.38l17.65-2.72,3.57,12.27,9.4.28,2.34-2.9-.14,2.48,4-.56.42-5.34.94,6,7.17-.26s-3.45-17.09-.93-8.21c1.41,4.93,5.94,11.92,9.63,14.8,0,0,0-.1,0-.15s-.06-.24,0-.3a1.41,1.41,0,0,1,.39-.19v-.07l-.14,0s0,0,0,0a.48.48,0,0,1,0-.12,1.09,1.09,0,0,1,0-.53,1,1,0,0,1,.07-.15.38.38,0,0,0,.09-.3.42.42,0,0,0,0-.06c0-.12,0-.23,0-.35s0-.46.09-.75a2.15,2.15,0,0,1,.13-.32v0c0-.11.05-.21.07-.32s.12-.37.21-.55A1.91,1.91,0,0,1,264,51.92a1.76,1.76,0,0,1,.33,0,1.24,1.24,0,0,1,.33,0,5.56,5.56,0,0,1,.88.35,3.21,3.21,0,0,1,.89.64c.11-.43-3.29-3-3.19-3.42,0-.06-.49,1.27-.47,1.21,0-.43,4,4.17,4.54,3.27-.46-.41.69,2.08,0-6.61a24.6,24.6,0,0,0-.85-3.65c-3.32-8.87-13.3-15-31.46-15Z"/><path id="path4906" class="cls-12" d="M205.18,57.81l1.69-.42c.19,9.43,2.39,11.2,3,12s.89,16.67.89,16.67l8.12.56-.46-4.21,2.81,3.79,6.72-.42,2.35-.47,3.24-.93,0-2.67s-1.35-.09-3.41-.36a39.07,39.07,0,0,1-8.6-2.47,20.33,20.33,0,0,1-6-3.92,30.46,30.46,0,0,1-4.11-5,18.7,18.7,0,0,1-2.75-6.54,18.79,18.79,0,0,1-.65-5.18c.05-.93.21-2.19.21-2.19l2.24-1L210.7,58l6.18-.29c9.48-.56,6.61-.32,9.42-.52,10.9-1.11,10.94-1.21,20.24.22a79.87,79.87,0,0,0,8.41.21c3.05,0,6.75.33,6.75.33l2.78-6.12c-45.4,3.66-33.94-.55-53.73.5Z"/><path id="path4908" class="cls-12" d="M214.62,65.73c.17.13-.09.4-.09.4,7.48,2,15.09,4.68,22,4.13,9.88.28,16.64-2,20.88-4.8,0,0,0,0-.45-1,.42-.25,1,1,1,1a7.15,7.15,0,0,0,1,1.1c-.22.24-1.15-.54-1.15-.54-5.66,2.8-11.56,4.74-21.25,5.27-13.71-1.21-14.38-2.74-22.17-4.94,0,0,0,.67-.33.54s.05-.71.05-.71.38-.57.54-.44Z"/><path id="path4906-0" class="cls-12" d="M259.37,84.74l-4.47-.1-1.73-3.81-1.29,3.39c-5.63.27-5.6.44-12.17.36l0-2.91a23.69,23.69,0,0,0,3.75-.68,47.65,47.65,0,0,0,8.24-2.69,27.89,27.89,0,0,0,5.46-3.55,32,32,0,0,0,4.3-5.28c-.92,7.59-.6,8.22-2.05,15.27Z"/><path id="path4965" class="cls-12" d="M228.08,63.57c-.4.38.23.83.23.83,4.81-1.59,5.28-1.7,8.24-1.66a25.44,25.44,0,0,1,9.06,2.09c.33.13.23-1-.26-1.2-3.31-1.58-8.7-1.88-8.7-1.88a22.6,22.6,0,0,0-8.57,1.82Z"/><ellipse id="path1097-0" class="cls-13" cx="219.77" cy="59.83" rx="3.21" ry="3.2"/><path id="path1092" class="cls-14" d="M249.42,60.13s2.19-.21,3.21-.19,2.91.3,2.91.3.13-.12.13-.2-.09-.15-.09-.15a29.71,29.71,0,0,0-3-.31c-1,0-3,.24-3,.24l5.76-1.5s.06-.14,0-.18c-.37-.34-1,0-1.49.17s-4.55,1.27-4.55,1.27A.45.45,0,0,0,249,60c0,.15.45.18.45.18Z"/></g><g id="layer10"><path id="path1073-2" class="cls-15" d="M274.46,90.85c-.51-.48-1-1.09-1.7-1.71,0,0-.75-.66-1.32-1.29s-1.35-1.73-2-2.59-1.36-1.72-2-2.59a1.57,1.57,0,0,1-.25-.79c0-.27,0-.35,0-1,.05-1.58.11-1.4,0-1.41s-.22,1-.24,1.26l-.1.89-.33-.56-.32-.57L267.25,77c.65-2.08,1.2-3.77,1.21-3.76s.58,2,1.24,4.5a37,37,0,0,0,1.3,4.48c.05,0,.09,0,.09,0S270.58,80,270,77.43s-1.12-4.76-1.11-4.77,4.17,1.7,4.25,1.76a.52.52,0,0,1,.07.31c0,.7.3,4,.57,6.09a34,34,0,0,0,2,8.73,28.3,28.3,0,0,0,1.36,2.82c.09.13.42.57,0,.61-.22.19-1.95-1.51-2.62-2.13Z"/><path id="path1128" class="cls-8" d="M265.6,60.78,272.14,62a19.71,19.71,0,0,1,.82,3.24,85,85,0,0,1,.54,9.08l-4.91-1.91L266,80.8l-2.43-4.47-.71-1.64-.75-2-.62-2.75-.06-.4c.89-2.26,2.88-6,4.19-8.72Z"/><path id="path178" class="cls-16" d="M264.54,52.46c1.7.62,2.59.67,4.84,3.66A23,23,0,0,1,272,61.64a23.35,23.35,0,0,1,1.25,6.17c.15,3,.11,3.87.19,5.79a93,93,0,0,0,1,9.64,24.93,24.93,0,0,0,3,9.18s.14.54-.14.7-1-.35-1.17-.47a60.8,60.8,0,0,1-5.11-4.91L267,82.55l.24-3.06-.19,3.13s-2.74-4.58-3.72-6.79a24.48,24.48,0,0,1-1.63-4.69,43.77,43.77,0,0,1-.74-6.72,23.58,23.58,0,0,1,0-3,27.74,27.74,0,0,1,1.43-6.19,9.07,9.07,0,0,1,2.06-2.66l.08-.08"/><path id="path182" class="cls-12" d="M264.05,53l1.15,7,.92,4.2,4.88,18L268.35,71l-2.28-10.25-.88-8-.64-.27Z"/><path id="path1140" class="cls-17" d="M269.1,61.38l-2.93-.57s0,0,0,0-.88-8-.88-8l.43.15a5.31,5.31,0,0,1,1.56.92A12.42,12.42,0,0,1,269,55.76a4.79,4.79,0,0,1,.46.66c.52.84.91,1.53,1.28,2.27a19,19,0,0,1,1,2.43l.16.44c.15.39.14.37.12.37l-2.94-.55Z"/><path id="path1142" class="cls-18" d="M261.38,68.68a47.25,47.25,0,0,1-.35-6.91,30.13,30.13,0,0,1,.49-3.22c.13-.6.12-.57.18-.57a15.5,15.5,0,0,0,1.12-2.34c.58-1.28,1.07-2.33,1.08-2.32s.24,1.62.31,2.24a12.64,12.64,0,0,1,.11,1.81,15.27,15.27,0,0,1-.13,2c0,.39-.11.94-.14,1.23a27.29,27.29,0,0,1-1.23,5.28,12.5,12.5,0,0,1-.7,1.75l-.49,1.1-.17.38a2.65,2.65,0,0,1-.08-.47Z"/><path id="path1144" class="cls-18" d="M261.38,68.68a47.25,47.25,0,0,1-.35-6.91,30.13,30.13,0,0,1,.49-3.22c.13-.6.12-.57.18-.57a15.5,15.5,0,0,0,1.12-2.34c.58-1.28,1.07-2.33,1.08-2.32s.24,1.62.31,2.24a12.64,12.64,0,0,1,.11,1.81,15.27,15.27,0,0,1-.13,2c0,.39-.11.94-.14,1.23a27.29,27.29,0,0,1-1.23,5.28,12.5,12.5,0,0,1-.7,1.75l-.49,1.1-.17.38a2.65,2.65,0,0,1-.08-.47Z"/><path id="path1031" class="cls-19" d="M269.58,61.25h-.08s-.05,0-.05,0,0,0-.05,0a.34.34,0,0,1-.18-.07,3.56,3.56,0,0,0-1.66-.26l-.85,0-.11,0v-1h.09a1.29,1.29,0,0,0,.95-.54c.17-.21.19-.3.33-1l.11-.55.18-.06a.48.48,0,0,0,.36-.27c0-.09,0-.1,0-.31l-.09-.28c0-.06,0-.08-.15-.14s-.13-.18-.11-.42,0-.23.07-.24.06,0,.06.07a.46.46,0,0,0,.1.33.17.17,0,0,1,.06.11c0,.09,0,.13.14.14s.11,0,.14.13a.59.59,0,0,1,.05.14s0,.1,0,.17.05.15.19.25a.53.53,0,0,1,.17.19c0,.08.12.13.29.16l.12,0,0,.24c0,.27.07.47.14.51l.16.06c.1,0,.1,0,.11.15s0,.1,0,0v-.1h-.17a.47.47,0,0,1-.2-.06,1.81,1.81,0,0,1-.05-.41l0-.37-.35,0h-.43l-.06,0v1.28l-.13.25a1.77,1.77,0,0,0-.12.29.7.7,0,0,1-.09.19l-.09.16v.85h.17l.65,0c.54.05.53.05.61-.18a.52.52,0,0,1,.14-.21c.08-.07.11-.08.27-.08h.19v.21c0,.27,0,.27.38.23l.16,0-.14-.07a.38.38,0,0,1-.22-.21c-.07-.14-.07-.17-.07-.5v-.35l0,.28c0,.25,0,.29.1.34a.22.22,0,0,0,.14.06.25.25,0,0,1,.11,0c.06,0,.06.07.06.31s0,.32-.17.32l-.08,0s-.05,0-.1,0l-.13,0s-.06,0-.09-.06-.06-.08-.08-.08a1,1,0,0,1-.12-.07l-.09-.06-.12.08c-.12.08-.16.12-.17.19s0,0,0,0,0,0,0,0,0,0,0,0,0,0-.05,0ZM268.79,57a.12.12,0,0,0,0-.07s-.06,0,0,.12,0,.07,0,.05A.3.3,0,0,0,268.79,57Zm-.46-.81s0,0,0,.07,0,.13,0,.09a.43.43,0,0,0,0-.16Z"/><path id="path1037" class="cls-20" d="M269.07,61.36l-2.9-.55v-.08c0-.13-.85-7.6-.84-7.6a1.65,1.65,0,0,1,.26.2,3.25,3.25,0,0,0,1.45.85.42.42,0,0,0,.3-.13l0-.06.1.08a15,15,0,0,1,1.78,2,26.44,26.44,0,0,1,1.47,2.56,18,18,0,0,1,1,2.31l.27.76c.07.18.07.19,0,.19l-2.93-.56Z"/><path id="path1065" class="cls-21" d="M271.64,61.84l-2.84-.54-2.62-.51s-.28-2.47-.56-5-.28-2.62-.27-2.63a2.44,2.44,0,0,1,.32.24,3.07,3.07,0,0,0,1.31.76.39.39,0,0,0,.35-.11c0-.06,0-.06.12,0a16.09,16.09,0,0,1,1.88,2.18,28,28,0,0,1,1.88,3.5c.14.32.79,2.09.79,2.13S271.91,61.89,271.64,61.84Z"/><path id="path1073" class="cls-22" d="M267.47,82.54a1.11,1.11,0,0,1-.31-.66c0-.27,0-.35,0-1,.05-1.58.11-1.4,0-1.41s-.22,1-.24,1.26l-.09.87-.32-.54-.33-.56L267.25,77c.64-2.09,1.2-3.78,1.21-3.76s.58,2,1.24,4.5a37,37,0,0,0,1.3,4.48c.05,0,.09,0,.09,0S270.58,80,270,77.43s-1.12-4.76-1.11-4.77,4.17,1.7,4.25,1.76a.52.52,0,0,1,.07.31c0,.7.3,4,.57,6.09-2.07,2.28-2,2.2-6.28,1.72Z"/><path id="path1067" class="cls-21" d="M261.62,69c-.17-1.33-.29-2.68-.37-4.2,0-.32,0-1.18,0-1.9a11.18,11.18,0,0,1,.2-2.69c.1-.69.27-1.57.37-2,0-.2.1-.18.11-.23a9.4,9.4,0,0,1,1-2.5c.63-1.31,1-2.3,1.05-2.32s0,0,0,.07.67,4,1,5.89c.08.5.2,1.16.27,1.45l.12.54-1.2,2.42c-1.58,3.17-1.91,4.23-2.33,5.21a2.37,2.37,0,0,1-.19.41s0-.06,0-.14Z"/></g></g><g id="layer13"><g id="layer21"><path id="path1079-9" class="cls-23" d="M256.71,98.7a7.39,7.39,0,0,1,2.56,2.91c.23.69.5,1.68,0,2.18s-1.66.94-1.76-.08a9.35,9.35,0,0,1,0,2.49,2.31,2.31,0,0,1-1.28,1.38,1.24,1.24,0,0,1-1.18-.2,1.52,1.52,0,0,1-.38-1.42c.08-.59-.59,1.44-.87,1.88a1.83,1.83,0,0,1-1.17.82,1.8,1.8,0,0,1-1.58-.31,1.9,1.9,0,0,1-.31-1.66c.14-.65,1.13-1,1.15-1.64a2.18,2.18,0,0,0-.92-1.57c-.46-.39-.75-.13-1,.13s-.86.48-1.11.2c-.74-.81-.44-2,.85-3.16.79-.72,1.64-1.11,1.46-1.9a3.55,3.55,0,0,0-1.83-2.31c-.17-1.32.71-5.78-2.22-8.13a29.74,29.74,0,0,1,4.91,4A14.39,14.39,0,0,1,254.63,96c.74,1.53.82,2.09,1.13,2.22l.95.44Z"/><path id="path1079-0-7" class="cls-23" d="M214,98.7a7.31,7.31,0,0,0-2.56,2.91c-.23.69-.5,1.68,0,2.18s1.66.94,1.76-.08a9.54,9.54,0,0,0,0,2.49,2.32,2.32,0,0,0,1.29,1.38,1.25,1.25,0,0,0,1.18-.2,1.55,1.55,0,0,0,.38-1.42c-.08-.59.59,1.44.87,1.88a1.83,1.83,0,0,0,1.17.82,1.77,1.77,0,0,0,1.57-.31,1.87,1.87,0,0,0,.32-1.66c-.14-.65-1.13-1-1.15-1.64a2.18,2.18,0,0,1,.92-1.57c.46-.39.75-.13,1,.13s.86.48,1.11.2c.74-.81.44-2-.85-3.16-.79-.72-1.64-1.11-1.47-1.9.32-1.39,1.77-2.46,2.51-3s.94-.81,1.18-1c.63-8.73,8.65-8.82,5.63-8.25-.84.47-3.82,1.05-5.75,2.3a25.79,25.79,0,0,0-4.42,3.59A14.39,14.39,0,0,0,216.08,96c-.74,1.53-.82,2.09-1.13,2.22l-.95.44Z"/></g></g><g id="layer2"><path id="path1034" class="cls-24" d="M224.56,105.31a11.7,11.7,0,0,0,5.54,1.87,59.88,59.88,0,0,0,11-.15,19.45,19.45,0,0,0,6.9-2.17,45.66,45.66,0,0,0,1.37-8,36.11,36.11,0,0,0-.18-6.06c-.57-3-3.61-5-6.51-5.53-1.2-.3-3.13-.72-3.13-.72s0-1.47,0-2.39a54.17,54.17,0,0,1-5.94,0v2.18a57.07,57.07,0,0,0-5.88,1.78,6.49,6.49,0,0,0-3.29,3.43,11.67,11.67,0,0,0-1,5.89,48.53,48.53,0,0,0,1.07,9.84Z"/></g><g id="layer7"><g id="layer6"><path id="path977-4" class="cls-25" d="M248.7,104.36v12.52c.05-.25,3.55-.3,3,2.22-2.06.26-5.26.39-7.89,1.93-.67.52-2.12.87-5.33,5.85a13.13,13.13,0,0,1-1.32-.86c-.2.14-.84-3.45.05-4h-1.31a4,4,0,0,1,.08,3.63c-.35.2-.67.36-1,.56-3.57-3.76-4.39-4.2-6.45-4.89-2.32-1.15-4.35-1.4-7.4-2.13-1.12-2.12,2.47-2.3,2.47-2.3s-.77-8-.77-12.12c-.24-.49,6.56,1.85,7.28,2a40,40,0,0,0,5.66.62,36.51,36.51,0,0,0,9-1.43c3.79-1.08,3.9-2.07,3.87-1.58Z"/></g><g id="layer8"><path id="path1017-1" class="cls-26" d="M229.17,106.48a29.47,29.47,0,0,0,13.52,0l.46,11.92c-5.51,2.43-10,1.2-14.44,0Z"/></g><g id="layer14"><path id="path1160" class="cls-27" d="M243.56,106.35s.63,7.64.5,12.85a18.6,18.6,0,0,1-7.64,1.45,33.31,33.31,0,0,1-8.12-1.49,129.11,129.11,0,0,1-.15-12.92l1,.31c-.4,4.59-.31,10.9.15,11.89a34.87,34.87,0,0,0,7.07,1.24,30.8,30.8,0,0,0,6.54-1.29,79.4,79.4,0,0,0-.49-11.8C242.85,106.52,243.22,106.43,243.56,106.35Z"/><path id="path1160-9" class="cls-28" d="M243.12,106.38s.6,7.38.47,12.45a17.52,17.52,0,0,1-7.28,1.4,31.35,31.35,0,0,1-7.74-1.44c-.12-3-.26-8.59,0-12.49l.19.06c-.26,4.26,0,10.82,0,12.33a34,34,0,0,0,7.56,1.3,17,17,0,0,0,7.08-1.35,103.91,103.91,0,0,0-.5-12.2l.24-.06Z"/></g></g></g><path class="cls-29" d="M266.42,40.27c-.71,3.4,4.56,8.16-.11,11.41-3.67,2.54-23.56,2.49-29.76,3.2s-36.31,2.59-34.79-1c1.88-4.46-3.38-12.52,2.16-13.51,2.48-.44,30.06-.54,41.5-1.61s15.49-2.75,17.63-2.58S267.09,37.09,266.42,40.27Z"/><g class="cls-30"><path class="cls-31" d="M198.49,54.39c.95-1.46,2.38-7.79,2.65-5.08.36,3.64,8.66,4.48,16.92,4.66,7.37.15,37.09-2,41.87-3.22s5.74-2,6.8-3.58,3.06-1.64,3.16.23-.1,4.6-1.54,5.53-44.65,5-48.29,5-19.71.85-20.29-.16S197.53,55.86,198.49,54.39Z"/></g><path class="cls-32" d="M263.43,37.81c-1.32-1.42-12.13-14.13-16.06-16.35s-14.63-6.76-17.8-4.72-9.28,1.78-12.77,3.92-13,17.24-13.65,18S201.34,50,204.29,55.57a109.91,109.91,0,0,1,5.68,14s3.93-2.49,4-3.82,4.81-22.94,4.81-22.94,17.8-.53,28-2.13S264.74,39.23,263.43,37.81Z"/><g class="cls-33"><path class="cls-34" d="M202.61,69.77c1.57-.34,6.1-.77,7.25-2.74s4.1-18.48,5.58-22.25S218,39.9,218,39.9s2.84-13.44,3.68-11.64-.74,9.25-.42,10.36a3.76,3.76,0,0,0,3.58,2.29c1.8,0,10.89-.55,15.31-1.2s6.21-.28,8.68-.52,2.46-1.31,7.12-1.54a21.47,21.47,0,0,1,7.46.75s-41.77,6.08-41.77,7.91-2.8,11.77-2.69,17.62-8.88,9.52-13,8.17S201,70.12,202.61,69.77Z"/></g><path class="cls-29" d="M210.91,63.75c3.06,0,5.55,2,5.55,4.52s-2.49,4.52-5.55,4.52-5.56-2-5.56-4.52S207.84,63.75,210.91,63.75Z"/><path class="cls-35" d="M255.31,32.16c-1.65-1.77-11.93-10.14-16.64-12.27s-10.1-1.91-13.42,0-8.45,1.56-7.4,3.34,6.36-2.34,10.63.85,1,9.71,4.27,12.34,9.23,1.41,12.89.56,10,1.42,12.54-.14S257,33.93,255.31,32.16Z"/><path class="cls-36" d="M251.37,95.31c1.47,1.08,3.13,1.93,4.56,3a26.62,26.62,0,0,1,5.7,7,8.55,8.55,0,0,1,1.34,2.79c.29,1.48-.27,3,.27,4.46,3.49-.31,6-3,8.1-5.62a1.63,1.63,0,0,0,.43-.82,1.5,1.5,0,0,0-.16-.74,24.09,24.09,0,0,0-5.12-8c-3.38-3.52-7.76-6.06-12.15-8.42a10.21,10.21,0,0,1-3.41-2.48c-.78-1-1.1-2.35-2-3.29-1.07-1.1-2.75.63-3.24,1.56a3.44,3.44,0,0,0,.2,2.88A15.72,15.72,0,0,0,251.37,95.31Z"/><path class="cls-2" d="M248.17,92.09c.82-.37,1.67-.7,2.49-1.06A10.19,10.19,0,0,0,254,88.82a9.22,9.22,0,0,1-3.08-2.3c-.78-1-1.1-2.35-2-3.29-1.07-1.1-2.75.63-3.24,1.56a3.44,3.44,0,0,0,.2,2.88A16.47,16.47,0,0,0,248.17,92.09Z"/><path class="cls-2" d="M254.32,97.24c.55.36,1.1.72,1.61,1.12a15.55,15.55,0,0,1,1.79,1.64c.82-.41,1.67-.8,2.49-1.21a10.79,10.79,0,0,0,4.24-3.27,39.16,39.16,0,0,0-4.72-3.42c-.81,1-1.67,2-2.58,2.86A14.51,14.51,0,0,1,254.32,97.24Z"/><path class="cls-2" d="M263.75,103.82a10.16,10.16,0,0,1-2.51.91l.39.61a8.55,8.55,0,0,1,1.34,2.79c0,.1,0,.2,0,.31,1-.46,2-.9,3-1.36a17.26,17.26,0,0,0,4.94-3,23.74,23.74,0,0,0-2.43-4.11c-.35.35-.68.71-1,1A16.53,16.53,0,0,1,263.75,103.82Z"/><path class="cls-37" d="M248.17,92.09a15,15,0,0,0,3.2,3.22c.94.7,2,1.3,2.95,1.93A14.51,14.51,0,0,0,257.15,95c.91-.91,1.77-1.87,2.58-2.86C258,91,256.16,90,254.34,89l-.33-.18A10.19,10.19,0,0,1,250.66,91C249.84,91.39,249,91.72,248.17,92.09Z"/><path class="cls-37" d="M260.21,98.79c-.82.41-1.67.8-2.49,1.21a32.43,32.43,0,0,1,3.52,4.73,10.16,10.16,0,0,0,2.51-.91,16.53,16.53,0,0,0,3.77-2.85c.36-.34.69-.7,1-1a25.89,25.89,0,0,0-2.07-2.5,26.2,26.2,0,0,0-2-1.9A10.79,10.79,0,0,1,260.21,98.79Z"/><path class="cls-37" d="M263,108.44c.17,1.38-.27,2.83.23,4.15,3.49-.31,6-3,8.1-5.62a1.63,1.63,0,0,0,.43-.82,1.5,1.5,0,0,0-.16-.74c-.18-.47-.4-.93-.62-1.38a17.26,17.26,0,0,1-4.94,3C265.05,107.54,264,108,263,108.44Z"/><path class="cls-36" d="M250.89,88.49c1.33.27,2.7.32,4,.63A21.12,21.12,0,0,1,261,92a6.87,6.87,0,0,1,1.84,1.44c.71.9.9,2.1,1.75,2.88,2.14-1.27,2.83-3.85,3.25-6.19a1.31,1.31,0,0,0,0-.68,1.4,1.4,0,0,0-.37-.44,19.52,19.52,0,0,0-6.11-3.74,36.13,36.13,0,0,0-10.8-1.88,7.75,7.75,0,0,1-3.07-.61,25.55,25.55,0,0,0-2.46-1.57c-1.08-.4-1.56,1.26-1.54,2s.56,1.28,1.13,1.85A12.67,12.67,0,0,0,250.89,88.49Z"/><path class="cls-2" d="M247.7,87.32c.4-.49.83-1,1.23-1.46a6.77,6.77,0,0,0,1.38-2.48,7.12,7.12,0,0,1-2.79-.59,25.55,25.55,0,0,0-2.46-1.57c-1.08-.4-1.56,1.26-1.54,2s.56,1.28,1.13,1.85A13.32,13.32,0,0,0,247.7,87.32Z"/><path class="cls-2" d="M253.48,88.87c.48.07,1,.14,1.43.25a11.56,11.56,0,0,1,1.73.54l1.18-1.56a7.15,7.15,0,0,0,1.58-3.46,30.55,30.55,0,0,0-4.24-.83c-.18.9-.39,1.8-.66,2.69A10.16,10.16,0,0,1,253.48,88.87Z"/><path class="cls-2" d="M261.87,90.36a6.73,6.73,0,0,1-1.3,1.37L261,92a6.87,6.87,0,0,1,1.84,1.44l.14.2,1.49-1.83a11.67,11.67,0,0,0,2.11-3.53,19.64,19.64,0,0,0-3-2c-.1.34-.19.68-.3,1A11.21,11.21,0,0,1,261.87,90.36Z"/><path class="cls-37" d="M247.7,87.32a11.94,11.94,0,0,0,3.19,1.17c.86.17,1.73.26,2.59.38a10.16,10.16,0,0,0,1-2.37c.27-.89.48-1.79.66-2.69-1.52-.2-3-.32-4.57-.41l-.28,0a6.77,6.77,0,0,1-1.38,2.48C248.53,86.35,248.1,86.83,247.7,87.32Z"/><path class="cls-37" d="M257.82,88.1l-1.18,1.56a26.29,26.29,0,0,1,3.93,2.07,6.73,6.73,0,0,0,1.3-1.37,11.21,11.21,0,0,0,1.43-3c.11-.33.2-.67.3-1a20.14,20.14,0,0,0-2.21-1c-.66-.25-1.32-.45-2-.64A7.15,7.15,0,0,1,257.82,88.1Z"/><path class="cls-37" d="M263,93.65c.6.86.82,2,1.61,2.68,2.14-1.27,2.83-3.85,3.25-6.19a1.31,1.31,0,0,0,0-.68,1.4,1.4,0,0,0-.37-.44c-.28-.26-.59-.49-.88-.73a11.67,11.67,0,0,1-2.11,3.53Z"/><path class="cls-38" d="M228.53,88.17c4.25,1.62,8.86,2.83,13.34,2.17s8.74-3.58,9.56-7.73a4.57,4.57,0,0,0-.3-3,3,3,0,0,0-2.6-1.6,5.8,5.8,0,0,0-2.83,1.36,16.85,16.85,0,0,1-7.64,2.22,33.32,33.32,0,0,1-8.58-.17c-1.65-.26-4.2-1.65-5.84-1.42-2.06.3-1.54,3.06-.77,4.35C224,86.32,226.43,87.37,228.53,88.17Z"/><path class="cls-2" d="M234.43,87.59a8.22,8.22,0,0,1,0-5.8,31,31,0,0,1-3.48-.16,4.92,4.92,0,0,0-.55,1.32c-.29,1.42.77,5.51.9,6.1l0,.1a31.49,31.49,0,0,0,4.73,1.11A12.14,12.14,0,0,1,234.43,87.59Z"/><path class="cls-2" d="M241.64,89.6a2.4,2.4,0,0,0,.65.66,13.75,13.75,0,0,0,4.38-1.57l-.62-.52a13.6,13.6,0,0,1-2.32-2.29,8.46,8.46,0,0,1-1.49-5,25,25,0,0,1-3.86.69,6.43,6.43,0,0,0-.15,1.9C238.45,85.08,241.26,89,241.64,89.6Z"/><path class="cls-2" d="M227.68,80.93a10.21,10.21,0,0,0-4-.91c-2.06.3-1.54,3.06-.77,4.35a8.12,8.12,0,0,0,3.64,2.94,7.85,7.85,0,0,1-.28-1.79A8,8,0,0,1,227.68,80.93Z"/><path class="cls-2" d="M249.78,86.08a8.09,8.09,0,0,0,1.65-3.47,4.57,4.57,0,0,0-.3-3,3,3,0,0,0-2.6-1.6,5.8,5.8,0,0,0-2.83,1.36c-.13.09-.28.16-.41.24a7.81,7.81,0,0,0,.4,1.92C246.22,82.77,248.89,85.25,249.78,86.08Z"/><path class="cls-37" d="M230.44,83a4.92,4.92,0,0,1,.55-1.32c-.51-.06-1-.11-1.51-.19a10.43,10.43,0,0,1-1.8-.51,8,8,0,0,0-1.45,4.59,7.85,7.85,0,0,0,.28,1.79c.67.32,1.36.61,2,.86.93.35,1.88.68,2.84,1l0-.1C231.21,88.46,230.15,84.37,230.44,83Z"/><path class="cls-37" d="M234.43,87.59a12.14,12.14,0,0,0,1.67,2.67,19.59,19.59,0,0,0,5.77.08l.42-.08a2.4,2.4,0,0,1-.65-.66c-.38-.58-3.19-4.52-3.41-6.12a6.43,6.43,0,0,1,.15-1.9l-.32,0c-1.19.12-2.39.17-3.59.18A8.22,8.22,0,0,0,234.43,87.59Z"/><path class="cls-37" d="M246.05,88.17l.62.52a11.15,11.15,0,0,0,3.11-2.61c-.89-.83-3.56-3.31-4.09-4.53a7.81,7.81,0,0,1-.4-1.92,13,13,0,0,1-3,1.26,8.46,8.46,0,0,0,1.49,5A13.6,13.6,0,0,0,246.05,88.17Z"/></g><g class="cls-3"><path class="cls-39" d="M295.29,185a31.36,31.36,0,0,0-3.39-.15c-1.55,0-2.81.05-3.8.15a15.83,15.83,0,0,1,.18-2.76,1.56,1.56,0,0,0,1.11-.49,2.9,2.9,0,0,0,.55-1.49,21.32,21.32,0,0,0,.16-3.07v-6.41a12.37,12.37,0,0,0-.61-4.64,1.9,1.9,0,0,0-1.73-1.35c-.85,0-1.57.72-2.15,2.16a17.74,17.74,0,0,0-.87,6.33v4.38a10.64,10.64,0,0,0,.39,3.54,1.63,1.63,0,0,0,1.47,1,16.45,16.45,0,0,1,.17,2.76,36.78,36.78,0,0,0-3.71-.15c-1.45,0-2.69.05-3.74.15a15.22,15.22,0,0,1,.18-2.76,1.84,1.84,0,0,0,1.14-.52,2.84,2.84,0,0,0,.55-1.48,23,23,0,0,0,.16-3.21v-6.56a11.88,11.88,0,0,0-.61-4.56,1.92,1.92,0,0,0-1.8-1.33,1.87,1.87,0,0,0-1.46,1,8.26,8.26,0,0,0-1.1,2.89,22.44,22.44,0,0,0-.42,4.69v4.54a17.37,17.37,0,0,0,.16,2.76,2.43,2.43,0,0,0,.55,1.33,1.94,1.94,0,0,0,1.14.49A15.83,15.83,0,0,1,278,185a38.33,38.33,0,0,0-3.83-.15,36.21,36.21,0,0,0-3.74.15,15,15,0,0,1,.18-2.71,1.83,1.83,0,0,0,1.56-1.06,10,10,0,0,0,.41-3.52v-8.81a14.42,14.42,0,0,0-.15-2.42,2,2,0,0,0-.61-1.22,2.45,2.45,0,0,0-1.42-.53,8.74,8.74,0,0,1,.32-2.44,9.47,9.47,0,0,0,2.41-.63,5.88,5.88,0,0,0,2-1.15c.5.32.75,1.13.75,2.45,0,.7-.07,1.83-.2,3.39a11.86,11.86,0,0,1,.67-2.29,7.36,7.36,0,0,1,1.69-2.45,3.37,3.37,0,0,1,2.39-1,3.17,3.17,0,0,1,2.35,1,6.56,6.56,0,0,1,1.51,3.18,7.43,7.43,0,0,1,.23,1.56,9.14,9.14,0,0,1,2.33-4.53,3.27,3.27,0,0,1,2.31-1,3.55,3.55,0,0,1,3.19,2.05c.77,1.38,1.15,3.57,1.15,6.6V177a25.27,25.27,0,0,0,.16,3.23,3.06,3.06,0,0,0,.5,1.49,1.53,1.53,0,0,0,1,.49A17.13,17.13,0,0,1,295.29,185Z"/><path class="cls-39" d="M308.93,180a4.32,4.32,0,0,1,.24,1.26,8.14,8.14,0,0,1-2.37,3,5,5,0,0,1-3.05,1q-3.24,0-4.92-3.44a20.37,20.37,0,0,1-1.68-8.91,23.87,23.87,0,0,1,.78-6.36,11.11,11.11,0,0,1,2.23-4.46,4.4,4.4,0,0,1,3.36-1.64,4.48,4.48,0,0,1,4.23,3,20.49,20.49,0,0,1,1.54,8,7.08,7.08,0,0,1-.58,2.13c-3,0-5.62.11-7.94.32a16.89,16.89,0,0,0,1.17,5.78,3.13,3.13,0,0,0,2.92,2.19,3.27,3.27,0,0,0,1.94-.71,5.66,5.66,0,0,0,1.65-2A2.5,2.5,0,0,1,308.93,180Zm-7.41-14.87a17.61,17.61,0,0,0-.81,5.7h5.07a19,19,0,0,0-.63-5.49q-.64-2-1.77-2C302.62,163.34,302,163.94,301.52,165.14Z"/><path class="cls-39" d="M322.67,165.48c-.05,1.32-.07,2.5-.05,3.54a2.57,2.57,0,0,1-.91.42,4.61,4.61,0,0,1-1.12.15,10.1,10.1,0,0,0-.39-3c-.22-.56-.54-.83-1-.83s-.64.32-1,1a9.59,9.59,0,0,0-.9,2.55,15.18,15.18,0,0,0-.36,3.36v3.81a16.16,16.16,0,0,0,.28,3.46,3.05,3.05,0,0,0,.85,1.72,2.91,2.91,0,0,0,1.62.6,15.22,15.22,0,0,1,.18,2.76c-.95-.1-2.31-.15-4.09-.15q-3,0-4.38.15a17.67,17.67,0,0,1,.15-2.76,2.06,2.06,0,0,0,1.23-.52,2.65,2.65,0,0,0,.6-1.43,19.64,19.64,0,0,0,.17-2.95v-8.65a13.1,13.1,0,0,0-.15-2.26,2.11,2.11,0,0,0-.6-1.23,2.33,2.33,0,0,0-1.4-.47,7.91,7.91,0,0,1,.29-2.44,7.56,7.56,0,0,0,2.53-.6,7.27,7.27,0,0,0,2-1.18q.72.53.72,2.61a23,23,0,0,1-.13,2.42c-.09.85-.18,1.7-.28,2.53l.29-1.46a12.46,12.46,0,0,1,.38-1.46,10.45,10.45,0,0,1,1.58-3.07,2.58,2.58,0,0,1,2-1.15,2.62,2.62,0,0,1,2,1.25C322.78,163,322.71,164.16,322.67,165.48Z"/><path class="cls-39" d="M327.72,183.9a9.6,9.6,0,0,1-2.36-4.17,22.52,22.52,0,0,1-.88-6.75,24,24,0,0,1,.74-6.1,11.68,11.68,0,0,1,2.2-4.63,4.35,4.35,0,0,1,3.46-1.78,5.6,5.6,0,0,1,4.61,2.24q-.25,2.61-.26,6.21a2.49,2.49,0,0,1-1.8.57,13,13,0,0,0-.84-4.59c-.48-1.07-1.1-1.61-1.85-1.61s-1.56.8-2.06,2.39a22.63,22.63,0,0,0-.75,6.52A19.38,19.38,0,0,0,329,179q1.06,2.82,3,2.82a2.7,2.7,0,0,0,1.74-.66,5.14,5.14,0,0,0,1.39-1.85,3.86,3.86,0,0,1,.73,2c-1.06,2.67-2.68,4-4.84,4A4.68,4.68,0,0,1,327.72,183.9Z"/><path class="cls-39" d="M337.87,182.2a1.61,1.61,0,0,0,1.56-1,10.19,10.19,0,0,0,.41-3.54v-9.28a11.37,11.37,0,0,0-.16-2.11,2,2,0,0,0-.62-1.14,2.4,2.4,0,0,0-1.4-.45,7.91,7.91,0,0,1,.29-2.44,7.57,7.57,0,0,0,2.54-.55,4.59,4.59,0,0,0,2-1.23c.49.35.73,1.17.73,2.45v14.75a10.74,10.74,0,0,0,.39,3.52,1.47,1.47,0,0,0,1.38,1,17.66,17.66,0,0,1,.17,2.76,36.23,36.23,0,0,0-3.71-.15,35.54,35.54,0,0,0-3.77.15A15.83,15.83,0,0,1,337.87,182.2Zm1.88-27.64a4.48,4.48,0,0,1-.58-2.37,4.9,4.9,0,0,1,.61-2.61,1.7,1.7,0,0,1,3.06-.05,5.16,5.16,0,0,1,.56,2.61,4.45,4.45,0,0,1-.61,2.39,1.78,1.78,0,0,1-1.56,1A1.71,1.71,0,0,1,339.75,154.56Z"/><path class="cls-39" d="M360.42,181.47a9,9,0,0,1-.24,2.14,6.64,6.64,0,0,0-1.91.55,7.55,7.55,0,0,0-1.83,1.12,1.65,1.65,0,0,1-.6-1,7.76,7.76,0,0,1-.21-2q0-.78.09-1.71a8.18,8.18,0,0,1-1.13,2.81,3.61,3.61,0,0,1-3.22,1.82,3.34,3.34,0,0,1-2.91-1.48,7.28,7.28,0,0,1-1-4.2q0-4.43,2.26-6.28a14.19,14.19,0,0,1,5.54-2.68c0-1.81,0-3.11-.12-3.91a6.57,6.57,0,0,0-.49-2q-.67-1.41-1.71-1.41c-.81,0-1.41.59-1.78,1.78a15.56,15.56,0,0,0-.66,4.16,3.23,3.23,0,0,1-2-.47q.06-1.25.06-2a36.89,36.89,0,0,0-.2-4,10.09,10.09,0,0,1,2.64-1.59,7.1,7.1,0,0,1,2.72-.6,4,4,0,0,1,3.68,2.14,10.07,10.07,0,0,1,1,3.28,42.35,42.35,0,0,1,.29,5.58v5.1a17.26,17.26,0,0,0,.13,2.51,2.09,2.09,0,0,0,.49,1.19,1.85,1.85,0,0,0,1.12.47ZM355.23,173a6.91,6.91,0,0,0-3.16,1.59,4.88,4.88,0,0,0-1.1,3.62,5.43,5.43,0,0,0,.43,2.45,1.28,1.28,0,0,0,1.1.84,1.77,1.77,0,0,0,1.28-.76,6,6,0,0,0,1-2.29,15.1,15.1,0,0,0,.41-3.78Z"/><path class="cls-39" d="M362.44,182.2a1.62,1.62,0,0,0,1.57-1,10.19,10.19,0,0,0,.41-3.54V155.21a6,6,0,0,0-.44-2.68,1.87,1.87,0,0,0-1.74-.86,7.94,7.94,0,0,1,.29-2.45,7.33,7.33,0,0,0,2.54-.55,4.72,4.72,0,0,0,2-1.22c.48.34.73,1.16.73,2.45v27.77a10.74,10.74,0,0,0,.39,3.52,1.47,1.47,0,0,0,1.37,1,16.31,16.31,0,0,1,.18,2.76,36.37,36.37,0,0,0-3.71-.15,35.54,35.54,0,0,0-3.77.15A17.13,17.13,0,0,1,362.44,182.2Z"/><path class="cls-39" d="M383.5,180a4.34,4.34,0,0,1,.25,1.26,8.25,8.25,0,0,1-2.38,3,5,5,0,0,1-3,1q-3.25,0-4.93-3.44a20.37,20.37,0,0,1-1.68-8.91,23.87,23.87,0,0,1,.78-6.36,11.24,11.24,0,0,1,2.23-4.46,4.4,4.4,0,0,1,3.36-1.64,4.5,4.5,0,0,1,4.24,3,20.51,20.51,0,0,1,1.53,8,6.8,6.8,0,0,1-.58,2.13q-4.45,0-7.94.32a16.87,16.87,0,0,0,1.18,5.78,3.11,3.11,0,0,0,2.91,2.19,3.27,3.27,0,0,0,1.94-.71,5.66,5.66,0,0,0,1.65-2A2.22,2.22,0,0,1,383.5,180Zm-7.4-14.87a17.29,17.29,0,0,0-.82,5.7h5.08a18.94,18.94,0,0,0-.64-5.49q-.64-2-1.77-2C377.2,163.34,376.58,163.94,376.1,165.14Z"/><path class="cls-39" d="M394,168.45a9.25,9.25,0,0,0-.93-3.76,2.39,2.39,0,0,0-2.09-1.56,1.45,1.45,0,0,0-1.25.7,3.4,3.4,0,0,0-.46,1.85,4.26,4.26,0,0,0,.22,1.49,4,4,0,0,0,.91,1.33,15.66,15.66,0,0,0,2.18,1.77,13.38,13.38,0,0,1,2.52,2.21,6.76,6.76,0,0,1,1.29,2.32,10.5,10.5,0,0,1,.39,3.08,8.49,8.49,0,0,1-1.58,5.39,5,5,0,0,1-4.13,2,6.64,6.64,0,0,1-5-1.88q.09-1.41.09-3.54c0-.9,0-1.88-.06-2.92a2.36,2.36,0,0,1,1.92-.73,11.78,11.78,0,0,0,1,4.59,2.47,2.47,0,0,0,2.16,1.56,1.88,1.88,0,0,0,1.61-.81,3.45,3.45,0,0,0,.6-2.11,4,4,0,0,0-.58-2.19,9.91,9.91,0,0,0-2.38-2.19A14,14,0,0,1,388,173a6.38,6.38,0,0,1-1.32-2.37,11.93,11.93,0,0,1-.43-3.52,8.11,8.11,0,0,1,.74-3.62,5.45,5.45,0,0,1,1.91-2.24,4.49,4.49,0,0,1,2.45-.76,6.62,6.62,0,0,1,2.45.42,6.11,6.11,0,0,1,2,1.3c0,.45,0,1.15,0,2.09,0,1.28,0,2.41.11,3.38A2.29,2.29,0,0,1,394,168.45Z"/><path class="cls-39" d="M408.35,184.47a13.69,13.69,0,0,1-3-2.42q.29-3,.29-7.82a4.69,4.69,0,0,1,2.11-.42,18,18,0,0,0,1.08,6.46,3.12,3.12,0,0,0,3,2,2.85,2.85,0,0,0,2.6-1.38,6.6,6.6,0,0,0,.85-3.52,7.43,7.43,0,0,0-.54-3,6.87,6.87,0,0,0-1.34-2.11,28,28,0,0,0-2.18-2,24.08,24.08,0,0,1-2.87-2.73,11,11,0,0,1-1.87-3.42,15.87,15.87,0,0,1-.76-5.31,13,13,0,0,1,1.68-7.19,5.16,5.16,0,0,1,4.49-2.56,6.85,6.85,0,0,1,2.9.66,6.41,6.41,0,0,1,2.26,1.64q0,5,.17,7.14a3,3,0,0,1-2.11.67,18.34,18.34,0,0,0-1.19-5.73,2.4,2.4,0,0,0-2.18-1.56,2.49,2.49,0,0,0-2.18,1.2,6,6,0,0,0-.8,3.38,8,8,0,0,0,.56,3.13,7.51,7.51,0,0,0,1.41,2.19A31.13,31.13,0,0,0,413,164a28.78,28.78,0,0,1,2.87,2.77,10.46,10.46,0,0,1,1.87,3.31,14.44,14.44,0,0,1,.77,5,16.36,16.36,0,0,1-.77,5.21,8.09,8.09,0,0,1-2.33,3.65,5.67,5.67,0,0,1-3.86,1.36A6.5,6.5,0,0,1,408.35,184.47Z"/><path class="cls-39" d="M421.8,184.21a6.87,6.87,0,0,1,.07-5.81,2,2,0,0,1,1.76-1.15,1.85,1.85,0,0,1,1.61,1.17,5.62,5.62,0,0,1,.62,2.64,6.25,6.25,0,0,1-.65,3.07,2,2,0,0,1-1.7,1.15A1.9,1.9,0,0,1,421.8,184.21Z"/><path class="cls-39" d="M447.16,185a31.08,31.08,0,0,0-3.65-.15,32.57,32.57,0,0,0-3.8.15,13.06,13.06,0,0,1,.23-2.76,1.92,1.92,0,0,0,1.06-.52,1.58,1.58,0,0,0,.34-1.09,11.14,11.14,0,0,0-.41-2.4l-1-4.06c-3,0-5.45.08-7.36.26L432,177.1a13.8,13.8,0,0,0-.37,2.86,3,3,0,0,0,.34,1.59,1.44,1.44,0,0,0,1.08.65,15.71,15.71,0,0,1,.23,2.76,21.49,21.49,0,0,0-3-.15q-.84,0-2.49.15a13.76,13.76,0,0,1,.23-2.71,2.06,2.06,0,0,0,1.17-1.32,35.36,35.36,0,0,0,1.15-4.2l6-27.2a3.64,3.64,0,0,1,1.42-.26l6.78,27.62c.37,1.46.67,2.54.9,3.25a6.43,6.43,0,0,0,.65,1.52,1.26,1.26,0,0,0,.77.54A18.07,18.07,0,0,1,447.16,185Zm-7.82-13.49-1.89-7.92c-.52-2.09-1-4.15-1.33-6.2q-.53,3-1.19,6.2l-1.68,7.92Z"/><path class="cls-39" d="M449.89,184.21a6.87,6.87,0,0,1,.07-5.81,2,2,0,0,1,1.75-1.15,1.84,1.84,0,0,1,1.61,1.17,5.5,5.5,0,0,1,.62,2.64,6.14,6.14,0,0,1-.65,3.07,1.93,1.93,0,0,1-1.69,1.15A1.88,1.88,0,0,1,449.89,184.21Z"/><path class="cls-39" d="M460,184.47a13.46,13.46,0,0,1-3-2.42q.28-3,.29-7.82a4.69,4.69,0,0,1,2.11-.42,18.25,18.25,0,0,0,1.07,6.46,3.13,3.13,0,0,0,3,2,2.84,2.84,0,0,0,2.59-1.38,6.6,6.6,0,0,0,.86-3.52,7.43,7.43,0,0,0-.54-3,7.08,7.08,0,0,0-1.35-2.11,27.58,27.58,0,0,0-2.17-2,24.08,24.08,0,0,1-2.87-2.73,10.77,10.77,0,0,1-1.87-3.42,15.85,15.85,0,0,1-.77-5.31,13,13,0,0,1,1.68-7.19,5.17,5.17,0,0,1,4.5-2.56,6.85,6.85,0,0,1,2.9.66,6.41,6.41,0,0,1,2.26,1.64c0,3.33.05,5.71.17,7.14a3,3,0,0,1-2.12.67,18.41,18.41,0,0,0-1.18-5.73,2.41,2.41,0,0,0-2.18-1.56,2.5,2.5,0,0,0-2.19,1.2,6.08,6.08,0,0,0-.79,3.38,7.78,7.78,0,0,0,.56,3.13,7.51,7.51,0,0,0,1.41,2.19,31.13,31.13,0,0,0,2.29,2.13,28.78,28.78,0,0,1,2.87,2.77,10.65,10.65,0,0,1,1.87,3.31,14.45,14.45,0,0,1,.76,5,16.37,16.37,0,0,1-.76,5.21,8.1,8.1,0,0,1-2.34,3.65,5.65,5.65,0,0,1-3.85,1.36A6.5,6.5,0,0,1,460,184.47Z"/></g><g id="text1225"><path id="path2041" class="cls-40" d="M17.44,185.78a11.17,11.17,0,0,1-4.57-.92A19.81,19.81,0,0,1,8.59,182,79.77,79.77,0,0,0,9,172.86a7.93,7.93,0,0,1,3-.49c.14,3.45.64,6,1.52,7.56a4.53,4.53,0,0,0,4.28,2.37,4.32,4.32,0,0,0,3.67-1.58,6.74,6.74,0,0,0,1.23-4.14,7.3,7.3,0,0,0-.78-3.48A7.94,7.94,0,0,0,20,170.67,30.12,30.12,0,0,0,17,168.29a34,34,0,0,1-4.08-3.17,12.81,12.81,0,0,1-2.67-4,15.74,15.74,0,0,1-1.07-6.22c0-3.61.79-6.41,2.39-8.4a7.74,7.74,0,0,1,6.37-3,11.13,11.13,0,0,1,4.12.79,8.86,8.86,0,0,1,3.21,1.89q0,5.85.25,8.35a4.87,4.87,0,0,1-3,.79q-.57-4.87-1.68-6.7a3.45,3.45,0,0,0-3.09-1.83,3.85,3.85,0,0,0-3.13,1.4,6.26,6.26,0,0,0-1.11,4,8,8,0,0,0,.78,3.66,9.06,9.06,0,0,0,2,2.56c.79.69,1.88,1.52,3.25,2.5a38.1,38.1,0,0,1,4.07,3.22,11.63,11.63,0,0,1,2.64,3.9,13.81,13.81,0,0,1,1.11,5.85,15.83,15.83,0,0,1-1.11,6.1,9.34,9.34,0,0,1-3.29,4.26,9.2,9.2,0,0,1-5.48,1.59Z"/><path id="path2043" class="cls-40" d="M38.82,186a7.26,7.26,0,0,1-6.27-3.29q-2.25-3.33-2.25-9a17.71,17.71,0,0,1,1.11-6.52,10.32,10.32,0,0,1,3-4.43,6.93,6.93,0,0,1,4.44-1.57,7.18,7.18,0,0,1,6.31,3.39q2.25,3.34,2.25,8.92A18.15,18.15,0,0,1,46.38,180a10.4,10.4,0,0,1-3,4.43A7,7,0,0,1,38.82,186Zm.4-2.92c1.21,0,2.14-.79,2.79-2.35a17.24,17.24,0,0,0,1-6.31,22.52,22.52,0,0,0-.61-5.53,9.44,9.44,0,0,0-1.65-3.6A2.86,2.86,0,0,0,38.5,164c-1.19,0-2.11.77-2.76,2.3a16.33,16.33,0,0,0-.93,6A21,21,0,0,0,36,180.17c.79,1.91,1.86,2.87,3.23,2.87Z"/><path id="path2045" class="cls-40" d="M49.64,185.64a13.55,13.55,0,0,1,.21-2.76,2.11,2.11,0,0,0,1.94-1,8.56,8.56,0,0,0,.5-3.55V155.87a4.85,4.85,0,0,0-.54-2.66,2.46,2.46,0,0,0-2.15-.89,6.45,6.45,0,0,1,.36-2.45,11.76,11.76,0,0,0,3.12-.52,6.49,6.49,0,0,0,2.5-1.25c.6.34.9,1.16.9,2.45v27.79a9.32,9.32,0,0,0,.46,3.55,1.92,1.92,0,0,0,1.72,1,13.17,13.17,0,0,1,.22,2.76q-1.73-.15-4.59-.15-3,0-4.65.15Z"/><path id="path2047" class="cls-40" d="M79.88,181.42a8.07,8.07,0,0,1-.29,2.87,9.87,9.87,0,0,0-2.43.57,8.68,8.68,0,0,0-2.29,1.1,1.85,1.85,0,0,1-.79-.89,6.32,6.32,0,0,1-.25-2.14,18.78,18.78,0,0,1,.14-2.24,8.69,8.69,0,0,1-1.18,2.5,6.08,6.08,0,0,1-2,1.93,5.24,5.24,0,0,1-2.62.63,4.37,4.37,0,0,1-4-2.14q-1.29-2.19-1.29-7.3v-7a13,13,0,0,0-.15-2.29,1.9,1.9,0,0,0-.64-1.2,2.56,2.56,0,0,0-1.54-.47,8,8,0,0,1,.28-2.45,9.9,9.9,0,0,0,2.94-.58,8.93,8.93,0,0,0,2.4-1.2q.9.52.9,2.61v11.37a17.4,17.4,0,0,0,.57,5.21,2.1,2.1,0,0,0,2,1.62q1.71,0,2.79-2.19a15.17,15.17,0,0,0,1.07-6.41v-4.28a9.14,9.14,0,0,0-.21-2.24,2,2,0,0,0-.75-1.25,2.94,2.94,0,0,0-1.69-.47c0-.59,0-1.06,0-1.41a4.53,4.53,0,0,1,.25-1,14.81,14.81,0,0,0,3.26-.47,9.14,9.14,0,0,0,2.4-1.05q.9.52.9,2.61v13.77a7.91,7.91,0,0,0,.39,3.07,2,2,0,0,0,1.79.84Z"/><path id="path2049" class="cls-40" d="M90.44,186a6.63,6.63,0,0,1-4-1.36,9.66,9.66,0,0,1-2.94-4.17,19.22,19.22,0,0,1-1.07-6.78,20.54,20.54,0,0,1,.89-6.1A11.24,11.24,0,0,1,86,162.91a5.93,5.93,0,0,1,4.29-1.78,7.58,7.58,0,0,1,5.7,2.25,52.31,52.31,0,0,0-.32,6.2,3.55,3.55,0,0,1-2.22.57,10.64,10.64,0,0,0-1-4.58A2.63,2.63,0,0,0,90.16,164q-1.62,0-2.55,2.4a18.51,18.51,0,0,0-.93,6.52A16.21,16.21,0,0,0,88,179.65q1.32,2.81,3.69,2.81a4.06,4.06,0,0,0,2.15-.62A5.92,5.92,0,0,0,95.53,180a3.37,3.37,0,0,1,.89,2q-2,4-6,4Z"/><path id="path2051" class="cls-40" d="M103.12,156.18a2.17,2.17,0,0,1-1.82-.94,4,4,0,0,1-.72-2.4,4.21,4.21,0,0,1,.75-2.61,2.27,2.27,0,0,1,1.87-1,2.21,2.21,0,0,1,1.89.94,4.22,4.22,0,0,1,.72,2.61,3.86,3.86,0,0,1-.75,2.4A2.33,2.33,0,0,1,103.12,156.18Zm-4.37,29.46a13.41,13.41,0,0,1,.22-2.76,2.1,2.1,0,0,0,1.93-1,8.4,8.4,0,0,0,.5-3.55v-9.28a8,8,0,0,0-.21-2.09,1.74,1.74,0,0,0-.75-1.14,3.12,3.12,0,0,0-1.72-.47,6.42,6.42,0,0,1,.36-2.45,11.3,11.3,0,0,0,3.11-.53,6.34,6.34,0,0,0,2.51-1.25c.6.35.9,1.17.9,2.45v14.76a9.32,9.32,0,0,0,.46,3.55,1.92,1.92,0,0,0,1.72,1,13.9,13.9,0,0,1,.22,2.76q-1.73-.15-4.59-.15c-2,0-3.58,0-4.66.15Z"/><path id="path2054" class="cls-40" d="M118.79,186a7.26,7.26,0,0,1-6.27-3.29c-1.5-2.22-2.26-5.23-2.26-9a17.71,17.71,0,0,1,1.11-6.52,10.33,10.33,0,0,1,3-4.43,6.91,6.91,0,0,1,4.44-1.57,7.18,7.18,0,0,1,6.31,3.39q2.25,3.34,2.25,8.92a18.38,18.38,0,0,1-1.07,6.52,10.33,10.33,0,0,1-3,4.43,7,7,0,0,1-4.51,1.57Zm.39-2.92c1.22,0,2.15-.79,2.8-2.35a17.26,17.26,0,0,0,1-6.31,22.55,22.55,0,0,0-.6-5.53,9.44,9.44,0,0,0-1.65-3.6,2.86,2.86,0,0,0-2.22-1.25c-1.2,0-2.12.77-2.76,2.3a16.33,16.33,0,0,0-.93,6,21,21,0,0,0,1.18,7.83q1.19,2.87,3.22,2.87Z"/><path id="path2056" class="cls-40" d="M149.7,182.88a13.13,13.13,0,0,1,.25,2.76q-1.62-.15-4.23-.15c-.91,0-2.47,0-4.69.15a10.89,10.89,0,0,1,.25-2.76,1.81,1.81,0,0,0,1.72-1,8.71,8.71,0,0,0,.54-3.65v-6.73a9.91,9.91,0,0,0-.79-4.64,2.4,2.4,0,0,0-4.09-.47,6.91,6.91,0,0,0-1.39,2.87,17.22,17.22,0,0,0-.54,4.69v4.43a9,9,0,0,0,.5,3.6,1.82,1.82,0,0,0,1.76.94,12.22,12.22,0,0,1,.25,2.76q-3.12-.15-4.59-.15c-2.12,0-3.71,0-4.76.15a12.71,12.71,0,0,1,.21-2.76,2,2,0,0,0,1.9-.94,8.29,8.29,0,0,0,.54-3.6v-9a10.61,10.61,0,0,0-.18-2.24,2,2,0,0,0-.75-1.25,3.15,3.15,0,0,0-1.72-.47,6.42,6.42,0,0,1,.36-2.45,11.47,11.47,0,0,0,3.11-.58,9.62,9.62,0,0,0,2.47-1.2q.9.52.9,2.61a17.85,17.85,0,0,1-.29,3.08c0-.11.11-.35.25-.73a8.13,8.13,0,0,1,.54-1.2,7.12,7.12,0,0,1,2.08-2.45,4.82,4.82,0,0,1,3-1.05,4.68,4.68,0,0,1,3.9,2.09c1,1.36,1.54,3.49,1.54,6.41v8.45a10.37,10.37,0,0,0,.43,3.6,1.56,1.56,0,0,0,1.51.94Z"/><path id="path2058" class="cls-40" d="M166.21,179.8a2.07,2.07,0,0,1,.57.89,3.42,3.42,0,0,1,.33,1.25,9,9,0,0,1-2.94,3.08,7.52,7.52,0,0,1-3.76.94,6.68,6.68,0,0,1-6.09-3.45,17,17,0,0,1-2.08-8.91,19.41,19.41,0,0,1,1-6.37A10.31,10.31,0,0,1,156,162.8a5.91,5.91,0,0,1,4.15-1.67,5.63,5.63,0,0,1,5.23,3,17.1,17.1,0,0,1,1.9,8,5.85,5.85,0,0,1-.72,2.14c-3.67,0-6.95.11-9.81.32a14.35,14.35,0,0,0,1.43,5.78,3.91,3.91,0,0,0,3.62,2.19,4.79,4.79,0,0,0,2.4-.67,6.61,6.61,0,0,0,2-2ZM159.94,164c-.93,0-1.69.61-2.29,1.83a14.13,14.13,0,0,0-1,5.68h6.27a15.43,15.43,0,0,0-.79-5.48C161.6,164.68,160.87,164,159.94,164Z"/><path id="path2060" class="cls-40" d="M182.09,168.33a3.25,3.25,0,0,1-2.26.78,7.79,7.79,0,0,0-1.15-3.75,3,3,0,0,0-2.58-1.57,1.88,1.88,0,0,0-1.54.73,2.75,2.75,0,0,0-.57,1.83,4,4,0,0,0,.25,1.51,4.4,4.4,0,0,0,1.15,1.3,18.85,18.85,0,0,0,2.68,1.78,15,15,0,0,1,3.12,2.24,6,6,0,0,1,1.58,2.29,8.42,8.42,0,0,1,.5,3.08,7.46,7.46,0,0,1-2,5.42,6.77,6.77,0,0,1-5.09,2,10.85,10.85,0,0,1-3.47-.47,9.37,9.37,0,0,1-2.73-1.41c.08-.94.11-2.12.11-3.55,0-.9,0-1.88-.07-2.92a3.32,3.32,0,0,1,2.36-.73,10.16,10.16,0,0,0,1.26,4.59,3.13,3.13,0,0,0,2.68,1.57,2.53,2.53,0,0,0,2-.79,3,3,0,0,0,.76-2.13,3.4,3.4,0,0,0-.72-2.2,11.62,11.62,0,0,0-2.94-2.19,17.5,17.5,0,0,1-3.08-2.08,6.37,6.37,0,0,1-1.61-2.35,10,10,0,0,1-.54-3.54,6.72,6.72,0,0,1,.9-3.6,5.88,5.88,0,0,1,2.36-2.24,6.33,6.33,0,0,1,3.05-.79,9.77,9.77,0,0,1,3,.42,8,8,0,0,1,2.47,1.3c0,.46,0,1.15,0,2.09a33.51,33.51,0,0,0,.15,3.39Z"/></g><g id="text1237" class="cls-3"><g class="cls-3"><path class="cls-41" d="M240.61,184q-4.44-4.32-4.44-11.72a16.52,16.52,0,0,1,2.17-8.53,14.89,14.89,0,0,1,6-5.74,18,18,0,0,1,8.63-2q7.91,0,12.3,4.38T269.66,172a16.78,16.78,0,0,1-2.1,8.49,14.78,14.78,0,0,1-5.91,5.74,18.1,18.1,0,0,1-8.84,2.08Q245.05,188.34,240.61,184ZM259,181.44a15.56,15.56,0,0,0,1.89-8.19,19.89,19.89,0,0,0-1.19-7.2,11.06,11.06,0,0,0-3.18-4.69,6.75,6.75,0,0,0-4.37-1.63,5.94,5.94,0,0,0-5.35,3A14.85,14.85,0,0,0,245,170.6q0,6.47,2.31,10.19a7.05,7.05,0,0,0,6.29,3.74A6,6,0,0,0,259,181.44Z"/></g></g><path class="cls-39" d="M226.47,197.49A28,28,0,0,1,216,186.26a42.25,42.25,0,0,1-4.65-17.14q-.75-10.5,2.65-18.16a26.76,26.76,0,0,1,23.14-16.5,34.91,34.91,0,0,1,9.47.61,44,44,0,0,1,9.31,3.1,93.23,93.23,0,0,0,.13,14.86,12,12,0,0,1-5.44,1.33q-.79-8.87-3.92-12.15t-8.62-2.92q-8.93.61-12.75,8.16t-3.06,18.34a45.85,45.85,0,0,0,3.4,14.92,23.65,23.65,0,0,0,7.58,10,16.16,16.16,0,0,0,11,3.09,22.66,22.66,0,0,0,7.41-1.85,29.07,29.07,0,0,0,7.07-4.32,5.63,5.63,0,0,1,1.2,1.55,7.88,7.88,0,0,1,.8,1.86,33.31,33.31,0,0,1-9,6.9,28.2,28.2,0,0,1-10.94,2.81A24.39,24.39,0,0,1,226.47,197.49Z"/><path class="cls-40" d="M0,190.15v2.51H217.63c-.64-.79-1.24-1.64-1.82-2.51Z"/><path class="cls-40" d="M478.77,190.15h-216c0,.12.08.23.11.35l.32,1.19-.85.9a.46.46,0,0,1-.07.07H478.77Z"/></g></g></svg>