<?xml version="1.0" encoding="utf-8"?>
<!-- Generator: Adobe Illustrator 25.0.0, SVG Export Plug-In . SVG Version: 6.00 Build 0)  -->
<svg version="1.1" id="Layer_1" xmlns="http://www.w3.org/2000/svg" xmlns:xlink="http://www.w3.org/1999/xlink" x="0px" y="0px"
	 viewBox="0 0 34.5 34.5" style="enable-background:new 0 0 34.5 34.5;" xml:space="preserve">
<style type="text/css">
	.st0{fill:#4C4C4C;}
	.st1{fill:#FFFFFF;}
</style>
<g id="Layer_2_1_">
	<g id="Layer_1-2">
		<path class="st0" d="M7.6,0h19.3c4.2,0,7.6,3.7,7.6,8.2v18.1c0,4.5-3.4,8.2-7.6,8.2H7.6c-4.2,0-7.6-3.7-7.6-8.2V8.2
			C0,3.7,3.4,0,7.6,0z"/>
		<path class="st1" d="M10.2,8.3h14.1c0.8,0,1.4,0.7,1.4,1.5v0c0,0.8-0.6,1.5-1.4,1.5H10.2c-0.8,0-1.4-0.7-1.4-1.5v0
			C8.8,8.9,9.4,8.3,10.2,8.3z"/>
		<path class="st1" d="M10.2,16.1h14.1c0.8,0,1.4,0.7,1.4,1.5v0c0,0.8-0.6,1.5-1.4,1.5H10.2c-0.8,0-1.4-0.7-1.4-1.5v0
			C8.8,16.7,9.4,16.1,10.2,16.1z"/>
		<path class="st1" d="M10.2,23.9h14.1c0.8,0,1.4,0.7,1.4,1.5v0c0,0.8-0.6,1.5-1.4,1.5H10.2c-0.8,0-1.4-0.7-1.4-1.5v0
			C8.8,24.5,9.4,23.9,10.2,23.9z"/>
	</g>
</g>
</svg>
