<svg xmlns="http://www.w3.org/2000/svg" viewBox="0 0 67.98 68.05"><defs><style>.cls-1{isolation:isolate;}.cls-2{fill:#fafdfc;}.cls-3{fill:#666;mix-blend-mode:multiply;}</style></defs><g class="cls-1"><g id="Layer_2" data-name="Layer 2"><g id="Layer_1-2" data-name="Layer 1"><path class="cls-2" d="M0,68.05,3.31,56.26c.42-1.49.82-3,1.27-4.46a1.43,1.43,0,0,0-.13-1.24A33,33,0,0,1,.1,34.26,33.3,33.3,0,0,1,6.26,14.51,33.49,33.49,0,0,1,23.09,1.86,32.1,32.1,0,0,1,39.63.53c12,2.23,20.6,9,25.59,20.17a31.75,31.75,0,0,1,2.23,18.83C65.54,50.28,59.8,58.47,50.26,63.66,40,69.28,29.31,69.34,18.71,64.2A3.53,3.53,0,0,0,16,63.9C10.76,65.31,5.47,66.64,0,68.05ZM62.21,34.7a31.52,31.52,0,0,0-1.8-10.56A28.14,28.14,0,0,0,6.09,30.47a27.69,27.69,0,0,0,4.46,19.05,1.75,1.75,0,0,1,.22,1.58c-.77,2.66-1.48,5.35-2.28,8-.25.84,0,.82.67.64,2.72-.72,5.44-1.4,8.16-2.12a2.16,2.16,0,0,1,1.84.25,27.73,27.73,0,0,0,23.14,3C54,57.36,62.19,46.25,62.21,34.7Z"/><path class="cls-3" d="M62.21,34.7c0,11.55-8.18,22.66-19.91,26.16a27.73,27.73,0,0,1-23.14-3,2.16,2.16,0,0,0-1.84-.25c-2.72.72-5.44,1.4-8.16,2.12-.66.18-.92.2-.67-.64.8-2.66,1.51-5.35,2.28-8a1.75,1.75,0,0,0-.22-1.58A27.69,27.69,0,0,1,6.09,30.47a28.14,28.14,0,0,1,54.32-6.33A31.52,31.52,0,0,1,62.21,34.7Zm-39-16.59a3.43,3.43,0,0,0-2.9.68,9.4,9.4,0,0,0-3.07,9.75,21.89,21.89,0,0,0,4.49,8.56,35.53,35.53,0,0,0,18,12.6c4.92,1.47,10.6-.46,11.52-6.59a1.55,1.55,0,0,0-.95-2c-2.25-1-4.48-2-6.7-3.09a1.4,1.4,0,0,0-2,.5c-.8,1.09-1.66,2.15-2.49,3.23a1,1,0,0,1-1.3.45A22.7,22.7,0,0,1,25.78,32,1.19,1.19,0,0,1,26,30.49c.74-.82,1.43-1.69,2.18-2.5a1.76,1.76,0,0,0,.34-2.16c-.83-1.87-1.71-3.73-2.4-5.66C25.52,18.66,24.73,17.76,23.16,18.11Z"/><path class="cls-2" d="M23.16,18.11c1.57-.35,2.36.55,2.91,2.06.69,1.93,1.57,3.79,2.4,5.66A1.76,1.76,0,0,1,28.13,28c-.75.81-1.44,1.68-2.18,2.5A1.19,1.19,0,0,0,25.78,32a22.7,22.7,0,0,0,12,10.19,1,1,0,0,0,1.3-.45c.83-1.08,1.69-2.14,2.49-3.23a1.4,1.4,0,0,1,2-.5c2.22,1.05,4.45,2.1,6.7,3.09a1.55,1.55,0,0,1,.95,2c-.92,6.13-6.6,8.06-11.52,6.59a35.53,35.53,0,0,1-18-12.6,21.89,21.89,0,0,1-4.49-8.56,9.4,9.4,0,0,1,3.07-9.75A3.43,3.43,0,0,1,23.16,18.11Z"/></g></g></g></svg>