<?xml version="1.0" encoding="utf-8"?>
<!-- Generator: Adobe Illustrator 24.1.0, SVG Export Plug-In . SVG Version: 6.00 Build 0)  -->
<svg version="1.1" id="Capa_1" xmlns="http://www.w3.org/2000/svg" xmlns:xlink="http://www.w3.org/1999/xlink" x="0px" y="0px"
	 viewBox="0 0 357.9 161.6" style="enable-background:new 0 0 357.9 161.6;" xml:space="preserve">
<style type="text/css">
	.st0{fill:#070308;}
	.st1{fill:none;stroke:#070308;stroke-width:1.563;}
	.st2{fill:#070308;stroke:#000000;stroke-width:2;stroke-miterlimit:10;}
	.st3{fill:#22201F;}
	.st4{fill:none;}
	.st5{fill:#FFFFFF;}
	.st6{fill:#413C3D;}
	.st7{fill:#EBEAE9;}
	.st8{fill:#C0815E;}
	.st9{fill:#852626;}
	.st10{fill:#81B8B2;}
	.st11{fill:#B6D3D4;}
	.st12{fill:#B52E2D;}
	.st13{fill:#BA2E2C;}
	.st14{fill:#BD2C2E;}
</style>
<g>
	<path class="st0" d="M219.2,41.3c-4.2-7.5-10-13.3-17.5-17.4s-15.9-6.2-25.3-6.2c-9.1,0-17.4,2.1-24.9,6.3s-13.4,10-17.7,17.5
		c-4.3,7.5-6.5,16-6.5,25.5c0,9.4,2,17.9,6.2,25.5c4.1,7.6,9.9,13.5,17.3,17.8c3.3,1.9,6.9,3.4,10.7,4.5c1.6-2.8,3.7-5.1,6.2-6.8
		c0.1-0.1,0.2-0.1,0.2-0.2c-2.9-1.1-5.7-2.6-8.2-4.6c-5.5-4.3-9.8-10.1-12.7-17.2c-2.9-7.1-4.4-14.8-4.4-23c0-7.6,1.3-14.3,3.9-20.1
		s6.3-10.3,10.9-13.5c4.6-3.2,9.9-4.9,15.7-4.9c6.9,0,13.2,2,18.9,6.1c5.6,4.1,10.1,9.6,13.3,16.7s4.8,14.8,4.8,23.2
		c0,7.3-1.2,14-3.7,19.9s-6.1,10.6-10.8,14.1c-1.2,0.9-2.4,1.6-3.7,2.2c0.2,0.1,0.5,0.2,0.7,0.3c0.6,0.3,1,0.9,0.9,1.6
		c-0.1,1.4-0.2,3.2-0.1,5.2c2.8-1,5.5-2.2,8.1-3.8c7.5-4.4,13.3-10.3,17.5-17.9c4.2-7.6,6.3-16,6.3-25.3
		C225.5,57.3,223.4,48.7,219.2,41.3"/>
	<g>
		<g>
			<path class="st0" d="M79.4,86.5c-0.6,3-1.6,5.5-3.1,7.5c-2.6,3.5-6.3,5.2-11,5.2c-6.1,0-10.4-1.8-12.9-5.4
				c-2.5-3.6-3.8-9.1-3.8-16.5v-29c0-2.2-0.1-3.8-0.3-4.8c-0.2-1-0.6-1.8-1.1-2.2c-0.5-0.4-1.4-0.7-2.6-0.9
				c-0.2-1.1-0.3-2.4-0.3-3.9c1.8,0.2,4.5,0.3,7.9,0.3c3.2,0,5.9-0.1,7.9-0.3c0,1.5-0.1,2.8-0.3,3.9c-1.5,0.2-2.5,0.5-3.1,0.9
				c-0.6,0.4-1,1.1-1.3,2.1c-0.2,1-0.3,2.7-0.3,5v27.7c0,5.7,0.9,10.2,2.6,13.4s4.7,4.9,9,4.9c1.3,0,2.6-0.3,3.9-0.9
				c1.3-0.6,2.4-1.4,3.3-2.6c1.1-1.5,1.8-3.4,2.3-5.7s0.7-5.9,0.7-10.6V52c0-3.1-0.1-5.4-0.3-6.9c-0.2-1.5-0.7-2.6-1.3-3.3
				c-0.7-0.7-1.7-1.1-3-1.3c-0.2-1.5-0.3-2.8-0.3-3.9c1.5,0.2,3.7,0.3,6.4,0.3c2.5,0,4.7-0.1,6.5-0.3c0,0.9-0.1,2.2-0.3,3.9
				c-1.1,0.2-1.9,0.6-2.5,1.3c-0.6,0.7-1,1.8-1.2,3.4c-0.2,1.6-0.3,3.9-0.3,6.9v21.9C80.2,79.3,80,83.6,79.4,86.5"/>
			<path class="st1" d="M79.4,86.5c-0.6,3-1.6,5.5-3.1,7.5c-2.6,3.5-6.3,5.2-11,5.2c-6.1,0-10.4-1.8-12.9-5.4
				c-2.5-3.6-3.8-9.1-3.8-16.5v-29c0-2.2-0.1-3.8-0.3-4.8c-0.2-1-0.6-1.8-1.1-2.2c-0.5-0.4-1.4-0.7-2.6-0.9
				c-0.2-1.1-0.3-2.4-0.3-3.9c1.8,0.2,4.5,0.3,7.9,0.3c3.2,0,5.9-0.1,7.9-0.3c0,1.5-0.1,2.8-0.3,3.9c-1.5,0.2-2.5,0.5-3.1,0.9
				c-0.6,0.4-1,1.1-1.3,2.1c-0.2,1-0.3,2.7-0.3,5v27.7c0,5.7,0.9,10.2,2.6,13.4s4.7,4.9,9,4.9c1.3,0,2.6-0.3,3.9-0.9
				c1.3-0.6,2.4-1.4,3.3-2.6c1.1-1.5,1.8-3.4,2.3-5.7s0.7-5.9,0.7-10.6V52c0-3.1-0.1-5.4-0.3-6.9c-0.2-1.5-0.7-2.6-1.3-3.3
				c-0.7-0.7-1.7-1.1-3-1.3c-0.2-1.5-0.3-2.8-0.3-3.9c1.5,0.2,3.7,0.3,6.4,0.3c2.5,0,4.7-0.1,6.5-0.3c0,0.9-0.1,2.2-0.3,3.9
				c-1.1,0.2-1.9,0.6-2.5,1.3c-0.6,0.7-1,1.8-1.2,3.4c-0.2,1.6-0.3,3.9-0.3,6.9v21.9C80.2,79.3,80,83.6,79.4,86.5z"/>
			<path class="st0" d="M79.4,86.5c-0.6,3-1.6,5.5-3.1,7.5c-2.6,3.5-6.3,5.2-11,5.2c-6.1,0-10.4-1.8-12.9-5.4
				c-2.5-3.6-3.8-9.1-3.8-16.5v-29c0-2.2-0.1-3.8-0.3-4.8c-0.2-1-0.6-1.8-1.1-2.2c-0.5-0.4-1.4-0.7-2.6-0.9
				c-0.2-1.1-0.3-2.4-0.3-3.9c1.8,0.2,4.5,0.3,7.9,0.3c3.2,0,5.9-0.1,7.9-0.3c0,1.5-0.1,2.8-0.3,3.9c-1.5,0.2-2.5,0.5-3.1,0.9
				c-0.6,0.4-1,1.1-1.3,2.1c-0.2,1-0.3,2.7-0.3,5v27.7c0,5.7,0.9,10.2,2.6,13.4s4.7,4.9,9,4.9c1.3,0,2.6-0.3,3.9-0.9
				c1.3-0.6,2.4-1.4,3.3-2.6c1.1-1.5,1.8-3.4,2.3-5.7s0.7-5.9,0.7-10.6V52c0-3.1-0.1-5.4-0.3-6.9c-0.2-1.5-0.7-2.6-1.3-3.3
				c-0.7-0.7-1.7-1.1-3-1.3c-0.2-1.5-0.3-2.8-0.3-3.9c1.5,0.2,3.7,0.3,6.4,0.3c2.5,0,4.7-0.1,6.5-0.3c0,0.9-0.1,2.2-0.3,3.9
				c-1.1,0.2-1.9,0.6-2.5,1.3c-0.6,0.7-1,1.8-1.2,3.4c-0.2,1.6-0.3,3.9-0.3,6.9v21.9C80.2,79.3,80,83.6,79.4,86.5"/>
			<path class="st1" d="M79.4,86.5c-0.6,3-1.6,5.5-3.1,7.5c-2.6,3.5-6.3,5.2-11,5.2c-6.1,0-10.4-1.8-12.9-5.4
				c-2.5-3.6-3.8-9.1-3.8-16.5v-29c0-2.2-0.1-3.8-0.3-4.8c-0.2-1-0.6-1.8-1.1-2.2c-0.5-0.4-1.4-0.7-2.6-0.9
				c-0.2-1.1-0.3-2.4-0.3-3.9c1.8,0.2,4.5,0.3,7.9,0.3c3.2,0,5.9-0.1,7.9-0.3c0,1.5-0.1,2.8-0.3,3.9c-1.5,0.2-2.5,0.5-3.1,0.9
				c-0.6,0.4-1,1.1-1.3,2.1c-0.2,1-0.3,2.7-0.3,5v27.7c0,5.7,0.9,10.2,2.6,13.4s4.7,4.9,9,4.9c1.3,0,2.6-0.3,3.9-0.9
				c1.3-0.6,2.4-1.4,3.3-2.6c1.1-1.5,1.8-3.4,2.3-5.7s0.7-5.9,0.7-10.6V52c0-3.1-0.1-5.4-0.3-6.9c-0.2-1.5-0.7-2.6-1.3-3.3
				c-0.7-0.7-1.7-1.1-3-1.3c-0.2-1.5-0.3-2.8-0.3-3.9c1.5,0.2,3.7,0.3,6.4,0.3c2.5,0,4.7-0.1,6.5-0.3c0,0.9-0.1,2.2-0.3,3.9
				c-1.1,0.2-1.9,0.6-2.5,1.3c-0.6,0.7-1,1.8-1.2,3.4c-0.2,1.6-0.3,3.9-0.3,6.9v21.9C80.2,79.3,80,83.6,79.4,86.5z"/>
		</g>
		<path class="st2" d="M120.6,36.1c-2.2,0-4.2-0.1-6-0.3c0,0.9,0.1,2.2,0.3,4.1c1.2,0,2.1,0.4,2.7,1.2c0.6,0.8,1.1,2.2,1.4,4.1
			c0.2,1.9,0.4,4.6,0.4,8.2v31.4l-25-48.9c-1.2,0.2-2.6,0.3-4.3,0.3c-1.9,0-3.5-0.1-4.8-0.3c0,1.6,0.1,2.9,0.3,4.1
			c1.1,0.1,1.9,0.4,2.5,0.8c0.5,0.4,1.1,1.1,1.7,2.2l0.3,0.5v39.1c0,3.7-0.1,6.5-0.4,8.4c-0.3,1.9-0.7,3.4-1.4,4.2
			c-0.6,0.9-1.5,1.3-2.7,1.3c-0.2,0.9-0.3,2.3-0.3,4.1c1.6-0.2,3.8-0.3,6.4-0.3c2.3,0,4.4,0.1,6.3,0.3c0-1.8-0.1-3.1-0.3-4.1
			c-1.1,0-2-0.4-2.7-1.3c-0.6-0.8-1.1-2.2-1.3-4.2c-0.2-2-0.4-4.8-0.4-8.4V49.6l26.5,51c1.2,0,2.1-0.2,2.8-0.6V53.3
			c0-3.5,0.1-6.2,0.3-8.1c0.2-1.9,0.6-3.3,1.2-4.1c0.5-0.8,1.3-1.2,2.3-1.2c0.2-1.1,0.3-2.5,0.3-4.1C124.9,36,122.9,36.1,120.6,36.1
			z"/>
	</g>
	<path class="st3" d="M220.7,142.5c-0.6-0.1-1.5-0.1-2.5-0.1c-1.1,0-2,0-2.8,0.1c0-0.9,0-1.6,0.1-2c0.4,0,0.6-0.1,0.8-0.4
		c0.2-0.2,0.3-0.6,0.4-1.1c0.1-0.5,0.1-1.2,0.1-2.2v-4.6c0-1.6-0.1-2.7-0.4-3.4c-0.3-0.7-0.7-1-1.3-1c-0.6,0-1.1,0.5-1.6,1.6
		s-0.6,2.6-0.6,4.6v3.2c0,1.3,0.1,2.1,0.3,2.6s0.5,0.7,1.1,0.8c0.1,0.4,0.1,1.1,0.1,2c-0.7-0.1-1.6-0.1-2.7-0.1c-1.1,0-2,0-2.7,0.1
		c0-0.9,0-1.6,0.1-2c0.4-0.1,0.6-0.2,0.8-0.4c0.2-0.2,0.3-0.6,0.4-1.1c0.1-0.5,0.1-1.3,0.1-2.3v-4.8c0-1.6-0.1-2.7-0.4-3.3
		c-0.3-0.6-0.7-1-1.3-1c-0.4,0-0.7,0.2-1.1,0.7s-0.6,1.2-0.8,2.1c-0.2,0.9-0.3,2.1-0.3,3.4v3.3c0,0.9,0,1.6,0.1,2s0.2,0.8,0.4,1
		c0.2,0.2,0.5,0.3,0.8,0.4c0.1,0.4,0.1,1.1,0.1,2c-0.7-0.1-1.6-0.1-2.8-0.1c-1.1,0-2.1,0-2.7,0.1c0-0.9,0-1.5,0.1-2
		c0.6-0.1,0.9-0.3,1.1-0.8c0.2-0.4,0.3-1.3,0.3-2.6v-6.4c0-0.8,0-1.4-0.1-1.8s-0.2-0.7-0.4-0.9s-0.6-0.3-1-0.4
		c0-0.7,0.1-1.2,0.2-1.8c0.5-0.1,1.1-0.2,1.8-0.4s1.1-0.5,1.4-0.8c0.4,0.2,0.6,0.8,0.6,1.8c0,0.5-0.1,1.3-0.1,2.5
		c0.2-0.9,0.4-1.4,0.5-1.7c0.3-0.7,0.7-1.3,1.2-1.8c0.5-0.5,1.1-0.8,1.7-0.8c0.6,0,1.2,0.2,1.7,0.8c0.5,0.5,0.9,1.3,1.1,2.3
		c0.1,0.3,0.1,0.7,0.2,1.1c0.1-0.7,0.3-1.2,0.5-1.6c0.3-0.7,0.7-1.3,1.2-1.7c0.5-0.5,1.1-0.7,1.7-0.7c1,0,1.8,0.5,2.3,1.5
		c0.6,1,0.8,2.6,0.8,4.8v5.5c0,1,0,1.8,0.1,2.3s0.2,0.9,0.4,1.1s0.4,0.3,0.7,0.4C220.7,140.9,220.7,141.6,220.7,142.5"/>
	<path class="st3" d="M230.6,138.9c0.1,0.3,0.2,0.6,0.2,0.9c-0.5,1-1.1,1.8-1.7,2.2c-0.6,0.5-1.4,0.7-2.2,0.7
		c-1.6,0-2.8-0.8-3.6-2.5c-0.8-1.7-1.2-3.8-1.2-6.5c0-1.7,0.2-3.2,0.6-4.6s0.9-2.4,1.6-3.2s1.5-1.2,2.4-1.2c1.4,0,2.4,0.7,3.1,2.2
		c0.7,1.4,1,3.4,1.1,5.8c-0.1,0.6-0.2,1.1-0.4,1.6c-2.2,0-4.1,0.1-5.8,0.2c0.1,1.7,0.4,3.1,0.9,4.2s1.2,1.6,2.1,1.6
		c0.5,0,0.9-0.2,1.4-0.5s0.9-0.8,1.2-1.5C230.4,138.4,230.5,138.6,230.6,138.9 M225.2,128.1c-0.4,0.9-0.6,2.2-0.6,4.1h3.7
		c0-1.7-0.1-3-0.5-4c-0.3-1-0.7-1.5-1.3-1.5C226,126.8,225.6,127.2,225.2,128.1"/>
	<path class="st3" d="M240.6,128.3c0,1-0.1,1.8,0,2.6c-0.1,0.1-0.4,0.2-0.7,0.3c-0.3,0.1-0.6,0.1-0.8,0.1c0-1.1-0.1-1.8-0.3-2.2
		c-0.2-0.4-0.4-0.6-0.7-0.6c-0.2,0-0.5,0.2-0.7,0.7s-0.5,1.1-0.6,1.9c-0.2,0.8-0.3,1.6-0.3,2.4v2.8c0,1.1,0.1,1.9,0.2,2.5
		c0.1,0.6,0.3,1,0.6,1.2s0.7,0.4,1.2,0.4c0.1,0.4,0.1,1.1,0.1,2c-0.7-0.1-1.7-0.1-3-0.1c-1.5,0-2.5,0-3.2,0.1c0-0.9,0-1.6,0.1-2
		c0.4-0.1,0.7-0.2,0.9-0.4c0.2-0.2,0.4-0.6,0.4-1c0.1-0.5,0.1-1.2,0.1-2.1v-6.3c0-0.7,0-1.2-0.1-1.6c-0.1-0.4-0.2-0.7-0.4-0.9
		s-0.6-0.3-1-0.3c0-0.8,0.1-1.4,0.2-1.8c0.6,0,1.2-0.2,1.8-0.4s1.1-0.6,1.4-0.8c0.4,0.2,0.5,0.9,0.5,1.9c0,0.6,0,1.1-0.1,1.8
		s-0.1,1.2-0.2,1.8c0-0.2,0.1-0.6,0.2-1.1s0.2-0.8,0.3-1.1c0.3-0.9,0.7-1.7,1.1-2.2c0.4-0.6,0.9-0.8,1.5-0.8c0.5,0,1,0.3,1.5,0.9
		C240.6,126.6,240.6,127.4,240.6,128.3"/>
	<path class="st3" d="M244.2,141.7c-0.7-0.7-1.3-1.7-1.7-3c-0.4-1.4-0.6-3-0.6-4.9c0-1.6,0.2-3,0.5-4.4c0.4-1.4,0.9-2.5,1.6-3.4
		s1.6-1.3,2.5-1.3c1.4,0,2.5,0.5,3.3,1.6c-0.1,1.3-0.2,2.8-0.2,4.5c-0.3,0.3-0.7,0.4-1.3,0.4c-0.1-1.4-0.3-2.6-0.6-3.3
		s-0.8-1.2-1.4-1.2c-0.6,0-1.1,0.6-1.5,1.7c-0.4,1.2-0.6,2.7-0.6,4.7c0,1.9,0.3,3.6,0.8,4.9c0.5,1.4,1.2,2,2.2,2
		c0.4,0,0.9-0.2,1.3-0.5s0.7-0.8,1-1.3c0.3,0.4,0.5,0.8,0.5,1.4c-0.8,1.9-1.9,2.9-3.5,2.9C245.7,142.7,244.9,142.4,244.2,141.7"/>
	<path class="st3" d="M251.6,140.5c0.6,0,0.9-0.3,1.1-0.7c0.2-0.4,0.3-1.3,0.3-2.6v-6.7c0-0.6,0-1.2-0.1-1.5
		c-0.1-0.4-0.2-0.6-0.4-0.8c-0.2-0.2-0.6-0.3-1-0.3c0-0.8,0.1-1.4,0.2-1.8c0.5,0,1.1-0.1,1.8-0.4c0.7-0.3,1.2-0.6,1.5-0.9
		c0.4,0.2,0.5,0.8,0.5,1.8v10.7c0,1.2,0.1,2.1,0.3,2.6c0.2,0.5,0.5,0.7,1,0.7c0.1,0.5,0.1,1.1,0.1,2c-0.7-0.1-1.6-0.1-2.7-0.1
		c-1.2,0-2.1,0-2.7,0.1C251.5,141.6,251.5,140.9,251.6,140.5 M253,120.4c-0.3-0.5-0.4-1-0.4-1.7c0-0.8,0.1-1.4,0.4-1.9
		c0.3-0.5,0.7-0.7,1.1-0.7c0.5,0,0.9,0.2,1.1,0.7c0.3,0.4,0.4,1.1,0.4,1.9c0,0.7-0.1,1.3-0.4,1.7c-0.3,0.5-0.7,0.7-1.1,0.7
		C253.6,121.1,253.2,120.9,253,120.4"/>
	<path class="st3" d="M268,139.9c0,0.6-0.1,1.1-0.2,1.6c-0.4,0.1-0.9,0.2-1.4,0.4c-0.5,0.2-0.9,0.5-1.3,0.8
		c-0.2-0.1-0.3-0.4-0.4-0.7s-0.1-0.8-0.1-1.5c0-0.4,0-0.8,0.1-1.2c-0.2,0.9-0.5,1.5-0.8,2c-0.6,0.9-1.3,1.3-2.3,1.3
		c-0.9,0-1.6-0.4-2.1-1.1c-0.5-0.7-0.8-1.7-0.8-3c0-2.1,0.5-3.7,1.6-4.6c1.1-0.9,2.4-1.5,4-1.9c0-1.3,0-2.3-0.1-2.8
		c-0.1-0.6-0.2-1.1-0.4-1.5c-0.3-0.7-0.7-1-1.2-1c-0.6,0-1,0.4-1.3,1.3c-0.3,0.9-0.4,1.9-0.5,3c-0.7,0-1.1-0.1-1.4-0.3
		c0-0.6,0-1.1,0-1.4c0-1.1,0-2.1-0.1-2.9c0.6-0.5,1.2-0.9,1.9-1.2s1.4-0.4,2-0.4c1.2,0,2.1,0.5,2.7,1.6c0.3,0.6,0.5,1.4,0.7,2.4
		c0.1,1,0.2,2.3,0.2,4.1v3.7c0,0.8,0,1.4,0.1,1.8s0.2,0.7,0.4,0.9s0.4,0.3,0.8,0.3L268,139.9z M264.2,133.8c-1,0.2-1.8,0.6-2.3,1.1
		c-0.5,0.5-0.8,1.4-0.8,2.6c0,0.8,0.1,1.4,0.3,1.8c0.2,0.4,0.5,0.6,0.8,0.6c0.3,0,0.6-0.2,0.9-0.6c0.3-0.4,0.6-0.9,0.8-1.7
		s0.3-1.7,0.3-2.7V133.8z"/>
	<path class="st3" d="M269.4,140.5c0.6,0,0.9-0.3,1.1-0.7c0.2-0.4,0.3-1.3,0.3-2.6v-16.3c0-0.9-0.1-1.6-0.3-1.9
		c-0.2-0.4-0.6-0.6-1.3-0.6c0-0.8,0.1-1.4,0.2-1.8c0.5,0,1.1-0.1,1.8-0.4c0.7-0.3,1.2-0.6,1.5-0.9c0.4,0.2,0.5,0.8,0.5,1.8v20.2
		c0,1.2,0.1,2.1,0.3,2.6c0.2,0.5,0.5,0.7,1,0.7c0.1,0.5,0.1,1.1,0.1,2c-0.7-0.1-1.6-0.1-2.7-0.1c-1.2,0-2.1,0-2.7,0.1
		C269.3,141.6,269.3,140.9,269.4,140.5"/>
	<path class="st3" d="M284.7,138.9c0.1,0.3,0.2,0.6,0.2,0.9c-0.5,1-1.1,1.8-1.7,2.2c-0.6,0.5-1.4,0.7-2.2,0.7
		c-1.6,0-2.8-0.8-3.6-2.5c-0.8-1.7-1.2-3.8-1.2-6.5c0-1.7,0.2-3.2,0.6-4.6s0.9-2.4,1.6-3.2c0.7-0.8,1.5-1.2,2.4-1.2
		c1.4,0,2.4,0.7,3.1,2.2c0.7,1.4,1,3.4,1.1,5.8c-0.1,0.6-0.2,1.1-0.4,1.6c-2.2,0-4.1,0.1-5.8,0.2c0.1,1.7,0.4,3.1,0.9,4.2
		s1.2,1.6,2.1,1.6c0.5,0,1-0.2,1.4-0.5s0.9-0.8,1.2-1.5C284.5,138.4,284.6,138.6,284.7,138.9 M279.3,128.1c-0.4,0.9-0.5,2.2-0.6,4.1
		h3.7c0-1.7-0.1-3-0.5-4s-0.7-1.5-1.3-1.5S279.7,127.2,279.3,128.1"/>
	<path class="st3" d="M292.3,130.5c-0.1-1.1-0.3-2-0.7-2.7c-0.4-0.8-0.9-1.1-1.5-1.1c-0.4,0-0.7,0.2-0.9,0.5
		c-0.2,0.3-0.3,0.8-0.3,1.3c0,0.4,0,0.8,0.2,1.1c0.1,0.3,0.3,0.6,0.7,1c0.3,0.4,0.9,0.8,1.6,1.3c0.8,0.6,1.4,1.1,1.8,1.6
		c0.4,0.5,0.8,1.1,0.9,1.7c0.2,0.6,0.3,1.4,0.3,2.2c0,1.6-0.4,2.9-1.1,3.9c-0.8,1-1.8,1.5-3,1.5c-0.8,0-1.5-0.1-2-0.3
		s-1.1-0.6-1.6-1c0-0.7,0.1-1.5,0.1-2.6c0-0.7,0-1.4,0-2.1c0.3-0.4,0.8-0.5,1.4-0.5c0.1,1.5,0.4,2.6,0.8,3.3s0.9,1.1,1.6,1.1
		c0.5,0,0.9-0.2,1.2-0.6s0.4-0.9,0.4-1.5s-0.1-1.2-0.4-1.6s-0.9-1-1.7-1.6c-0.8-0.5-1.4-1-1.8-1.5s-0.8-1.1-1-1.7s-0.3-1.5-0.3-2.6
		s0.2-1.9,0.5-2.6c0.4-0.7,0.8-1.3,1.4-1.6c0.6-0.4,1.2-0.6,1.8-0.6c0.7,0,1.3,0.1,1.8,0.3c0.5,0.2,1,0.5,1.4,0.9c0,0.3,0,0.8,0,1.5
		c0,0.9,0,1.8,0.1,2.5C293.3,130.3,292.9,130.5,292.3,130.5"/>
	<path class="st3" d="M302.7,142.1c-0.7-0.4-1.4-1-2.2-1.8c0.1-1.4,0.2-3.3,0.2-5.7c0.4-0.2,0.9-0.3,1.5-0.3
		c0.1,2.1,0.3,3.7,0.8,4.7s1.2,1.5,2.2,1.5c0.8,0,1.5-0.3,1.9-1s0.6-1.5,0.6-2.6c0-0.8-0.1-1.6-0.4-2.1c-0.3-0.6-0.6-1.1-1-1.5
		c-0.4-0.4-0.9-0.9-1.6-1.5c-0.9-0.7-1.5-1.4-2.1-2c-0.5-0.6-1-1.4-1.4-2.5c-0.4-1-0.6-2.3-0.6-3.9c0-2.2,0.4-4,1.2-5.2
		c0.8-1.2,1.9-1.8,3.3-1.8c0.7,0,1.4,0.2,2.1,0.5c0.7,0.3,1.2,0.7,1.6,1.2c0,2.4,0,4.2,0.1,5.2c-0.4,0.3-0.9,0.5-1.5,0.5
		c-0.2-2-0.5-3.4-0.9-4.2c-0.4-0.8-0.9-1.1-1.6-1.1c-0.7,0-1.2,0.3-1.6,0.9c-0.4,0.6-0.6,1.4-0.6,2.5c0,0.9,0.1,1.6,0.4,2.3
		s0.6,1.2,1,1.6c0.4,0.4,1,0.9,1.7,1.6c0.9,0.7,1.5,1.4,2.1,2s1,1.4,1.4,2.4c0.4,1,0.6,2.2,0.6,3.6c0,1.4-0.2,2.7-0.6,3.8
		s-0.9,2-1.7,2.6c-0.8,0.7-1.7,1-2.8,1C304.2,142.7,303.4,142.5,302.7,142.1"/>
	<path class="st3" d="M312.5,141.9c-0.3-0.5-0.4-1.2-0.4-2.1c0-0.9,0.2-1.6,0.5-2.1c0.3-0.6,0.8-0.8,1.3-0.8c0.5,0,0.9,0.3,1.2,0.9
		c0.3,0.6,0.5,1.2,0.5,1.9c0,0.9-0.2,1.7-0.5,2.2c-0.3,0.6-0.7,0.8-1.2,0.8C313.2,142.7,312.8,142.4,312.5,141.9"/>
	<path class="st3" d="M330.9,142.5c-0.5-0.1-1.4-0.1-2.6-0.1c-1.3,0-2.2,0-2.8,0.1c0-0.9,0.1-1.5,0.2-2c0.4-0.1,0.6-0.2,0.8-0.4
		c0.2-0.2,0.2-0.4,0.2-0.8c0-0.4-0.1-1-0.3-1.7l-0.7-2.9c-2.2,0-4,0.1-5.3,0.2l-0.4,2c-0.2,0.8-0.3,1.5-0.3,2.1
		c0,0.5,0.1,0.9,0.2,1.1s0.4,0.4,0.8,0.5c0.1,0.6,0.2,1.3,0.2,2c-0.5-0.1-1.2-0.1-2.1-0.1c-0.4,0-1,0-1.8,0.1c0-0.8,0.1-1.4,0.2-2
		c0.4-0.1,0.6-0.4,0.9-1c0.2-0.5,0.5-1.5,0.8-3l4.4-19.7c0.3-0.1,0.6-0.2,1-0.2l4.9,20c0.3,1.1,0.5,1.9,0.6,2.4
		c0.2,0.5,0.3,0.9,0.5,1.1c0.1,0.2,0.3,0.4,0.6,0.4C330.8,141.1,330.9,141.8,330.9,142.5 M325.2,132.7l-1.4-5.8
		c-0.4-1.5-0.7-3-1-4.5c-0.2,1.5-0.5,3-0.9,4.5l-1.2,5.8H325.2z"/>
	<g>
		<path class="st4" d="M187.2,80.6c0.4-0.3,0.6-0.5,0.6-0.8c-0.2-0.7-0.5-1-0.9-1.3c-0.1,1.1-0.2,1.9-0.3,2.7
			c0.1-0.1,0.2-0.2,0.2-0.2C187,80.8,187.1,80.7,187.2,80.6z"/>
		<path class="st4" d="M201.7,62.2c0.2,0.1,1.4,0.6,1.5,0.6c0,0,0,0,0,0c0,0,0,0,0,0v0c0,0,0-0.1,0-0.1l-2.4-0.9
			C201,62,201.3,62.1,201.7,62.2z"/>
		<path class="st4" d="M180.9,69.9c0.4,0.1,0.9,0.2,1.3,0.3c0,0,0,0,0.1,0l0.5-0.3C182.3,69.9,181.6,69.9,180.9,69.9z"/>
		<path class="st4" d="M200.2,61.7L200.2,61.7L200.2,61.7C200.2,61.7,200.2,61.7,200.2,61.7L200.2,61.7L200.2,61.7L200.2,61.7
			C200.2,61.7,200.2,61.6,200.2,61.7C200.2,61.6,200.2,61.6,200.2,61.7L200.2,61.7L200.2,61.7L200.2,61.7l0,0.1
			C200.2,61.7,200.2,61.7,200.2,61.7C200.2,61.7,200.2,61.7,200.2,61.7z"/>
		<path class="st4" d="M168.7,77.2C168.7,77.2,168.7,77.2,168.7,77.2c-0.2,0.2-0.4,0.3-0.7,0.6l-0.1,0.1c-0.5,0.4-1.4,1.1-1.6,2
			c0,0,0,0,0,0l2.4-1.4c0-0.3,0-0.6,0-0.9C168.7,77.4,168.7,77.3,168.7,77.2z"/>
		<path class="st4" d="M199.9,53.8l2.3,0.4v0c0,0,0,0,0.1,0c0,0,0.1,0,0.1,0c0,0,0,0,0,0l0,0c0,0-0.5-1.3-0.6-1.5
			c-0.1-0.1-0.1-0.3-0.2-0.4c-0.3-0.7-0.8-1.5-1.1-2c0,0-0.1-0.1-0.1-0.1c0,0-0.1-0.1-0.1-0.2c0,0,0,0-0.1-0.1c0,0-0.1-0.1-0.1-0.1
			c0,0,0,0-0.1-0.1c0,0-0.1-0.1-0.1-0.1c0,0-0.1-0.1-0.1-0.1c0,0-0.1-0.1-0.1-0.1c0,0-0.1,0-0.1-0.1c0,0-0.1-0.1-0.1-0.1
			c0,0,0,0-0.1-0.1c0,0-0.1-0.1-0.1-0.1c0,0,0,0-0.1,0c-0.1,0-0.1-0.1-0.1-0.1c0,0,0,0,0,0l0,0c0,0-0.1-0.1-0.1-0.1c0,0-0.1,0-0.1,0
			s0,0,0,0c0,0,0,0-0.1,0c0,0,0,0,0,0c0,0,0,0-0.1,0c-0.2,0.1-0.7-0.2-1.2-0.7c0,0-0.1,0-0.1,0l0.6,5.3l0,0l0.3,0.1L199.9,53.8z"/>
		<path class="st4" d="M194.7,62.8l0.8-0.5c-0.2-0.5-0.3-1-0.5-1.6c0-0.1-0.1-0.2-0.1-0.3c0,0,0,0,0,0
			C194.9,61.3,194.8,62.1,194.7,62.8z"/>
		<path class="st4" d="M199.8,62.3c0.1-0.2,0.1-0.2,0.1-0.2l0,0h0l0,0c0,0,0,0,0,0.1l-0.1-0.2L199.8,62.3
			C199.8,62.3,199.8,62.3,199.8,62.3z"/>
		<g>
			<path class="st5" d="M206,75.5C206,75.5,206,75.5,206,75.5c0-0.1,0-0.1,0-0.1c-1.3-2.4-1.7-4.1-2.1-6.3c-0.1-0.5-0.2-1-0.2-1.6
				c0,0,0-0.1,0-0.1l0,0l0,0l0,0v0c-0.2-1.5-0.4-3.7-0.4-4.2c0,0,0-0.1,0-0.1v0c0,0,0,0,0,0v0c0,0,0,0,0,0c0,0,0,0,0,0
				c0,0-1.2-0.5-1.5-0.6c-0.4-0.2-0.6-0.3-0.9-0.3c-0.3-0.1-0.5-0.2-0.6-0.2c0,0-0.1,0-0.1,0c0,0,0,0,0,0l0,0l0,0l0,0l0,0
				c0,0,0,0,0,0l0,0l0,0c0,0,0,0,0,0.1v0c0,0.2,0.2,0.9,0.7,3.2c0.1,0.3,0.1,0.6,0.2,0.9c0.1,0.5,0.2,1,0.3,1.4
				c0.1,0.6,0.2,1,0.2,1.1h0c0,0,0,0,0-0.1c0,0,0,0,0,0c-0.1-0.3-0.4-1.3-0.8-3c0-0.1,0-0.1-0.1-0.2c-0.3-1-0.7-2.5-0.8-2.9
				c0-0.1,0-0.1,0-0.1l0,0h0l0,0c0,0,0,0-0.1,0.2c0,0,0,0,0,0.1c-0.2,0.5-0.4,1.4-0.7,2.2c0,0,0,0.1,0,0.1l-0.7,2.4v0v0v0l0.3,0.5
				c0,0.1,0.1,0.1,0.1,0.2l0,0l0.1,0.1l0,0l0.1-0.7c0-0.1,0.1-0.7,0.2-0.8l0,0l0,0l0,0l0,0c0,0,0,0.1,0,0.2c0,0.2,0,0.4,0,0.7
				c0,0.3,0,0.4,0,0.5c0,0.1,0,0.1,0,0.2l0,0l0,0c0,0.1,0,0.2,0.1,0.3c0,0.1,0.1,0.1,0.1,0.1c0,0,0,0,0,0v0l0,0l0,0l0.2,0.2l2.5,3.2
				c0,0,0.5,0.6,1.2,1.2c0.2,0.2,0.4,0.4,0.6,0.6c0.7,0.7,1.4,1.4,1.8,1.6l0.1,0c0.4,0.3,0.5,0.3,0.6,0.3
				C206,75.6,206,75.6,206,75.5z"/>
			<path class="st5" d="M197.4,51.2L197.4,51.2c0,0.1,0,0.1,0,0.2c0,0,0,0,0,0C197.4,51.3,197.4,51.2,197.4,51.2z"/>
			<path class="st5" d="M197.7,53.3c-0.1-0.2-0.1-0.7-0.2-1c0-0.2-0.1-0.5-0.1-0.8l-0.1,0.5c0,0,0,0,0,0c0,0.5-0.1,1.1-0.1,1.6
				c-0.1,0.7-0.2,1.4-0.4,2c0.1-0.1,0.1-0.2,0.2-0.4l0.8-1.7l0,0l0,0l0,0L197.7,53.3z"/>
			<path class="st5" d="M182.8,85.3c-0.1,0-0.4,0.1-0.6,0.1c-0.1,0-0.2,0-0.2,0c0.3,2.6,0.5,7,0.3,7.8c-0.2,0.1-1.2,0.3-2.3,0.6
				c-0.2,0.1-0.5,0.1-0.8,0.1c-0.5,0.1-1,0.2-1.4,0.2c0,0-0.1,0-0.1,0c-0.4,0-0.9-0.1-1.3-0.1c-0.3-0.1-0.7-0.1-1-0.2
				c-1.2-0.2-2.3-0.5-2.4-0.6c-0.3-0.7-0.4-4.6-0.1-7.7c0-0.1,0-0.1,0-0.2c0-0.1,0-0.1,0-0.2c0,0,0,0,0,0c-0.1,0-0.1,0-0.2,0
				c0,0-0.1,0-0.1,0l0,0l0,0c-0.1,0-0.1,0-0.1,0c-0.1,0-0.2,0-0.3-0.1c0,0.1,0,0.1,0,0.1s0,0.1,0,0.2c-0.1,2.4,0,5.5,0.1,7.6
				c0,0.3,0,0.6,0,0.8v0v0l0,0c0,0,0.1,0,0.1,0c0.8,0.3,1.8,0.5,2.7,0.7c0.5,0.1,1,0.2,1.4,0.2c0.6,0.1,1.1,0.1,1.4,0.1h0
				c0.3,0,0.8,0,1.4-0.1c0.5,0,1.1-0.1,1.8-0.3c0.6-0.1,1.1-0.3,1.7-0.5c0.1,0,0.2-0.1,0.3-0.1l0,0v0v0c0-0.3,0-0.6,0-0.9v-0.2
				C183.1,89.8,182.9,86.4,182.8,85.3z"/>
		</g>
		<path class="st6" d="M172.5,85.3c0,0-0.1,0-0.1,0v0C172.4,85.3,172.5,85.3,172.5,85.3C172.5,85.3,172.5,85.3,172.5,85.3z"/>
		<path class="st7" d="M194.6,97.2c-0.1-0.3-0.2-0.6-0.5-0.9c-0.2-0.2-0.4-0.4-0.7-0.6c-0.3-0.2-0.7-0.4-1.1-0.5
			c-0.5-0.2-1.2-0.3-1.8-0.4c-0.2,0-0.4-0.1-0.7-0.1c-0.2,0-0.3,0-0.5-0.1c0,0.1-0.1,0.2-0.3,0.2l-0.2,0.1c-0.6,0.3-0.7,0.4-2.1,1
			l-3,1.4c-0.2,0.1-0.9,0.4-1.6,0.6c-0.8,0.4-1.7,0.7-2,0.5c-0.1-0.1-0.1-0.2-0.2-0.3c-0.1-0.1-0.1-0.2-0.1-0.4
			c-0.1,0.1-0.1,0.1-0.1,0.2c-0.2,0.3-0.3,0.7-0.4,0.8c0,0,0.1,0.1,0.1,0.1c0.2,0.2,0.3,0.3,0.4,0.3l0.1,0.1c0.4,0.3,1.2,0.8,2,1.2
			c0.9,0.5,2.1,1,3,1.2c0.9,0.3,1.7,0.4,2.6,0.4c1,0,1.9-0.1,2.8-0.3c0.8-0.2,1.6-0.6,2.2-1c0.6-0.4,1.1-1,1.4-1.4
			c0.3-0.4,0.5-0.8,0.6-1.1C194.7,98,194.7,97.6,194.6,97.2z"/>
		<path class="st7" d="M179.2,99.1C179.2,99.1,179.3,99.2,179.2,99.1C179.3,99.2,179.3,99.2,179.2,99.1
			C179.3,99.1,179.3,99.1,179.2,99.1z"/>
		<path class="st7" d="M179.4,99c0,0-0.1-0.1-0.1-0.1c0,0.1,0,0.1,0,0.2c0,0,0,0,0,0.1c0,0,0,0,0.1,0.1
			C179.3,99.1,179.4,99.1,179.4,99z"/>
		<path class="st7" d="M172.9,97.9c-0.1,0-0.2-0.1-0.3-0.1l0,0c-0.9-0.3-2.9-1.2-3.4-1.5c-1.7-0.8-2.5-1.3-2.7-1.6
			c-0.6,0.1-1.1,0.3-1.6,0.4c-0.8,0.2-1.3,0.3-1.8,0.5c-0.5,0.2-0.8,0.3-1,0.4c-0.2,0.2-0.4,0.3-0.6,0.5c-0.2,0.2-0.4,0.4-0.5,0.8
			c-0.1,0.4-0.1,0.9-0.1,1.4c0.1,0.5,0.4,0.9,0.7,1.3c0.4,0.4,0.9,0.8,1.6,1.1c0.7,0.4,1.4,0.6,2.2,0.8c1.1,0.2,2.5,0.3,3.1,0.3
			c0.9,0,1.6,0,2.5-0.2c0.9-0.2,1.9-0.6,2.7-1c0.9-0.5,1.7-1.2,2-1.5c0.4-0.4,0.5-0.6,0.5-0.7c0,0,0-0.1,0-0.1
			C175.7,98.7,174.5,98.4,172.9,97.9z"/>
		<g>
			<path class="st8" d="M191.8,79.8l-0.2-0.1c-0.1-0.1-0.3-0.2-0.5-0.2c-0.2-0.1-0.3-0.3-0.4-0.7c-0.1-0.2-0.2-0.5-0.4-0.9
				c-0.5-1-1.1-1.7-1.8-2.5c-0.5-0.6-1.1-1.1-1.7-1.6c0,0.1,0.1,0.2,0.1,0.4c0.1,1.2,0.2,3,0.1,4c0,0,0,0,0.1,0
				c0.4,0.3,0.9,0.6,1.1,1.5c0.1,0.5-0.3,0.8-0.7,1.1c-0.1,0.1-0.2,0.2-0.4,0.3c-0.2,0.2-0.4,0.4-0.6,0.6c-0.1,0.3-0.1,0.7-0.2,1
				c0,0,0,0,0,0c0,0.1,0.1,0.2,0.2,0.3c0,0,0.1,0,0.1,0.1h0c0.2,0,0.3-0.1,0.4-0.2c0.1-0.1,0.3-0.3,0.5-0.3c0.1,0,0.2,0.1,0.4,0.2
				c0.3,0.3,0.7,0.7,0.7,1.2c0,0.3-0.2,0.5-0.4,0.7c-0.2,0.2-0.3,0.3-0.4,0.5c-0.1,0.3-0.1,0.8,0.2,1c0.2,0.2,0.7,0.2,1,0.2
				s0.6-0.2,0.7-0.5c0.1-0.1,0.2-0.5,0.4-0.8c0.2-0.6,0.3-0.7,0.4-0.6c0.1,0,0.1,0.2,0.1,0.2c-0.1,0.4,0,0.7,0.2,0.9
				c0.1,0.1,0.4,0.2,0.7,0.1c0.3-0.1,0.6-0.4,0.8-0.9c0.1-0.2,0.1-1.1,0-1.5c0,0,0-0.1,0-0.1c0-0.2,0-0.2,0.1-0.3l0.1,0l0.1,0.1
				c0,0,0,0.1,0,0.1l0,0c0,0,0,0,0,0c0,0.1,0,0.1,0,0.2c0,0.1,0.1,0.1,0.1,0.2c0.2,0.1,0.6-0.1,0.8-0.3c0.3-0.3,0.2-0.8,0-1.4
				C193.2,80.9,191.9,79.9,191.8,79.8z"/>
			<path class="st8" d="M170,72.3c-0.4,0.2-0.9,0.4-1.3,0.6c-1.2,0.8-2.3,1.7-3,2.5c-0.7,0.8-1.3,1.5-1.8,2.5
				c-0.2,0.4-0.3,0.7-0.4,0.9c-0.2,0.4-0.2,0.6-0.4,0.7c-0.1,0.1-0.3,0.1-0.4,0.2c-0.1,0-0.1,0.1-0.2,0.1c-0.1,0.1-1.4,1.1-1.7,1.9
				c-0.2,0.5-0.3,1.1,0,1.4c0,0,0,0,0.1,0l5.3-3.2c0-0.1,0-0.2,0-0.3c0.2-1,1.1-1.7,1.7-2.1l0.1-0.1c0.3-0.3,0.5-0.4,0.6-0.5
				c0.1,0,0.1-0.1,0.1-0.1c0-0.4,0.1-0.7,0.1-1c0.1-0.9,0.3-1.8,0.7-2.5C169.6,73,169.8,72.6,170,72.3z"/>
			<path class="st8" d="M166.8,80.8l-4.9,2.9c0,0.4,0,0.9,0.1,1.1c0.2,0.5,0.5,0.8,0.8,0.9c0.2,0.1,0.5,0,0.7-0.1
				c0.2-0.2,0.3-0.5,0.2-0.9c0-0.1,0-0.2,0.1-0.2c0,0,0,0,0.1,0c0.1,0,0.1,0.1,0.4,0.6c0.1,0.3,0.3,0.7,0.4,0.8
				c0.2,0.3,0.4,0.4,0.7,0.5c0.3,0.1,0.7,0.1,1-0.2c0.2-0.2,0.2-0.7,0.2-1c0-0.2-0.2-0.3-0.4-0.5c-0.2-0.2-0.4-0.4-0.4-0.7
				c0-0.5,0.4-0.9,0.7-1.2c0.4-0.4,0.7-0.1,0.9,0.1c0.1,0.1,0.3,0.2,0.4,0.2c0.1,0,0.1,0,0.1-0.1c0.2-0.2,0.2-0.4,0.2-0.6
				c0-0.4-0.3-0.9-0.8-1.3C167,81,166.9,80.9,166.8,80.8z"/>
			<path class="st8" d="M186.6,78.3c0.1-0.7,0-1.8,0-2.9c0-0.4-0.1-0.8-0.1-1.1c0,0,0,0,0-0.1c-0.1-0.3-0.1-0.5-0.2-0.8
				c0-0.1-0.1-0.2-0.1-0.3c-0.1-0.1-0.1-0.2-0.2-0.3c-0.6-0.9-1.6-1.6-2.6-2l-14.2,8.5c0.1,1.5,0.3,2.9,0.6,4.3
				c2.9,0.8,5.9,1.2,8.9,1.1c2.9-0.1,5.3-0.6,7.3-1.5c0.1-0.2,0.1-0.4,0.1-0.6c0,0,0,0,0,0c0.1-0.3,0.1-0.6,0.2-0.9
				c0.2-0.9,0.4-1.9,0.5-3.4C186.6,78.4,186.6,78.3,186.6,78.3z"/>
			<path class="st8" d="M192.1,47.6c-0.6-0.8-1.2-1.8-1.7-2.7c-0.8-1.5-1.5-2.9-1.9-4.2c0,0,0,0,0,0c-0.2-0.6-0.3-1-0.4-1.3
				c-0.2-0.7-0.3-0.6-0.2,0c0,0.3,0.1,0.7,0.2,1.2c0.2,1.2,0.5,2.9,0.8,4.2c0.2,1,0.3,1.7,0.3,1.7l-4.9,0.2l-0.4-2.3l-0.3-1.8
				l-0.1,1.8l-0.1,1.9l-2.8,0.4l0.1-1.7l-1.6,2l-5.1-0.2c0,0.5-0.1,1-0.1,1.5C177.1,48.4,182.2,48.3,192.1,47.6z"/>
			<polygon class="st8" points="171.7,43.8 171.6,44 171.7,44 			"/>
			<path class="st8" d="M180,70.1l-0.1,0v-0.1c0,0,0-1,0-1.7c0.1,0,0.1,0,0.2,0v-0.1v-0.2c0,0,0.9-0.1,2.3-0.4
				c-2.2,0.3-4.3,0.5-6.5,0.5v0.1v0.1c0.1,0,0.1,0,0.2,0c0,1,0,1.5,0,1.5v0.1l-0.1,0c0,0-3,0.8-4,1.2c-0.3,0.1-0.5,0.3-0.7,0.4
				c-0.1,0.1-0.2,0.2-0.3,0.2c-0.1,0.1-0.2,0.2-0.2,0.2c-0.3,0.3-0.6,0.7-0.8,1.1c0,0.1-0.1,0.2-0.1,0.2c-0.1,0.2-0.2,0.5-0.3,0.7
				c-0.1,0.4-0.3,0.9-0.3,1.4c-0.1,0.6-0.1,1.3-0.1,1.9c0,0.2,0,0.5,0,0.7l12.8-7.7C181.1,70.3,180,70.1,180,70.1z"/>
			<path class="st8" d="M159.5,57.9c0.2-0.8,0.5-1.4,0.7-2.1c-0.5-0.1-1.1-0.3-1.6-0.5C158.9,56.2,159.2,57,159.5,57.9z"/>
			<path class="st8" d="M161.9,54.9c0,0,0.1,0,0.3,0c0-1.2,0-2.3,0-3.5c-2.1,0.1-2.1,0.1-2.1,0.1l-0.1-2l-1.6,0.7
				c0,0-0.1,0.4-0.1,0.9c0,0.2,0,0.4-0.1,0.6c0,0.5,0,1.5,0.2,2.6l0,0c0.8,0.3,1.6,0.5,2.5,0.7L161.9,54.9z"/>
			<path class="st8" d="M197.3,47.8c0,0,0-0.1,0-0.1c-0.1,0-0.1-0.1-0.2-0.2c0,0,0,0-0.1-0.1l-0.1,0.2l-0.6,1.3l-0.8,1.8l-0.4,0.8
				c0,0-0.1,0-0.3,0c-0.7-0.1-2.7-0.2-4.4-0.2c-2.1,0-2.1,0.1-5.8-0.1c-5.5-0.8-6.3-0.9-11.1-0.4c-0.1,1.1-0.1,2-0.1,2.7
				c1.4-0.2,2.5-0.2,3.2-0.2c3.1,0.1,12.9,1.9,15.7,2c0,0,0,0,0,0c0.3-0.1,1-0.3,2.1-1.1c0.1-0.1,0.3-0.2,0.4-0.3
				c0.4-0.3,1.9-1.8,2.4-2.3c0-0.1,0-0.1,0-0.2v0C197.4,50,197.4,48.9,197.3,47.8z M191,53.1c0,0-1.3-0.2-2-0.2
				c-0.7,0-2.2,0.1-2.2,0.1s-0.3,0-0.3-0.1c0.1-0.3,0.3-0.3,0.3-0.3s2.8-0.8,3.1-0.9c0.4-0.1,0.8-0.4,1-0.1c0,0,0,0.1,0,0.1l-4,1
				c0,0,1.4-0.2,2.1-0.2c0.7,0,2.1,0.2,2.1,0.2s0.1,0.1,0.1,0.1C191.1,53,191,53.1,191,53.1z"/>
			<path class="st8" d="M196.1,53.4c-0.5,0.5-1,0.8-1.2,0.9c-0.1,0.1-0.3,0.2-0.4,0.3c-0.4,0.2-0.9,0.5-1.7,0.9
				c0.1,0.1,0.2,0.2,0.2,0.4c0.5,1.3,0.8,2,0.8,3.9c-0.1,0.5-0.2,1.2-0.5,2c0.5-0.6,1.1-1.3,1.5-2c0.1-0.1,0.1-0.2,0.2-0.3
				c0,0.3-0.1,0.6-0.1,0.8c0,0,0,0,0,0.1c0,0,0,0,0,0c0.1-0.2,0.2-0.4,0.3-0.6c0,0,0,0,0,0c0.5-0.9,0.8-1.8,1.1-2.7
				c0.1-0.4,0.2-0.8,0.3-1.3c0.2-0.7,0.3-1.4,0.4-2c0.1-0.5,0.1-1.1,0.1-1.6C197.1,52.2,196.6,52.9,196.1,53.4z"/>
		</g>
		<g>
			<path class="st9" d="M203.2,62.8C203.2,62.7,203.2,62.7,203.2,62.8c0-0.2,0-0.3,0-0.4c0-0.2,0-0.5,0-0.7c0-0.2,0-0.4,0-0.7
				c0-0.5,0-1.1-0.1-1.9l-3.1,1.8l0.1,0.6l0,0l0,0l0.1,0l0.1,0c0.1,0,0.2,0.1,0.6,0.2L203.2,62.8C203.2,62.8,203.2,62.8,203.2,62.8z
				"/>
			<path class="st9" d="M198.4,53.6l1.4,6.2l3.3-2c-0.1-1.5-0.5-2.8-0.7-3.5c0,0,0,0,0,0c0,0,0,0,0,0l-2.3-0.4l-1.3-0.2L198.4,53.6
				L198.4,53.6L198.4,53.6z"/>
			<path class="st9" d="M198.3,55.8l-0.4-2l0-0.1l0-0.1l-0.8,1.7c-0.1,0.1-0.1,0.2-0.2,0.4c-0.1,0.4-0.2,0.9-0.3,1.3
				c-0.3,0.9-0.7,1.8-1.1,2.7c0,0,0,0,0,0c0.1,0.3,0.1,0.6,0.2,0.9c0.1,0.6,0.3,1,0.4,1.5l3.5-2.1L198.3,55.8z"/>
			<path class="st9" d="M199.9,61.8l0-0.2l-0.1-0.5l-3.4,2c0.1,0.2,0.2,0.4,0.3,0.7c0.4,0.8,1.1,2.2,1.7,3.2c0,0,0,0,0,0.1s0,0,0,0
				c0,0,0,0,0,0l0,0v0l0.7-2.4c0,0,0-0.1,0-0.1c0.3-0.8,0.5-1.8,0.7-2.2l0.1-0.4L199.9,61.8L199.9,61.8z"/>
			<path class="st9" d="M182.3,93.3c0.1-0.8,0-5.2-0.3-7.8c-1.1,0.2-2.2,0.3-3.4,0.3c-0.2,0-0.4,0-0.5,0c-1.7,0-3.5-0.1-5.2-0.4
				c0,0,0,0,0,0c0,0.1,0,0.1,0,0.2s0,0.1,0,0.2c-0.2,3.1-0.2,6.9,0.1,7.7c0.2,0,1.2,0.3,2.4,0.6c0.3,0.1,0.7,0.1,1,0.2
				c0.5,0.1,0.9,0.1,1.3,0.1c0,0,0.1,0,0.1,0c0.4,0,0.9-0.1,1.4-0.2c0.2,0,0.5-0.1,0.8-0.1C181.1,93.7,182.1,93.3,182.3,93.3z"/>
			<path class="st9" d="M188.9,94.2c-0.1-0.1-0.3-0.2-0.5-0.3c0,0-0.1,0-0.1-0.1c-0.4-0.2-0.9-0.3-1.4-0.3c-0.6,0.1-1.1,0.2-1.6,0.3
				c0,0,0,0,0,0c-0.4,0-0.8,0.1-1.1,0.2c-0.7,0.2-1.3,0.6-1.9,1.1c0,0-0.1,0.1-0.1,0.1c-0.9,0.4-1.6,0.7-2.6,1.5c0,0,0,0.1,0,0.3
				c0,0.1,0,0.2,0,0.2c0,0.1,0,0.2,0,0.3c0,0.1,0.1,0.3,0.1,0.4c0,0.1,0.1,0.3,0.1,0.4s0.1,0.2,0.2,0.3c0.3,0.2,1.2-0.1,2-0.5
				c0.8-0.3,1.5-0.7,1.5-0.7l3-1.4c1.5-0.7,1.6-0.7,2.3-1.2c0.2-0.1,0.2-0.2,0.2-0.3C189.1,94.3,189,94.2,188.9,94.2z"/>
			<path class="st9" d="M176.4,98c-0.2-0.5-1.2-1.2-1.2-1.2c-1-0.8-1-0.9-1.5-1.2c-0.6-0.6-1.4-1.2-2.1-1.5
				c-0.4-0.2-0.8-0.2-1.2-0.2c0,0,0,0,0,0c-0.4-0.2-0.9-0.4-1.4-0.4c-0.3,0.2-0.9,0.2-1.4,0.4c0,0-0.1,0-0.1,0
				c-0.2,0.1-0.5,0.2-0.6,0.4c-0.1,0.1-0.1,0.1-0.2,0.2c0,0,0,0,0,0c0,0.3,1.4,1,2.6,1.6c1.3,0.6,2.7,1.3,3.4,1.5s3.2,1.1,3.7,0.7
				c0,0,0,0,0,0c0,0,0,0,0.1-0.1c0,0,0,0,0,0C176.4,98.2,176.4,98.2,176.4,98C176.4,98.1,176.4,98.1,176.4,98z"/>
			<path class="st9" d="M171.6,43.5l-1-3.4l-0.6-2L157.8,40c0,0-3.1,1.2-2.6,5.1c1.4-0.3,3.4-0.6,5.5-0.8
				C165.2,43.8,170.1,43.4,171.6,43.5z"/>
			<path class="st9" d="M173.6,50.7c-0.8,0.1-1.7,0.2-2.8,0.3c-1.5,0.1-0.7,0-3.1,0.2c0.5,0.4,0.8,1,0.8,1.7c0,0.4-0.1,0.8-0.4,1.2
				c1.8-0.2,3.8-0.5,5.4-0.7l0,0C173.6,52.7,173.6,51.7,173.6,50.7C173.6,50.7,173.6,50.7,173.6,50.7z"/>
			<path class="st9" d="M164.1,52.8c0-0.6,0.2-1.1,0.6-1.5c-0.1,0-0.2,0-0.4,0c-0.6,0-1,0-1.4,0.1c-0.3,0-0.5,0-0.7,0
				c0,1.2,0,2.3,0,3.5c0.1,0,0.3,0,0.5-0.1c0.5-0.1,1.3-0.2,2.3-0.3C164.4,54.1,164.1,53.5,164.1,52.8z"/>
			<path class="st9" d="M162.7,47.5c5.5-0.1,6.6,0.5,11.1,0.7c0,0,0,0,0,0c0-0.5,0.1-1,0.1-1.5h0l-1.4,0l-0.8-2.6h-0.1l-0.2,1.9
				C171.4,46,166.9,46.1,162.7,47.5z"/>
		</g>
		<path class="st10" d="M163.3,64.3c0.2,0.1,0.4,0.1,0.6,0.2c0.5,0.2,0.9,0.3,1.4,0.5c0.3,0.1,0.6,0.2,0.9,0.3
			c2.5,0.8,5.1,1.4,8.1,1.7c0,0,0,0,0,0c0.9,0.1,1.8,0.1,2.8,0.1c4.7,0,9-1.2,13-2.7c0.6-0.5,1-1.1,1.4-1.7c0.2-0.3,0.4-0.7,0.5-1.1
			c0.2-0.7,0.4-1.4,0.4-2v0c0-0.6,0-1.2-0.1-1.8c0-0.1-0.1-0.3-0.1-0.4c0-0.1-0.1-0.3-0.1-0.4c0,0,0,0,0,0c0,0,0-0.1,0-0.1
			c0,0,0,0,0-0.1c-0.1-0.2-0.1-0.3-0.2-0.5c-0.2,0-4.5-0.6-8.9-1.2c-2.2-0.3-4.5-0.5-6.3-0.7l-1.5,0.2l-1.4,0.2l-1.7,0.2l-9.8,1
			l-0.2,0c0,0.3-1.2,2.1-1.1,4.2c0,0.2,0,0.5,0.1,0.7C161.1,62,161.8,63.2,163.3,64.3z"/>
		<g>
			<path class="st0" d="M190.9,51.6c-0.2-0.2-0.7,0-1,0.1c-0.4,0.1-3.1,0.9-3.1,0.9s-0.2,0-0.3,0.3c0,0.1,0.3,0.1,0.3,0.1
				s1.5-0.1,2.2-0.1s2,0.2,2,0.2s0.1-0.1,0.1-0.1c0,0-0.1-0.1-0.1-0.1s-1.4-0.2-2.1-0.2c-0.7,0-2.1,0.2-2.1,0.2l4-1
				C190.9,51.8,191,51.7,190.9,51.6z"/>
			<g>
				<path class="st4" d="M182.3,70.3l0.5-0.3c-0.5,0-1.1,0-1.9,0C181.3,70,181.8,70.2,182.3,70.3C182.2,70.2,182.2,70.2,182.3,70.3z
					"/>
				<path class="st4" d="M168.7,77.2C168.7,77.2,168.7,77.2,168.7,77.2c-0.2,0.2-0.4,0.3-0.7,0.6l-0.1,0.1c-0.5,0.4-1.4,1.1-1.6,2
					c0,0,0,0,0,0l2.4-1.4c0-0.3,0-0.6,0-0.9C168.7,77.4,168.7,77.3,168.7,77.2z"/>
				<path class="st4" d="M170,72.3c-0.4,0.2-0.9,0.4-1.3,0.6c-1.2,0.8-2.3,1.7-3,2.5c-0.7,0.8-1.3,1.5-1.8,2.5
					c-0.2,0.4-0.3,0.7-0.4,0.9c-0.2,0.4-0.2,0.6-0.4,0.7c-0.1,0.1-0.3,0.1-0.4,0.2c-0.1,0-0.1,0.1-0.2,0.1c-0.1,0.1-1.4,1.1-1.7,1.9
					c-0.2,0.5-0.3,1.1,0,1.4c0,0,0,0,0.1,0l5.3-3.2c0-0.1,0-0.2,0-0.3c0.2-1,1.1-1.7,1.7-2.1l0.1-0.1c0.3-0.3,0.5-0.4,0.6-0.5
					c0.1,0,0.1-0.1,0.1-0.1c0-0.4,0.1-0.7,0.1-1c0.1-0.9,0.3-1.8,0.7-2.5C169.6,73,169.8,72.6,170,72.3z"/>
				<path class="st4" d="M172.9,97.9c-0.1,0-0.2-0.1-0.3-0.1l0,0c-0.9-0.3-2.9-1.2-3.4-1.5c-1.7-0.8-2.5-1.3-2.7-1.6
					c-0.6,0.1-1.1,0.3-1.6,0.4c-0.8,0.2-1.3,0.3-1.8,0.5c-0.5,0.2-0.8,0.3-1,0.4c-0.2,0.2-0.4,0.3-0.6,0.5c-0.2,0.2-0.4,0.4-0.5,0.8
					c-0.1,0.4-0.1,0.9-0.1,1.4c0.1,0.5,0.4,0.9,0.7,1.3c0.4,0.4,0.9,0.8,1.6,1.1c0.7,0.4,1.4,0.6,2.2,0.8c1.1,0.2,2.5,0.3,3.1,0.3
					c0.9,0,1.6,0,2.5-0.2c0.9-0.2,1.9-0.6,2.7-1c0.9-0.5,1.7-1.2,2-1.5c0.4-0.4,0.5-0.6,0.5-0.7c0,0,0-0.1,0-0.1
					C175.7,98.7,174.5,98.4,172.9,97.9z"/>
				<path class="st4" d="M161.9,83.8c0,0.4,0,0.9,0.1,1.1c0.2,0.5,0.5,0.8,0.8,0.9c0.2,0.1,0.5,0,0.7-0.1c0.2-0.2,0.3-0.5,0.2-0.9
					c0-0.1,0-0.2,0.1-0.2c0,0,0,0,0.1,0c0.1,0,0.1,0.1,0.4,0.6c0.1,0.3,0.3,0.7,0.4,0.8c0.2,0.3,0.4,0.4,0.7,0.5
					c0.3,0.1,0.7,0.1,1-0.2c0.2-0.2,0.2-0.7,0.2-1c0-0.2-0.2-0.3-0.4-0.5c-0.2-0.2-0.4-0.4-0.4-0.7c0-0.5,0.4-0.9,0.7-1.2
					c0.4-0.4,0.7-0.1,0.9,0.1c0.1,0.1,0.3,0.2,0.4,0.2c0.1,0,0.1,0,0.1-0.1c0.2-0.2,0.2-0.4,0.2-0.6c0-0.4-0.3-0.9-0.8-1.3
					c-0.1-0.1-0.2-0.2-0.4-0.3L161.9,83.8z"/>
				<path class="st4" d="M176.1,68.7L176.1,68.7c0,0.9,0,1.1,0,1.1v0.1l-0.1,0c0,0-3,0.8-4,1.2c-0.3,0.1-0.5,0.3-0.7,0.4
					c-0.1,0.1-0.2,0.2-0.3,0.2c-0.1,0.1-0.2,0.2-0.2,0.2c-0.3,0.3-0.6,0.7-0.8,1.1c0,0.1-0.1,0.2-0.1,0.2c-0.1,0.2-0.2,0.5-0.3,0.7
					c-0.1,0.4-0.3,0.9-0.3,1.4c-0.1,0.6-0.1,1.3-0.1,1.9c0,0.2,0,0.5,0,0.7l12.8-7.7c-0.8-0.2-1.9-0.4-1.9-0.4l-0.1,0v-0.1
					c0,0,0-0.8,0-1.4l0,0.1L176.1,68.7z"/>
				<path class="st4" d="M171.6,43.5l-1-3.4l-0.6-2L157.8,40c0,0-3.1,1.2-2.6,5.1c1.4-0.3,3.4-0.6,5.5-0.8
					C165.2,43.8,170.1,43.4,171.6,43.5z"/>
				<path class="st4" d="M188.5,40.7C188.5,40.7,188.5,40.7,188.5,40.7c-0.2-0.6-0.3-1-0.4-1.3c-0.2-0.7-0.3-0.6-0.2,0
					c0,0.3,0.1,0.7,0.2,1.2c0.2,1.2,0.5,2.9,0.8,4.2c0.2,1,0.3,1.7,0.3,1.7l-4.9,0.2l-0.4-2.3l-0.3-1.8l-0.1,1.8l-0.1,1.9l-2.8,0.4
					l0.1-1.7l-1.6,2l-5.1-0.2h0l-1.4,0l-0.8-2.6l-0.1-0.2l0,0.2l-0.2,1.9c0,0-4.5,0.2-8.7,1.5c5.5-0.1,6.6,0.5,11.1,0.7c0,0,0,0,0,0
					c3.3,0.2,8.4,0.1,18.3-0.6c-0.6-0.8-1.2-1.8-1.7-2.7C189.6,43.5,188.9,42,188.5,40.7z"/>
				<path class="st4" d="M203.2,63C203.2,63,203.2,63,203.2,63C203.2,63,203.2,63,203.2,63c0-0.1,0-0.1,0-0.2c0,0,0,0,0,0s0,0,0,0
					c0-0.1,0-0.3,0-0.4c0-0.2,0-0.5,0-0.7c0-0.2,0-0.4,0-0.7c0-0.5,0-1.1-0.1-1.9l-3.1,1.8l0.1,0.6l0,0l0,0l0,0l0,0.1v0
					c0,0.2,0.2,0.9,0.7,3.2c0.1,0.3,0.1,0.6,0.2,0.9c0.1,0.5,0.2,1,0.3,1.4c0.1,0.6,0.2,1,0.2,1.1h0c0,0,0,0,0-0.1c0,0,0,0,0,0
					c-0.1-0.3-0.4-1.3-0.8-3c0-0.1,0-0.1-0.1-0.2c-0.3-1-0.7-2.5-0.8-2.9l-0.1-0.2l0-0.1l0-0.1l0-0.2l-0.1-0.5l-3.4,2
					c0.1,0.2,0.2,0.4,0.3,0.7c0.4,0.8,1.1,2.2,1.7,3.2c0,0,0,0,0,0.1s0,0,0,0c0,0,0,0,0,0l0,0v0v0l0.3,0.5c0,0.1,0.1,0.1,0.1,0.2
					l0,0l0.1,0.1l0,0l0.1-0.7c0-0.1,0.1-0.7,0.2-0.8l0,0l0,0l0,0l0,0c0,0,0,0.1,0,0.2c0,0.2,0,0.4,0,0.7c0,0.3,0,0.4,0,0.5
					c0,0.1,0,0.1,0,0.2l0,0l0,0c0,0.1,0,0.2,0.1,0.3c0,0.1,0.1,0.1,0.1,0.1c0,0,0,0,0,0v0l0,0l0,0l0.2,0.2l2.5,3.2
					c0,0,0.5,0.6,1.2,1.2c0.2,0.2,0.4,0.4,0.6,0.6c0.7,0.7,1.4,1.4,1.8,1.6l0.1,0c0.4,0.3,0.5,0.3,0.6,0.3c0,0,0-0.1,0-0.1
					c0,0,0-0.1,0-0.1c0,0,0,0,0-0.1c-1.3-2.4-1.7-4.1-2.1-6.3c-0.1-0.5-0.2-1-0.2-1.6c0,0,0-0.1,0-0.1l0,0l0,0l0,0v0
					c-0.2-1.5-0.4-3.7-0.4-4.2C203.2,63.1,203.2,63,203.2,63z"/>
				<path class="st4" d="M203,57.8c-0.1-1.5-0.5-2.8-0.7-3.5c0,0,0,0,0,0c0,0,0,0,0,0v0c0,0,0,0,0.1,0c0,0,0.1,0,0.1,0c0,0,0,0,0,0
					l0,0c0,0-0.5-1.3-0.6-1.5c-0.1-0.1-0.1-0.3-0.2-0.4c-0.3-0.7-0.8-1.5-1.1-2c0,0-0.1-0.1-0.1-0.1c0,0-0.1-0.1-0.1-0.2
					c0,0,0,0-0.1-0.1c0,0-0.1-0.1-0.1-0.1c0,0,0,0-0.1-0.1c0,0-0.1-0.1-0.1-0.1c0,0-0.1-0.1-0.1-0.1c0,0-0.1-0.1-0.1-0.1
					c0,0-0.1,0-0.1-0.1c0,0-0.1-0.1-0.1-0.1c0,0,0,0-0.1-0.1c0,0-0.1-0.1-0.1-0.1c0,0,0,0-0.1,0c-0.1,0-0.1-0.1-0.1-0.1c0,0,0,0,0,0
					l0,0c0,0-0.1-0.1-0.1-0.1c0,0-0.1,0-0.1,0s0,0,0,0c0,0,0,0-0.1,0c0,0,0,0,0,0c0,0,0,0-0.1,0c-0.2,0.1-0.7-0.2-1.2-0.7
					c0,0-0.1,0-0.1,0l0.6,5.3l0,0l0,0l0,0l1.4,6.2L203,57.8z"/>
				<path class="st4" d="M182.5,85.4c-0.1,0-0.1,0-0.1,0c-0.1,0-0.2,0-0.3,0.1c-1.1,0.2-2.2,0.3-3.4,0.3c-0.2,0-0.4,0-0.5,0
					c-1.7,0-3.5-0.1-5.2-0.4c-0.1,0-0.2,0-0.3-0.1c0,0-0.1,0-0.1,0c-0.1,0-0.2,0-0.3-0.1c0,0.1,0,0.1,0,0.1s0,0.1,0,0.2
					c-0.1,2.4,0,5.5,0.1,7.6c0,0.3,0,0.6,0,0.8v0v0l0,0c0,0,0.1,0,0.1,0c0.8,0.3,1.8,0.5,2.7,0.7c0.5,0.1,1,0.2,1.4,0.2
					c0.6,0.1,1.1,0.1,1.4,0.1h0c0.3,0,0.8,0,1.4-0.1c0.5,0,1.1-0.1,1.8-0.3c0.6-0.1,1.1-0.3,1.7-0.5c0.1,0,0.2-0.1,0.3-0.1l0,0v0v0
					c0-0.3,0-0.6,0-0.9v-0.2c0-2.9-0.2-6.4-0.3-7.4C182.7,85.3,182.6,85.4,182.5,85.4z"/>
				<path class="st4" d="M187.8,79.8c-0.2-0.7-0.5-1-0.9-1.3c-0.1,1.1-0.2,1.9-0.3,2.7c0.1-0.1,0.2-0.2,0.2-0.2
					c0.1-0.1,0.3-0.2,0.4-0.3C187.7,80.3,187.9,80.1,187.8,79.8z"/>
				<path class="st4" d="M187,78.2C187,78.2,187,78.2,187,78.2c0.5,0.3,0.9,0.7,1.1,1.6c0.1,0.5-0.3,0.8-0.7,1.1
					c-0.1,0.1-0.2,0.2-0.4,0.3c-0.2,0.2-0.4,0.4-0.6,0.6c-0.1,0.3-0.1,0.7-0.2,1c0,0,0,0,0,0c0,0.1,0.1,0.2,0.2,0.3
					c0,0,0.1,0,0.1,0.1h0c0.2,0,0.3-0.1,0.4-0.2c0.1-0.1,0.3-0.3,0.5-0.3c0.1,0,0.2,0.1,0.4,0.2c0.3,0.3,0.7,0.7,0.7,1.2
					c0,0.3-0.2,0.5-0.4,0.7c-0.2,0.2-0.3,0.3-0.4,0.5c-0.1,0.3-0.1,0.8,0.2,1c0.2,0.2,0.7,0.2,1,0.2s0.6-0.2,0.7-0.5
					c0.1-0.1,0.2-0.5,0.4-0.8c0.2-0.6,0.3-0.7,0.4-0.6c0.1,0,0.1,0.2,0.1,0.2c-0.1,0.4,0,0.7,0.2,0.9c0.1,0.1,0.4,0.2,0.7,0.1
					c0.3-0.1,0.6-0.4,0.8-0.9c0.1-0.2,0.1-1.1,0-1.5c0,0,0-0.1,0-0.1c0-0.2,0-0.2,0.1-0.3l0.1,0l0.1,0.1c0,0,0,0.1,0,0.1l0,0
					c0,0,0,0,0,0c0,0.1,0,0.1,0,0.2c0,0.1,0.1,0.1,0.1,0.2c0.2,0.1,0.6-0.1,0.8-0.3c0.3-0.3,0.2-0.8,0-1.4c-0.3-0.9-1.6-1.9-1.7-1.9
					l-0.2-0.1c-0.1-0.1-0.3-0.2-0.5-0.2c-0.2-0.1-0.3-0.3-0.4-0.7c-0.1-0.2-0.2-0.5-0.4-0.9c-0.5-1-1.1-1.7-1.8-2.5
					c-0.5-0.6-1.1-1.1-1.7-1.6c0,0.1,0.1,0.2,0.1,0.4C187,75.4,187,77.2,187,78.2z"/>
				<path class="st4" d="M169.1,79.4c0.1,1.5,0.3,2.9,0.6,4.3c2.9,0.8,5.9,1.2,8.9,1.1c2.9-0.1,5.3-0.6,7.3-1.5
					c0.1-0.2,0.1-0.4,0.1-0.6c0,0,0,0,0,0c0.1-0.3,0.1-0.6,0.2-0.9c0.2-0.9,0.4-1.9,0.5-3.4c0,0,0-0.1,0-0.1c0.1-0.7,0-1.8,0-2.9
					c0-0.4-0.1-0.8-0.1-1.1c0,0,0,0,0-0.1c-0.1-0.3-0.1-0.5-0.2-0.8c0-0.1-0.1-0.2-0.1-0.3c-0.1-0.1-0.1-0.2-0.2-0.3
					c-0.6-0.9-1.6-1.6-2.6-2L169.1,79.4z"/>
				<path class="st0" d="M273.4,16.3c0-0.1-0.1-0.1-0.2-0.1l-5.3,0.3c-0.1,0-0.1,0.1-0.2,0.1c0,0.1,0,0.2,0.1,0.2l0.7,0.4h-2.2
					c-0.1,0-0.1,0-0.2,0.1c0,0.1,0,0.2,0.1,0.2l1.8,1.2l-64.6,38.7c-0.2-1.7-0.6-3.1-0.8-3.6c-0.1-0.1-0.1-0.3-0.1-0.4
					c-0.1-0.4-0.4-1-0.8-1.9c-0.2-0.4-0.5-0.9-0.8-1.5c0,0,0-0.1-0.1-0.1c-0.6-0.8-1.1-1.3-1.5-1.7c0.1-0.5,0.1-1.7-0.1-4.2
					c-0.1-1-0.4-1.7-0.6-2.5c-2.3-6.1-9.2-10.4-21.7-10.4c-16.6,0-22.9,7.5-22.6,12.3c0.3,4.8,1.1,5.9,1.5,6.7
					c0.4,0.8,0.6,1.1,0.6,1.1l1.2-0.3c0,1,0.1,1.9,0.1,2.6c0,0,0,0,0,0.1c0,0,0,0,0,0.1c0,0.2,0.1,0.4,0.1,0.6c0,0,0,0,0,0.1
					s0,0,0,0.1c0.4,3,1.2,4.1,1.6,4.6c0-0.3,0.1-0.5,0.1-0.8c0-0.2,0.1-0.4,0.1-0.5c-0.4-0.9-0.6-1.7-0.8-2.5c0,0,0,0,0,0
					c-0.1-0.4-0.2-0.7-0.2-1c0,0,0,0,0,0l0,0c-0.2-1.1-0.2-2.1-0.2-2.6c0-0.2,0-0.4,0.1-0.6c0.1-0.5,0.1-0.9,0.1-0.9l1.6-0.7l0.1,2
					c0,0,0,0,2.1-0.1c0.2,0,0.5,0,0.7,0c0.4,0,0.9,0,1.4-0.1c0.1,0,0.3,0,0.4,0c-0.4,0.4-0.6,0.9-0.6,1.5c0,0.7,0.3,1.3,0.8,1.7
					c1-0.1,2.1-0.3,3.3-0.5c0.2-0.3,0.4-0.8,0.4-1.2c0-0.7-0.3-1.3-0.8-1.7c2.4-0.1,1.6-0.1,3.1-0.2c1.1-0.1,2-0.2,2.8-0.3
					c0,0,0,0,0,0c4.8-0.5,5.6-0.4,11.1,0.4c3.7,0.2,3.7,0.1,5.8,0.1c1.7,0,3.6,0.2,4.4,0.2c0.2,0,0.3,0,0.3,0l0.4-0.8l0.8-1.8
					l0.6-1.3l0.1-0.2c0,0,0,0,0.1,0.1c0.1,0,0.1,0.1,0.2,0.2c0,0,0,0.1,0,0.1c0.1,1.1,0.1,2.3,0,3.4c0,0.1,0,0.1,0,0.2c0,0,0,0,0,0
					l0,0.1c0.1,0.3,0.1,0.6,0.1,0.8c0.1,0.3,0.1,0.8,0.2,1l0.1,0.4l0,0l0,0l0,0l0,0.1l0,0.1l0.4,2l1.1,4.2l-3.5,2.1
					c-0.2-0.5-0.3-0.9-0.4-1.5c-0.1-0.3-0.1-0.5-0.2-0.9c-0.1,0.2-0.2,0.4-0.3,0.6c0,0.1,0.1,0.2,0.1,0.3c0.1,0.6,0.3,1.1,0.5,1.6
					l-0.8,0.5c0.1-0.7,0.1-1.5,0.3-2.5c0,0,0,0,0-0.1c0-0.3,0.1-0.5,0.1-0.8c-0.1,0.1-0.1,0.2-0.2,0.3c-0.5,0.7-1,1.4-1.5,2
					c-0.2,0.6-0.6,1.3-1.1,1.9c-0.3,0.4-0.7,0.8-1.1,1.2c-0.1,0.1-0.1,0.1-0.2,0.2c-0.1,0.1-0.2,0.1-0.3,0.2
					c-0.3,0.1-0.5,0.2-1.1,0.4c0,0,0,0,0,0c-1.8,0.5-4.2,1.3-6.9,1.8c-0.1,0-0.1,0-0.2,0c-1.5,0.3-2.3,0.4-2.3,0.4v0.2v0.1
					c-0.1,0-0.1,0-0.2,0l0,0.2c0,0.6,0,1.4,0,1.4V70l0.1,0c0,0,1.1,0.2,1.9,0.4l-12.8,7.7c0-0.2,0-0.5,0-0.7c-0.1-0.7,0-1.3,0.1-1.9
					c0.1-0.5,0.2-0.9,0.3-1.4c0.1-0.2,0.2-0.5,0.3-0.7c0-0.1,0.1-0.2,0.1-0.2c0.2-0.4,0.5-0.8,0.8-1.1c0.1-0.1,0.2-0.2,0.2-0.2
					c0.1-0.1,0.2-0.2,0.3-0.2c0.2-0.2,0.5-0.3,0.7-0.4c1.1-0.5,4-1.2,4-1.2l0.1,0v-0.1c0,0,0-0.2,0-1.1l0-0.4c-0.1,0-0.1,0-0.2,0
					v-0.1V68c-0.5,0-1,0-1.6-0.1h0c-1.2-0.1-2.4-0.3-3.7-0.6c-0.5-0.1-1-0.3-1.4-0.4c-0.7-0.2-1.3-0.3-1.8-0.5
					c-1.1-0.3-1.9-0.5-3.4-1.1c-0.8-0.2-1.3-0.4-1.7-0.6c-0.7-0.4-1.9-1.5-2.5-2.8c0.2,3.4,0.3,8.9,0.3,8.9l5.6,0.4l-0.3-2.9
					l1.9,2.6l4.6-0.3l0.3-0.1c-0.2,0.1-0.3,0.1-0.4,0.2c-0.5,0.3-1,0.6-1.4,1c-0.6,0.2-1.3,0.5-1.8,0.8c-0.7,0.4-2,1.4-3.1,2.5
					c-0.8,0.8-1.4,1.6-1.9,2.6c-0.2,0.4-0.3,0.7-0.4,0.9c-0.1,0.3-0.2,0.5-0.3,0.5c-0.1,0.1-0.3,0.1-0.5,0.2c-0.1,0-0.1,0.1-0.2,0.1
					c-0.2,0.1-1.5,1.1-1.8,2.1c-0.1,0.4-0.4,1.2,0.1,1.6l-33.7,20.2c-0.1,0.1-0.1,0.2-0.1,0.2l0.4,0.6c0,0,0.1,0.1,0.1,0.1
					c0,0,0,0,0,0c0,0,0.1,0,0.1,0l34.3-20.6c0,0.4,0,0.9,0.1,1c0.2,0.6,0.6,0.9,1,1c0.3,0.1,0.7,0,0.9-0.2c0.1-0.1,0.2-0.3,0.3-0.5
					c0.1,0.3,0.3,0.7,0.4,0.8c0.2,0.3,0.5,0.6,0.9,0.6c0.1,0,0.2,0,0.4,0c0.3,0,0.6-0.1,0.8-0.3c0.3-0.3,0.3-0.9,0.2-1.3
					c-0.1-0.3-0.2-0.4-0.4-0.6c-0.2-0.2-0.3-0.3-0.4-0.5c0-0.4,0.4-0.8,0.6-1c0.2-0.2,0.3-0.1,0.5,0.1c0.1,0.1,0.4,0.3,0.6,0.3
					c0.1,0,0.2-0.1,0.3-0.1c0.2-0.2,0.3-0.5,0.3-0.8c0-0.5-0.3-1-0.9-1.5c-0.1-0.1-0.2-0.2-0.3-0.2l1.8-1.1c0.1,1.4,0.3,2.8,0.5,4
					c-0.2-0.1-0.5-0.1-0.7-0.2l-0.1,0.5c0,0,0,0,0,0c0,0,0,0,0,0.1l-0.1,0.3c0,0,0.1,0,0.1,0c0,2.9,0.5,8,0.5,8s-2.5,0.1-1.7,1.6
					c0,0,0,0,0,0c0,0,0.1,0,0.1,0c0,0,0.1,0,0.1,0c0.5-0.2,1.1-0.3,1.4-0.4c0.5,0.1,1,0.2,1.4,0.4c0,0,0,0,0,0
					c0.4,0,0.8,0.1,1.2,0.2c0.8,0.3,1.5,0.9,2.1,1.5c0.5,0.3,0.6,0.3,1.5,1.2c0,0,1,0.7,1.2,1.2c0,0,0,0,0,0c0,0.1,0,0.1,0,0.2
					c0,0,0,0,0,0c0,0,0,0-0.1,0.1c0,0,0,0,0,0c-0.5,0.4-3-0.5-3.7-0.7s-2.1-0.9-3.4-1.5c-1.3-0.6-2.7-1.3-2.6-1.6c0,0,0,0,0,0
					c0.1-0.1,0.1-0.1,0.2-0.2l-0.2,0.1c-0.6,0.1-1.2,0.3-1.7,0.4c-0.8,0.2-1.4,0.3-1.8,0.5c-0.5,0.2-0.8,0.3-1.1,0.5
					c-0.3,0.2-0.5,0.4-0.7,0.6c-0.2,0.2-0.4,0.5-0.5,0.8c0,0,0,0.1-0.1,0.1c-0.1,0.5-0.2,1.1-0.1,1.6c0,0.1,0.1,0.2,0.1,0.3
					c0.1,0.4,0.4,0.8,0.7,1.2c0.5,0.5,1.2,0.9,1.6,1.2c0.7,0.4,1.5,0.6,2.3,0.8c0.3,0.1,0.5,0.1,0.8,0.1c0.9,0.1,1.9,0.2,2.3,0.2
					c0.2,0,0.3,0,0.5,0c0.6,0,1.2,0,1.8-0.2c0.1,0,0.2,0,0.3-0.1c1-0.2,2-0.6,2.8-1.1c0.9-0.5,1.7-1.2,2.1-1.5
					c0.2-0.2,0.4-0.3,0.5-0.5c0.1-0.2,0.2-0.3,0.2-0.5c0-0.1,0-0.2,0-0.3c0.1,0.1,0.2,0.2,0.3,0.3c0.2-0.1,0.5-0.2,0.7-0.4
					c0.2-0.2,0.5-1.7-0.1-2.5h0.9c-0.5,0.3-0.3,2-0.1,2.6l0,0l0,0c0,0.1,0.1,0.2,0.1,0.2c0.1,0.1,0.2,0.2,0.3,0.2
					c0.2,0.2,0.4,0.3,0.5,0.5c0.2,0.1,0.3,0.2,0.4,0.3l0.1,0.1c0.4,0.3,1.2,0.8,2,1.3c0.9,0.5,2.1,1,3.1,1.3
					c0.3,0.1,0.6,0.2,0.9,0.2c0.6,0.1,1.1,0.2,1.8,0.2c0,0,0,0,0.1,0c0.7,0,1.3-0.1,1.9-0.2c0.3-0.1,0.6-0.1,0.9-0.2
					c0.9-0.2,1.7-0.6,2.3-1.1c0.7-0.5,1.2-1.1,1.5-1.5c0.3-0.4,0.5-0.7,0.6-1c0-0.1,0.1-0.2,0.1-0.2c0.1-0.4,0.1-0.9,0-1.3
					c0-0.1-0.1-0.2-0.1-0.4c-0.1-0.2-0.2-0.5-0.4-0.7c-0.2-0.3-0.5-0.5-0.8-0.7c-0.2-0.2-0.6-0.4-1.2-0.6c-0.5-0.2-1.2-0.3-1.9-0.4
					c-0.2,0-0.4-0.1-0.7-0.1c-0.2,0-0.4-0.1-0.7-0.1l-0.2,0c0.1,0.1,0.1,0.1,0.2,0.2c0,0.1,0,0.2-0.2,0.3c-0.8,0.4-0.8,0.5-2.3,1.2
					l-3,1.4c0,0-0.7,0.4-1.5,0.7c0.7-0.2,1.4-0.5,1.6-0.6l3-1.4c1.4-0.6,1.5-0.7,2.1-1l0.2-0.1c0.2-0.1,0.2-0.2,0.3-0.2
					c0.2,0,0.4,0.1,0.5,0.1c0.2,0,0.5,0.1,0.7,0.1c0.6,0.1,1.3,0.3,1.8,0.4c0.4,0.1,0.8,0.3,1.1,0.5c0.3,0.2,0.6,0.4,0.7,0.6
					c0.2,0.3,0.4,0.6,0.5,0.9c0.1,0.3,0.1,0.8,0,1.2c-0.1,0.4-0.3,0.7-0.6,1.1c-0.3,0.4-0.8,0.9-1.4,1.4c-0.6,0.4-1.4,0.8-2.2,1
					c-0.8,0.2-1.8,0.3-2.8,0.3c-0.9,0-1.7-0.1-2.6-0.4c-0.9-0.3-2.1-0.7-3-1.2c-0.8-0.4-1.6-0.9-2-1.2l-0.1-0.1
					c-0.1-0.1-0.2-0.2-0.4-0.3c0,0.1-0.1,0.1-0.1,0.1c0,0,0,0,0,0c0,0,0-0.1,0-0.1c0,0,0,0,0-0.1c0,0,0-0.1,0-0.2
					c0.1-0.2,0.2-0.5,0.4-0.8c0-0.1,0.1-0.1,0.1-0.2c0-0.1-0.1-0.3-0.1-0.4c0-0.1,0-0.2,0-0.3c0-0.1,0-0.2,0-0.2c0-0.2,0-0.3,0-0.3
					c1-0.8,1.7-1.1,2.6-1.5c0,0,0.1-0.1,0.1-0.1c0.6-0.4,1.2-0.9,1.9-1.1c0.4-0.1,0.7-0.1,1.1-0.2c0,0,0,0,0,0
					c0.5-0.1,1-0.2,1.6-0.3c0.5,0,1,0.1,1.4,0.3c0,0,0.1,0,0.1,0c0.4-1.7-2.1-1.7-2.1-1.5v-8.2c0.1-0.1,0.3-0.1,0.4-0.2l-0.2-0.4
					c0,0,0.1,0,0.1,0c0.2,0,0.5-0.1,0.6-0.3c0.2-0.2,0.3-0.3,0.5-0.1c0.2,0.2,0.6,0.6,0.6,1c0,0.2-0.2,0.3-0.4,0.5
					c-0.2,0.2-0.4,0.3-0.4,0.6c-0.1,0.4-0.1,0.9,0.2,1.3c0.2,0.2,0.5,0.3,0.8,0.3c0.1,0,0.3,0,0.4,0c0.4-0.1,0.7-0.3,0.9-0.6
					c0.1-0.2,0.2-0.5,0.4-0.8c0.1,0.2,0.1,0.4,0.3,0.5c0.2,0.2,0.6,0.3,0.9,0.2c0.4-0.1,0.7-0.5,1-1c0.1-0.2,0.1-0.8,0.1-1.3
					c0,0,0,0,0,0c0.4,0.1,0.9-0.2,1.1-0.3c0.5-0.4,0.2-1.2,0.1-1.7c-0.3-1-1.7-2-1.8-2.1l-0.2-0.1c-0.1-0.1-0.3-0.2-0.5-0.2
					c-0.1,0-0.2-0.2-0.3-0.5c-0.1-0.2-0.2-0.5-0.4-0.9c-0.5-1-1.1-1.8-1.9-2.6c-0.6-0.7-1.4-1.3-2.1-1.9c-0.6-1.2-1.7-2.1-2.9-2.6
					l1.4-0.8c0.9-0.1,1.8-0.1,3.4-0.2l0.9-2.3l1.2,2.6l3.1,0.1c0.6-2.9,0.8-4.2,0.9-5.9l1.4-0.8c0.1,0.2,0.2,0.4,0.3,0.6
					c0.5,1.1,1.5,2.9,2.1,4c0.2,0.3,0.3,0.5,0.4,0.7c0,0,0,0,0,0.1l0,0c0,0,0,0,0,0c0,0,0,0,0,0.1l0,0l2.7,3.5
					c0.1,0.1,2.8,2.9,3.6,3.4l0,0c0.3,0.2,0.5,0.3,0.8,0.3c0.1,0,0.1,0,0.2-0.1c0.3-0.1,0.3-0.5,0.2-0.7c0,0,0,0,0-0.1
					c-1.3-2.4-1.7-4.1-2.1-6.3c-0.4-2.1-0.6-5-0.7-6.4c0-0.1,0-0.2,0-0.3c0-0.2,0-0.5,0-0.7c0-0.2,0-0.4,0-0.7c0-0.6,0-1.2-0.1-2.2
					l65.1-39v2.4c0,0.1,0,0.1,0.1,0.2c0.1,0,0.2,0,0.2-0.1l1.2-2.1v1c0,0.1,0,0.1,0.1,0.2c0.1,0,0.2,0,0.2-0.1l2.9-4.7
					C273.5,16.5,273.5,16.4,273.4,16.3z M160.8,44.3c-2.1,0.2-4.1,0.5-5.5,0.8c-0.6-3.9,2.6-5.1,2.6-5.1l12.2-1.9l0.6,2l1,3.4
					C170.1,43.4,165.2,43.8,160.8,44.3z M173.8,48.2C173.8,48.2,173.8,48.2,173.8,48.2c-4.5-0.2-5.6-0.9-11.1-0.7
					c4.3-1.3,8.7-1.5,8.7-1.5l0.2-1.9l0-0.2l0.1,0.2l0.8,2.6l1.4,0h0l5.1,0.2l1.6-2l-0.1,1.7l2.8-0.4l0.1-1.9l0.1-1.8l0.3,1.8
					l0.4,2.3l4.9-0.2c0,0-0.1-0.7-0.3-1.7c-0.2-1.2-0.6-2.9-0.8-4.2c-0.1-0.5-0.1-0.9-0.2-1.2c-0.1-0.5,0-0.6,0.2,0
					c0.1,0.3,0.2,0.7,0.4,1.3c0,0,0,0,0,0c0.4,1.3,1,2.8,1.9,4.2c0.5,0.9,1.1,1.8,1.7,2.7C182.2,48.3,177.1,48.4,173.8,48.2z
					 M167.1,81.2c0.5,0.5,0.8,0.9,0.8,1.3c0,0.2-0.1,0.5-0.2,0.6c0,0-0.1,0-0.1,0.1c-0.1,0-0.4-0.1-0.4-0.2
					c-0.2-0.2-0.5-0.5-0.9-0.1c-0.3,0.3-0.7,0.7-0.7,1.2c0,0.3,0.2,0.5,0.4,0.7c0.2,0.2,0.3,0.3,0.4,0.5c0.1,0.3,0.1,0.8-0.2,1
					c-0.2,0.2-0.7,0.2-1,0.2s-0.6-0.2-0.7-0.5c-0.1-0.1-0.2-0.5-0.4-0.8c-0.2-0.5-0.2-0.6-0.4-0.6c0,0,0,0-0.1,0
					c-0.1,0-0.1,0.2-0.1,0.2c0.1,0.4,0,0.7-0.2,0.9c-0.1,0.1-0.4,0.2-0.7,0.1c-0.3-0.1-0.6-0.4-0.8-0.9c-0.1-0.2-0.1-0.7-0.1-1.1
					l4.9-2.9C166.9,80.9,167,81,167.1,81.2z M166.3,79.8C166.3,79.8,166.3,79.8,166.3,79.8c0.2-0.9,1.1-1.6,1.6-2l0.1-0.1
					c0.4-0.3,0.5-0.4,0.6-0.6c0,0,0,0,0.1,0c0,0.1,0,0.2,0,0.3c0,0.3,0,0.6,0,0.9L166.3,79.8z M168.8,75.8c-0.1,0.3-0.1,0.7-0.1,1
					c0,0-0.1,0.1-0.1,0.1c-0.1,0.1-0.3,0.3-0.6,0.5l-0.1,0.1c-0.6,0.4-1.5,1.2-1.7,2.1c0,0.1,0,0.2,0,0.3l-5.3,3.2c0,0,0,0-0.1,0
					c-0.3-0.3-0.2-0.8,0-1.4c0.3-0.9,1.6-1.9,1.7-1.9c0.1,0,0.1-0.1,0.2-0.1c0.1-0.1,0.3-0.2,0.4-0.2c0.2-0.1,0.3-0.3,0.4-0.7
					c0.1-0.2,0.2-0.5,0.4-0.9c0.5-1,1.1-1.7,1.8-2.5c0.8-0.8,1.9-1.7,3-2.5c0.4-0.2,0.8-0.4,1.3-0.6c-0.2,0.3-0.4,0.7-0.6,1
					C169.1,74.1,168.9,74.9,168.8,75.8z M175.7,99.5c-0.3,0.3-1.1,0.9-2,1.5c-0.8,0.4-1.8,0.8-2.7,1c-0.9,0.2-1.6,0.2-2.5,0.2
					c-0.5,0-1.9-0.1-3.1-0.3c-0.8-0.2-1.5-0.4-2.2-0.8c-0.6-0.3-1.2-0.7-1.6-1.1c-0.4-0.4-0.6-0.8-0.7-1.3c-0.1-0.4-0.1-1,0.1-1.4
					c0.1-0.4,0.3-0.6,0.5-0.8c0.2-0.2,0.4-0.4,0.6-0.5c0.2-0.1,0.5-0.3,1-0.4c0.5-0.2,1-0.3,1.8-0.5c0.4-0.1,1-0.2,1.6-0.4
					c0.2,0.3,0.9,0.7,2.7,1.6c0.6,0.3,2.6,1.2,3.4,1.5l0,0c0.1,0,0.2,0.1,0.3,0.1c1.6,0.5,2.8,0.8,3.3,0.7c0,0.1,0,0.1,0,0.1
					C176.2,98.9,176.1,99.1,175.7,99.5z M180.9,69.9c0.8,0,1.4,0,1.9,0l-0.5,0.3c0,0,0,0-0.1,0C181.8,70.2,181.3,70,180.9,69.9z
					 M183.1,93c0,0.3,0,0.6,0,0.9v0v0l0,0c-0.1,0.1-0.2,0.1-0.3,0.1c-0.6,0.2-1.2,0.4-1.7,0.5c-0.7,0.2-1.3,0.2-1.8,0.3
					c-0.6,0.1-1.1,0.1-1.4,0.1h0c-0.3,0-0.8,0-1.4-0.1c-0.4-0.1-0.9-0.1-1.4-0.2c-0.9-0.2-1.9-0.4-2.7-0.7c0,0-0.1,0-0.1,0l0,0v0v0
					c0-0.2,0-0.5,0-0.8c-0.1-2.1-0.2-5.2-0.1-7.6c0-0.1,0-0.1,0-0.2c0-0.1,0-0.1,0-0.1c0.1,0,0.2,0,0.3,0.1c0,0,0.1,0,0.1,0
					c0.1,0,0.2,0,0.3,0.1c1.7,0.3,3.4,0.4,5.2,0.4c0.2,0,0.4,0,0.5,0c1.2,0,2.4-0.1,3.4-0.3c0.1,0,0.2,0,0.3-0.1c0.1,0,0.1,0,0.1,0
					c0.1,0,0.2,0,0.4-0.1c0.1,1.1,0.3,4.5,0.3,7.4L183.1,93L183.1,93z M188.4,75.4c0.8,0.8,1.3,1.5,1.8,2.5c0.2,0.4,0.3,0.7,0.4,0.9
					c0.2,0.4,0.2,0.6,0.4,0.7c0.1,0.1,0.3,0.1,0.5,0.2l0.2,0.1c0.1,0.1,1.4,1.1,1.7,1.9c0.2,0.5,0.3,1.1,0,1.4
					c-0.2,0.2-0.6,0.4-0.8,0.3c0,0-0.1,0-0.1-0.2c0-0.1,0-0.2,0-0.2c0,0,0,0,0,0l0,0c0-0.1,0-0.1,0-0.1l-0.1-0.1l-0.1,0
					c-0.1,0-0.1,0.1-0.1,0.3c0,0,0,0.1,0,0.1c0,0.4,0.1,1.3,0,1.5c-0.2,0.5-0.5,0.8-0.8,0.9c-0.2,0.1-0.5,0-0.7-0.1
					c-0.2-0.2-0.3-0.5-0.2-0.9c0-0.1,0-0.2-0.1-0.2c-0.1,0-0.2,0-0.4,0.6c-0.1,0.3-0.3,0.7-0.4,0.8c-0.2,0.3-0.4,0.4-0.7,0.5
					c-0.3,0.1-0.7,0.1-1-0.2c-0.2-0.2-0.2-0.7-0.2-1c0-0.2,0.2-0.3,0.4-0.5c0.2-0.2,0.4-0.4,0.4-0.7c0-0.5-0.4-0.9-0.7-1.2
					c-0.1-0.1-0.3-0.2-0.4-0.2c-0.2,0-0.4,0.2-0.5,0.3c-0.1,0.1-0.3,0.2-0.4,0.2h0c-0.1,0-0.1,0-0.1-0.1c-0.1-0.1-0.2-0.2-0.2-0.3
					c0,0,0,0,0,0c0.1-0.3,0.1-0.7,0.2-1c0.1-0.2,0.3-0.4,0.6-0.6c0.1-0.1,0.2-0.2,0.4-0.3c0.4-0.3,0.8-0.6,0.7-1.1
					c-0.2-0.9-0.6-1.2-1.1-1.5c0,0,0,0-0.1,0c0.1-1,0-2.7-0.1-4c0-0.1-0.1-0.2-0.1-0.4C187.3,74.3,187.9,74.8,188.4,75.4z
					 M186.6,81.2c0.1-0.8,0.3-1.6,0.3-2.7c0.4,0.3,0.7,0.6,0.9,1.3c0.1,0.3-0.2,0.5-0.6,0.8c-0.1,0.1-0.3,0.2-0.4,0.3
					C186.8,81,186.7,81.1,186.6,81.2z M185.9,72.9c0.1,0.1,0.1,0.2,0.2,0.3c0.1,0.1,0.1,0.2,0.1,0.3c0.1,0.2,0.2,0.5,0.2,0.8
					c0,0,0,0,0,0.1c0,0.3,0.1,0.7,0.1,1.1c0.1,1.1,0.1,2.2,0,2.9c0,0.1,0,0.1,0,0.1c-0.1,1.4-0.3,2.4-0.5,3.4
					c-0.1,0.3-0.1,0.6-0.2,0.9c0,0,0,0,0,0c-0.1,0.2-0.1,0.4-0.1,0.6c-1.9,1-4.3,1.5-7.3,1.5c-3,0.1-6-0.3-8.9-1.1
					c-0.3-1.3-0.5-2.8-0.6-4.3l14.2-8.5C184.4,71.3,185.3,72,185.9,72.9z M198.4,53.6L198.4,53.6L198.4,53.6l0-0.1l-0.6-5.3
					c0,0,0.1,0,0.1,0c0.5,0.4,0.9,0.7,1.2,0.7c0,0,0,0,0.1,0c0,0,0,0,0,0c0,0,0.1,0,0.1,0c0,0,0,0,0,0s0,0,0.1,0c0,0,0.1,0,0.1,0.1
					l0,0c0,0,0,0,0,0c0,0,0.1,0.1,0.1,0.1c0,0,0,0,0.1,0c0,0,0.1,0.1,0.1,0.1c0,0,0,0,0.1,0.1c0,0,0.1,0.1,0.1,0.1
					c0,0,0.1,0,0.1,0.1c0,0,0.1,0.1,0.1,0.1c0,0,0.1,0,0.1,0.1c0,0,0.1,0.1,0.1,0.1c0,0,0,0,0.1,0.1c0,0,0.1,0.1,0.1,0.1
					c0,0,0,0,0.1,0.1c0.1,0.1,0.1,0.1,0.1,0.2c0,0,0.1,0.1,0.1,0.1c0.3,0.5,0.8,1.3,1.1,2c0.1,0.2,0.1,0.3,0.2,0.4
					c0.1,0.2,0.6,1.4,0.6,1.5c0,0,0,0,0,0s0,0,0,0s0,0-0.1,0c0,0,0,0-0.1,0v0c0,0,0,0,0,0c0,0,0,0,0,0c0.2,0.7,0.6,2,0.7,3.5l-3.3,2
					L198.4,53.6z M203.6,67.3L203.6,67.3L203.6,67.3L203.6,67.3L203.6,67.3c0,0.1,0,0.1,0,0.1c0.1,0.6,0.1,1.1,0.2,1.6
					c0.4,2.2,0.7,4,2.1,6.3c0,0,0,0,0,0.1c0,0,0,0.1,0,0.1c0,0.1,0,0.1,0,0.1c0,0-0.2,0-0.6-0.3l-0.1,0c-0.3-0.2-1.1-0.9-1.8-1.6
					c-0.2-0.2-0.4-0.4-0.6-0.6c-0.6-0.7-1.2-1.2-1.2-1.2l-2.5-3.2l-0.2-0.2l0,0l0,0v0c0,0,0,0,0,0c0,0-0.1-0.1-0.1-0.1
					c-0.1-0.1-0.1-0.2-0.1-0.3l0,0l0,0c0-0.1,0-0.1,0-0.2c0-0.1,0-0.2,0-0.5c0-0.4,0-0.6,0-0.7c0-0.1,0-0.2,0-0.2l0,0l0,0l0,0l0,0
					c0,0.1-0.1,0.7-0.2,0.8l-0.1,0.7l0,0l-0.1-0.1l0,0c0-0.1-0.1-0.1-0.1-0.2l-0.3-0.5v0v0l0,0c0,0,0,0,0,0c0,0,0,0,0,0
					c0,0,0,0,0-0.1c-0.6-1-1.3-2.4-1.7-3.2c-0.1-0.2-0.2-0.4-0.3-0.7l3.4-2l0.1,0.5l0,0.2l0,0.1l0,0.1l0.1,0.2
					c0.1,0.4,0.5,1.8,0.8,2.9c0,0.1,0,0.1,0.1,0.2c0.5,1.7,0.7,2.7,0.8,3c0,0,0,0,0,0c0,0,0,0.1,0,0.1h0c0-0.1-0.1-0.5-0.2-1.1
					c-0.1-0.4-0.2-0.8-0.3-1.4c-0.1-0.3-0.1-0.6-0.2-0.9c-0.5-2.3-0.7-3-0.7-3.2v0l0-0.1l0,0l0,0l0,0l-0.1-0.6l3.1-1.8
					c0,0.8,0.1,1.4,0.1,1.9c0,0.2,0,0.4,0,0.7c0,0.2,0,0.4,0,0.7c0,0.1,0,0.2,0,0.4c0,0,0,0,0,0s0,0,0,0c0,0,0,0.1,0,0.1
					c0,0,0,0,0,0v0c0,0,0,0.1,0,0.1C203.2,63.6,203.4,65.8,203.6,67.3z"/>
			</g>
		</g>
		<g>
			<path class="st4" d="M192.2,57.3c0-0.1-0.1-0.3-0.1-0.4c0,0,0,0,0,0c0,0,0-0.1,0-0.1c0,0,0,0,0-0.1c-0.1-0.2-0.1-0.3-0.2-0.5
				c-0.2,0-4.5-0.6-8.9-1.2c-2.2-0.3-4.5-0.5-6.3-0.7l-1.5,0.2l-1.4,0.2l-1.7,0.2l-9.8,1l-0.2,0c0,0.3-1.2,2.1-1.1,4.2
				c0,0.2,0,0.5,0.1,0.7c0.2,1.2,0.9,2.4,2.4,3.5c0.2,0.1,0.4,0.1,0.6,0.2c0.5,0.2,0.9,0.3,1.4,0.5c0.3,0.1,0.6,0.2,0.9,0.3
				c2.5,0.8,5.1,1.4,8.1,1.7c0,0,0,0,0,0c0.9,0.1,1.8,0.1,2.8,0.1c4.7,0,9-1.2,13-2.7c0.6-0.5,1-1.1,1.4-1.7
				c0.2-0.3,0.4-0.7,0.5-1.1c0.2-0.7,0.4-1.4,0.4-2v0c0-0.6,0-1.2-0.1-1.8C192.2,57.5,192.2,57.4,192.2,57.3z"/>
			<path class="st11" d="M197.4,51.4C197.4,51.4,197.4,51.4,197.4,51.4c-0.5,0.5-2.1,2-2.4,2.3c-0.1,0.1-0.3,0.2-0.4,0.3
				c-1.1,0.8-1.8,1-2.1,1.1c0,0,0,0,0,0c-2.8-0.1-12.5-1.9-15.7-2c-0.7,0-1.8,0.1-3.2,0.2l0,0c-1.6,0.2-3.6,0.4-5.4,0.7
				c-1.2,0.2-2.3,0.3-3.3,0.5c-0.9,0.1-1.7,0.3-2.3,0.3c-0.2,0-0.4,0-0.5,0.1c-0.2,0-0.3,0-0.3,0L161,55c-0.8-0.2-1.7-0.4-2.5-0.7
				c0.1,0.3,0.1,0.7,0.2,1c0.5,0.2,1,0.3,1.6,0.4c-0.3,0.7-0.6,1.3-0.7,2.1c0,0.2-0.1,0.3-0.1,0.5c-0.1,0.2-0.1,0.5-0.1,0.8
				c0,0.3-0.1,0.6-0.1,0.9c0,0.7,0.2,1.4,0.6,2c0.7,1.3,1.8,2.4,2.5,2.8c0.4,0.2,0.9,0.3,1.7,0.6c1.5,0.5,2.3,0.8,3.4,1.1
				c0.5,0.1,1.1,0.3,1.8,0.5c0.4,0.1,0.9,0.2,1.4,0.4c1.2,0.3,2.5,0.4,3.7,0.6h0c0.5,0,1,0.1,1.6,0.1c2.2,0.1,4.4-0.1,6.5-0.5
				c0.1,0,0.1,0,0.2,0c2.7-0.6,5.1-1.3,6.9-1.8c0,0,0,0,0,0c0.6-0.2,0.8-0.3,1.1-0.4c0.1,0,0.2-0.1,0.3-0.2c0.1-0.1,0.1-0.1,0.2-0.2
				c0.4-0.4,0.8-0.8,1.1-1.2c0.5-0.7,0.8-1.3,1.1-1.9c0.3-0.8,0.4-1.5,0.5-2c0-1.9-0.3-2.6-0.8-3.9c-0.1-0.1-0.1-0.2-0.2-0.4
				c0.8-0.4,1.3-0.6,1.7-0.9c0.1-0.1,0.3-0.2,0.4-0.3c0.2-0.1,0.7-0.5,1.2-0.9c0.5-0.5,0.9-1.1,1.2-1.4c0,0,0,0,0,0L197.4,51.4
				L197.4,51.4C197.4,51.3,197.4,51.3,197.4,51.4z M192.4,59.5C192.4,59.5,192.4,59.5,192.4,59.5c0,0.7-0.2,1.4-0.4,2.1
				c-0.1,0.4-0.3,0.7-0.5,1.1c-0.4,0.6-0.8,1.2-1.4,1.7c-4,1.5-8.3,2.7-13,2.7c-1,0-1.9,0-2.8-0.1c0,0,0,0,0,0
				c-3-0.2-5.6-0.9-8.1-1.7c-0.3-0.1-0.6-0.2-0.9-0.3c-0.5-0.2-0.9-0.3-1.4-0.5c-0.2-0.1-0.4-0.1-0.6-0.2c-1.5-1.1-2.2-2.3-2.4-3.5
				c-0.1-0.2-0.1-0.5-0.1-0.7c-0.1-2.1,1.2-3.9,1.1-4.2l0.2,0l9.8-1l1.7-0.2l1.4-0.2l1.5-0.2c1.8,0.2,4.1,0.4,6.3,0.7
				c4.4,0.5,8.6,1.1,8.9,1.2c0.1,0.2,0.1,0.3,0.2,0.5c0,0,0,0,0,0.1c0,0,0,0.1,0,0.1c0,0,0,0,0,0c0.1,0.1,0.1,0.3,0.1,0.4
				c0,0.1,0.1,0.3,0.1,0.4C192.4,58.2,192.4,58.8,192.4,59.5z"/>
		</g>
	</g>
	<path class="st3" d="M332.9,141.9c-0.3-0.5-0.4-1.2-0.4-2.1c0-0.9,0.2-1.6,0.5-2.1c0.3-0.6,0.8-0.8,1.3-0.8c0.5,0,0.9,0.3,1.2,0.9
		c0.3,0.6,0.5,1.2,0.5,1.9c0,0.9-0.2,1.7-0.5,2.2c-0.3,0.6-0.7,0.8-1.2,0.8C333.6,142.7,333.2,142.4,332.9,141.9"/>
	<path class="st3" d="M340.2,142.1c-0.7-0.4-1.4-1-2.2-1.8c0.1-1.4,0.2-3.3,0.2-5.7c0.4-0.2,0.9-0.3,1.5-0.3
		c0.1,2.1,0.3,3.7,0.8,4.7s1.2,1.5,2.2,1.5c0.8,0,1.5-0.3,1.9-1s0.6-1.5,0.6-2.6c0-0.8-0.1-1.6-0.4-2.1c-0.3-0.6-0.6-1.1-1-1.5
		c-0.4-0.4-0.9-0.9-1.6-1.5c-0.9-0.7-1.5-1.4-2.1-2c-0.5-0.6-1-1.4-1.4-2.5c-0.4-1-0.6-2.3-0.6-3.9c0-2.2,0.4-4,1.2-5.2
		c0.8-1.2,1.9-1.8,3.3-1.8c0.7,0,1.4,0.2,2.1,0.5c0.7,0.3,1.2,0.7,1.6,1.2c0,2.4,0,4.2,0.1,5.2c-0.4,0.3-0.9,0.5-1.5,0.5
		c-0.2-2-0.5-3.4-0.9-4.2c-0.4-0.8-0.9-1.1-1.6-1.1c-0.7,0-1.2,0.3-1.6,0.9c-0.4,0.6-0.6,1.4-0.6,2.5c0,0.9,0.1,1.6,0.4,2.3
		s0.6,1.2,1,1.6c0.4,0.4,1,0.9,1.7,1.6c0.9,0.7,1.5,1.4,2.1,2s1,1.4,1.4,2.4c0.4,1,0.6,2.2,0.6,3.6c0,1.4-0.2,2.7-0.6,3.8
		s-0.9,2-1.7,2.6c-0.8,0.7-1.7,1-2.8,1C341.7,142.7,340.9,142.5,340.2,142.1"/>
	<path class="st12" d="M19.1,143.1c-1.2,0-2.3-0.2-3.3-0.7c-1-0.5-2-1.2-3.1-2.1c0.2-1.7,0.3-3.9,0.3-6.6c0.6-0.2,1.3-0.4,2.2-0.4
		c0.1,2.5,0.5,4.3,1.1,5.5c0.6,1.1,1.7,1.7,3.1,1.7c1.2,0,2.1-0.4,2.7-1.1c0.6-0.8,0.9-1.8,0.9-3c0-1-0.2-1.8-0.6-2.5
		c-0.4-0.7-0.8-1.3-1.4-1.8c-0.6-0.5-1.3-1.1-2.2-1.7c-1.2-0.8-2.2-1.6-3-2.3c-0.8-0.7-1.4-1.7-1.9-2.9c-0.5-1.2-0.8-2.7-0.8-4.5
		c0-2.6,0.6-4.7,1.7-6.1s2.7-2.2,4.6-2.2c1,0,2,0.2,3,0.6c1,0.3,1.8,0.8,2.3,1.4c0,2.8,0.1,4.8,0.2,6.1c-0.5,0.4-1.2,0.6-2.2,0.6
		c-0.3-2.4-0.7-4-1.2-4.9c-0.5-0.9-1.3-1.3-2.2-1.3s-1.7,0.3-2.3,1c-0.5,0.7-0.8,1.6-0.8,2.9c0,1,0.2,1.9,0.6,2.7
		c0.4,0.7,0.9,1.4,1.5,1.9c0.6,0.5,1.4,1.1,2.4,1.8c1.2,0.8,2.2,1.6,3,2.3c0.8,0.7,1.4,1.6,1.9,2.8c0.5,1.1,0.8,2.6,0.8,4.2
		c0,1.6-0.3,3.1-0.8,4.4c-0.5,1.3-1.3,2.3-2.4,3.1C22,142.7,20.7,143.1,19.1,143.1"/>
	<path class="st12" d="M34.6,143.2c-1.9,0-3.4-0.8-4.5-2.4c-1.1-1.6-1.6-3.8-1.6-6.6c0-1.8,0.3-3.4,0.8-4.7c0.5-1.4,1.3-2.5,2.2-3.2
		c1-0.8,2-1.1,3.2-1.1c2,0,3.5,0.8,4.6,2.5c1.1,1.6,1.6,3.8,1.6,6.5c0,1.8-0.3,3.4-0.8,4.7s-1.3,2.4-2.2,3.2
		C37,142.8,35.9,143.2,34.6,143.2 M34.9,141.1c0.9,0,1.6-0.6,2-1.7c0.5-1.2,0.7-2.7,0.7-4.6c0-1.5-0.2-2.9-0.4-4
		c-0.3-1.1-0.7-2-1.2-2.6c-0.5-0.6-1-0.9-1.6-0.9c-0.9,0-1.5,0.6-2,1.7c-0.5,1.1-0.7,2.6-0.7,4.4c0,2.4,0.3,4.3,0.9,5.7
		S33.9,141.1,34.9,141.1"/>
	<path class="st12" d="M42.5,143c0-0.9,0-1.6,0.2-2c0.7,0,1.2-0.3,1.4-0.7c0.2-0.4,0.4-1.3,0.4-2.6v-16.3c0-0.9-0.1-1.6-0.4-1.9
		c-0.3-0.4-0.8-0.6-1.6-0.6c0-0.8,0.1-1.4,0.3-1.8c0.6,0,1.4-0.1,2.3-0.4c0.9-0.3,1.5-0.6,1.8-0.9c0.4,0.2,0.7,0.8,0.7,1.8v20.2
		c0,1.2,0.1,2.1,0.3,2.6c0.2,0.4,0.7,0.7,1.2,0.7c0.1,0.5,0.2,1.1,0.2,2c-0.8-0.1-1.9-0.1-3.3-0.1C44.4,142.9,43.2,142.9,42.5,143"
		/>
	<path class="st12" d="M64.4,139.9c0,0.9,0,1.6-0.2,2.1c-0.5,0.1-1.1,0.2-1.8,0.4c-0.6,0.2-1.2,0.5-1.7,0.8
		c-0.3-0.1-0.5-0.4-0.6-0.6c-0.1-0.3-0.2-0.8-0.2-1.6c0-0.5,0-1,0.1-1.6c-0.2,0.7-0.5,1.3-0.9,1.8c-0.4,0.6-0.9,1.1-1.5,1.4
		c-0.5,0.3-1.2,0.4-1.9,0.4c-1.3,0-2.2-0.5-2.9-1.6c-0.6-1.1-0.9-2.8-0.9-5.3v-5.1c0-0.7,0-1.3-0.1-1.7c-0.1-0.4-0.2-0.7-0.5-0.9
		s-0.6-0.3-1.1-0.3c0-0.8,0.1-1.4,0.2-1.8c0.7,0,1.4-0.2,2.1-0.4c0.7-0.2,1.3-0.5,1.7-0.9c0.4,0.2,0.7,0.9,0.7,1.9v8.3
		c0,1.7,0.1,3,0.4,3.8c0.3,0.8,0.8,1.2,1.5,1.2c0.8,0,1.5-0.5,2-1.6c0.5-1.1,0.8-2.6,0.8-4.6v-3.1c0-0.7,0-1.2-0.2-1.6
		c-0.1-0.4-0.3-0.7-0.5-0.9c-0.3-0.2-0.7-0.3-1.2-0.3c0-0.4,0-0.8,0-1c0-0.3,0.1-0.5,0.2-0.8c0.8,0,1.6-0.1,2.4-0.3
		c0.7-0.2,1.3-0.5,1.7-0.8c0.4,0.2,0.7,0.9,0.7,1.9v10c0,1.1,0.1,1.9,0.3,2.2C63.3,139.7,63.8,139.9,64.4,139.9"/>
	<path class="st12" d="M72.1,143.2c-1.1,0-2-0.3-2.9-1c-0.9-0.7-1.6-1.7-2.1-3c-0.5-1.4-0.8-3-0.8-4.9c0-1.6,0.2-3,0.7-4.4
		c0.4-1.4,1.1-2.5,2-3.4c0.9-0.9,1.9-1.3,3.1-1.3c1.7,0,3.1,0.5,4.1,1.6c-0.2,1.3-0.2,2.8-0.2,4.5c-0.3,0.3-0.9,0.4-1.6,0.4
		c-0.1-1.4-0.3-2.6-0.8-3.3s-1-1.2-1.7-1.2c-0.8,0-1.4,0.6-1.8,1.7s-0.7,2.7-0.7,4.7c0,1.9,0.3,3.6,0.9,4.9c0.6,1.4,1.5,2,2.7,2
		c0.6,0,1.1-0.1,1.6-0.4c0.5-0.3,0.9-0.8,1.2-1.4c0.3,0.4,0.6,0.8,0.7,1.4C75.5,142.2,74,143.2,72.1,143.2"/>
	<path class="st12" d="M81.3,121.6c-0.5,0-1-0.2-1.3-0.7c-0.3-0.5-0.5-1.1-0.5-1.7c0-0.8,0.2-1.4,0.6-1.9c0.4-0.5,0.8-0.7,1.3-0.7
		c0.6,0,1.1,0.2,1.4,0.7c0.3,0.4,0.5,1.1,0.5,1.9c0,0.7-0.2,1.3-0.6,1.7C82.3,121.4,81.8,121.6,81.3,121.6 M78.1,143
		c0-0.9,0.1-1.6,0.2-2c0.7,0,1.2-0.3,1.4-0.7c0.2-0.4,0.4-1.3,0.4-2.6v-6.7c0-0.7-0.1-1.2-0.2-1.5c-0.1-0.4-0.3-0.7-0.6-0.8
		c-0.3-0.2-0.7-0.3-1.2-0.3c0-0.8,0.1-1.4,0.3-1.8c0.6,0,1.4-0.1,2.3-0.4c0.9-0.3,1.5-0.6,1.8-0.9c0.4,0.2,0.7,0.8,0.7,1.8v10.7
		c0,1.2,0.1,2.1,0.3,2.6c0.2,0.4,0.7,0.7,1.2,0.7c0.1,0.5,0.2,1.1,0.2,2c-0.8-0.1-1.9-0.1-3.3-0.1C80,142.9,78.9,142.9,78.1,143z"/>
	<path class="st12" d="M92.6,143.2c-1.9,0-3.4-0.8-4.6-2.4c-1.1-1.6-1.6-3.8-1.6-6.6c0-1.8,0.3-3.4,0.8-4.7c0.5-1.4,1.3-2.5,2.2-3.2
		c0.9-0.8,2-1.1,3.2-1.1c2,0,3.5,0.8,4.6,2.5c1.1,1.6,1.6,3.8,1.6,6.5c0,1.8-0.3,3.4-0.8,4.7s-1.3,2.4-2.2,3.2
		C95,142.8,93.9,143.2,92.6,143.2 M92.9,141.1c0.9,0,1.6-0.6,2-1.7c0.5-1.2,0.7-2.7,0.7-4.6c0-1.5-0.2-2.9-0.4-4
		c-0.3-1.1-0.7-2-1.2-2.6c-0.5-0.6-1-0.9-1.6-0.9c-0.9,0-1.5,0.6-2,1.7c-0.4,1.1-0.7,2.6-0.7,4.4c0,2.4,0.3,4.3,0.9,5.7
		C91.2,140.4,91.9,141.1,92.9,141.1"/>
	<path class="st12" d="M115.1,141c0.1,0.5,0.2,1.2,0.2,2c-0.8-0.1-1.8-0.1-3.1-0.1c-0.7,0-1.8,0-3.4,0.1c0-0.9,0.1-1.6,0.2-2
		c0.6,0,1-0.2,1.2-0.8c0.3-0.5,0.4-1.4,0.4-2.6v-4.9c0-1.6-0.2-2.7-0.6-3.4c-0.4-0.7-0.9-1-1.6-1c-0.5,0-0.9,0.2-1.3,0.7
		s-0.8,1.1-1,2.1c-0.3,0.9-0.4,2-0.4,3.4v3.2c0,1.3,0.1,2.1,0.4,2.6c0.2,0.4,0.7,0.7,1.3,0.7c0.1,0.5,0.2,1.1,0.2,2
		c-1.5-0.1-2.6-0.1-3.3-0.1c-1.5,0-2.7,0-3.5,0.1c0-0.9,0.1-1.6,0.2-2c0.7,0,1.1-0.2,1.4-0.7c0.3-0.5,0.4-1.4,0.4-2.6v-6.6
		c0-0.7,0-1.2-0.1-1.6c-0.1-0.4-0.3-0.7-0.6-0.9c-0.3-0.2-0.7-0.3-1.2-0.3c0-0.8,0.1-1.4,0.3-1.8c0.7,0,1.5-0.2,2.3-0.4
		c0.8-0.3,1.4-0.6,1.8-0.9c0.4,0.2,0.7,0.9,0.7,1.9c0,0.7-0.1,1.5-0.2,2.2c0-0.1,0.1-0.2,0.2-0.5c0.1-0.3,0.2-0.6,0.4-0.9
		c0.3-0.7,0.8-1.3,1.5-1.8c0.7-0.5,1.4-0.8,2.2-0.8c1.1,0,2.1,0.5,2.8,1.5c0.7,1,1.1,2.5,1.1,4.7v6.1c0,1.3,0.1,2.1,0.3,2.6
		C114.2,140.7,114.6,141,115.1,141"/>
	<path class="st12" d="M127,138.7c0.2,0.1,0.3,0.3,0.4,0.6c0.1,0.3,0.2,0.6,0.2,0.9c-0.6,1-1.3,1.8-2.1,2.2
		c-0.8,0.4-1.7,0.7-2.7,0.7c-1.9,0-3.4-0.8-4.4-2.5c-1-1.7-1.5-3.8-1.5-6.5c0-1.7,0.2-3.2,0.7-4.6c0.5-1.4,1.1-2.4,2-3.2
		c0.9-0.8,1.9-1.2,3-1.2c1.7,0,3,0.7,3.8,2.2c0.8,1.4,1.3,3.4,1.4,5.8c-0.1,0.6-0.3,1.1-0.5,1.6c-2.7,0-5,0.1-7.1,0.2
		c0.1,1.7,0.5,3.1,1,4.2c0.6,1.1,1.5,1.6,2.6,1.6c0.6,0,1.2-0.2,1.7-0.5C126.1,139.9,126.6,139.4,127,138.7 M122.5,127.3
		c-0.7,0-1.2,0.4-1.7,1.3c-0.4,0.9-0.7,2.2-0.7,4.1h4.6c0-1.7-0.2-3-0.6-4C123.7,127.8,123.2,127.3,122.5,127.3"/>
	<path class="st12" d="M138.6,130.4c-0.4,0.4-1,0.6-1.6,0.6c-0.1-1.1-0.4-2-0.8-2.7c-0.5-0.8-1.1-1.1-1.9-1.1
		c-0.5,0-0.8,0.2-1.1,0.5c-0.3,0.3-0.4,0.8-0.4,1.3c0,0.4,0.1,0.8,0.2,1.1c0.1,0.3,0.4,0.6,0.8,0.9c0.4,0.4,1.1,0.8,1.9,1.3
		c1,0.6,1.7,1.1,2.3,1.6c0.5,0.5,0.9,1.1,1.1,1.7c0.2,0.6,0.4,1.4,0.4,2.2c0,1.6-0.5,2.9-1.4,3.9c-0.9,1-2.2,1.4-3.7,1.4
		c-1,0-1.9-0.1-2.5-0.3c-0.7-0.2-1.3-0.5-2-1c0.1-0.7,0.1-1.5,0.1-2.6c0-0.7,0-1.4-0.1-2.1c0.4-0.4,0.9-0.5,1.7-0.5
		c0.1,1.5,0.4,2.6,0.9,3.3c0.5,0.8,1.1,1.1,1.9,1.1c0.6,0,1.1-0.2,1.4-0.6c0.4-0.4,0.6-0.9,0.6-1.6s-0.2-1.2-0.5-1.6s-1.1-1-2.1-1.6
		c-0.9-0.5-1.7-1-2.2-1.5c-0.5-0.5-0.9-1.1-1.2-1.7c-0.3-0.7-0.4-1.5-0.4-2.6s0.2-1.9,0.6-2.6c0.4-0.7,1-1.3,1.7-1.6
		c0.7-0.4,1.4-0.6,2.2-0.6c0.8,0,1.6,0.1,2.2,0.3c0.6,0.2,1.2,0.5,1.8,0.9c0,0.3,0,0.8,0,1.5C138.5,128.9,138.5,129.7,138.6,130.4"
		/>
	<path class="st13" d="M181,141.8c-2.1-2.1-3.2-4.9-3.2-8.5c0-2.3,0.5-4.4,1.6-6.2c1.1-1.8,2.5-3.2,4.3-4.2c1.8-1,3.9-1.5,6.3-1.5
		c3.8,0,6.8,1.1,8.9,3.2c2.1,2.1,3.2,4.9,3.2,8.4c0,2.3-0.5,4.4-1.5,6.2c-1,1.8-2.4,3.2-4.3,4.2c-1.8,1-4,1.5-6.4,1.5
		C186.1,144.9,183.2,143.9,181,141.8 M194.4,139.9c0.9-1.5,1.4-3.5,1.4-5.9c0-2-0.3-3.8-0.9-5.2c-0.6-1.5-1.3-2.6-2.3-3.4
		c-1-0.8-2-1.2-3.2-1.2c-1.7,0-3,0.7-3.9,2.2c-0.9,1.4-1.3,3.4-1.3,5.7c0,3.1,0.6,5.6,1.7,7.4c1.1,1.8,2.6,2.7,4.6,2.7
		C192.2,142.2,193.5,141.4,194.4,139.9"/>
	<g>
		<path class="st0" d="M194.2,144.4c-1.6,1.3-3.3,2.4-5.1,3.1s-3.6,1.2-5.4,1.3c-3,0.2-5.7-0.5-8-2.2c-2.3-1.7-4.1-4.1-5.5-7.3
			c-1.4-3.1-2.2-6.8-2.5-10.8c-0.4-5.2,0.4-9.7,2.2-13.3s4.9-5.6,9.2-5.9c2.7-0.2,4.8,0.5,6.3,2.1c1.5,1.6,2.5,4.5,2.8,8.8
			c1.8-0.1,3.1-0.4,3.9-1c-0.3-4.5-0.4-8.1-0.1-10.8c-2.3-1.1-4.6-1.8-6.8-2.2s-4.5-0.6-6.9-0.4c-3.6,0.2-6.9,1.4-9.9,3.4
			c-3,2-5.3,4.9-6.9,8.6s-2.3,8.1-1.9,13.2c0.3,4.7,1.5,8.9,3.4,12.4c1.9,3.6,4.4,6.3,7.6,8.1c3.1,1.9,6.6,2.6,10.4,2.4
			c3-0.2,5.7-0.9,7.9-2s4.4-2.8,6.5-5c-0.1-0.4-0.3-0.9-0.6-1.4C194.8,145.1,194.5,144.7,194.2,144.4z"/>
	</g>
	<path class="st12" d="M6.4,146.2v1.8h157.9c-0.5-0.6-0.9-1.2-1.3-1.8H6.4z"/>
	<path class="st12" d="M353.8,146.2H197.1c0,0.1,0.1,0.2,0.1,0.3l0.2,0.9l-0.6,0.6c0,0,0,0-0.1,0.1h157.1V146.2z"/>
	<g>
		<path class="st0" d="M245.9,32.8L245.9,32.8c0.1,0.2,0.2,0.3,0.3,0.5l7.2-4.3l-0.3-0.4l0,0l-0.3-0.5l-7.2,4.3
			C245.7,32.4,245.8,32.6,245.9,32.8z"/>
		<path class="st14" d="M302.2,87.1c-1.4,0.1-2.7-0.2-3.8-0.8c-1.1-0.7-2.4-1.9-4-3.6c-1.6-1.8-3.8-4.5-6.6-8.2l-34.3-45.7l-7.2,4.3
			c2.4,3.6,5,7.3,7.8,10.9l14.7,20l-26.3,4.6l0.7-22.7c0.1-3.8,0.1-7.4,0.1-11c0-0.2,0-0.4,0-0.6c0-0.2,0-0.4,0-0.7
			c0-0.2,0-0.5,0-0.7c0-1.6-0.1-3.1-0.1-4.6c0.7,1.1,1.4,2.3,2.2,3.4l0,0c0.1,0.2,0.2,0.3,0.3,0.5l7.2-4.3l-0.4-0.5l0,0L240,11
			L238.5,9c-1.8-2.1-4,0.8-2.4,2.5c0.5,0.9,1.3,2.5,1.4,2.8c0.2,0.3,0.2,1.4,0.2,1.4l-1,21.2l0,0.7l0,0.7l0,0.7l-2.1,46.2
			c-0.4,6-0.9,10.1-1.5,12.3c-0.6,2.1-1.9,3.6-3.9,4.4c-0.1,2.1,0.4,4.6,1.2,7.5c4.7-1.1,8.2-1.9,10.6-2.3c5.7-1,10-1.6,12.9-1.8
			c-0.8-2.7-1.9-5.2-3.3-7.3c-2.1,0.2-3.9-0.1-5.1-0.9c-1.3-0.9-2.3-2.2-2.8-4.1c-0.6-2.1-0.9-4.7-0.8-8l0.3-7.8
			c8.1-1.9,18.7-4,31.6-6.3l7.5,10.3c2.1,2.7,3.3,4.8,3.7,6.2c0.4,1.3,0.2,2.4-0.6,3.2c-0.7,0.8-2.1,1.6-4.1,2.2
			c-0.1,1.9,0.3,4.4,1.3,7.6c3.1-0.8,3.7-1,12.6-3.4c8.9-2.4,8.9-2.3,11.2-3C304.6,91.2,303.5,89.3,302.2,87.1z"/>
	</g>
</g>
</svg>
