<?xml version="1.0" encoding="utf-8"?>
<!-- Generator: Adobe Illustrator 23.0.0, SVG Export Plug-In . SVG Version: 6.00 Build 0)  -->
<svg version="1.1" id="Capa_1" xmlns="http://www.w3.org/2000/svg" xmlns:xlink="http://www.w3.org/1999/xlink" x="0px" y="0px"
	 viewBox="0 0 357.88 161.65" style="enable-background:new 0 0 357.88 161.65;" xml:space="preserve">
<style type="text/css">
	.st0{fill:#070308;}
	.st1{fill:none;stroke:#070308;stroke-width:1.563;}
	.st2{fill:none;stroke:#070308;stroke-width:1.506;}
	.st3{fill:#22201F;}
	.st4{fill:none;}
	.st5{fill:#FFFFFF;}
	.st6{fill:#413C3D;}
	.st7{fill:#EBEAE9;}
	.st8{fill:#C0815E;}
	.st9{fill:#852626;}
	.st10{fill:#81B8B2;}
	.st11{fill:#B6D3D4;}
	.st12{fill:#B52E2D;}
	.st13{fill:#BA2E2C;}
	.st14{fill:#BD2C2E;}
</style>
<g>
	<path class="st0" d="M78.6,89.24c-0.55,3.14-1.57,5.76-3.07,7.87c-2.59,3.65-6.27,5.47-11.04,5.47c-6.09,0-10.39-1.89-12.91-5.66
		c-2.52-3.78-3.78-9.57-3.78-17.38V49.01c0-2.3-0.1-4-0.31-5.09c-0.2-1.09-0.58-1.86-1.12-2.3c-0.55-0.45-1.41-0.77-2.59-0.96
		c-0.23-1.15-0.34-2.53-0.34-4.13c1.82,0.19,4.45,0.29,7.9,0.29c3.22,0,5.86-0.1,7.9-0.29c0,1.6-0.11,2.98-0.34,4.13
		c-1.45,0.19-2.49,0.5-3.1,0.91c-0.61,0.42-1.03,1.15-1.26,2.21c-0.23,1.06-0.34,2.8-0.34,5.23v29.19c0,6.02,0.87,10.74,2.62,14.16
		c1.75,3.42,4.74,5.14,8.96,5.14c1.27,0,2.58-0.3,3.92-0.91c1.34-0.61,2.44-1.52,3.3-2.74c1.09-1.54,1.85-3.54,2.28-6
		c0.43-2.46,0.65-6.19,0.65-11.19V52.85c0-3.26-0.11-5.7-0.34-7.3c-0.23-1.6-0.67-2.77-1.33-3.5c-0.66-0.73-1.67-1.2-3.03-1.39
		c-0.23-1.6-0.34-2.98-0.34-4.13c1.54,0.19,3.68,0.29,6.4,0.29c2.54,0,4.7-0.1,6.47-0.29c0,0.96-0.11,2.34-0.34,4.13
		c-1.09,0.19-1.92,0.64-2.49,1.34c-0.57,0.71-0.97,1.91-1.19,3.6c-0.23,1.7-0.34,4.11-0.34,7.25v23.04
		C79.42,81.65,79.15,86.1,78.6,89.24"/>
	<path class="st1" d="M78.6,89.24c-0.55,3.14-1.57,5.76-3.07,7.87c-2.59,3.65-6.27,5.47-11.04,5.47c-6.09,0-10.39-1.89-12.91-5.66
		c-2.52-3.78-3.78-9.57-3.78-17.38V49.01c0-2.3-0.1-4-0.31-5.09c-0.2-1.09-0.58-1.86-1.12-2.3c-0.55-0.45-1.41-0.77-2.59-0.96
		c-0.23-1.15-0.34-2.53-0.34-4.13c1.82,0.19,4.45,0.29,7.9,0.29c3.22,0,5.86-0.1,7.9-0.29c0,1.6-0.11,2.98-0.34,4.13
		c-1.45,0.19-2.49,0.5-3.1,0.91c-0.61,0.42-1.03,1.15-1.26,2.21c-0.23,1.06-0.34,2.8-0.34,5.23v29.19c0,6.02,0.87,10.74,2.62,14.16
		c1.75,3.42,4.74,5.14,8.96,5.14c1.27,0,2.58-0.3,3.92-0.91c1.34-0.61,2.44-1.52,3.3-2.74c1.09-1.54,1.85-3.54,2.28-6
		c0.43-2.46,0.65-6.19,0.65-11.19V52.85c0-3.26-0.11-5.7-0.34-7.3c-0.23-1.6-0.67-2.77-1.33-3.5c-0.66-0.73-1.67-1.2-3.03-1.39
		c-0.23-1.6-0.34-2.98-0.34-4.13c1.54,0.19,3.68,0.29,6.4,0.29c2.54,0,4.7-0.1,6.47-0.29c0,0.96-0.11,2.34-0.34,4.13
		c-1.09,0.19-1.92,0.64-2.49,1.34c-0.57,0.71-0.97,1.91-1.19,3.6c-0.23,1.7-0.34,4.11-0.34,7.25v23.04
		C79.42,81.65,79.15,86.1,78.6,89.24z"/>
	<path class="st0" d="M126.68,35.77c0,1.58-0.11,2.94-0.32,4.07c-0.98,0-1.74,0.41-2.28,1.23c-0.54,0.82-0.92,2.19-1.15,4.12
		c-0.24,1.93-0.35,4.63-0.35,8.1v46.79c-0.68,0.38-1.6,0.57-2.76,0.57L93.31,49.6v32.77c0,3.66,0.13,6.47,0.38,8.43
		c0.26,1.96,0.71,3.36,1.35,4.21c0.64,0.85,1.54,1.28,2.69,1.28c0.21,0.95,0.32,2.31,0.32,4.07c-1.92-0.19-4.04-0.28-6.35-0.28
		c-2.65,0-4.79,0.09-6.42,0.28c0-1.77,0.11-3.13,0.32-4.07c1.15,0,2.05-0.43,2.69-1.28c0.64-0.85,1.09-2.26,1.35-4.21
		c0.26-1.96,0.38-4.77,0.38-8.43V43.25l-0.26-0.47c-0.6-1.07-1.17-1.8-1.7-2.18c-0.54-0.38-1.36-0.63-2.47-0.76
		c-0.21-1.14-0.32-2.49-0.32-4.07c1.28,0.19,2.87,0.28,4.75,0.28c1.71,0,3.14-0.09,4.3-0.28l24.96,48.88V53.29
		c0-3.54-0.13-6.25-0.38-8.15c-0.26-1.89-0.71-3.25-1.35-4.07c-0.64-0.82-1.54-1.23-2.69-1.23c-0.21-1.83-0.32-3.19-0.32-4.07
		c1.84,0.19,3.85,0.28,6.03,0.28C122.9,36.06,124.93,35.96,126.68,35.77"/>
	<path class="st2" d="M126.68,35.77c0,1.58-0.11,2.94-0.32,4.07c-0.98,0-1.74,0.41-2.28,1.23c-0.54,0.82-0.92,2.19-1.15,4.12
		c-0.24,1.93-0.35,4.63-0.35,8.1v46.79c-0.68,0.38-1.6,0.57-2.76,0.57L93.31,49.6v32.77c0,3.66,0.13,6.47,0.38,8.43
		c0.26,1.96,0.71,3.36,1.35,4.21c0.64,0.85,1.54,1.28,2.69,1.28c0.21,0.95,0.32,2.31,0.32,4.07c-1.92-0.19-4.04-0.28-6.35-0.28
		c-2.65,0-4.79,0.09-6.42,0.28c0-1.77,0.11-3.13,0.32-4.07c1.15,0,2.05-0.43,2.69-1.28c0.64-0.85,1.09-2.26,1.35-4.21
		c0.26-1.96,0.38-4.77,0.38-8.43V43.25l-0.26-0.47c-0.6-1.07-1.17-1.8-1.7-2.18c-0.54-0.38-1.36-0.63-2.47-0.76
		c-0.21-1.14-0.32-2.49-0.32-4.07c1.28,0.19,2.87,0.28,4.75,0.28c1.71,0,3.14-0.09,4.3-0.28l24.96,48.88V53.29
		c0-3.54-0.13-6.25-0.38-8.15c-0.26-1.89-0.71-3.25-1.35-4.07c-0.64-0.82-1.54-1.23-2.69-1.23c-0.21-1.83-0.32-3.19-0.32-4.07
		c1.84,0.19,3.85,0.28,6.03,0.28C122.9,36.06,124.93,35.96,126.68,35.77z"/>
	<path class="st0" d="M78.6,89.24c-0.55,3.14-1.57,5.76-3.07,7.87c-2.59,3.65-6.27,5.47-11.04,5.47c-6.09,0-10.39-1.89-12.91-5.66
		c-2.52-3.78-3.78-9.57-3.78-17.38V49.01c0-2.3-0.1-4-0.31-5.09c-0.2-1.09-0.58-1.86-1.12-2.3c-0.55-0.45-1.41-0.77-2.59-0.96
		c-0.23-1.15-0.34-2.53-0.34-4.13c1.82,0.19,4.45,0.29,7.9,0.29c3.22,0,5.86-0.1,7.9-0.29c0,1.6-0.11,2.98-0.34,4.13
		c-1.45,0.19-2.49,0.5-3.1,0.91c-0.61,0.42-1.03,1.15-1.26,2.21c-0.23,1.06-0.34,2.8-0.34,5.23v29.19c0,6.02,0.87,10.74,2.62,14.16
		c1.75,3.42,4.74,5.14,8.96,5.14c1.27,0,2.58-0.3,3.92-0.91c1.34-0.61,2.44-1.52,3.3-2.74c1.09-1.54,1.85-3.54,2.28-6
		c0.43-2.46,0.65-6.19,0.65-11.19V52.85c0-3.26-0.11-5.7-0.34-7.3c-0.23-1.6-0.67-2.77-1.33-3.5c-0.66-0.73-1.67-1.2-3.03-1.39
		c-0.23-1.6-0.34-2.98-0.34-4.13c1.54,0.19,3.68,0.29,6.4,0.29c2.54,0,4.7-0.1,6.47-0.29c0,0.96-0.11,2.34-0.34,4.13
		c-1.09,0.19-1.92,0.64-2.49,1.34c-0.57,0.71-0.97,1.91-1.19,3.6c-0.23,1.7-0.34,4.11-0.34,7.25v23.04
		C79.42,81.65,79.15,86.1,78.6,89.24"/>
	<path class="st1" d="M78.6,89.24c-0.55,3.14-1.57,5.76-3.07,7.87c-2.59,3.65-6.27,5.47-11.04,5.47c-6.09,0-10.39-1.89-12.91-5.66
		c-2.52-3.78-3.78-9.57-3.78-17.38V49.01c0-2.3-0.1-4-0.31-5.09c-0.2-1.09-0.58-1.86-1.12-2.3c-0.55-0.45-1.41-0.77-2.59-0.96
		c-0.23-1.15-0.34-2.53-0.34-4.13c1.82,0.19,4.45,0.29,7.9,0.29c3.22,0,5.86-0.1,7.9-0.29c0,1.6-0.11,2.98-0.34,4.13
		c-1.45,0.19-2.49,0.5-3.1,0.91c-0.61,0.42-1.03,1.15-1.26,2.21c-0.23,1.06-0.34,2.8-0.34,5.23v29.19c0,6.02,0.87,10.74,2.62,14.16
		c1.75,3.42,4.74,5.14,8.96,5.14c1.27,0,2.58-0.3,3.92-0.91c1.34-0.61,2.44-1.52,3.3-2.74c1.09-1.54,1.85-3.54,2.28-6
		c0.43-2.46,0.65-6.19,0.65-11.19V52.85c0-3.26-0.11-5.7-0.34-7.3c-0.23-1.6-0.67-2.77-1.33-3.5c-0.66-0.73-1.67-1.2-3.03-1.39
		c-0.23-1.6-0.34-2.98-0.34-4.13c1.54,0.19,3.68,0.29,6.4,0.29c2.54,0,4.7-0.1,6.47-0.29c0,0.96-0.11,2.34-0.34,4.13
		c-1.09,0.19-1.92,0.64-2.49,1.34c-0.57,0.71-0.97,1.91-1.19,3.6c-0.23,1.7-0.34,4.11-0.34,7.25v23.04
		C79.42,81.65,79.15,86.1,78.6,89.24z"/>
	<path class="st0" d="M126.68,35.77c0,1.58-0.11,2.94-0.32,4.07c-0.98,0-1.74,0.41-2.28,1.23c-0.54,0.82-0.92,2.19-1.15,4.12
		c-0.24,1.93-0.35,4.63-0.35,8.1v46.79c-0.68,0.38-1.6,0.57-2.76,0.57L93.31,49.6v32.77c0,3.66,0.13,6.47,0.38,8.43
		c0.26,1.96,0.71,3.36,1.35,4.21c0.64,0.85,1.54,1.28,2.69,1.28c0.21,0.95,0.32,2.31,0.32,4.07c-1.92-0.19-4.04-0.28-6.35-0.28
		c-2.65,0-4.79,0.09-6.42,0.28c0-1.77,0.11-3.13,0.32-4.07c1.15,0,2.05-0.43,2.69-1.28c0.64-0.85,1.09-2.26,1.35-4.21
		c0.26-1.96,0.38-4.77,0.38-8.43V43.25l-0.26-0.47c-0.6-1.07-1.17-1.8-1.7-2.18c-0.54-0.38-1.36-0.63-2.47-0.76
		c-0.21-1.14-0.32-2.49-0.32-4.07c1.28,0.19,2.87,0.28,4.75,0.28c1.71,0,3.14-0.09,4.3-0.28l24.96,48.88V53.29
		c0-3.54-0.13-6.25-0.38-8.15c-0.26-1.89-0.71-3.25-1.35-4.07c-0.64-0.82-1.54-1.23-2.69-1.23c-0.21-1.83-0.32-3.19-0.32-4.07
		c1.84,0.19,3.85,0.28,6.03,0.28C122.9,36.06,124.93,35.96,126.68,35.77"/>
	<path class="st0" d="M219.23,41.27c-4.21-7.46-10.04-13.26-17.51-17.4c-7.47-4.14-15.9-6.2-25.3-6.2c-9.1,0-17.39,2.09-24.86,6.28
		c-7.47,4.19-13.36,10.01-17.66,17.47c-4.3,7.47-6.46,15.95-6.46,25.46c0,9.41,2.05,17.9,6.16,25.46c4.1,7.56,9.87,13.5,17.29,17.83
		c3.34,1.95,6.9,3.45,10.67,4.52c1.63-2.8,3.71-5.07,6.22-6.77c0.08-0.06,0.17-0.1,0.25-0.16c-2.95-1.07-5.7-2.6-8.24-4.58
		c-5.54-4.33-9.77-10.06-12.69-17.19c-2.92-7.13-4.38-14.78-4.38-22.96c0-7.61,1.31-14.31,3.93-20.11
		c2.62-5.8,6.26-10.32,10.91-13.55c4.65-3.23,9.89-4.85,15.73-4.85c6.92,0,13.21,2.05,18.85,6.13c5.64,4.09,10.07,9.65,13.28,16.69
		c3.21,7.04,4.82,14.79,4.82,23.25c0,7.32-1.24,13.96-3.71,19.9c-2.47,5.94-6.06,10.63-10.76,14.05c-1.17,0.86-2.4,1.6-3.67,2.25
		c0.24,0.1,0.47,0.2,0.71,0.31c0.62,0.28,0.99,0.93,0.93,1.61c-0.14,1.42-0.18,3.15-0.15,5.15c2.82-0.99,5.53-2.24,8.12-3.75
		c7.47-4.37,13.31-10.34,17.51-17.9c4.2-7.56,6.31-16,6.31-25.32C225.54,57.26,223.43,48.73,219.23,41.27"/>
	<path class="st2" d="M126.68,35.77c0,1.58-0.11,2.94-0.32,4.07c-0.98,0-1.74,0.41-2.28,1.23c-0.54,0.82-0.92,2.19-1.15,4.12
		c-0.24,1.93-0.35,4.63-0.35,8.1v46.79c-0.68,0.38-1.6,0.57-2.76,0.57L93.31,49.6v32.77c0,3.66,0.13,6.47,0.38,8.43
		c0.26,1.96,0.71,3.36,1.35,4.21c0.64,0.85,1.54,1.28,2.69,1.28c0.21,0.95,0.32,2.31,0.32,4.07c-1.92-0.19-4.04-0.28-6.35-0.28
		c-2.65,0-4.79,0.09-6.42,0.28c0-1.77,0.11-3.13,0.32-4.07c1.15,0,2.05-0.43,2.69-1.28c0.64-0.85,1.09-2.26,1.35-4.21
		c0.26-1.96,0.38-4.77,0.38-8.43V43.25l-0.26-0.47c-0.6-1.07-1.17-1.8-1.7-2.18c-0.54-0.38-1.36-0.63-2.47-0.76
		c-0.21-1.14-0.32-2.49-0.32-4.07c1.28,0.19,2.87,0.28,4.75,0.28c1.71,0,3.14-0.09,4.3-0.28l24.96,48.88V53.29
		c0-3.54-0.13-6.25-0.38-8.15c-0.26-1.89-0.71-3.25-1.35-4.07c-0.64-0.82-1.54-1.23-2.69-1.23c-0.21-1.83-0.32-3.19-0.32-4.07
		c1.84,0.19,3.85,0.28,6.03,0.28C122.9,36.06,124.93,35.96,126.68,35.77z"/>
	<path class="st3" d="M220.7,142.48c-0.64-0.08-1.47-0.11-2.46-0.11c-1.12,0-2.04,0.04-2.75,0.11c0-0.88,0.04-1.55,0.13-2
		c0.35-0.02,0.62-0.14,0.81-0.36c0.19-0.21,0.32-0.57,0.4-1.08c0.08-0.5,0.12-1.25,0.12-2.23v-4.65c0-1.59-0.15-2.71-0.44-3.36
		c-0.29-0.66-0.71-0.98-1.26-0.98c-0.62,0-1.14,0.52-1.56,1.57c-0.42,1.05-0.63,2.58-0.63,4.59v3.18c0,1.26,0.09,2.12,0.28,2.57
		s0.54,0.71,1.06,0.76c0.08,0.43,0.13,1.1,0.13,2c-0.69-0.08-1.58-0.11-2.69-0.11c-1.05,0-1.96,0.04-2.71,0.11
		c0-0.91,0.04-1.57,0.13-2c0.36-0.05,0.64-0.18,0.83-0.38c0.19-0.2,0.32-0.56,0.4-1.08c0.08-0.52,0.12-1.29,0.12-2.33v-4.76
		c0-1.56-0.15-2.67-0.44-3.31c-0.29-0.64-0.73-0.96-1.3-0.96c-0.38,0-0.73,0.23-1.06,0.7c-0.33,0.47-0.6,1.17-0.8,2.1
		c-0.2,0.93-0.3,2.07-0.3,3.4v3.29c0,0.88,0.04,1.55,0.12,2c0.08,0.45,0.21,0.77,0.4,0.96c0.19,0.19,0.47,0.31,0.83,0.36
		c0.08,0.45,0.13,1.12,0.13,2c-0.69-0.08-1.61-0.11-2.78-0.11c-1.15,0-2.05,0.04-2.71,0.11c0-0.88,0.04-1.54,0.13-1.97
		c0.56-0.08,0.94-0.33,1.14-0.78c0.2-0.44,0.29-1.29,0.29-2.55v-6.39c0-0.78-0.04-1.37-0.11-1.76c-0.07-0.39-0.22-0.69-0.44-0.89
		c-0.22-0.2-0.57-0.33-1.03-0.38c0-0.66,0.08-1.25,0.23-1.78c0.5-0.05,1.09-0.2,1.75-0.45c0.66-0.25,1.14-0.53,1.45-0.83
		c0.36,0.23,0.55,0.82,0.55,1.78c0,0.5-0.05,1.32-0.15,2.46c0.2-0.86,0.36-1.41,0.48-1.66c0.29-0.68,0.7-1.27,1.23-1.78
		c0.53-0.5,1.1-0.76,1.74-0.76c0.65,0,1.21,0.25,1.7,0.76c0.49,0.5,0.85,1.27,1.09,2.31c0.08,0.28,0.14,0.66,0.17,1.13
		c0.14-0.68,0.31-1.2,0.5-1.55c0.29-0.68,0.69-1.26,1.19-1.74c0.5-0.48,1.05-0.72,1.67-0.72c0.98,0,1.75,0.5,2.31,1.49
		c0.56,1,0.84,2.59,0.84,4.78v5.48c0,1.03,0.04,1.81,0.12,2.34c0.08,0.53,0.2,0.89,0.36,1.08c0.16,0.19,0.4,0.31,0.7,0.36
		C220.66,140.93,220.7,141.6,220.7,142.48"/>
	<path class="st3" d="M230.59,138.89c0.1,0.3,0.16,0.61,0.18,0.91c-0.5,1.01-1.08,1.75-1.72,2.21c-0.64,0.47-1.38,0.7-2.21,0.7
		c-1.57,0-2.76-0.83-3.58-2.5c-0.81-1.66-1.22-3.82-1.22-6.47c0-1.71,0.19-3.25,0.57-4.61c0.38-1.36,0.92-2.44,1.62-3.23
		c0.7-0.79,1.51-1.19,2.44-1.19c1.37,0,2.4,0.72,3.07,2.15c0.67,1.44,1.04,3.36,1.11,5.78c-0.08,0.63-0.23,1.15-0.42,1.55
		c-2.16,0-4.08,0.08-5.76,0.23c0.1,1.74,0.38,3.14,0.85,4.2c0.47,1.06,1.17,1.59,2.11,1.59c0.48,0,0.95-0.17,1.41-0.51
		c0.46-0.34,0.86-0.83,1.2-1.46C230.37,138.38,230.49,138.59,230.59,138.89 M225.22,128.1c-0.35,0.87-0.55,2.25-0.59,4.14h3.68
		c0-1.69-0.15-3.02-0.46-3.99c-0.31-0.97-0.74-1.46-1.28-1.46C226.02,126.79,225.57,127.23,225.22,128.1"/>
	<path class="st3" d="M240.56,128.34c-0.04,0.96-0.05,1.81-0.03,2.57c-0.15,0.13-0.38,0.23-0.66,0.3c-0.29,0.08-0.56,0.11-0.81,0.11
		c-0.03-1.06-0.12-1.79-0.28-2.19c-0.16-0.4-0.4-0.6-0.7-0.6c-0.22,0-0.47,0.23-0.73,0.7c-0.26,0.47-0.48,1.08-0.65,1.85
		c-0.18,0.77-0.26,1.58-0.26,2.44v2.76c0,1.08,0.07,1.92,0.2,2.51c0.13,0.59,0.34,1.01,0.62,1.25c0.28,0.24,0.67,0.38,1.18,0.43
		c0.08,0.43,0.13,1.1,0.13,2c-0.69-0.08-1.68-0.11-2.97-0.11c-1.46,0-2.52,0.04-3.18,0.11c0-0.93,0.04-1.6,0.1-2
		c0.39-0.05,0.69-0.18,0.89-0.38c0.2-0.2,0.35-0.55,0.43-1.04c0.08-0.49,0.13-1.2,0.13-2.14v-6.28c0-0.71-0.04-1.25-0.1-1.64
		c-0.07-0.39-0.22-0.69-0.44-0.89c-0.22-0.2-0.56-0.31-1.01-0.34c0-0.78,0.07-1.37,0.21-1.78c0.59-0.02,1.2-0.17,1.83-0.43
		c0.63-0.26,1.12-0.55,1.45-0.85c0.35,0.25,0.53,0.88,0.53,1.89c0,0.56-0.03,1.14-0.09,1.76c-0.06,0.62-0.13,1.23-0.2,1.83
		c0.04-0.23,0.11-0.58,0.21-1.06c0.1-0.48,0.19-0.83,0.27-1.06c0.32-0.93,0.7-1.68,1.15-2.23c0.44-0.55,0.93-0.83,1.46-0.83
		c0.52,0,1.01,0.3,1.47,0.91C240.64,126.58,240.59,127.39,240.56,128.34"/>
	<path class="st3" d="M244.23,141.71c-0.71-0.67-1.29-1.68-1.71-3.02c-0.43-1.35-0.64-2.98-0.64-4.9c0-1.56,0.18-3.04,0.54-4.42
		c0.36-1.39,0.89-2.51,1.6-3.37c0.71-0.86,1.55-1.28,2.51-1.28c1.37,0,2.49,0.54,3.34,1.63c-0.13,1.26-0.19,2.76-0.19,4.5
		c-0.28,0.28-0.72,0.42-1.3,0.42c-0.06-1.44-0.26-2.55-0.61-3.33c-0.35-0.78-0.8-1.17-1.35-1.17c-0.63,0-1.13,0.58-1.49,1.74
		c-0.37,1.16-0.55,2.74-0.55,4.73c0,1.92,0.26,3.55,0.77,4.92c0.51,1.36,1.23,2.04,2.16,2.04c0.45,0,0.87-0.16,1.26-0.47
		c0.39-0.31,0.73-0.76,1.01-1.34c0.28,0.35,0.46,0.83,0.53,1.44c-0.77,1.94-1.94,2.91-3.51,2.91
		C245.73,142.71,244.94,142.38,244.23,141.71"/>
	<path class="st3" d="M251.59,140.48c0.56-0.02,0.94-0.26,1.14-0.72c0.2-0.45,0.29-1.31,0.29-2.57v-6.73c0-0.65-0.04-1.17-0.12-1.53
		c-0.08-0.37-0.23-0.64-0.45-0.83c-0.23-0.19-0.56-0.3-1.01-0.32c0-0.78,0.07-1.37,0.21-1.78c0.52,0,1.13-0.13,1.84-0.4
		c0.71-0.26,1.2-0.56,1.46-0.89c0.35,0.25,0.53,0.84,0.53,1.78v10.7c0,1.24,0.09,2.09,0.28,2.55c0.19,0.47,0.52,0.71,1,0.74
		c0.08,0.48,0.13,1.15,0.13,2c-0.67-0.08-1.57-0.11-2.69-0.11c-1.19,0-2.1,0.04-2.73,0.11C251.46,141.6,251.5,140.93,251.59,140.48
		 M252.96,120.42c-0.28-0.47-0.42-1.04-0.42-1.72c0-0.78,0.15-1.41,0.44-1.89c0.29-0.48,0.66-0.72,1.09-0.72
		c0.48,0,0.85,0.23,1.13,0.68c0.27,0.45,0.41,1.08,0.41,1.89c0,0.68-0.15,1.26-0.44,1.74c-0.29,0.48-0.67,0.72-1.14,0.72
		C253.59,121.12,253.24,120.89,252.96,120.42"/>
	<path class="st3" d="M267.95,139.95c0,0.55-0.06,1.07-0.17,1.55c-0.43,0.05-0.9,0.18-1.39,0.4c-0.49,0.21-0.93,0.48-1.32,0.81
		c-0.2-0.13-0.34-0.37-0.44-0.72c-0.1-0.35-0.15-0.84-0.15-1.47c0-0.38,0.02-0.79,0.06-1.25c-0.2,0.86-0.47,1.54-0.82,2.04
		c-0.56,0.88-1.34,1.32-2.33,1.32c-0.91,0-1.62-0.36-2.11-1.08c-0.5-0.72-0.75-1.73-0.75-3.04c0-2.14,0.55-3.66,1.64-4.56
		c1.09-0.89,2.43-1.54,4.02-1.95c0-1.31-0.03-2.26-0.08-2.84c-0.06-0.58-0.18-1.07-0.36-1.47c-0.32-0.68-0.74-1.02-1.24-1.02
		c-0.59,0-1.02,0.43-1.29,1.29c-0.27,0.86-0.43,1.87-0.47,3.02c-0.66,0-1.14-0.11-1.43-0.34c0.03-0.6,0.04-1.08,0.04-1.44
		c0-1.08-0.05-2.05-0.15-2.91c0.58-0.48,1.21-0.86,1.91-1.15c0.7-0.29,1.36-0.43,1.98-0.43c1.18,0,2.07,0.52,2.67,1.55
		c0.32,0.6,0.55,1.4,0.69,2.38c0.14,0.98,0.21,2.33,0.21,4.05v3.71c0,0.81,0.03,1.41,0.09,1.81c0.06,0.4,0.18,0.69,0.36,0.87
		c0.18,0.18,0.44,0.29,0.81,0.34L267.95,139.95z M264.19,133.82c-1,0.25-1.76,0.64-2.29,1.15c-0.53,0.52-0.8,1.39-0.8,2.63
		c0,0.78,0.1,1.37,0.31,1.78c0.21,0.4,0.48,0.6,0.8,0.6c0.31,0,0.62-0.18,0.93-0.55c0.31-0.37,0.56-0.92,0.76-1.66
		c0.2-0.74,0.29-1.66,0.29-2.74V133.82z"/>
	<path class="st3" d="M269.42,140.48c0.56-0.02,0.94-0.26,1.14-0.72c0.2-0.45,0.29-1.31,0.29-2.57V120.9c0-0.91-0.11-1.56-0.32-1.95
		c-0.21-0.39-0.63-0.6-1.26-0.62c0-0.78,0.07-1.37,0.21-1.78c0.52,0,1.13-0.13,1.84-0.4c0.71-0.26,1.2-0.56,1.46-0.89
		c0.35,0.25,0.53,0.84,0.53,1.78v20.15c0,1.24,0.09,2.09,0.28,2.55c0.19,0.47,0.52,0.71,1,0.74c0.08,0.48,0.13,1.15,0.13,2
		c-0.67-0.08-1.57-0.11-2.69-0.11c-1.19,0-2.1,0.04-2.73,0.11C269.3,141.6,269.34,140.93,269.42,140.48"/>
	<path class="st3" d="M284.7,138.89c0.1,0.3,0.16,0.61,0.18,0.91c-0.5,1.01-1.08,1.75-1.72,2.21c-0.64,0.47-1.38,0.7-2.21,0.7
		c-1.57,0-2.76-0.83-3.57-2.5c-0.81-1.66-1.22-3.82-1.22-6.47c0-1.71,0.19-3.25,0.57-4.61c0.38-1.36,0.92-2.44,1.62-3.23
		c0.7-0.79,1.51-1.19,2.44-1.19c1.37,0,2.4,0.72,3.07,2.15c0.67,1.44,1.04,3.36,1.12,5.78c-0.08,0.63-0.23,1.15-0.42,1.55
		c-2.16,0-4.08,0.08-5.76,0.23c0.1,1.74,0.38,3.14,0.85,4.2c0.47,1.06,1.17,1.59,2.11,1.59c0.48,0,0.95-0.17,1.41-0.51
		c0.46-0.34,0.86-0.83,1.2-1.46C284.48,138.38,284.59,138.59,284.7,138.89 M279.33,128.1c-0.35,0.87-0.55,2.25-0.59,4.14h3.68
		c0-1.69-0.15-3.02-0.46-3.99c-0.31-0.97-0.74-1.46-1.28-1.46S279.68,127.23,279.33,128.1"/>
	<path class="st3" d="M292.34,130.5c-0.06-1.06-0.28-1.97-0.67-2.72c-0.39-0.76-0.9-1.13-1.51-1.13c-0.38,0-0.68,0.17-0.9,0.51
		c-0.22,0.34-0.34,0.79-0.34,1.34c0,0.43,0.05,0.79,0.16,1.08c0.1,0.29,0.33,0.61,0.66,0.96c0.34,0.35,0.86,0.78,1.58,1.29
		c0.79,0.55,1.39,1.09,1.83,1.61c0.43,0.52,0.75,1.08,0.94,1.68c0.19,0.61,0.28,1.35,0.28,2.23c0,1.64-0.38,2.94-1.15,3.91
		c-0.76,0.97-1.76,1.46-3,1.46c-0.83,0-1.51-0.11-2.04-0.32c-0.53-0.21-1.07-0.56-1.6-1.04c0.04-0.68,0.06-1.54,0.06-2.57
		c0-0.66-0.01-1.36-0.04-2.12c0.29-0.35,0.76-0.53,1.39-0.53c0.1,1.46,0.35,2.57,0.75,3.33c0.4,0.76,0.92,1.13,1.57,1.13
		c0.49,0,0.88-0.2,1.17-0.59c0.29-0.39,0.43-0.9,0.43-1.53s-0.14-1.16-0.42-1.59c-0.28-0.43-0.86-0.96-1.72-1.59
		c-0.77-0.53-1.37-1.03-1.8-1.51c-0.43-0.48-0.75-1.05-0.96-1.72c-0.21-0.67-0.32-1.52-0.32-2.55s0.18-1.91,0.54-2.63
		c0.36-0.72,0.82-1.26,1.39-1.63c0.57-0.36,1.16-0.55,1.78-0.55c0.67,0,1.26,0.1,1.78,0.3c0.51,0.2,0.99,0.52,1.44,0.95
		c-0.01,0.33-0.02,0.83-0.02,1.51c0,0.93,0.03,1.75,0.08,2.46C293.33,130.31,292.89,130.5,292.34,130.5"/>
	<path class="st3" d="M302.73,142.12c-0.7-0.39-1.43-0.98-2.19-1.76c0.14-1.44,0.21-3.33,0.21-5.67c0.41-0.2,0.92-0.3,1.53-0.3
		c0.07,2.14,0.33,3.71,0.78,4.69c0.45,0.98,1.18,1.47,2.19,1.47c0.84,0,1.47-0.33,1.88-1c0.41-0.67,0.62-1.52,0.62-2.55
		c0-0.83-0.13-1.55-0.39-2.15c-0.26-0.61-0.59-1.12-0.98-1.53c-0.39-0.42-0.92-0.9-1.58-1.46c-0.85-0.71-1.55-1.37-2.08-1.99
		c-0.53-0.62-0.99-1.44-1.36-2.48c-0.37-1.03-0.56-2.32-0.56-3.86c0-2.24,0.41-3.98,1.22-5.22c0.81-1.23,1.9-1.85,3.26-1.85
		c0.72,0,1.42,0.16,2.1,0.47c0.69,0.32,1.23,0.71,1.64,1.19c0,2.42,0.04,4.15,0.13,5.18c-0.35,0.33-0.86,0.49-1.54,0.49
		c-0.2-2.02-0.48-3.4-0.86-4.16c-0.38-0.76-0.9-1.13-1.58-1.13c-0.67,0-1.2,0.29-1.59,0.87c-0.39,0.58-0.58,1.4-0.58,2.46
		c0,0.88,0.14,1.64,0.41,2.27c0.27,0.63,0.61,1.16,1.02,1.59c0.41,0.43,0.96,0.94,1.66,1.55c0.85,0.73,1.55,1.4,2.08,2
		c0.53,0.6,0.98,1.41,1.36,2.4c0.37,1,0.56,2.21,0.56,3.65c0,1.41-0.19,2.67-0.56,3.78c-0.37,1.11-0.94,1.99-1.69,2.65
		c-0.76,0.66-1.69,0.98-2.8,0.98C304.21,142.71,303.43,142.51,302.73,142.12"/>
	<path class="st3" d="M312.49,141.93c-0.29-0.52-0.44-1.2-0.44-2.06c0-0.88,0.16-1.6,0.49-2.15c0.33-0.55,0.75-0.83,1.27-0.83
		c0.48,0,0.87,0.28,1.17,0.85c0.3,0.57,0.45,1.2,0.45,1.91c0,0.93-0.16,1.68-0.47,2.23c-0.32,0.55-0.73,0.83-1.23,0.83
		C313.2,142.71,312.78,142.45,312.49,141.93"/>
	<path class="st3" d="M330.89,142.48c-0.55-0.08-1.43-0.11-2.65-0.11c-1.3,0-2.22,0.04-2.75,0.11c0-0.86,0.06-1.52,0.17-2
		c0.35-0.08,0.61-0.2,0.77-0.38c0.16-0.18,0.24-0.44,0.24-0.79c0-0.38-0.1-0.96-0.29-1.74l-0.69-2.95c-2.17,0-3.95,0.06-5.34,0.19
		l-0.42,1.97c-0.18,0.83-0.27,1.53-0.27,2.08c0,0.5,0.08,0.89,0.25,1.15c0.17,0.26,0.43,0.42,0.78,0.47c0.11,0.61,0.17,1.27,0.17,2
		c-0.48-0.08-1.19-0.11-2.14-0.11c-0.41,0-1.01,0.04-1.81,0.11c0-0.78,0.06-1.44,0.17-1.97c0.36-0.13,0.65-0.45,0.85-0.96
		c0.2-0.52,0.48-1.53,0.83-3.04l4.37-19.74c0.29-0.13,0.64-0.19,1.03-0.19l4.92,20.04c0.27,1.06,0.48,1.85,0.65,2.36
		c0.17,0.52,0.33,0.88,0.47,1.1c0.15,0.21,0.33,0.35,0.56,0.4C330.84,141.08,330.89,141.75,330.89,142.48 M325.21,132.69l-1.37-5.75
		c-0.38-1.51-0.7-3.01-0.97-4.5c-0.25,1.46-0.54,2.96-0.86,4.5l-1.22,5.75H325.21z"/>
	<g>
		<path class="st4" d="M187.24,80.63c0.42-0.33,0.65-0.54,0.58-0.85c-0.16-0.72-0.5-1-0.89-1.28c-0.07,1.11-0.19,1.95-0.34,2.71
			c0.08-0.08,0.16-0.17,0.25-0.25C186.98,80.83,187.12,80.73,187.24,80.63z"/>
		<path class="st4" d="M201.68,62.23c0.24,0.1,1.45,0.6,1.49,0.64c0.01,0.01,0.02,0.02,0.03,0.04c0,0.01,0,0.01,0.01,0.02
			c0,0,0,0.01,0,0.01c0-0.05-0.01-0.09-0.01-0.14l-2.37-0.93C201.04,61.96,201.31,62.08,201.68,62.23z"/>
		<path class="st4" d="M180.88,69.94c0.43,0.1,0.93,0.21,1.33,0.31c0.02,0,0.04,0.01,0.06,0.01l0.54-0.32
			C182.27,69.94,181.65,69.94,180.88,69.94z"/>
		<path class="st4" d="M200.19,61.66C200.19,61.66,200.19,61.66,200.19,61.66C200.19,61.66,200.19,61.66,200.19,61.66
			c0-0.01,0-0.01,0-0.01c0,0,0,0,0,0c0,0,0,0,0,0c0,0,0,0,0,0c0,0,0.01-0.01,0.02-0.01c0.01,0,0.03,0,0.07,0.02l-0.05-0.02
			l-0.06-0.02l0.01,0.02l0.03,0.12C200.19,61.71,200.19,61.68,200.19,61.66C200.19,61.67,200.19,61.67,200.19,61.66z"/>
		<path class="st4" d="M168.72,77.15c-0.02,0.01-0.03,0.03-0.05,0.04c-0.13,0.12-0.31,0.28-0.65,0.56l-0.08,0.06
			c-0.53,0.41-1.41,1.09-1.61,1.96c0,0.01,0,0.02,0,0.04l2.42-1.45c-0.01-0.29-0.02-0.59-0.02-0.89
			C168.73,77.36,168.73,77.26,168.72,77.15z"/>
		<path class="st4" d="M199.94,53.78l2.29,0.44c0,0,0-0.01,0-0.01c0.02,0,0.04,0.01,0.06,0.01c0.03,0,0.06,0.01,0.07,0.01
			c0.02,0,0.03,0,0.03-0.01c0,0,0.01-0.01,0.01-0.01c0-0.03-0.47-1.29-0.55-1.48c-0.05-0.13-0.12-0.28-0.2-0.44
			c-0.32-0.66-0.79-1.52-1.1-1.99c-0.02-0.03-0.05-0.07-0.08-0.11c-0.04-0.05-0.08-0.11-0.13-0.18c-0.02-0.02-0.03-0.04-0.05-0.06
			c-0.03-0.04-0.07-0.09-0.1-0.13c-0.02-0.03-0.04-0.05-0.07-0.08c-0.03-0.04-0.07-0.08-0.1-0.12c-0.02-0.03-0.05-0.06-0.07-0.08
			c-0.03-0.04-0.07-0.08-0.1-0.12c-0.02-0.03-0.05-0.05-0.07-0.08c-0.03-0.04-0.07-0.08-0.1-0.11c-0.02-0.02-0.04-0.05-0.06-0.07
			c-0.04-0.04-0.07-0.07-0.1-0.11c-0.02-0.02-0.03-0.04-0.05-0.05c-0.05-0.05-0.09-0.09-0.12-0.12c0,0,0,0-0.01-0.01c0,0,0,0,0,0
			c-0.04-0.03-0.07-0.06-0.09-0.08c-0.03-0.02-0.05-0.03-0.06-0.03c-0.01,0-0.02,0.01-0.03,0.03c-0.02,0.02-0.04,0.03-0.07,0.05
			c0,0-0.01,0-0.01,0.01c-0.02-0.01-0.03-0.02-0.05-0.04c-0.22,0.07-0.67-0.25-1.16-0.66c-0.04-0.02-0.08-0.03-0.12-0.05l0.59,5.33
			l0.01,0.05l0.31,0.06L199.94,53.78z"/>
		<path class="st4" d="M194.72,62.8l0.82-0.49c-0.17-0.49-0.33-1.02-0.47-1.64c-0.03-0.11-0.05-0.23-0.07-0.35
			c-0.01,0.01-0.01,0.02-0.02,0.03C194.86,61.32,194.78,62.11,194.72,62.8z"/>
		<path class="st4" d="M199.83,62.29c0.08-0.22,0.09-0.23,0.1-0.23c0,0,0,0,0,0l0.02,0l0.01,0.01c0,0,0.01,0.04,0.03,0.09
			l-0.06-0.21l-0.13,0.41C199.82,62.34,199.83,62.31,199.83,62.29z"/>
		<g>
			<path class="st5" d="M205.97,75.53c0-0.03-0.01-0.06-0.01-0.09c-0.01-0.02-0.02-0.03-0.03-0.05c-1.33-2.39-1.7-4.14-2.07-6.35
				c-0.08-0.5-0.16-1.04-0.23-1.6c0-0.03-0.01-0.06-0.01-0.1c0,0,0,0,0,0l0.01-0.01l0,0l0-0.02c-0.18-1.48-0.39-3.73-0.39-4.21
				c0-0.04,0-0.08-0.01-0.12c0,0,0-0.01,0-0.01c0-0.01-0.01-0.03-0.01-0.04c0,0,0-0.01,0-0.01c0-0.01,0-0.01-0.01-0.02
				c-0.01-0.02-0.02-0.03-0.03-0.04c-0.04-0.04-1.25-0.54-1.49-0.64c-0.37-0.15-0.65-0.27-0.85-0.35c-0.32-0.13-0.47-0.19-0.55-0.22
				c-0.04-0.01-0.06-0.02-0.07-0.02c-0.01,0-0.01,0-0.02,0.01c0,0,0,0,0,0c0,0,0,0,0,0c0,0,0,0,0,0c0,0,0,0,0,0c0,0,0,0,0,0.01
				c0,0,0,0,0,0c0,0,0,0,0,0c0,0.01,0,0.04,0.01,0.09l0,0.01c0.04,0.23,0.21,0.94,0.74,3.22c0.07,0.3,0.14,0.58,0.2,0.86
				c0.12,0.52,0.23,0.99,0.32,1.37c0.14,0.6,0.23,1,0.25,1.08c0,0-0.01,0-0.01,0c-0.01-0.01-0.02-0.04-0.03-0.07
				c0-0.01-0.01-0.02-0.01-0.03c-0.11-0.3-0.37-1.26-0.84-2.98c-0.01-0.05-0.03-0.11-0.05-0.17c-0.28-1.02-0.67-2.49-0.79-2.87
				c-0.02-0.06-0.03-0.09-0.03-0.09l-0.01-0.01l-0.02,0c0,0,0,0,0,0c-0.01,0-0.02,0.01-0.1,0.23c-0.01,0.02-0.02,0.05-0.02,0.07
				c-0.16,0.46-0.45,1.38-0.7,2.22c-0.01,0.04-0.02,0.07-0.03,0.11l-0.73,2.37l0,0.01l0,0.01l0,0.01l0.32,0.54
				c0.04,0.06,0.08,0.13,0.11,0.19l0,0l0.07,0.13l0.01,0.01l0.07-0.7c0.01-0.13,0.13-0.73,0.16-0.84c0,0,0,0,0,0c0,0,0,0,0,0
				c0,0,0,0,0,0c0,0,0,0,0,0c0,0.03,0,0.1-0.01,0.2c-0.01,0.15-0.02,0.37-0.03,0.74c-0.01,0.28-0.02,0.41-0.02,0.51
				c0,0.07-0.01,0.13-0.01,0.21c0,0,0,0,0,0c0,0,0,0,0,0c0,0.1,0.04,0.2,0.09,0.29c0.03,0.05,0.06,0.1,0.09,0.14
				c0,0,0,0.01,0.01,0.01l0,0.01l0,0l0,0l0.19,0.24l2.52,3.24c0.01,0.01,0.53,0.56,1.18,1.22c0.18,0.18,0.36,0.36,0.55,0.55
				c0.69,0.69,1.41,1.36,1.75,1.58l0.05,0.03c0.39,0.26,0.51,0.28,0.55,0.27C205.97,75.63,205.97,75.58,205.97,75.53z"/>
			<path class="st5" d="M197.37,51.19c0,0,0,0.01,0,0.01c0,0.06,0,0.13-0.01,0.19c0.01-0.01,0.02-0.02,0.03-0.03
				C197.39,51.3,197.38,51.25,197.37,51.19z"/>
			<path class="st5" d="M197.73,53.28c-0.05-0.21-0.13-0.67-0.19-1.01c-0.04-0.23-0.08-0.51-0.13-0.82L197.35,52
				c0,0-0.01,0.01-0.02,0.01c-0.03,0.55-0.07,1.09-0.14,1.63c-0.1,0.69-0.23,1.37-0.38,2.05c0.06-0.12,0.11-0.23,0.18-0.36
				l0.83-1.67l0,0l0,0l0,0L197.73,53.28z"/>
			<path class="st5" d="M182.82,85.32c-0.09,0.02-0.41,0.08-0.61,0.12c-0.08,0.01-0.16,0.03-0.24,0.04
				c0.28,2.59,0.46,6.99,0.31,7.82c-0.17,0.05-1.18,0.35-2.3,0.59c-0.25,0.05-0.5,0.1-0.75,0.14c-0.51,0.09-1,0.15-1.42,0.15
				c-0.02,0-0.05,0-0.07,0c-0.39,0-0.86-0.05-1.34-0.12c-0.33-0.05-0.68-0.11-1.01-0.17c-1.19-0.23-2.26-0.52-2.42-0.56
				c-0.3-0.71-0.36-4.6-0.13-7.65c0-0.05,0.01-0.1,0.01-0.16c0-0.05,0.01-0.1,0.01-0.15c0-0.01,0-0.01,0-0.02
				c-0.08-0.01-0.15-0.03-0.23-0.04c-0.01,0-0.05-0.01-0.1-0.02c0,0,0,0,0,0v0c-0.06-0.01-0.13-0.02-0.13-0.02
				c-0.11-0.02-0.23-0.04-0.34-0.06c0,0.05-0.01,0.09-0.01,0.14c0,0.05-0.01,0.1-0.01,0.15c-0.12,2.4,0.02,5.48,0.11,7.57
				c0.01,0.28,0.02,0.55,0.03,0.79l0,0.02l0,0.01l0.03,0.01c0.03,0.01,0.07,0.02,0.1,0.03c0.78,0.26,1.76,0.49,2.71,0.66
				c0.49,0.09,0.96,0.16,1.4,0.22c0.58,0.07,1.08,0.12,1.42,0.12h0.02c0.34,0,0.82,0,1.4-0.05c0.53-0.04,1.13-0.13,1.8-0.28
				c0.55-0.13,1.13-0.3,1.74-0.54c0.11-0.04,0.22-0.08,0.33-0.13l0.03-0.01l0-0.03c0,0,0-0.01,0-0.01c0.01-0.3,0.01-0.61,0.01-0.92
				v-0.22C183.14,89.84,182.9,86.37,182.82,85.32z"/>
		</g>
		<path class="st6" d="M172.52,85.29c-0.04-0.01-0.09-0.01-0.13-0.02c0,0,0,0.01,0,0.01c0.04,0.01,0.09,0.02,0.13,0.03
			C172.52,85.3,172.52,85.3,172.52,85.29z"/>
		<path class="st7" d="M194.63,97.23c-0.07-0.32-0.22-0.63-0.46-0.92c-0.19-0.23-0.43-0.43-0.74-0.64
			c-0.34-0.23-0.68-0.38-1.12-0.53c-0.49-0.16-1.2-0.32-1.84-0.42c-0.23-0.03-0.45-0.06-0.68-0.09c-0.17-0.02-0.34-0.04-0.54-0.07
			c-0.03,0.09-0.11,0.18-0.27,0.25l-0.21,0.12c-0.56,0.34-0.73,0.44-2.1,1.03l-2.96,1.44c-0.22,0.1-0.89,0.38-1.58,0.58
			c-0.82,0.36-1.73,0.69-1.99,0.49c-0.08-0.06-0.15-0.16-0.21-0.27c-0.06-0.11-0.11-0.24-0.15-0.38c-0.05,0.07-0.09,0.14-0.13,0.21
			c-0.19,0.32-0.31,0.65-0.37,0.84c0.04,0.04,0.09,0.07,0.13,0.11c0.17,0.15,0.33,0.27,0.4,0.33l0.15,0.1
			c0.44,0.3,1.18,0.8,2.01,1.25c0.93,0.5,2.05,0.97,2.99,1.24c0.91,0.27,1.7,0.37,2.63,0.38c0.96,0,1.94-0.13,2.76-0.35
			c0.83-0.23,1.6-0.59,2.23-1.04c0.63-0.45,1.12-1.01,1.41-1.4c0.33-0.44,0.51-0.76,0.6-1.12C194.68,98.02,194.7,97.59,194.63,97.23
			z"/>
		<path class="st7" d="M179.24,99.11c0.01,0.03,0.02,0.05,0.04,0.08c0.01-0.01,0.01-0.02,0.02-0.03
			C179.28,99.14,179.26,99.13,179.24,99.11z"/>
		<path class="st7" d="M179.4,99.02c-0.04-0.04-0.08-0.07-0.13-0.11c-0.02,0.07-0.03,0.12-0.03,0.15c0,0.02,0,0.04,0,0.05
			c0.02,0.02,0.04,0.03,0.06,0.05C179.33,99.11,179.36,99.07,179.4,99.02z"/>
		<path class="st7" d="M172.91,97.89c-0.13-0.04-0.23-0.08-0.31-0.1h0c-0.9-0.28-2.86-1.24-3.44-1.52
			c-1.74-0.85-2.47-1.27-2.68-1.58c-0.58,0.13-1.13,0.26-1.58,0.37c-0.79,0.19-1.33,0.34-1.8,0.5c-0.48,0.16-0.79,0.29-1.02,0.42
			c-0.25,0.15-0.42,0.32-0.61,0.54c-0.18,0.2-0.38,0.45-0.49,0.81c-0.12,0.4-0.14,0.95-0.05,1.39c0.11,0.48,0.36,0.93,0.74,1.33
			c0.38,0.39,0.92,0.77,1.56,1.1c0.7,0.36,1.4,0.6,2.21,0.75c1.13,0.21,2.51,0.26,3.05,0.28c0.9,0.02,1.63,0,2.51-0.21
			c0.92-0.21,1.93-0.6,2.72-1.04c0.93-0.52,1.7-1.2,1.98-1.47c0.43-0.4,0.52-0.57,0.53-0.74c0-0.04,0-0.09-0.01-0.14
			C175.66,98.73,174.48,98.41,172.91,97.89z"/>
		<g>
			<path class="st8" d="M191.77,79.83l-0.2-0.09c-0.14-0.07-0.32-0.15-0.46-0.21c-0.18-0.08-0.26-0.26-0.43-0.67
				c-0.09-0.22-0.22-0.53-0.42-0.93c-0.48-0.99-1.05-1.7-1.82-2.52c-0.52-0.55-1.13-1.1-1.73-1.58c0.04,0.12,0.07,0.25,0.09,0.37
				c0.15,1.25,0.21,3,0.15,3.97c0.02,0.01,0.03,0.02,0.05,0.04c0.43,0.31,0.88,0.64,1.08,1.51c0.11,0.5-0.27,0.8-0.68,1.13
				c-0.12,0.1-0.25,0.2-0.38,0.31c-0.23,0.21-0.42,0.43-0.56,0.64c-0.07,0.33-0.14,0.66-0.22,0.98c0,0.01,0,0.01,0,0.02
				c0.04,0.13,0.1,0.25,0.2,0.35c0.03,0.03,0.07,0.04,0.13,0.05c0,0,0.01,0,0.01,0c0.16,0,0.34-0.09,0.44-0.19
				c0.11-0.11,0.27-0.27,0.49-0.27c0.12,0,0.25,0.05,0.4,0.17c0.32,0.28,0.7,0.71,0.68,1.2c-0.01,0.3-0.24,0.51-0.44,0.69
				c-0.16,0.15-0.32,0.29-0.36,0.47c-0.07,0.32-0.06,0.78,0.18,1.02c0.23,0.23,0.66,0.24,0.96,0.18c0.3-0.06,0.55-0.24,0.72-0.51
				c0.08-0.13,0.23-0.5,0.35-0.8c0.24-0.62,0.26-0.67,0.41-0.63c0.13,0.03,0.11,0.18,0.1,0.23c-0.06,0.39,0.02,0.69,0.22,0.87
				c0.15,0.14,0.45,0.19,0.68,0.11c0.33-0.11,0.6-0.41,0.8-0.88c0.1-0.24,0.06-1.1,0.02-1.54c-0.01-0.03-0.01-0.07-0.02-0.11
				c-0.02-0.19-0.02-0.24,0.06-0.29l0.09-0.04l0.07,0.07c0.01,0.01,0.03,0.05,0.04,0.1h0c0,0,0,0.01,0,0.02
				c0.01,0.06,0.02,0.14,0.03,0.23c0.04,0.11,0.1,0.14,0.13,0.15c0.22,0.09,0.65-0.12,0.83-0.29c0.29-0.27,0.16-0.84-0.01-1.37
				C193.18,80.88,191.92,79.9,191.77,79.83z"/>
			<path class="st8" d="M170.02,72.3c-0.45,0.18-0.9,0.39-1.28,0.63c-1.16,0.76-2.26,1.66-3.03,2.46c-0.74,0.78-1.33,1.51-1.82,2.52
				c-0.19,0.4-0.32,0.71-0.42,0.93c-0.17,0.41-0.25,0.59-0.43,0.67c-0.13,0.06-0.31,0.14-0.45,0.21c-0.08,0.04-0.15,0.07-0.2,0.1
				c-0.15,0.07-1.41,1.05-1.7,1.94c-0.17,0.52-0.3,1.09-0.01,1.37c0.01,0.01,0.03,0.03,0.05,0.04l5.33-3.2
				c-0.01-0.08-0.01-0.17,0.01-0.26c0.22-0.97,1.15-1.69,1.71-2.12l0.08-0.06c0.34-0.26,0.51-0.42,0.64-0.54
				c0.05-0.04,0.09-0.08,0.13-0.12c0.03-0.37,0.08-0.71,0.14-1.03c0.09-0.91,0.32-1.77,0.69-2.52
				C169.58,72.96,169.78,72.62,170.02,72.3z"/>
			<path class="st8" d="M166.76,80.85l-4.87,2.92c-0.02,0.42-0.02,0.91,0.05,1.08c0.2,0.47,0.48,0.77,0.8,0.88
				c0.23,0.08,0.53,0.03,0.68-0.11c0.2-0.18,0.27-0.47,0.22-0.87c-0.01-0.05-0.03-0.19,0.1-0.23c0.02-0.01,0.04-0.01,0.06-0.01
				c0.1,0,0.14,0.12,0.35,0.64c0.12,0.3,0.27,0.68,0.35,0.81c0.17,0.26,0.42,0.44,0.72,0.51c0.3,0.06,0.73,0.05,0.96-0.18
				c0.24-0.24,0.25-0.7,0.18-1.02c-0.04-0.17-0.19-0.31-0.36-0.47c-0.2-0.18-0.43-0.39-0.44-0.69c-0.02-0.49,0.36-0.92,0.68-1.2
				c0.43-0.37,0.73-0.06,0.89,0.1c0.09,0.09,0.29,0.18,0.44,0.19c0.06,0,0.1-0.02,0.13-0.05c0.17-0.18,0.25-0.4,0.24-0.64
				c-0.02-0.41-0.31-0.89-0.82-1.35C167,81.04,166.88,80.94,166.76,80.85z"/>
			<path class="st8" d="M186.64,78.27c0.05-0.67,0.04-1.81-0.03-2.88c-0.03-0.38-0.06-0.75-0.1-1.08c0-0.02,0-0.04-0.01-0.06
				c-0.05-0.28-0.14-0.54-0.25-0.78c-0.04-0.09-0.09-0.19-0.14-0.28c-0.06-0.11-0.12-0.21-0.19-0.31c-0.61-0.9-1.58-1.56-2.58-1.97
				l-14.22,8.53c0.1,1.53,0.28,2.94,0.55,4.29c2.89,0.8,5.88,1.18,8.88,1.13c2.95-0.05,5.33-0.55,7.26-1.52
				c0.05-0.21,0.09-0.41,0.14-0.61c0-0.01,0-0.01,0-0.02c0.07-0.31,0.14-0.61,0.21-0.93c0.2-0.92,0.37-1.93,0.46-3.36
				C186.64,78.37,186.64,78.32,186.64,78.27z"/>
			<path class="st8" d="M192.13,47.61c-0.61-0.84-1.2-1.75-1.73-2.67c-0.83-1.46-1.5-2.94-1.86-4.23c0-0.01-0.01-0.02-0.01-0.03
				c-0.16-0.57-0.29-0.99-0.39-1.27c-0.23-0.67-0.28-0.57-0.22-0.04c0.03,0.29,0.09,0.72,0.17,1.21c0.2,1.24,0.52,2.93,0.76,4.17
				c0.19,0.96,0.33,1.65,0.33,1.65l-4.95,0.18l-0.36-2.31l-0.28-1.81l-0.14,1.79l-0.15,1.91l-2.79,0.39l0.1-1.72l-1.62,2.01
				l-5.08-0.15c-0.03,0.48-0.07,0.99-0.1,1.52C177.09,48.36,182.19,48.32,192.13,47.61z"/>
			<polygon class="st8" points="171.68,43.81 171.65,44.02 171.74,44.01 			"/>
			<path class="st8" d="M179.97,70.05l-0.12-0.03l0-0.13c0,0,0.01-1,0.01-1.67c0.07-0.01,0.13-0.01,0.2-0.01l0-0.13l0-0.17
				c0,0,0.86-0.06,2.34-0.42c-2.16,0.35-4.33,0.54-6.54,0.49l0,0.13l0,0.14c0.07,0,0.15,0.01,0.22,0.01c0,1.01,0,1.52,0,1.52l0,0.12
				l-0.11,0.03c-0.03,0.01-2.98,0.76-4.03,1.23c-0.26,0.13-0.51,0.28-0.74,0.44c-0.11,0.08-0.21,0.16-0.31,0.25
				c-0.09,0.07-0.17,0.15-0.24,0.23c-0.33,0.33-0.6,0.71-0.79,1.12c-0.04,0.08-0.08,0.16-0.11,0.25c-0.11,0.23-0.2,0.46-0.29,0.71
				c-0.15,0.44-0.26,0.9-0.33,1.38c-0.09,0.62-0.11,1.26-0.07,1.93c0,0.24,0.01,0.48,0.02,0.72l12.83-7.69
				C181.07,70.29,179.99,70.06,179.97,70.05z"/>
			<path class="st8" d="M159.53,57.87c0.2-0.75,0.47-1.43,0.74-2.1c-0.53-0.13-1.05-0.27-1.56-0.45
				C158.93,56.15,159.16,57,159.53,57.87z"/>
			<path class="st8" d="M161.86,54.93c0,0,0.1-0.02,0.29-0.05c-0.04-1.18-0.03-2.34,0.01-3.48c-2.11,0.1-2.1,0.09-2.1,0.09
				l-0.12-2.03l-1.55,0.69c0,0-0.06,0.44-0.1,0.93c-0.02,0.2-0.04,0.4-0.05,0.59c-0.03,0.49,0.02,1.5,0.23,2.6c0,0,0,0,0,0
				c0.81,0.3,1.65,0.55,2.5,0.72L161.86,54.93z"/>
			<path class="st8" d="M197.33,47.75c0-0.03-0.01-0.07-0.02-0.11c-0.05-0.05-0.11-0.1-0.16-0.15c-0.02-0.02-0.04-0.04-0.06-0.06
				l-0.07,0.15l-0.58,1.28l-0.82,1.82l-0.35,0.77c0,0-0.11-0.01-0.3-0.03c-0.73-0.06-2.69-0.2-4.36-0.2c-2.11,0-2.14,0.1-5.81-0.14
				c-5.49-0.85-6.31-0.92-11.14-0.44c-0.05,1.08-0.08,2.04-0.07,2.67c1.38-0.15,2.54-0.24,3.2-0.22c3.14,0.1,12.85,1.87,15.68,2
				c0,0,0,0,0.01,0.01c0.26-0.07,1.02-0.32,2.07-1.08c0.14-0.1,0.28-0.21,0.43-0.33c0.35-0.28,1.89-1.8,2.39-2.29
				c0-0.06,0-0.13,0.01-0.19c0,0,0-0.01,0-0.01C197.4,50.04,197.39,48.9,197.33,47.75z M191.02,53.07c0,0-1.3-0.19-2.01-0.2
				c-0.71-0.01-2.22,0.13-2.22,0.13s-0.33-0.02-0.31-0.13c0.06-0.26,0.29-0.26,0.29-0.26s2.78-0.76,3.14-0.88
				c0.36-0.12,0.78-0.36,1.03-0.12c0.03,0.03-0.01,0.13-0.01,0.13l-3.98,1.04c0,0,1.36-0.18,2.05-0.17
				c0.68,0.01,2.05,0.22,2.05,0.22s0.06,0.06,0.06,0.1C191.11,52.99,191.02,53.07,191.02,53.07z"/>
			<path class="st8" d="M196.12,53.38c-0.5,0.49-1.02,0.8-1.19,0.93c-0.12,0.1-0.26,0.19-0.41,0.29c-0.37,0.24-0.88,0.5-1.71,0.87
				c0.1,0.12,0.18,0.24,0.24,0.37c0.53,1.29,0.8,1.98,0.81,3.92c-0.07,0.51-0.21,1.22-0.51,2.01c0.51-0.59,1.09-1.31,1.54-2.02
				c0.06-0.1,0.13-0.2,0.18-0.3c-0.03,0.29-0.07,0.56-0.1,0.82c0,0.02-0.01,0.05-0.01,0.07c0.01-0.01,0.01-0.02,0.02-0.03
				c0.11-0.2,0.23-0.4,0.34-0.61c0.01-0.01,0.01-0.02,0.02-0.03c0.47-0.86,0.83-1.78,1.12-2.71c0.13-0.42,0.24-0.85,0.34-1.28
				c0.16-0.68,0.28-1.36,0.38-2.05c0.08-0.54,0.12-1.09,0.14-1.63C197.07,52.25,196.61,52.9,196.12,53.38z"/>
		</g>
		<g>
			<path class="st9" d="M203.2,62.75c0-0.02,0-0.03,0-0.05c-0.01-0.14-0.01-0.26-0.02-0.37c-0.01-0.25-0.02-0.48-0.02-0.69
				c-0.01-0.22-0.01-0.44-0.02-0.66c-0.01-0.53-0.02-1.09-0.06-1.91L200,60.92l0.14,0.59l0.01,0.05l0.01,0.05l0.06,0.02l0.05,0.02
				c0.08,0.02,0.23,0.08,0.55,0.22l2.37,0.93C203.2,62.78,203.2,62.77,203.2,62.75z"/>
			<path class="st9" d="M198.37,53.57l1.38,6.21l3.26-1.95c-0.15-1.49-0.49-2.82-0.74-3.51c-0.01-0.02-0.01-0.03-0.02-0.05
				c-0.01-0.02-0.01-0.03-0.02-0.05l-2.29-0.44l-1.29-0.24l-0.31-0.06l0.01,0.05L198.37,53.57z"/>
			<path class="st9" d="M198.28,55.81l-0.44-2.01l-0.02-0.07l-0.01-0.07l-0.83,1.67c-0.06,0.13-0.12,0.24-0.18,0.36
				c-0.1,0.43-0.21,0.86-0.34,1.28c-0.29,0.93-0.66,1.85-1.12,2.71c-0.01,0.01-0.01,0.02-0.02,0.03c0.05,0.31,0.1,0.61,0.16,0.86
				c0.13,0.57,0.27,1.05,0.43,1.5l3.49-2.09L198.28,55.81z"/>
			<path class="st9" d="M199.89,61.79l-0.04-0.15l-0.15-0.54l-3.39,2.03c0.09,0.21,0.18,0.42,0.28,0.65
				c0.36,0.83,1.1,2.16,1.69,3.19c0.01,0.02,0.02,0.04,0.03,0.05c0.01,0.01,0.01,0.02,0.02,0.04c0,0,0,0,0,0.01c0,0,0,0,0,0l0-0.01
				l0.73-2.37c0.01-0.03,0.02-0.07,0.03-0.11c0.26-0.84,0.54-1.76,0.7-2.22l0.13-0.41l-0.02-0.08L199.89,61.79z"/>
			<path class="st9" d="M182.28,93.3c0.15-0.84-0.03-5.24-0.31-7.82c-1.05,0.17-2.18,0.27-3.4,0.29c-0.18,0-0.36,0-0.54,0
				c-1.74,0-3.47-0.14-5.18-0.42c0,0.01,0,0.01,0,0.02c0,0.05-0.01,0.1-0.01,0.15c0,0.05-0.01,0.1-0.01,0.16
				c-0.22,3.06-0.16,6.95,0.13,7.65c0.16,0.04,1.24,0.33,2.42,0.56c0.34,0.07,0.68,0.13,1.01,0.17c0.49,0.07,0.95,0.12,1.34,0.12
				c0.02,0,0.05,0,0.07,0c0.42-0.01,0.92-0.07,1.42-0.15c0.25-0.04,0.5-0.09,0.75-0.14C181.1,93.65,182.11,93.35,182.28,93.3z"/>
			<path class="st9" d="M188.93,94.18c-0.12-0.1-0.29-0.2-0.5-0.29c-0.04-0.02-0.08-0.03-0.13-0.05c-0.4-0.15-0.92-0.26-1.42-0.26
				c-0.61,0.06-1.11,0.17-1.59,0.31c-0.01,0-0.01,0-0.02,0.01c-0.38,0.01-0.76,0.05-1.12,0.15c-0.71,0.2-1.34,0.6-1.89,1.06
				c-0.04,0.03-0.08,0.06-0.12,0.1c-0.87,0.37-1.59,0.65-2.57,1.46c0,0,0,0.12,0.02,0.29c0.01,0.07,0.02,0.16,0.03,0.25
				c0.01,0.08,0.02,0.17,0.04,0.26c0.02,0.13,0.06,0.27,0.09,0.4c0.04,0.14,0.09,0.27,0.15,0.38c0.06,0.11,0.13,0.2,0.21,0.27
				c0.26,0.2,1.17-0.13,1.99-0.49c0.79-0.35,1.5-0.74,1.5-0.74l2.97-1.45c1.53-0.67,1.56-0.71,2.31-1.16
				c0.17-0.08,0.22-0.18,0.19-0.29C189.07,94.31,189.01,94.25,188.93,94.18z"/>
			<path class="st9" d="M176.4,98.04c-0.17-0.49-1.19-1.21-1.19-1.21c-0.98-0.82-1.03-0.89-1.54-1.15
				c-0.64-0.59-1.39-1.21-2.15-1.52c-0.39-0.16-0.79-0.23-1.2-0.25c-0.01,0-0.01,0-0.02-0.01c-0.45-0.21-0.92-0.38-1.43-0.43
				c-0.29,0.15-0.89,0.24-1.42,0.43c-0.03,0.01-0.05,0.02-0.08,0.03c-0.24,0.09-0.46,0.21-0.62,0.36c-0.07,0.06-0.12,0.12-0.17,0.19
				c0,0.01,0,0.01,0,0.02c-0.03,0.29,1.39,1,2.65,1.62c1.29,0.63,2.74,1.3,3.42,1.51c0.68,0.21,3.17,1.11,3.68,0.73
				c0,0,0-0.01,0.01-0.01c0.02-0.02,0.04-0.04,0.05-0.06c0-0.01,0.01-0.01,0.01-0.02c0.03-0.06,0.03-0.12,0.01-0.19
				C176.4,98.06,176.41,98.05,176.4,98.04z"/>
			<path class="st9" d="M171.59,43.52l-0.98-3.39l-0.58-1.98l-12.19,1.88c0,0-3.13,1.22-2.55,5.11c1.41-0.3,3.41-0.59,5.54-0.84
				C165.17,43.78,170.05,43.44,171.59,43.52z"/>
			<path class="st9" d="M173.62,50.65c-0.81,0.08-1.72,0.18-2.79,0.28c-1.47,0.1-0.69,0.03-3.09,0.17c0.49,0.41,0.8,1.01,0.8,1.69
				c0,0.44-0.13,0.85-0.36,1.2c1.83-0.25,3.78-0.51,5.41-0.68c0,0,0,0,0,0c-0.01-0.62,0.02-1.59,0.07-2.67
				C173.65,50.65,173.64,50.65,173.62,50.65z"/>
			<path class="st9" d="M164.1,52.79c0-0.59,0.23-1.12,0.61-1.52c-0.13,0.01-0.25,0.02-0.39,0.02c-0.55,0.03-1.02,0.05-1.43,0.07
				c-0.27,0.01-0.51,0.02-0.73,0.03c-0.04,1.15-0.04,2.31-0.01,3.48c0.12-0.02,0.28-0.04,0.47-0.07c0.54-0.08,1.32-0.2,2.26-0.34
				C164.41,54.06,164.1,53.46,164.1,52.79z"/>
			<path class="st9" d="M162.68,47.47c5.48-0.13,6.62,0.5,11.08,0.73c0.01,0,0.03,0,0.04,0c0.03-0.53,0.07-1.04,0.1-1.52l-0.03,0
				l-1.37-0.04l-0.76-2.62l-0.08,0l-0.24,1.94C171.42,45.95,166.94,46.14,162.68,47.47z"/>
		</g>
		<path class="st10" d="M163.26,64.29c0.18,0.06,0.37,0.13,0.55,0.19c0.47,0.16,0.94,0.32,1.42,0.48c0.3,0.1,0.59,0.19,0.89,0.29
			c2.47,0.78,5.06,1.44,8.1,1.68c0.01,0,0.02,0,0.03,0c0.9,0.07,1.84,0.11,2.82,0.1c4.68,0.02,9.04-1.19,13.02-2.68
			c0.57-0.54,1.02-1.13,1.37-1.74c0.2-0.35,0.38-0.72,0.51-1.08c0.25-0.68,0.39-1.37,0.43-2.05c0,0,0-0.01,0-0.01
			c0.03-0.62-0.02-1.22-0.14-1.81c-0.03-0.13-0.06-0.27-0.1-0.4c-0.04-0.14-0.08-0.28-0.13-0.41c0-0.01-0.01-0.02-0.01-0.03
			c-0.01-0.04-0.03-0.09-0.04-0.13c-0.01-0.02-0.02-0.05-0.02-0.07c-0.07-0.17-0.14-0.33-0.22-0.49c-0.22-0.03-4.48-0.62-8.88-1.15
			c-2.25-0.27-4.53-0.53-6.32-0.7l-1.48,0.16l-1.42,0.15l-1.69,0.18l-9.77,1.04l-0.25,0.03c0.02,0.33-1.23,2.1-1.14,4.22
			c0.01,0.24,0.04,0.49,0.09,0.74C161.1,61.95,161.76,63.16,163.26,64.29z"/>
		<g>
			<path class="st0" d="M190.94,51.62c-0.25-0.24-0.67,0-1.03,0.12c-0.36,0.11-3.14,0.88-3.14,0.88s-0.23,0-0.29,0.26
				c-0.02,0.11,0.31,0.13,0.31,0.13s1.51-0.14,2.22-0.13c0.71,0.01,2.01,0.2,2.01,0.2s0.09-0.08,0.09-0.13c0-0.04-0.06-0.1-0.06-0.1
				s-1.36-0.21-2.05-0.22c-0.69-0.01-2.05,0.17-2.05,0.17l3.98-1.04C190.93,51.75,190.97,51.65,190.94,51.62z"/>
			<g>
				<path class="st4" d="M182.27,70.26l0.54-0.32c-0.53,0.01-1.15,0-1.92,0c0.43,0.1,0.93,0.21,1.33,0.31
					C182.23,70.25,182.25,70.25,182.27,70.26z"/>
				<path class="st4" d="M168.72,77.15c-0.02,0.01-0.03,0.03-0.05,0.04c-0.13,0.12-0.31,0.28-0.65,0.56l-0.08,0.06
					c-0.53,0.41-1.41,1.09-1.61,1.96c0,0.01,0,0.02,0,0.04l2.42-1.45c-0.01-0.29-0.02-0.59-0.02-0.89
					C168.73,77.36,168.73,77.26,168.72,77.15z"/>
				<path class="st4" d="M170.02,72.3c-0.45,0.18-0.9,0.39-1.28,0.63c-1.16,0.76-2.26,1.66-3.03,2.46
					c-0.74,0.78-1.33,1.51-1.82,2.52c-0.19,0.4-0.32,0.71-0.42,0.93c-0.17,0.41-0.25,0.59-0.43,0.67c-0.13,0.06-0.31,0.14-0.45,0.21
					c-0.08,0.04-0.15,0.07-0.2,0.1c-0.15,0.07-1.41,1.05-1.7,1.94c-0.17,0.52-0.3,1.09-0.01,1.37c0.01,0.01,0.03,0.03,0.05,0.04
					l5.33-3.2c-0.01-0.08-0.01-0.17,0.01-0.26c0.22-0.97,1.15-1.69,1.71-2.12l0.08-0.06c0.34-0.26,0.51-0.42,0.64-0.54
					c0.05-0.04,0.09-0.08,0.13-0.12c0.03-0.37,0.08-0.71,0.14-1.03c0.09-0.91,0.32-1.77,0.69-2.52
					C169.58,72.96,169.78,72.62,170.02,72.3z"/>
				<path class="st4" d="M172.91,97.89c-0.13-0.04-0.23-0.08-0.31-0.1h0c-0.9-0.28-2.86-1.24-3.44-1.52
					c-1.74-0.85-2.47-1.27-2.68-1.58c-0.58,0.13-1.13,0.26-1.58,0.37c-0.79,0.19-1.33,0.34-1.8,0.5c-0.48,0.16-0.79,0.29-1.02,0.42
					c-0.25,0.15-0.42,0.32-0.61,0.54c-0.18,0.2-0.38,0.45-0.49,0.81c-0.12,0.4-0.14,0.95-0.05,1.39c0.11,0.48,0.36,0.93,0.74,1.33
					c0.38,0.39,0.92,0.77,1.56,1.1c0.7,0.36,1.4,0.6,2.21,0.75c1.13,0.21,2.51,0.26,3.05,0.28c0.9,0.02,1.63,0,2.51-0.21
					c0.92-0.21,1.93-0.6,2.72-1.04c0.93-0.52,1.7-1.2,1.98-1.47c0.43-0.4,0.52-0.57,0.53-0.74c0-0.04,0-0.09-0.01-0.14
					C175.66,98.73,174.48,98.41,172.91,97.89z"/>
				<path class="st4" d="M161.89,83.77c-0.02,0.42-0.02,0.91,0.05,1.08c0.2,0.47,0.48,0.77,0.8,0.88c0.23,0.08,0.53,0.03,0.68-0.11
					c0.2-0.18,0.27-0.47,0.22-0.87c-0.01-0.05-0.03-0.19,0.1-0.23c0.02-0.01,0.04-0.01,0.06-0.01c0.1,0,0.14,0.12,0.35,0.64
					c0.12,0.3,0.27,0.68,0.35,0.81c0.17,0.26,0.42,0.44,0.72,0.51c0.3,0.06,0.73,0.05,0.96-0.18c0.24-0.24,0.25-0.7,0.18-1.02
					c-0.04-0.17-0.19-0.31-0.36-0.47c-0.2-0.18-0.43-0.39-0.44-0.69c-0.02-0.49,0.36-0.92,0.68-1.2c0.43-0.37,0.73-0.06,0.89,0.1
					c0.09,0.09,0.29,0.18,0.44,0.19c0.06,0,0.1-0.02,0.13-0.05c0.17-0.18,0.25-0.4,0.24-0.64c-0.02-0.41-0.31-0.89-0.82-1.35
					c-0.12-0.11-0.25-0.21-0.37-0.3L161.89,83.77z"/>
				<path class="st4" d="M176.07,68.65L176.07,68.65c0,0.89,0,1.13,0,1.13l0,0.12l-0.11,0.03c-0.03,0.01-2.98,0.76-4.03,1.23
					c-0.26,0.13-0.51,0.28-0.74,0.44c-0.11,0.08-0.21,0.16-0.31,0.25c-0.09,0.07-0.17,0.15-0.24,0.23c-0.33,0.33-0.6,0.71-0.79,1.12
					c-0.04,0.08-0.08,0.16-0.11,0.25c-0.11,0.23-0.2,0.46-0.29,0.71c-0.15,0.44-0.26,0.9-0.33,1.38c-0.09,0.62-0.11,1.26-0.07,1.93
					c0,0.24,0.01,0.48,0.02,0.72l12.83-7.69c-0.82-0.2-1.9-0.43-1.92-0.43l-0.12-0.03l0-0.13c0,0,0.01-0.82,0.02-1.44l-0.01,0.08
					L176.07,68.65z"/>
				<path class="st4" d="M171.59,43.52l-0.98-3.39l-0.58-1.98l-12.19,1.88c0,0-3.13,1.22-2.55,5.11c1.41-0.3,3.41-0.59,5.54-0.84
					C165.17,43.78,170.05,43.44,171.59,43.52z"/>
				<path class="st4" d="M188.54,40.7c0-0.01-0.01-0.02-0.01-0.03c-0.16-0.57-0.29-0.99-0.39-1.27c-0.23-0.67-0.28-0.57-0.22-0.04
					c0.03,0.29,0.09,0.72,0.17,1.21c0.2,1.24,0.52,2.93,0.76,4.17c0.19,0.96,0.33,1.65,0.33,1.65l-4.95,0.18l-0.36-2.31l-0.28-1.81
					l-0.14,1.79l-0.15,1.91l-2.79,0.39l0.1-1.72l-1.62,2.01l-5.08-0.15l-0.03,0l-1.37-0.04l-0.76-2.62l-0.06-0.2l-0.03,0.21
					l-0.24,1.94c0,0-4.47,0.18-8.74,1.51c5.48-0.13,6.62,0.5,11.08,0.73c0.01,0,0.03,0,0.04,0c3.29,0.17,8.39,0.12,18.33-0.59
					c-0.61-0.84-1.2-1.75-1.73-2.67C189.58,43.47,188.91,41.99,188.54,40.7z"/>
				<path class="st4" d="M203.22,62.99C203.22,62.98,203.22,62.98,203.22,62.99c0-0.02-0.01-0.04-0.01-0.05
					c0-0.05-0.01-0.09-0.01-0.14c0-0.02,0-0.03,0-0.05c0-0.02,0-0.03,0-0.05c-0.01-0.14-0.01-0.26-0.02-0.37
					c-0.01-0.25-0.02-0.48-0.02-0.69c-0.01-0.22-0.01-0.44-0.02-0.66c-0.01-0.53-0.02-1.09-0.06-1.91L200,60.92l0.14,0.59l0.01,0.05
					l0.01,0.05l0.01,0.02l0.03,0.12l0,0.01c0.04,0.23,0.21,0.94,0.74,3.22c0.07,0.3,0.14,0.58,0.2,0.86
					c0.12,0.52,0.23,0.99,0.32,1.37c0.14,0.6,0.23,1,0.25,1.08c0,0-0.01,0-0.01,0c-0.01-0.01-0.02-0.04-0.03-0.07
					c0-0.01-0.01-0.02-0.01-0.03c-0.11-0.3-0.37-1.26-0.84-2.98c-0.01-0.05-0.03-0.11-0.05-0.17c-0.28-1.02-0.67-2.49-0.79-2.87
					l-0.06-0.21l-0.02-0.08l-0.02-0.08l-0.04-0.15l-0.15-0.54l-3.39,2.03c0.09,0.21,0.18,0.42,0.28,0.65
					c0.36,0.83,1.1,2.16,1.69,3.19c0.01,0.02,0.02,0.04,0.03,0.05c0.01,0.01,0.01,0.02,0.02,0.04c0,0,0,0,0,0.01c0,0,0,0,0,0l0,0.01
					l0,0.01l0.32,0.54c0.04,0.06,0.08,0.13,0.11,0.19l0,0l0.07,0.13l0.01,0.01l0.07-0.7c0.01-0.13,0.13-0.73,0.16-0.84c0,0,0,0,0,0
					c0,0,0,0,0,0c0,0,0,0,0,0c0,0,0,0,0,0c0,0.03,0,0.1-0.01,0.2c-0.01,0.15-0.02,0.37-0.03,0.74c-0.01,0.28-0.02,0.41-0.02,0.51
					c0,0.07-0.01,0.13-0.01,0.21c0,0,0,0,0,0c0,0,0,0,0,0c0,0.1,0.04,0.2,0.09,0.29c0.03,0.05,0.06,0.1,0.09,0.14
					c0,0,0,0.01,0.01,0.01l0,0.01l0,0l0,0l0.19,0.24l2.52,3.24c0.01,0.01,0.53,0.56,1.18,1.22c0.18,0.18,0.36,0.36,0.55,0.55
					c0.69,0.69,1.41,1.36,1.75,1.58l0.05,0.03c0.39,0.26,0.51,0.28,0.55,0.27c0-0.01,0-0.06-0.01-0.11c0-0.03-0.01-0.06-0.01-0.09
					c-0.01-0.02-0.02-0.03-0.03-0.05c-1.33-2.39-1.7-4.14-2.07-6.35c-0.08-0.5-0.16-1.04-0.23-1.6c0-0.03-0.01-0.06-0.01-0.1
					c0,0,0,0,0,0l0.01-0.01l0,0l0-0.02c-0.18-1.48-0.39-3.73-0.39-4.21C203.23,63.07,203.23,63.03,203.22,62.99z"/>
				<path class="st4" d="M203.01,57.83c-0.15-1.49-0.49-2.82-0.74-3.51c-0.01-0.02-0.01-0.03-0.02-0.05
					c-0.01-0.02-0.01-0.03-0.02-0.05c0,0,0-0.01,0-0.01c0.02,0,0.04,0.01,0.06,0.01c0.03,0,0.06,0.01,0.07,0.01
					c0.02,0,0.03,0,0.03-0.01c0,0,0.01-0.01,0.01-0.01c0-0.03-0.47-1.29-0.55-1.48c-0.05-0.13-0.12-0.28-0.2-0.44
					c-0.32-0.66-0.79-1.52-1.1-1.99c-0.02-0.03-0.05-0.07-0.08-0.11c-0.04-0.05-0.08-0.11-0.13-0.18c-0.02-0.02-0.03-0.04-0.05-0.06
					c-0.03-0.04-0.07-0.09-0.1-0.13c-0.02-0.03-0.04-0.05-0.07-0.08c-0.03-0.04-0.07-0.08-0.1-0.12c-0.02-0.03-0.05-0.06-0.07-0.08
					c-0.03-0.04-0.07-0.08-0.1-0.12c-0.02-0.03-0.05-0.05-0.07-0.08c-0.03-0.04-0.07-0.08-0.1-0.11c-0.02-0.02-0.04-0.05-0.06-0.07
					c-0.04-0.04-0.07-0.07-0.1-0.11c-0.02-0.02-0.03-0.04-0.05-0.05c-0.05-0.05-0.09-0.09-0.12-0.12c0,0,0,0-0.01-0.01c0,0,0,0,0,0
					c-0.04-0.03-0.07-0.06-0.09-0.08c-0.03-0.02-0.05-0.03-0.06-0.03c-0.01,0-0.02,0.01-0.03,0.03c-0.02,0.02-0.04,0.03-0.07,0.05
					c0,0-0.01,0-0.01,0.01c-0.02-0.01-0.03-0.02-0.05-0.04c-0.22,0.07-0.67-0.25-1.16-0.66c-0.04-0.02-0.08-0.03-0.12-0.05
					l0.59,5.33l0.01,0.05l0.01,0.05l0.01,0.05l1.38,6.21L203.01,57.83z"/>
				<path class="st4" d="M182.47,85.39c-0.05,0.01-0.1,0.02-0.15,0.03c-0.11,0.02-0.23,0.04-0.34,0.06
					c-1.05,0.17-2.18,0.27-3.4,0.29c-0.18,0-0.36,0-0.54,0c-1.74,0-3.47-0.14-5.18-0.42c-0.11-0.02-0.22-0.04-0.34-0.06
					c-0.04-0.01-0.09-0.01-0.13-0.02c-0.11-0.02-0.23-0.04-0.34-0.06c0,0.05-0.01,0.09-0.01,0.14c0,0.05-0.01,0.1-0.01,0.15
					c-0.12,2.4,0.02,5.48,0.11,7.57c0.01,0.28,0.02,0.55,0.03,0.79l0,0.02l0,0.01l0.03,0.01c0.03,0.01,0.07,0.02,0.1,0.03
					c0.78,0.26,1.76,0.49,2.71,0.66c0.49,0.09,0.96,0.16,1.4,0.22c0.58,0.07,1.08,0.12,1.42,0.12h0.02c0.34,0,0.82,0,1.4-0.05
					c0.53-0.04,1.13-0.13,1.8-0.28c0.55-0.13,1.13-0.3,1.74-0.54c0.11-0.04,0.22-0.08,0.33-0.13l0.03-0.01l0-0.03c0,0,0-0.01,0-0.01
					c0.01-0.3,0.01-0.61,0.01-0.92v-0.22c-0.01-2.91-0.25-6.37-0.33-7.43C182.7,85.34,182.58,85.36,182.47,85.39z"/>
				<path class="st4" d="M187.82,79.77c-0.16-0.72-0.5-1-0.89-1.28c-0.07,1.11-0.19,1.95-0.34,2.71c0.08-0.08,0.16-0.17,0.25-0.25
					c0.13-0.12,0.26-0.22,0.39-0.32C187.66,80.29,187.89,80.09,187.82,79.77z"/>
				<path class="st4" d="M186.96,78.17c0.02,0.01,0.03,0.02,0.05,0.04c0.43,0.31,0.88,0.64,1.08,1.51c0.11,0.5-0.27,0.8-0.68,1.13
					c-0.12,0.1-0.25,0.2-0.38,0.31c-0.23,0.21-0.42,0.43-0.56,0.64c-0.07,0.33-0.14,0.66-0.22,0.98c0,0.01,0,0.01,0,0.02
					c0.04,0.13,0.1,0.25,0.2,0.35c0.03,0.03,0.07,0.04,0.13,0.05c0,0,0.01,0,0.01,0c0.16,0,0.34-0.09,0.44-0.19
					c0.11-0.11,0.27-0.27,0.49-0.27c0.12,0,0.25,0.05,0.4,0.17c0.32,0.28,0.7,0.71,0.68,1.2c-0.01,0.3-0.24,0.51-0.44,0.69
					c-0.16,0.15-0.32,0.29-0.36,0.47c-0.07,0.32-0.06,0.78,0.18,1.02c0.23,0.23,0.66,0.24,0.96,0.18c0.3-0.06,0.55-0.24,0.72-0.51
					c0.08-0.13,0.23-0.5,0.35-0.8c0.24-0.62,0.26-0.67,0.41-0.63c0.13,0.03,0.11,0.18,0.1,0.23c-0.06,0.39,0.02,0.69,0.22,0.87
					c0.15,0.14,0.45,0.19,0.68,0.11c0.33-0.11,0.6-0.41,0.8-0.88c0.1-0.24,0.06-1.1,0.02-1.54c-0.01-0.03-0.01-0.07-0.02-0.11
					c-0.02-0.19-0.02-0.24,0.06-0.29l0.09-0.04l0.07,0.07c0.01,0.01,0.03,0.05,0.04,0.1h0c0,0,0,0.01,0,0.02
					c0.01,0.06,0.02,0.14,0.03,0.23c0.04,0.11,0.1,0.14,0.13,0.15c0.22,0.09,0.65-0.12,0.83-0.29c0.29-0.27,0.16-0.84-0.01-1.37
					c-0.29-0.89-1.55-1.86-1.7-1.93l-0.2-0.09c-0.14-0.07-0.32-0.15-0.46-0.21c-0.18-0.08-0.26-0.26-0.43-0.67
					c-0.09-0.22-0.22-0.53-0.42-0.93c-0.48-0.99-1.05-1.7-1.82-2.52c-0.52-0.55-1.13-1.1-1.73-1.58c0.04,0.12,0.07,0.25,0.09,0.37
					C186.96,75.45,187.02,77.2,186.96,78.17z"/>
				<path class="st4" d="M169.12,79.43c0.1,1.53,0.28,2.94,0.55,4.29c2.89,0.8,5.88,1.18,8.88,1.13c2.95-0.05,5.33-0.55,7.26-1.52
					c0.05-0.21,0.09-0.41,0.14-0.61c0-0.01,0-0.01,0-0.02c0.07-0.31,0.14-0.61,0.21-0.93c0.2-0.92,0.37-1.93,0.46-3.36
					c0-0.04,0.01-0.09,0.01-0.14c0.05-0.67,0.04-1.81-0.03-2.88c-0.03-0.38-0.06-0.75-0.1-1.08c0-0.02,0-0.04-0.01-0.06
					c-0.05-0.28-0.14-0.54-0.25-0.78c-0.04-0.09-0.09-0.19-0.14-0.28c-0.06-0.11-0.12-0.21-0.19-0.31c-0.61-0.9-1.58-1.56-2.58-1.97
					L169.12,79.43z"/>
				<path class="st0" d="M273.41,16.33c-0.03-0.06-0.09-0.09-0.17-0.09l-5.3,0.3c-0.08,0-0.15,0.06-0.17,0.14
					c-0.02,0.08,0.02,0.16,0.09,0.2l0.66,0.38h-2.18c-0.08,0-0.15,0.05-0.17,0.13c-0.02,0.08,0,0.16,0.07,0.2l1.8,1.25l-64.62,38.74
					c-0.19-1.71-0.6-3.08-0.82-3.62c-0.05-0.12-0.1-0.26-0.15-0.41c-0.15-0.44-0.36-1.03-0.81-1.89c-0.22-0.42-0.49-0.9-0.84-1.47
					c-0.02-0.03-0.04-0.06-0.06-0.1c-0.62-0.83-1.1-1.35-1.52-1.69c0.07-0.5,0.1-1.65-0.11-4.24c-0.08-1.01-0.41-1.71-0.59-2.53
					c-2.29-6.14-9.18-10.38-21.72-10.38c-16.6,0-22.85,7.51-22.6,12.31c0.26,4.8,1.13,5.88,1.49,6.7c0.36,0.8,0.55,1.13,0.55,1.13
					l1.17-0.29c0.02,0.99,0.07,1.86,0.15,2.63c0,0.02,0,0.04,0.01,0.06c0,0.02,0,0.04,0.01,0.06c0.02,0.22,0.05,0.42,0.07,0.62
					c0,0.02,0.01,0.04,0.01,0.06c0,0.02,0.01,0.04,0.01,0.06c0.41,3,1.2,4.07,1.63,4.58c0.03-0.27,0.07-0.52,0.12-0.77
					c0.04-0.18,0.07-0.36,0.12-0.53c-0.37-0.87-0.6-1.72-0.82-2.55c0,0,0,0,0.01,0c-0.09-0.36-0.16-0.73-0.22-1.05
					c-0.01,0-0.01,0-0.02-0.01c0,0,0,0,0,0c-0.2-1.1-0.25-2.11-0.23-2.6c0.01-0.18,0.03-0.39,0.05-0.59c0.05-0.48,0.1-0.93,0.1-0.93
					l1.55-0.69l0.12,2.03c0,0-0.01,0,2.1-0.09c0.22-0.01,0.47-0.02,0.73-0.03c0.42-0.02,0.88-0.04,1.43-0.07
					c0.14-0.01,0.26-0.02,0.39-0.02c-0.37,0.4-0.61,0.93-0.61,1.52c0,0.67,0.31,1.27,0.78,1.67c0.98-0.14,2.11-0.31,3.3-0.47
					c0.22-0.35,0.36-0.76,0.36-1.2c0-0.68-0.32-1.29-0.8-1.69c2.41-0.13,1.62-0.06,3.09-0.17c1.07-0.11,1.98-0.2,2.79-0.28
					c0.01,0,0.03,0,0.04,0c4.83-0.48,5.65-0.41,11.14,0.44c3.67,0.24,3.7,0.14,5.81,0.14c1.68,0,3.63,0.15,4.36,0.2
					c0.19,0.02,0.3,0.03,0.3,0.03l0.35-0.77l0.82-1.82l0.58-1.28l0.07-0.15c0.02,0.02,0.04,0.04,0.06,0.06
					c0.05,0.05,0.11,0.1,0.16,0.15c0.01,0.03,0.02,0.07,0.02,0.11c0.05,1.14,0.07,2.29,0.03,3.44c0.01,0.06,0.02,0.11,0.03,0.17
					c0.01-0.01,0.02-0.02,0.03-0.03l-0.01,0.12c0.05,0.31,0.1,0.59,0.13,0.82c0.05,0.34,0.14,0.8,0.19,1.01l0.08,0.37l0,0l0,0l0,0
					l0.01,0.07l0.02,0.07l0.44,2.01l1.13,4.18l-3.49,2.09c-0.16-0.46-0.3-0.94-0.43-1.5c-0.06-0.26-0.11-0.55-0.16-0.86
					c-0.11,0.2-0.22,0.4-0.34,0.61c0.02,0.12,0.05,0.24,0.07,0.35c0.14,0.62,0.3,1.14,0.47,1.64l-0.82,0.49
					c0.07-0.69,0.15-1.48,0.26-2.45c0-0.02,0.01-0.05,0.01-0.07c0.03-0.26,0.06-0.53,0.1-0.82c-0.06,0.1-0.12,0.2-0.18,0.3
					c-0.46,0.71-1.03,1.43-1.54,2.02c-0.23,0.63-0.57,1.3-1.05,1.94c-0.31,0.41-0.67,0.81-1.11,1.19c-0.06,0.05-0.12,0.11-0.19,0.16
					c-0.12,0.06-0.23,0.11-0.34,0.15c-0.27,0.11-0.54,0.2-1.11,0.38c-0.01,0-0.02,0.01-0.03,0.01c-1.83,0.53-4.21,1.29-6.93,1.85
					c-0.06,0.01-0.13,0.02-0.19,0.03c-1.47,0.35-2.34,0.42-2.34,0.42l0,0.17l0,0.13c-0.06,0.01-0.12,0.01-0.18,0.01l-0.02,0.23
					c0,0.63-0.02,1.44-0.02,1.44l0,0.13l0.12,0.03c0.01,0,1.1,0.24,1.92,0.43l-12.83,7.69c-0.01-0.24-0.01-0.47-0.02-0.72
					c-0.05-0.67-0.02-1.31,0.07-1.93c0.07-0.48,0.18-0.94,0.33-1.38c0.08-0.24,0.18-0.48,0.29-0.71c0.03-0.08,0.07-0.17,0.11-0.25
					c0.19-0.41,0.46-0.79,0.79-1.12c0.08-0.08,0.16-0.16,0.24-0.23c0.1-0.09,0.2-0.17,0.31-0.25c0.23-0.16,0.47-0.31,0.74-0.44
					c1.05-0.46,4-1.22,4.03-1.23l0.11-0.03l0-0.12c0,0,0-0.24,0-1.13l-0.02-0.38c-0.07,0-0.14,0-0.2-0.01l0-0.14l0-0.13
					c-0.52-0.01-1.03-0.04-1.55-0.08c0,0-0.01,0-0.01,0c-1.21-0.1-2.44-0.27-3.68-0.55c-0.52-0.14-0.96-0.26-1.37-0.36
					c-0.73-0.19-1.3-0.34-1.8-0.46c-1.1-0.29-1.89-0.51-3.43-1.05c-0.81-0.24-1.27-0.38-1.68-0.58c-0.71-0.37-1.85-1.49-2.53-2.82
					c0.2,3.42,0.3,8.87,0.3,8.87l5.61,0.39l-0.32-2.92l1.95,2.63l4.64-0.29l0.26-0.05c-0.17,0.06-0.32,0.12-0.44,0.17
					c-0.53,0.26-1,0.59-1.38,0.98c-0.62,0.22-1.28,0.5-1.81,0.85c-0.69,0.45-2.01,1.38-3.08,2.51c-0.76,0.8-1.36,1.55-1.87,2.59
					c-0.2,0.41-0.33,0.72-0.42,0.94c-0.13,0.31-0.21,0.49-0.29,0.52c-0.13,0.06-0.31,0.14-0.46,0.21c-0.08,0.04-0.15,0.07-0.2,0.09
					c-0.16,0.07-1.52,1.09-1.84,2.1c-0.13,0.39-0.39,1.21,0.05,1.64l-33.74,20.22c-0.09,0.05-0.11,0.16-0.06,0.25l0.38,0.64
					c0.02,0.04,0.06,0.07,0.11,0.08c0.01,0,0.03,0.01,0.04,0.01c0.03,0,0.06-0.01,0.09-0.03l34.29-20.56
					c-0.01,0.43,0.01,0.86,0.08,1.01c0.24,0.55,0.56,0.89,0.97,1.03c0.33,0.11,0.72,0.04,0.95-0.16c0.15-0.14,0.25-0.31,0.29-0.54
					c0.13,0.34,0.27,0.68,0.36,0.82c0.21,0.33,0.52,0.55,0.89,0.63c0.12,0.03,0.25,0.04,0.38,0.04c0.3,0,0.62-0.08,0.83-0.29
					c0.32-0.32,0.34-0.87,0.25-1.27c-0.06-0.26-0.25-0.44-0.44-0.61c-0.18-0.16-0.34-0.32-0.35-0.5c-0.02-0.4,0.36-0.79,0.59-0.98
					c0.21-0.18,0.32-0.11,0.52,0.08c0.14,0.14,0.4,0.28,0.64,0.27c0.13,0,0.25-0.05,0.33-0.14c0.22-0.24,0.32-0.53,0.31-0.84
					c-0.02-0.49-0.34-1.03-0.91-1.54c-0.1-0.09-0.2-0.17-0.3-0.25l1.81-1.09c0.09,1.42,0.27,2.75,0.51,4.01
					c-0.24-0.07-0.47-0.13-0.71-0.21l-0.14,0.46c-0.03,0.01-0.04,0.02-0.03,0.04c0,0.02,0,0.04,0,0.05l-0.1,0.32
					c0.03,0.01,0.07,0.02,0.1,0.03c0.04,2.92,0.52,7.99,0.52,7.99s-2.47,0.13-1.7,1.58c0,0,0,0,0,0.01
					c0.03,0.01,0.06,0.01,0.09,0.02c0.03-0.01,0.05-0.02,0.08-0.03c0.53-0.19,1.13-0.28,1.42-0.43c0.51,0.05,0.98,0.21,1.43,0.43
					c0.01,0,0.01,0,0.02,0.01c0.4,0.02,0.8,0.09,1.2,0.25c0.76,0.31,1.51,0.93,2.15,1.52c0.51,0.26,0.57,0.33,1.54,1.15
					c0,0,1.02,0.72,1.19,1.21c0,0.01,0,0.03,0.01,0.04c0.02,0.07,0.02,0.14-0.01,0.19c0,0.01-0.01,0.01-0.01,0.02
					c-0.01,0.02-0.03,0.04-0.05,0.06c0,0,0,0.01-0.01,0.01c-0.51,0.38-3-0.51-3.68-0.73c-0.68-0.22-2.13-0.88-3.42-1.51
					c-1.26-0.62-2.68-1.33-2.65-1.62c0-0.01,0-0.01,0-0.02c0.05-0.07,0.11-0.13,0.17-0.19l-0.21,0.05c-0.64,0.14-1.24,0.28-1.73,0.4
					c-0.8,0.2-1.35,0.35-1.83,0.51c-0.51,0.17-0.84,0.3-1.09,0.46c-0.28,0.17-0.48,0.36-0.69,0.61c-0.19,0.22-0.38,0.47-0.51,0.81
					c-0.02,0.04-0.03,0.08-0.05,0.12c-0.14,0.46-0.16,1.06-0.05,1.56c0.03,0.12,0.06,0.23,0.1,0.34c0.15,0.41,0.39,0.8,0.73,1.15
					c0.51,0.52,1.18,0.92,1.65,1.17c0.73,0.37,1.46,0.62,2.31,0.78c0.26,0.05,0.53,0.09,0.8,0.12c0.94,0.12,1.88,0.15,2.31,0.16
					c0.17,0,0.34,0.01,0.5,0.01c0.63,0,1.2-0.04,1.84-0.17c0.09-0.02,0.17-0.03,0.26-0.05c0.96-0.22,1.98-0.61,2.81-1.07
					c0.93-0.52,1.68-1.17,2.05-1.51c0.2-0.19,0.36-0.35,0.47-0.51c0.1-0.15,0.16-0.3,0.17-0.46c0-0.09-0.01-0.2-0.04-0.31
					c0.1,0.11,0.2,0.21,0.31,0.33c0.24-0.14,0.46-0.25,0.69-0.39c0.22-0.2,0.52-1.73-0.05-2.51h0.9c-0.5,0.3-0.3,2-0.13,2.57
					l-0.01,0.01l0.01,0.01c0.04,0.11,0.07,0.18,0.09,0.16c0.08,0.07,0.21,0.15,0.34,0.24c0.17,0.15,0.36,0.32,0.54,0.47
					c0.16,0.13,0.29,0.25,0.37,0.3l0.15,0.1c0.45,0.3,1.19,0.81,2.04,1.27c0.95,0.51,2.1,0.99,3.05,1.27
					c0.32,0.09,0.62,0.16,0.92,0.22c0.58,0.11,1.14,0.17,1.75,0.17c0.02,0,0.04,0,0.05,0c0.66,0,1.31-0.07,1.93-0.17
					c0.32-0.05,0.63-0.12,0.92-0.2c0.87-0.24,1.68-0.62,2.34-1.09c0.66-0.48,1.17-1.06,1.48-1.47c0.29-0.38,0.47-0.7,0.59-1.02
					c0.03-0.07,0.05-0.15,0.07-0.22c0.11-0.44,0.13-0.92,0.04-1.33c-0.03-0.13-0.07-0.25-0.12-0.37c-0.1-0.24-0.23-0.48-0.42-0.69
					c-0.21-0.26-0.47-0.48-0.82-0.71c-0.25-0.16-0.61-0.37-1.2-0.57c-0.52-0.17-1.23-0.33-1.89-0.43c-0.23-0.03-0.45-0.06-0.69-0.09
					c-0.22-0.03-0.45-0.05-0.71-0.09l-0.18-0.03c0.08,0.07,0.14,0.13,0.16,0.19c0.04,0.11-0.01,0.21-0.19,0.29
					c-0.75,0.45-0.77,0.49-2.31,1.16l-2.97,1.45c0,0-0.71,0.39-1.5,0.74c0.68-0.2,1.35-0.48,1.58-0.58l2.96-1.44
					c1.38-0.6,1.54-0.7,2.1-1.03l0.21-0.12c0.16-0.07,0.24-0.17,0.27-0.25c0.19,0.03,0.37,0.05,0.54,0.07
					c0.24,0.03,0.46,0.06,0.68,0.09c0.64,0.1,1.34,0.26,1.84,0.42c0.44,0.14,0.77,0.3,1.12,0.53c0.31,0.21,0.55,0.41,0.74,0.64
					c0.24,0.29,0.39,0.59,0.46,0.92c0.07,0.35,0.06,0.79-0.04,1.17c-0.09,0.36-0.27,0.69-0.6,1.12c-0.3,0.39-0.78,0.95-1.41,1.4
					c-0.62,0.45-1.39,0.81-2.23,1.04c-0.82,0.22-1.8,0.35-2.76,0.35c-0.93,0-1.72-0.11-2.63-0.38c-0.94-0.28-2.05-0.74-2.99-1.24
					c-0.84-0.45-1.57-0.95-2.01-1.25l-0.15-0.1c-0.08-0.05-0.23-0.18-0.4-0.33c-0.03,0.05-0.06,0.09-0.09,0.14
					c-0.01,0.01-0.01,0.02-0.02,0.03c-0.03-0.03-0.04-0.05-0.04-0.08c0-0.02-0.01-0.03,0-0.05c0-0.03,0.01-0.08,0.03-0.15
					c0.05-0.2,0.18-0.52,0.37-0.84c0.04-0.07,0.08-0.13,0.13-0.21c-0.04-0.13-0.07-0.27-0.09-0.4c-0.02-0.09-0.03-0.18-0.04-0.26
					c-0.01-0.09-0.02-0.17-0.03-0.25c-0.02-0.17-0.02-0.29-0.02-0.29c0.97-0.82,1.7-1.1,2.57-1.46c0.04-0.03,0.08-0.06,0.12-0.1
					c0.55-0.45,1.17-0.86,1.89-1.06c0.36-0.1,0.74-0.14,1.12-0.15c0.01,0,0.01,0,0.02-0.01c0.48-0.14,0.98-0.25,1.59-0.31
					c0.5,0.01,1.01,0.11,1.42,0.26c0.03,0,0.06-0.01,0.09-0.01c0.35-1.74-2.06-1.71-2.1-1.54v-8.18c0.14-0.07,0.29-0.14,0.43-0.22
					l-0.25-0.45c0.04,0.01,0.07,0.02,0.11,0.02c0.25,0.01,0.51-0.13,0.64-0.27c0.2-0.2,0.31-0.27,0.52-0.08
					c0.23,0.19,0.6,0.58,0.59,0.98c-0.01,0.19-0.17,0.34-0.35,0.5c-0.19,0.17-0.38,0.35-0.44,0.61c-0.09,0.4-0.07,0.95,0.25,1.27
					c0.21,0.22,0.53,0.29,0.83,0.29c0.13,0,0.27-0.02,0.38-0.04c0.37-0.08,0.69-0.3,0.89-0.63c0.09-0.15,0.23-0.49,0.36-0.82
					c0.05,0.22,0.14,0.39,0.3,0.53c0.23,0.21,0.62,0.28,0.95,0.16c0.4-0.14,0.73-0.48,0.97-1.03c0.08-0.19,0.1-0.78,0.07-1.28
					c0,0,0,0,0.01,0c0.38,0.14,0.91-0.16,1.11-0.35c0.46-0.43,0.19-1.25,0.06-1.65c-0.33-1.01-1.69-2.03-1.84-2.1l-0.2-0.09
					c-0.15-0.07-0.33-0.16-0.46-0.22c-0.08-0.03-0.16-0.22-0.29-0.52c-0.1-0.23-0.23-0.54-0.42-0.94c-0.5-1.03-1.08-1.75-1.87-2.59
					c-0.63-0.68-1.4-1.34-2.12-1.89c-0.55-1.2-1.66-2.09-2.85-2.61l1.41-0.84c0.87-0.05,1.81-0.11,3.41-0.19l0.89-2.35l1.19,2.64
					l3.09,0.07c0.59-2.86,0.76-4.2,0.92-5.87l1.36-0.82c0.08,0.19,0.17,0.39,0.26,0.6c0.48,1.09,1.54,2.95,2.14,3.98
					c0.18,0.31,0.32,0.54,0.39,0.66c0.01,0.02,0.02,0.04,0.03,0.06l0.01,0.01c0,0.01,0.01,0.01,0.01,0.01
					c0.01,0.02,0.03,0.04,0.04,0.05l0.01,0.01l2.74,3.53c0.11,0.12,2.75,2.91,3.57,3.44l0.04,0.03c0.26,0.17,0.54,0.35,0.79,0.35
					c0.07,0,0.13-0.01,0.2-0.05c0.26-0.14,0.27-0.48,0.2-0.73c-0.01-0.02-0.01-0.03-0.02-0.05c-1.33-2.37-1.69-4.1-2.06-6.29
					c-0.35-2.11-0.59-5.01-0.66-6.37c-0.01-0.1-0.01-0.2-0.01-0.28c-0.01-0.25-0.02-0.47-0.02-0.68c-0.01-0.23-0.01-0.44-0.02-0.66
					c-0.01-0.58-0.02-1.19-0.07-2.15l65.1-39.02v2.41c0,0.08,0.05,0.15,0.13,0.18c0.08,0.02,0.16-0.01,0.2-0.08l1.24-2.14v1
					c0,0.08,0.05,0.15,0.13,0.17c0.08,0.02,0.16-0.01,0.2-0.08l2.89-4.73C273.45,16.46,273.45,16.38,273.41,16.33z M160.83,44.29
					c-2.13,0.25-4.14,0.54-5.54,0.84c-0.58-3.89,2.55-5.11,2.55-5.11l12.19-1.88l0.58,1.98l0.98,3.39
					C170.05,43.44,165.17,43.78,160.83,44.29z M173.8,48.2c-0.01,0-0.03,0-0.04,0c-4.46-0.23-5.6-0.86-11.08-0.73
					c4.27-1.33,8.74-1.51,8.74-1.51l0.24-1.94l0.03-0.21l0.06,0.2l0.76,2.62l1.37,0.04l0.03,0l5.08,0.15l1.62-2.01l-0.1,1.72
					l2.79-0.39l0.15-1.91l0.14-1.79l0.28,1.81l0.36,2.31l4.95-0.18c0,0-0.14-0.69-0.33-1.65c-0.24-1.24-0.56-2.93-0.76-4.17
					c-0.08-0.5-0.14-0.92-0.17-1.21c-0.05-0.52,0-0.62,0.22,0.04c0.1,0.28,0.22,0.69,0.39,1.27c0,0.01,0.01,0.02,0.01,0.03
					c0.36,1.28,1.03,2.77,1.86,4.23c0.52,0.92,1.11,1.83,1.73,2.67C182.19,48.32,177.09,48.36,173.8,48.2z M167.13,81.15
					c0.51,0.46,0.8,0.94,0.82,1.35c0.01,0.24-0.07,0.46-0.24,0.64c-0.03,0.03-0.07,0.04-0.13,0.05c-0.15-0.01-0.35-0.09-0.44-0.19
					c-0.16-0.16-0.46-0.46-0.89-0.1c-0.32,0.28-0.7,0.71-0.68,1.2c0.01,0.3,0.24,0.51,0.44,0.69c0.16,0.15,0.32,0.29,0.36,0.47
					c0.07,0.32,0.06,0.78-0.18,1.02c-0.23,0.23-0.66,0.24-0.96,0.18c-0.3-0.06-0.55-0.24-0.72-0.51c-0.08-0.13-0.23-0.5-0.35-0.81
					c-0.21-0.53-0.25-0.64-0.35-0.64c-0.02,0-0.04,0-0.06,0.01c-0.13,0.03-0.11,0.18-0.1,0.23c0.05,0.39-0.02,0.69-0.22,0.87
					c-0.15,0.14-0.45,0.19-0.68,0.11c-0.33-0.11-0.6-0.41-0.8-0.88c-0.07-0.17-0.07-0.65-0.05-1.08l4.87-2.92
					C166.88,80.94,167,81.04,167.13,81.15z M166.34,79.81c0-0.01,0-0.02,0-0.04c0.2-0.87,1.08-1.56,1.61-1.96l0.08-0.06
					c0.35-0.27,0.53-0.44,0.65-0.56c0.02-0.02,0.03-0.03,0.05-0.04c0,0.11,0.01,0.21,0.01,0.32c0,0.3,0.01,0.59,0.02,0.89
					L166.34,79.81z M168.76,75.84c-0.06,0.32-0.11,0.67-0.14,1.03c-0.04,0.04-0.08,0.07-0.13,0.12c-0.13,0.12-0.3,0.28-0.64,0.54
					l-0.08,0.06c-0.56,0.43-1.49,1.15-1.71,2.12c-0.02,0.09-0.02,0.18-0.01,0.26l-5.33,3.2c-0.02-0.01-0.03-0.03-0.05-0.04
					c-0.29-0.27-0.16-0.84,0.01-1.37c0.29-0.88,1.55-1.86,1.7-1.94c0.05-0.02,0.12-0.06,0.2-0.1c0.14-0.07,0.32-0.15,0.45-0.21
					c0.18-0.08,0.26-0.26,0.43-0.67c0.09-0.22,0.22-0.53,0.42-0.93c0.49-1.01,1.08-1.74,1.82-2.52c0.76-0.81,1.87-1.71,3.03-2.46
					c0.38-0.25,0.82-0.45,1.28-0.63c-0.24,0.32-0.44,0.66-0.58,1.02C169.08,74.08,168.85,74.93,168.76,75.84z M175.7,99.47
					c-0.28,0.27-1.05,0.94-1.98,1.47c-0.78,0.44-1.8,0.83-2.72,1.04c-0.88,0.2-1.62,0.23-2.51,0.21c-0.54-0.01-1.92-0.07-3.05-0.28
					c-0.81-0.15-1.52-0.39-2.21-0.75c-0.65-0.33-1.19-0.71-1.56-1.1c-0.39-0.4-0.64-0.85-0.74-1.33c-0.1-0.44-0.08-0.98,0.05-1.39
					c0.11-0.36,0.31-0.61,0.49-0.81c0.2-0.22,0.37-0.39,0.61-0.54c0.23-0.14,0.54-0.27,1.02-0.42c0.47-0.15,1.01-0.3,1.8-0.5
					c0.45-0.11,0.99-0.24,1.58-0.37c0.21,0.3,0.94,0.72,2.68,1.58c0.58,0.28,2.55,1.24,3.44,1.52h0c0.08,0.03,0.19,0.06,0.31,0.1
					c1.57,0.52,2.75,0.84,3.31,0.7c0.01,0.05,0.01,0.1,0.01,0.14C176.22,98.9,176.13,99.06,175.7,99.47z M180.88,69.94
					c0.77,0.01,1.39,0.01,1.92,0l-0.54,0.32c-0.02,0-0.04-0.01-0.06-0.01C181.81,70.15,181.31,70.03,180.88,69.94z M183.15,92.97
					c0,0.32,0,0.63-0.01,0.92c0,0,0,0.01,0,0.01l0,0.03l-0.03,0.01c-0.11,0.05-0.22,0.08-0.33,0.13c-0.61,0.24-1.2,0.42-1.74,0.54
					c-0.67,0.15-1.28,0.24-1.8,0.28c-0.58,0.05-1.06,0.05-1.4,0.05h-0.02c-0.33,0-0.83-0.04-1.42-0.12
					c-0.43-0.06-0.91-0.13-1.4-0.22c-0.95-0.17-1.93-0.4-2.71-0.66c-0.03-0.01-0.07-0.02-0.1-0.03l-0.03-0.01l0-0.01l0-0.02
					c-0.01-0.24-0.02-0.51-0.03-0.79c-0.09-2.09-0.22-5.17-0.11-7.57c0-0.05,0-0.1,0.01-0.15c0-0.05,0.01-0.1,0.01-0.14
					c0.11,0.02,0.23,0.04,0.34,0.06c0.04,0.01,0.09,0.02,0.13,0.02c0.11,0.02,0.22,0.04,0.34,0.06c1.71,0.28,3.44,0.42,5.18,0.42
					c0.18,0,0.36,0,0.54,0c1.22-0.02,2.35-0.12,3.4-0.29c0.12-0.02,0.23-0.04,0.34-0.06c0.05-0.01,0.1-0.02,0.15-0.03
					c0.12-0.02,0.23-0.04,0.35-0.07c0.08,1.05,0.33,4.52,0.33,7.43V92.97z M188.44,75.4c0.77,0.82,1.34,1.53,1.82,2.52
					c0.19,0.4,0.32,0.71,0.42,0.93c0.17,0.41,0.25,0.59,0.43,0.67c0.13,0.06,0.31,0.14,0.46,0.21l0.2,0.09
					c0.15,0.07,1.41,1.05,1.7,1.93c0.17,0.52,0.3,1.1,0.01,1.37c-0.18,0.17-0.61,0.38-0.83,0.29c-0.03-0.01-0.09-0.03-0.13-0.15
					c-0.01-0.09-0.02-0.17-0.03-0.23c0-0.01,0-0.01,0-0.02h0c-0.01-0.05-0.03-0.09-0.04-0.1l-0.07-0.07l-0.09,0.04
					c-0.09,0.04-0.08,0.09-0.06,0.29c0,0.04,0.01,0.08,0.02,0.11c0.04,0.44,0.09,1.3-0.02,1.54c-0.21,0.47-0.48,0.77-0.8,0.88
					c-0.23,0.08-0.53,0.03-0.68-0.11c-0.2-0.18-0.27-0.47-0.22-0.87c0.01-0.05,0.03-0.19-0.1-0.23c-0.14-0.04-0.16,0.01-0.41,0.63
					c-0.12,0.3-0.27,0.68-0.35,0.8c-0.17,0.26-0.42,0.44-0.72,0.51c-0.3,0.06-0.73,0.06-0.96-0.18c-0.24-0.24-0.25-0.7-0.18-1.02
					c0.04-0.17,0.19-0.31,0.36-0.47c0.2-0.18,0.43-0.39,0.44-0.69c0.02-0.49-0.36-0.92-0.68-1.2c-0.15-0.13-0.28-0.17-0.4-0.17
					c-0.22,0-0.39,0.17-0.49,0.27c-0.09,0.09-0.28,0.19-0.44,0.19c0,0-0.01,0-0.01,0c-0.06,0-0.1-0.02-0.13-0.05
					c-0.1-0.11-0.16-0.23-0.2-0.35c0-0.01,0-0.01,0-0.02c0.08-0.33,0.15-0.65,0.22-0.98c0.14-0.21,0.32-0.43,0.56-0.64
					c0.13-0.11,0.25-0.22,0.38-0.31c0.41-0.32,0.79-0.63,0.68-1.13c-0.2-0.87-0.65-1.19-1.08-1.51c-0.02-0.01-0.03-0.02-0.05-0.04
					c0.06-0.97,0-2.71-0.15-3.97c-0.02-0.13-0.06-0.25-0.09-0.37C187.32,74.31,187.93,74.85,188.44,75.4z M186.6,81.2
					c0.14-0.76,0.26-1.61,0.34-2.71c0.39,0.29,0.73,0.57,0.89,1.28c0.07,0.31-0.16,0.52-0.58,0.85c-0.12,0.1-0.26,0.21-0.39,0.32
					C186.76,81.03,186.68,81.12,186.6,81.2z M185.93,72.88c0.07,0.1,0.13,0.21,0.19,0.31c0.05,0.09,0.09,0.18,0.14,0.28
					c0.11,0.25,0.2,0.51,0.25,0.78c0,0.02,0,0.04,0.01,0.06c0.04,0.34,0.07,0.7,0.1,1.08c0.07,1.07,0.09,2.21,0.03,2.88
					c0,0.05-0.01,0.1-0.01,0.14c-0.09,1.44-0.26,2.44-0.46,3.36c-0.07,0.31-0.14,0.62-0.21,0.93c0,0.01,0,0.01,0,0.02
					c-0.05,0.2-0.09,0.4-0.14,0.61c-1.93,0.97-4.31,1.47-7.26,1.52c-3.01,0.05-5.99-0.33-8.88-1.13c-0.27-1.35-0.46-2.76-0.55-4.29
					l14.22-8.53C184.35,71.31,185.32,71.98,185.93,72.88z M198.37,53.57l-0.01-0.05l-0.01-0.05l-0.01-0.05l-0.59-5.33
					c0.04,0.02,0.08,0.03,0.12,0.05c0.49,0.42,0.94,0.73,1.16,0.66c0.02,0.01,0.03,0.02,0.05,0.04c0,0,0.01,0,0.01-0.01
					c0.03-0.01,0.06-0.03,0.07-0.05c0.01-0.02,0.02-0.03,0.03-0.03c0.01,0,0.03,0.01,0.06,0.03c0.02,0.02,0.05,0.04,0.09,0.08
					c0,0,0,0,0,0c0,0,0,0,0.01,0.01c0.04,0.03,0.08,0.08,0.12,0.12c0.02,0.02,0.03,0.03,0.05,0.05c0.03,0.03,0.06,0.07,0.1,0.11
					c0.02,0.02,0.04,0.05,0.06,0.07c0.03,0.04,0.07,0.07,0.1,0.11c0.02,0.03,0.05,0.05,0.07,0.08c0.03,0.04,0.07,0.08,0.1,0.12
					c0.02,0.03,0.05,0.05,0.07,0.08c0.03,0.04,0.07,0.08,0.1,0.12c0.02,0.03,0.04,0.05,0.07,0.08c0.04,0.04,0.07,0.09,0.1,0.13
					c0.02,0.02,0.03,0.04,0.05,0.06c0.05,0.06,0.09,0.12,0.13,0.18c0.03,0.04,0.06,0.08,0.08,0.11c0.31,0.47,0.79,1.33,1.1,1.99
					c0.08,0.16,0.15,0.31,0.2,0.44c0.08,0.19,0.55,1.44,0.55,1.48c0,0.01,0,0.01-0.01,0.01c-0.01,0-0.01,0.01-0.03,0.01
					c-0.02,0-0.04,0-0.07-0.01c-0.01,0-0.04-0.01-0.06-0.01c0,0,0,0.01,0,0.01c0.01,0.02,0.01,0.03,0.02,0.05
					c0.01,0.02,0.01,0.03,0.02,0.05c0.25,0.69,0.59,2.02,0.74,3.51l-3.26,1.95L198.37,53.57z M203.62,67.32l0,0.02l0,0l-0.01,0.01
					c0,0,0,0,0,0c0,0.03,0.01,0.06,0.01,0.1c0.07,0.55,0.15,1.1,0.23,1.6c0.37,2.21,0.74,3.96,2.07,6.35
					c0.01,0.02,0.02,0.03,0.03,0.05c0.01,0.03,0.01,0.06,0.01,0.09c0.01,0.05,0.01,0.1,0.01,0.11c-0.03,0-0.16-0.01-0.55-0.27
					l-0.05-0.03c-0.34-0.22-1.06-0.9-1.75-1.58c-0.19-0.18-0.37-0.37-0.55-0.55c-0.65-0.66-1.18-1.21-1.18-1.22l-2.52-3.24
					l-0.19-0.24l0,0l0,0l0-0.01c0,0,0-0.01-0.01-0.01c-0.03-0.04-0.06-0.08-0.09-0.14c-0.05-0.09-0.09-0.19-0.09-0.29c0,0,0,0,0,0
					c0,0,0,0,0,0c0-0.08,0.01-0.13,0.01-0.21c0.01-0.1,0.01-0.23,0.02-0.51c0.01-0.36,0.03-0.59,0.03-0.74
					c0.01-0.1,0.01-0.17,0.01-0.2c0,0,0,0,0,0c0,0,0,0,0,0c0,0,0,0,0,0c0,0,0,0,0,0c-0.03,0.12-0.14,0.71-0.16,0.84l-0.07,0.7
					l-0.01-0.01l-0.07-0.13l0,0c-0.03-0.06-0.07-0.12-0.11-0.19l-0.32-0.54l0-0.01l0-0.01c0,0,0,0,0,0c0,0,0,0,0-0.01
					c-0.01-0.01-0.01-0.02-0.02-0.04c-0.01-0.02-0.02-0.04-0.03-0.05c-0.59-1.03-1.32-2.36-1.69-3.19c-0.1-0.22-0.19-0.44-0.28-0.65
					l3.39-2.03l0.15,0.54l0.04,0.15l0.02,0.08l0.02,0.08l0.06,0.21c0.11,0.38,0.51,1.85,0.79,2.87c0.02,0.06,0.03,0.12,0.05,0.17
					c0.46,1.72,0.73,2.69,0.84,2.98c0,0.01,0.01,0.02,0.01,0.03c0.01,0.03,0.02,0.06,0.03,0.07c0,0,0.01,0,0.01,0
					c-0.02-0.08-0.11-0.47-0.25-1.08c-0.09-0.38-0.2-0.85-0.32-1.37c-0.06-0.27-0.13-0.56-0.2-0.86c-0.54-2.28-0.7-2.99-0.74-3.22
					l0-0.01l-0.03-0.12l-0.01-0.02l-0.01-0.05l-0.01-0.05L200,60.92l3.08-1.85c0.03,0.82,0.05,1.38,0.06,1.91
					c0,0.22,0.01,0.43,0.02,0.66c0.01,0.21,0.01,0.44,0.02,0.69c0,0.11,0.01,0.23,0.02,0.37c0,0.02,0,0.03,0,0.05
					c0,0.02,0,0.03,0,0.05c0,0.04,0,0.09,0.01,0.14c0,0.01,0.01,0.02,0.01,0.04c0,0,0,0.01,0,0.01c0.01,0.04,0.01,0.08,0.01,0.12
					C203.23,63.59,203.44,65.84,203.62,67.32z"/>
			</g>
		</g>
		<g>
			<path class="st4" d="M192.16,57.27c-0.04-0.14-0.08-0.28-0.13-0.41c0-0.01-0.01-0.02-0.01-0.03c-0.01-0.04-0.03-0.09-0.04-0.13
				c-0.01-0.02-0.02-0.05-0.02-0.07c-0.07-0.17-0.14-0.33-0.22-0.49c-0.22-0.03-4.48-0.62-8.88-1.15c-2.25-0.27-4.53-0.53-6.32-0.7
				l-1.48,0.16l-1.42,0.15l-1.69,0.18l-9.77,1.04l-0.25,0.03c0.02,0.33-1.23,2.1-1.14,4.22c0.01,0.24,0.04,0.49,0.09,0.74
				c0.22,1.15,0.89,2.37,2.38,3.49c0.18,0.06,0.37,0.13,0.55,0.19c0.47,0.16,0.94,0.32,1.42,0.48c0.3,0.1,0.59,0.19,0.89,0.29
				c2.47,0.78,5.06,1.44,8.1,1.68c0.01,0,0.02,0,0.03,0c0.9,0.07,1.84,0.11,2.82,0.1c4.68,0.02,9.04-1.19,13.02-2.68
				c0.57-0.54,1.02-1.13,1.37-1.74c0.2-0.35,0.38-0.72,0.51-1.08c0.25-0.68,0.39-1.37,0.43-2.05c0,0,0-0.01,0-0.01
				c0.03-0.62-0.02-1.22-0.14-1.81C192.23,57.53,192.19,57.4,192.16,57.27z"/>
			<path class="st11" d="M197.39,51.36c-0.01,0.01-0.02,0.02-0.03,0.03c-0.49,0.5-2.04,2.01-2.39,2.29
				c-0.15,0.12-0.29,0.23-0.43,0.33c-1.05,0.76-1.81,1.01-2.07,1.08c0,0,0,0-0.01-0.01c-2.83-0.13-12.53-1.9-15.68-2
				c-0.66-0.02-1.82,0.07-3.2,0.22c0,0,0,0,0,0c-1.63,0.17-3.57,0.42-5.41,0.68c-1.19,0.16-2.32,0.33-3.3,0.47
				c-0.94,0.14-1.73,0.26-2.26,0.34c-0.19,0.03-0.35,0.05-0.47,0.07c-0.19,0.03-0.29,0.05-0.29,0.05l-0.89,0.06
				c-0.84-0.17-1.67-0.42-2.48-0.71c0.06,0.32,0.14,0.69,0.22,1.05c0.51,0.17,1.03,0.32,1.56,0.44c-0.27,0.67-0.55,1.35-0.74,2.1
				c-0.04,0.17-0.08,0.35-0.12,0.53c-0.05,0.25-0.09,0.5-0.12,0.77c-0.03,0.28-0.05,0.56-0.05,0.86c0,0.69,0.22,1.39,0.56,2.05
				c0.68,1.33,1.82,2.44,2.53,2.82c0.41,0.21,0.87,0.34,1.68,0.58c1.54,0.54,2.32,0.76,3.43,1.05c0.5,0.13,1.07,0.27,1.8,0.46
				c0.4,0.11,0.85,0.22,1.37,0.36c1.24,0.27,2.46,0.45,3.68,0.55c0,0,0.01,0,0.01,0c0.52,0.04,1.04,0.07,1.55,0.08
				c2.21,0.05,4.39-0.14,6.54-0.49c0.06-0.01,0.13-0.02,0.19-0.03c2.72-0.56,5.1-1.32,6.93-1.85c0.01,0,0.02-0.01,0.03-0.01
				c0.57-0.19,0.84-0.27,1.11-0.38c0.11-0.04,0.21-0.09,0.34-0.15c0.07-0.05,0.12-0.11,0.19-0.16c0.44-0.38,0.8-0.78,1.11-1.19
				c0.48-0.65,0.82-1.32,1.05-1.94c0.3-0.79,0.43-1.51,0.51-2.01c-0.02-1.94-0.28-2.63-0.81-3.92c-0.05-0.13-0.14-0.25-0.24-0.37
				c0.83-0.38,1.34-0.64,1.71-0.87c0.15-0.1,0.29-0.19,0.41-0.29c0.17-0.13,0.69-0.45,1.19-0.93c0.49-0.48,0.95-1.13,1.21-1.37
				c0,0,0.01-0.01,0.02-0.01l0.06-0.55l0.01-0.12C197.41,51.34,197.4,51.35,197.39,51.36z M192.4,59.47
				C192.4,59.47,192.4,59.48,192.4,59.47c-0.04,0.69-0.18,1.38-0.43,2.06c-0.14,0.37-0.31,0.73-0.51,1.08
				c-0.35,0.61-0.8,1.19-1.37,1.74c-3.97,1.49-8.34,2.69-13.02,2.68c-0.99,0.01-1.92-0.03-2.82-0.1c-0.01,0-0.02,0-0.03,0
				c-3.04-0.24-5.63-0.9-8.1-1.68c-0.3-0.09-0.6-0.19-0.89-0.29c-0.47-0.16-0.95-0.32-1.42-0.48c-0.18-0.06-0.37-0.13-0.55-0.19
				c-1.49-1.13-2.16-2.34-2.38-3.49c-0.05-0.25-0.08-0.5-0.09-0.74c-0.09-2.12,1.16-3.89,1.14-4.22l0.25-0.03l9.77-1.04l1.69-0.18
				l1.42-0.15l1.48-0.16c1.8,0.17,4.08,0.43,6.32,0.7c4.39,0.53,8.65,1.12,8.88,1.15c0.08,0.16,0.15,0.33,0.22,0.49
				c0.01,0.02,0.02,0.05,0.02,0.07c0.02,0.04,0.03,0.08,0.04,0.13c0,0.01,0.01,0.02,0.01,0.03c0.05,0.13,0.09,0.27,0.13,0.41
				c0.04,0.13,0.07,0.26,0.1,0.4C192.38,58.24,192.43,58.85,192.4,59.47z"/>
		</g>
	</g>
	<path class="st3" d="M332.87,141.93c-0.29-0.52-0.44-1.2-0.44-2.06c0-0.88,0.16-1.6,0.49-2.15c0.33-0.55,0.75-0.83,1.27-0.83
		c0.48,0,0.87,0.28,1.17,0.85c0.3,0.57,0.45,1.2,0.45,1.91c0,0.93-0.16,1.68-0.47,2.23c-0.32,0.55-0.73,0.83-1.23,0.83
		C333.57,142.71,333.16,142.45,332.87,141.93"/>
	<path class="st3" d="M340.2,142.12c-0.7-0.39-1.43-0.98-2.19-1.76c0.14-1.44,0.21-3.33,0.21-5.67c0.41-0.2,0.92-0.3,1.53-0.3
		c0.07,2.14,0.33,3.71,0.78,4.69c0.45,0.98,1.18,1.47,2.19,1.47c0.84,0,1.47-0.33,1.88-1c0.41-0.67,0.62-1.52,0.62-2.55
		c0-0.83-0.13-1.55-0.39-2.15c-0.26-0.61-0.59-1.12-0.98-1.53c-0.39-0.42-0.92-0.9-1.58-1.46c-0.85-0.71-1.55-1.37-2.08-1.99
		c-0.53-0.62-0.99-1.44-1.36-2.48c-0.37-1.03-0.56-2.32-0.56-3.86c0-2.24,0.41-3.98,1.22-5.22c0.81-1.23,1.9-1.85,3.26-1.85
		c0.72,0,1.42,0.16,2.1,0.47c0.69,0.32,1.23,0.71,1.64,1.19c0,2.42,0.04,4.15,0.13,5.18c-0.35,0.33-0.86,0.49-1.54,0.49
		c-0.2-2.02-0.48-3.4-0.86-4.16c-0.38-0.76-0.9-1.13-1.58-1.13c-0.67,0-1.2,0.29-1.59,0.87c-0.39,0.58-0.58,1.4-0.58,2.46
		c0,0.88,0.14,1.64,0.41,2.27c0.27,0.63,0.61,1.16,1.02,1.59c0.41,0.43,0.96,0.94,1.66,1.55c0.85,0.73,1.55,1.4,2.08,2
		c0.53,0.6,0.98,1.41,1.36,2.4c0.37,1,0.56,2.21,0.56,3.65c0,1.41-0.19,2.67-0.56,3.78c-0.37,1.11-0.94,1.99-1.69,2.65
		c-0.76,0.66-1.69,0.98-2.8,0.98C341.68,142.71,340.9,142.51,340.2,142.12"/>
	<path class="st12" d="M19.1,143.07c-1.21,0-2.32-0.22-3.31-0.66c-1-0.47-2.03-1.16-3.11-2.08c0.2-1.68,0.3-3.89,0.3-6.63
		c0.58-0.24,1.3-0.35,2.18-0.35c0.1,2.51,0.47,4.33,1.11,5.48c0.64,1.15,1.67,1.72,3.11,1.72c1.19,0,2.08-0.38,2.66-1.15
		c0.6-0.8,0.9-1.8,0.9-3.01c0-0.97-0.19-1.81-0.57-2.52c-0.36-0.71-0.82-1.3-1.37-1.77c-0.56-0.5-1.3-1.08-2.24-1.72
		c-1.21-0.83-2.2-1.59-2.96-2.3c-0.76-0.74-1.4-1.71-1.94-2.92c-0.52-1.21-0.78-2.71-0.78-4.51c0-2.62,0.58-4.66,1.73-6.1
		c1.15-1.44,2.7-2.17,4.63-2.17c1.02,0,2.01,0.19,2.99,0.57c0.98,0.35,1.75,0.81,2.33,1.37c0,2.83,0.06,4.85,0.18,6.06
		c-0.5,0.38-1.22,0.57-2.18,0.57c-0.28-2.36-0.69-3.98-1.22-4.86c-0.54-0.88-1.28-1.33-2.24-1.33c-0.96,0-1.71,0.34-2.27,1.02
		c-0.54,0.68-0.81,1.64-0.81,2.87c0,1.03,0.19,1.92,0.57,2.65c0.4,0.74,0.89,1.36,1.46,1.86c0.58,0.5,1.36,1.11,2.36,1.81
		c1.21,0.85,2.2,1.64,2.96,2.34c0.76,0.71,1.39,1.65,1.91,2.83c0.54,1.15,0.81,2.56,0.81,4.24c0,1.65-0.27,3.12-0.81,4.42
		c-0.52,1.3-1.31,2.33-2.39,3.09C22,142.69,20.68,143.07,19.1,143.07"/>
	<path class="st12" d="M34.62,143.2c-1.92,0-3.44-0.79-4.55-2.38c-1.09-1.61-1.64-3.8-1.64-6.55c0-1.79,0.27-3.37,0.81-4.73
		c0.54-1.39,1.27-2.46,2.21-3.22c0.95-0.76,2.03-1.14,3.22-1.14c1.96,0,3.48,0.82,4.57,2.46c1.09,1.61,1.64,3.77,1.64,6.47
		c0,1.79-0.26,3.37-0.78,4.73c-0.52,1.36-1.26,2.43-2.21,3.22C36.95,142.82,35.86,143.2,34.62,143.2 M34.9,141.08
		c0.88,0,1.56-0.57,2.03-1.7c0.47-1.16,0.7-2.69,0.7-4.58c0-1.54-0.15-2.88-0.44-4.01c-0.29-1.13-0.69-2-1.2-2.61
		c-0.49-0.61-1.02-0.91-1.61-0.91c-0.87,0-1.53,0.55-2,1.66c-0.45,1.11-0.68,2.57-0.68,4.39c0,2.4,0.29,4.29,0.86,5.68
		C33.13,140.39,33.91,141.08,34.9,141.08"/>
	<path class="st12" d="M42.46,142.98c0-0.88,0.05-1.55,0.16-2.01c0.69-0.02,1.16-0.26,1.4-0.72c0.24-0.45,0.36-1.31,0.36-2.57
		v-16.31c0-0.91-0.13-1.55-0.39-1.93c-0.26-0.4-0.78-0.62-1.56-0.64c0-0.78,0.09-1.37,0.26-1.78c0.64,0,1.39-0.13,2.26-0.38
		c0.88-0.28,1.49-0.58,1.82-0.91c0.43,0.25,0.65,0.85,0.65,1.78v20.17c0,1.24,0.11,2.09,0.34,2.57c0.24,0.45,0.66,0.69,1.25,0.72
		c0.1,0.48,0.16,1.15,0.16,2.01c-0.83-0.08-1.94-0.11-3.33-0.11C44.37,142.86,43.24,142.9,42.46,142.98"/>
	<path class="st12" d="M64.41,139.91c0.03,0.88-0.03,1.58-0.21,2.08c-0.55,0.05-1.14,0.19-1.77,0.42c-0.62,0.2-1.18,0.47-1.66,0.79
		c-0.26-0.15-0.45-0.37-0.57-0.64c-0.12-0.3-0.18-0.82-0.18-1.55c0-0.48,0.04-1.02,0.1-1.63c-0.19,0.66-0.48,1.26-0.86,1.82
		c-0.43,0.63-0.93,1.1-1.48,1.4c-0.54,0.3-1.17,0.45-1.9,0.45c-1.28,0-2.24-0.52-2.88-1.55c-0.62-1.06-0.94-2.83-0.94-5.3v-5.07
		c0-0.73-0.03-1.29-0.1-1.66c-0.07-0.38-0.23-0.67-0.47-0.87c-0.24-0.2-0.62-0.32-1.12-0.34c0-0.78,0.07-1.37,0.21-1.78
		c0.71-0.02,1.42-0.16,2.13-0.42c0.73-0.25,1.31-0.54,1.74-0.87c0.43,0.25,0.65,0.88,0.65,1.89v8.25c0,1.72,0.14,2.98,0.42,3.78
		c0.29,0.78,0.78,1.17,1.46,1.17c0.83,0,1.51-0.53,2.03-1.59c0.52-1.08,0.78-2.64,0.78-4.65v-3.1c0-0.71-0.05-1.25-0.16-1.63
		c-0.09-0.4-0.27-0.71-0.55-0.91c-0.26-0.2-0.67-0.32-1.22-0.34c0-0.43,0.01-0.77,0.03-1.02c0.04-0.28,0.1-0.53,0.18-0.76
		c0.83-0.03,1.62-0.14,2.37-0.34c0.74-0.23,1.33-0.48,1.74-0.76c0.43,0.25,0.65,0.88,0.65,1.89v9.99c0,1.11,0.09,1.85,0.29,2.23
		C63.31,139.68,63.75,139.88,64.41,139.91"/>
	<path class="st12" d="M72.07,143.2c-1.06,0-2.03-0.33-2.91-0.98c-0.88-0.68-1.59-1.69-2.13-3.03c-0.52-1.36-0.78-3-0.78-4.92
		c0-1.56,0.22-3.04,0.65-4.43c0.45-1.39,1.11-2.51,1.98-3.37c0.88-0.86,1.92-1.29,3.12-1.29c1.7,0,3.08,0.54,4.13,1.63
		c-0.16,1.26-0.23,2.76-0.23,4.5c-0.35,0.28-0.88,0.42-1.61,0.42c-0.07-1.44-0.32-2.55-0.75-3.33c-0.43-0.78-0.99-1.17-1.66-1.17
		c-0.78,0-1.39,0.58-1.85,1.74s-0.68,2.74-0.68,4.73c0,1.92,0.31,3.56,0.94,4.92c0.64,1.36,1.53,2.04,2.68,2.04
		c0.55,0,1.07-0.15,1.56-0.45c0.49-0.33,0.9-0.78,1.25-1.36c0.35,0.35,0.56,0.83,0.65,1.44C75.46,142.23,74.01,143.2,72.07,143.2"/>
	<path class="st12" d="M81.27,121.6c-0.54,0-0.98-0.23-1.33-0.68c-0.35-0.48-0.52-1.06-0.52-1.74c0-0.78,0.18-1.41,0.55-1.89
		c0.36-0.48,0.81-0.72,1.35-0.72c0.59,0,1.05,0.23,1.38,0.68c0.35,0.45,0.52,1.09,0.52,1.89c0,0.68-0.18,1.26-0.55,1.74
		C82.31,121.36,81.84,121.6,81.27,121.6 M78.1,142.98c0-0.88,0.05-1.55,0.16-2.01c0.69-0.02,1.16-0.26,1.4-0.72
		c0.24-0.45,0.36-1.31,0.36-2.57v-6.74c0-0.66-0.05-1.16-0.16-1.51c-0.09-0.38-0.27-0.66-0.55-0.83c-0.28-0.2-0.69-0.31-1.25-0.34
		c0-0.78,0.09-1.37,0.26-1.78c0.64,0,1.39-0.13,2.26-0.38c0.88-0.28,1.49-0.58,1.82-0.91c0.43,0.25,0.65,0.85,0.65,1.78v10.71
		c0,1.24,0.11,2.09,0.34,2.57c0.24,0.45,0.66,0.69,1.25,0.72c0.1,0.48,0.16,1.15,0.16,2.01c-0.83-0.08-1.94-0.11-3.33-0.11
		C80.01,142.86,78.88,142.9,78.1,142.98z"/>
	<path class="st12" d="M92.64,143.2c-1.92,0-3.44-0.79-4.55-2.38c-1.09-1.61-1.64-3.8-1.64-6.55c0-1.79,0.27-3.37,0.81-4.73
		c0.54-1.39,1.27-2.46,2.21-3.22c0.95-0.76,2.03-1.14,3.22-1.14c1.96,0,3.48,0.82,4.57,2.46c1.09,1.61,1.64,3.77,1.64,6.47
		c0,1.79-0.26,3.37-0.78,4.73c-0.52,1.36-1.26,2.43-2.21,3.22C94.98,142.82,93.88,143.2,92.64,143.2 M92.92,141.08
		c0.88,0,1.56-0.57,2.03-1.7c0.47-1.16,0.7-2.69,0.7-4.58c0-1.54-0.15-2.88-0.44-4.01c-0.29-1.13-0.69-2-1.2-2.61
		c-0.49-0.61-1.02-0.91-1.61-0.91c-0.87,0-1.53,0.55-2,1.66c-0.45,1.11-0.68,2.57-0.68,4.39c0,2.4,0.29,4.29,0.86,5.68
		C91.15,140.39,91.93,141.08,92.92,141.08"/>
	<path class="st12" d="M115.06,140.97c0.12,0.53,0.18,1.2,0.18,2.01c-0.78-0.08-1.8-0.11-3.07-0.11c-0.66,0-1.79,0.04-3.4,0.11
		c0-0.91,0.06-1.58,0.18-2.01c0.57,0,0.99-0.25,1.25-0.76c0.26-0.5,0.39-1.39,0.39-2.65v-4.88c0-1.59-0.19-2.71-0.57-3.37
		c-0.38-0.68-0.93-1.02-1.64-1.02c-0.47,0-0.91,0.23-1.33,0.68c-0.42,0.45-0.75,1.15-1.01,2.08c-0.26,0.91-0.39,2.04-0.39,3.41v3.22
		c0,1.26,0.12,2.13,0.36,2.61c0.24,0.45,0.67,0.68,1.27,0.68c0.12,0.48,0.18,1.15,0.18,2.01c-1.51-0.08-2.62-0.11-3.33-0.11
		c-1.54,0-2.69,0.04-3.46,0.11c0-0.93,0.05-1.6,0.16-2.01c0.68,0,1.14-0.23,1.38-0.68c0.26-0.48,0.39-1.35,0.39-2.61v-6.55
		c0-0.71-0.04-1.25-0.13-1.63c-0.09-0.4-0.27-0.71-0.55-0.91c-0.28-0.2-0.69-0.32-1.25-0.34c0-0.78,0.09-1.37,0.26-1.78
		c0.73-0.03,1.48-0.16,2.26-0.42c0.78-0.28,1.38-0.57,1.79-0.87c0.43,0.25,0.65,0.88,0.65,1.89c0,0.71-0.07,1.45-0.21,2.23
		c0.02-0.08,0.08-0.25,0.18-0.53c0.1-0.3,0.23-0.59,0.39-0.87c0.35-0.68,0.85-1.27,1.51-1.78c0.66-0.5,1.39-0.76,2.18-0.76
		c1.14,0,2.09,0.5,2.83,1.51c0.74,0.98,1.12,2.54,1.12,4.65v6.13c0,1.26,0.1,2.13,0.31,2.61
		C114.19,140.74,114.56,140.97,115.06,140.97"/>
	<path class="st12" d="M127.04,138.74c0.16,0.13,0.29,0.34,0.42,0.64c0.14,0.3,0.22,0.61,0.23,0.91c-0.62,1.01-1.33,1.75-2.13,2.23
		c-0.8,0.45-1.71,0.68-2.73,0.68c-1.94,0-3.41-0.83-4.42-2.5c-1.01-1.67-1.51-3.82-1.51-6.47c0-1.72,0.23-3.25,0.7-4.62
		c0.47-1.36,1.14-2.43,2-3.22c0.87-0.81,1.87-1.21,3.01-1.21c1.7,0,2.96,0.72,3.79,2.16c0.83,1.44,1.29,3.37,1.38,5.79
		c-0.1,0.63-0.28,1.15-0.52,1.55c-2.67,0-5.04,0.08-7.12,0.23c0.12,1.74,0.47,3.14,1.04,4.2c0.59,1.06,1.46,1.59,2.63,1.59
		c0.59,0,1.17-0.16,1.74-0.49C126.13,139.86,126.63,139.37,127.04,138.74 M122.5,127.27c-0.68,0-1.23,0.44-1.66,1.32
		c-0.43,0.86-0.68,2.23-0.73,4.12h4.55c0-1.69-0.19-3.01-0.57-3.97C123.7,127.76,123.17,127.27,122.5,127.27"/>
	<path class="st12" d="M138.56,130.41c-0.42,0.38-0.96,0.57-1.64,0.57c-0.07-1.06-0.35-1.97-0.83-2.72
		c-0.49-0.76-1.11-1.13-1.87-1.13c-0.47,0-0.84,0.18-1.12,0.53c-0.28,0.33-0.42,0.77-0.42,1.32c0,0.43,0.06,0.79,0.18,1.1
		c0.14,0.28,0.42,0.59,0.83,0.95c0.42,0.35,1.07,0.78,1.95,1.29c0.97,0.55,1.72,1.1,2.26,1.63c0.54,0.5,0.92,1.06,1.14,1.66
		c0.24,0.61,0.36,1.35,0.36,2.23c0,1.64-0.48,2.95-1.43,3.94c-0.94,0.96-2.17,1.44-3.69,1.44c-1.02,0-1.86-0.11-2.52-0.34
		c-0.66-0.2-1.32-0.54-1.98-1.02c0.05-0.68,0.08-1.54,0.08-2.57c0-0.66-0.02-1.36-0.05-2.12c0.36-0.35,0.94-0.53,1.71-0.53
		c0.12,1.46,0.42,2.57,0.91,3.33c0.5,0.76,1.15,1.14,1.95,1.14c0.61,0,1.08-0.19,1.43-0.57c0.36-0.4,0.55-0.92,0.55-1.55
		c0-0.63-0.17-1.16-0.52-1.59c-0.35-0.43-1.06-0.96-2.13-1.59c-0.95-0.53-1.7-1.03-2.23-1.51c-0.52-0.48-0.91-1.05-1.17-1.7
		c-0.26-0.68-0.39-1.54-0.39-2.57s0.22-1.9,0.65-2.61c0.45-0.73,1.02-1.27,1.72-1.63c0.71-0.38,1.45-0.57,2.21-0.57
		c0.83,0,1.56,0.1,2.18,0.3c0.64,0.2,1.24,0.52,1.79,0.95c-0.02,0.33-0.03,0.83-0.03,1.51
		C138.46,128.89,138.49,129.71,138.56,130.41"/>
	<path class="st13" d="M181.02,141.8c-2.15-2.09-3.22-4.92-3.22-8.5c0-2.33,0.52-4.4,1.57-6.19c1.05-1.79,2.49-3.18,4.34-4.17
		c1.84-0.99,3.93-1.48,6.26-1.48c3.82,0,6.8,1.06,8.93,3.18c2.13,2.12,3.2,4.94,3.2,8.45c0,2.33-0.51,4.39-1.52,6.16
		c-1.01,1.78-2.44,3.16-4.29,4.17c-1.84,1-3.98,1.5-6.42,1.5C186.12,144.93,183.17,143.89,181.02,141.8 M194.39,139.92
		c0.91-1.5,1.37-3.48,1.37-5.94c0-2-0.29-3.75-0.86-5.23c-0.58-1.48-1.34-2.61-2.31-3.4c-0.96-0.79-2.02-1.18-3.17-1.18
		c-1.69,0-2.98,0.72-3.88,2.17c-0.9,1.45-1.34,3.35-1.34,5.72c0,3.12,0.56,5.59,1.67,7.4c1.12,1.81,2.64,2.71,4.57,2.71
		C192.16,142.17,193.48,141.42,194.39,139.92"/>
	<g>
		<path class="st0" d="M194.22,144.44c-1.61,1.32-3.32,2.36-5.13,3.13c-1.81,0.77-3.6,1.22-5.38,1.34c-3.03,0.21-5.69-0.54-8-2.24
			c-2.31-1.7-4.14-4.12-5.5-7.28c-1.36-3.15-2.18-6.76-2.47-10.83c-0.37-5.22,0.37-9.65,2.22-13.3c1.85-3.65,4.93-5.62,9.25-5.92
			c2.66-0.18,4.75,0.52,6.26,2.11c1.51,1.59,2.46,4.53,2.84,8.82c1.82-0.12,3.13-0.45,3.94-0.96c-0.32-4.52-0.35-8.12-0.09-10.78
			c-2.3-1.05-4.56-1.8-6.76-2.25c-2.2-0.45-4.49-0.6-6.87-0.44c-3.59,0.25-6.88,1.37-9.85,3.39c-2.98,2.01-5.29,4.87-6.93,8.58
			c-1.64,3.71-2.28,8.1-1.92,13.18c0.33,4.71,1.46,8.85,3.37,12.44c1.92,3.58,4.44,6.3,7.57,8.15c3.13,1.85,6.61,2.65,10.44,2.38
			c3.03-0.21,5.67-0.89,7.94-2.04c2.27-1.15,4.44-2.82,6.52-5c-0.11-0.41-0.3-0.86-0.58-1.35
			C194.81,145.07,194.52,144.7,194.22,144.44z"/>
	</g>
	<path class="st12" d="M6.45,146.24v1.83h157.9c-0.47-0.58-0.9-1.19-1.32-1.83H6.45z"/>
	<path class="st12" d="M353.82,146.24H197.13c0.03,0.09,0.06,0.17,0.08,0.26l0.23,0.87l-0.62,0.65c-0.02,0.02-0.04,0.04-0.05,0.05
		h157.05V146.24z"/>
	<g>
		<path class="st0" d="M245.94,32.75L245.94,32.75c0.1,0.15,0.21,0.3,0.31,0.45l7.23-4.33l-0.33-0.44l0,0l-0.34-0.45l-7.18,4.3
			C245.73,32.44,245.83,32.59,245.94,32.75z"/>
		<path class="st14" d="M302.22,87.14c-1.39,0.05-2.67-0.22-3.81-0.81c-1.09-0.7-2.43-1.9-4.01-3.6c-1.61-1.8-3.81-4.53-6.61-8.19
			l-34.31-45.66l-7.23,4.33c2.43,3.64,5.02,7.28,7.78,10.92l14.72,19.98l-26.3,4.62l0.69-22.69c0.1-3.75,0.13-7.41,0.1-11.02
			c0-0.21,0-0.43,0-0.64c0-0.22,0-0.43-0.01-0.65c0-0.24,0-0.48-0.01-0.72c-0.02-1.56-0.05-3.1-0.1-4.63
			c0.71,1.13,1.43,2.26,2.17,3.39l0,0c0.11,0.17,0.23,0.34,0.34,0.52l7.18-4.3l-0.37-0.5l0,0l-12.41-16.52l-1.55-1.95
			c-1.77-2.1-3.97,0.8-2.4,2.52c0.51,0.91,1.26,2.46,1.44,2.78c0.18,0.32,0.23,1.39,0.23,1.39l-0.98,21.18l-0.03,0.74l-0.03,0.68
			l-0.03,0.66l-2.13,46.16c-0.36,6-0.86,10.1-1.51,12.29c-0.59,2.08-1.9,3.55-3.93,4.4c-0.06,2.09,0.35,4.59,1.25,7.5
			c4.67-1.12,8.22-1.89,10.64-2.31c5.68-1,9.98-1.6,12.91-1.82c-0.84-2.72-1.93-5.15-3.29-7.29c-2.14,0.18-3.86-0.11-5.15-0.88
			c-1.32-0.86-2.27-2.22-2.84-4.1c-0.63-2.07-0.88-4.74-0.75-8.03l0.26-7.77c8.12-1.92,18.66-4.02,31.6-6.29l7.51,10.26
			c2.06,2.71,3.31,4.76,3.74,6.17c0.4,1.31,0.21,2.39-0.59,3.22c-0.72,0.82-2.08,1.55-4.08,2.2c-0.12,1.9,0.31,4.45,1.29,7.64
			c3.09-0.84,3.7-0.99,12.61-3.39c8.92-2.4,8.91-2.32,11.21-2.99C304.57,91.2,303.5,89.29,302.22,87.14z"/>
	</g>
</g>
</svg>
