<?xml version="1.0" encoding="utf-8"?>
<!-- Generator: Adobe Illustrator 25.0.0, SVG Export Plug-In . SVG Version: 6.00 Build 0)  -->
<svg version="1.1" id="Layer_1" xmlns="http://www.w3.org/2000/svg" xmlns:xlink="http://www.w3.org/1999/xlink" x="0px" y="0px"
	 viewBox="0 0 478.8 200.8" style="enable-background:new 0 0 478.8 200.8;" xml:space="preserve">
<style type="text/css">
	.st0{fill:none;}
	.st1{fill:none;stroke:#000000;stroke-width:0.7182;}
	.st2{fill:none;stroke:#000000;stroke-width:0.6962;}
	.st3{fill:#EB1E28;}
	.st4{fill:#EBEBEB;fill-opacity:0.99;stroke:#000000;stroke-width:0.3811;stroke-miterlimit:11.34;}
	.st5{fill:#A11E22;stroke:#A11E22;stroke-width:9.526519e-02;stroke-miterlimit:11.34;}
	.st6{fill:#DE845C;stroke:#000000;stroke-width:0.7621;stroke-miterlimit:11.34;}
	.st7{fill:#A11E22;stroke:#000000;stroke-width:9.526519e-02;stroke-miterlimit:11.34;}
	.st8{fill:#A11E22;stroke:#9B1E21;stroke-width:0.1026;stroke-miterlimit:11.34;stroke-opacity:0;}
	.st9{stroke:#000000;stroke-width:9.526519e-02;stroke-miterlimit:11.34;}
	.st10{stroke:#000000;stroke-width:8.793709e-02;stroke-miterlimit:11.34;}
	.st11{stroke:#000000;stroke-width:0.2785;stroke-miterlimit:11.34;}
	.st12{fill:#FFFFFF;stroke:#FFFFFF;stroke-width:7.328092e-02;stroke-miterlimit:11.34;}
	.st13{fill:none;stroke:#000000;stroke-width:0.4617;stroke-linecap:round;stroke-linejoin:round;}
	.st14{fill-opacity:0;stroke:#A11E22;stroke-width:7.328091e-03;stroke-miterlimit:11.34;stroke-opacity:0;}
	.st15{fill-opacity:0;stroke:#A11E22;stroke-width:2.198427e-02;stroke-miterlimit:11.34;stroke-opacity:0;}
	.st16{fill:#FFFFFF;fill-opacity:0.55;stroke:#A11E22;stroke-width:2.198427e-02;stroke-miterlimit:11.34;stroke-opacity:0;}
	.st17{stroke:#A11E22;stroke-width:2.198427e-02;stroke-miterlimit:11.34;stroke-opacity:0;}
	.st18{fill:#FFFFFF;stroke:#FFFFFF;stroke-width:2.198427e-02;stroke-miterlimit:11.34;}
	.st19{fill:#DE845C;stroke:#000000;stroke-width:0.2931;stroke-miterlimit:11.34;}
	.st20{fill:#DE845C;stroke:#000000;stroke-width:0.3298;stroke-miterlimit:11.34;}
	.st21{stroke:#000000;stroke-width:9.526519e-02;stroke-miterlimit:11.34;stroke-opacity:0;}
	.st22{fill:#A11E22;stroke:#000000;stroke-width:9.526519e-02;stroke-miterlimit:11.34;stroke-opacity:0;}
	.st23{opacity:0.91;fill:#FFFFFF;stroke:#FFFFFF;stroke-width:9.526519e-02;stroke-miterlimit:11.34;enable-background:new    ;}
	.st24{opacity:0.91;fill:#42393B;enable-background:new    ;}
	.st25{fill-rule:evenodd;clip-rule:evenodd;fill:#FFFFFF;}
	.st26{clip-path:url(#SVGID_2_);}
	.st27{fill-rule:evenodd;clip-rule:evenodd;fill:#F0EFEF;}
	.st28{fill-rule:evenodd;clip-rule:evenodd;fill:#ED243B;}
	.st29{clip-path:url(#SVGID_4_);}
	.st30{fill-rule:evenodd;clip-rule:evenodd;fill:#E11E2C;}
	.st31{fill-rule:evenodd;clip-rule:evenodd;fill:#ED3248;}
	.st32{fill:#BF2126;}
	.st33{fill:#F8E7D3;}
	.st34{fill:#D91F26;}
	.st35{fill:#1F1B1A;}
	.st36{fill:#E12027;}
	.st37{fill:#E82125;}
</style>
<g id="Layer_2_1_">
	<g id="Layer_1-2">
		<path d="M339.5,56.8c0-0.1-0.1-0.1-0.2-0.1l-5.7,0.3c-0.1,0-0.2,0.1-0.2,0.2c0,0.1,0,0.2,0.1,0.2l0.7,0.4h-2.3
			c-0.1,0-0.2,0.1-0.2,0.1c0,0.1,0,0.2,0.1,0.2l1.9,1.4l-151.8,91c-0.1,0-0.1,0.2-0.1,0.2c0,0,0,0,0,0l0.4,0.7c0,0,0.1,0.1,0.1,0.1
			h0c0,0,0.1,0,0.1,0l151.8-91v2.6c0,0.1,0.1,0.2,0.2,0.2c0.1,0,0.1,0,0.2-0.1l1.3-2.3V62c0,0.1,0.1,0.2,0.1,0.2
			c0.1,0,0.2,0,0.2-0.1l3.1-5.1C339.6,56.9,339.6,56.8,339.5,56.8z"/>
		<path class="st0" d="M245,150.3c2.2,0.5,4.4,1.2,6.5,2.1c1.3-0.7,2.5-1.4,3.7-2.3c4.9-3.6,8.6-8.5,10.9-14.2
			c2.6-6.4,3.8-13.2,3.7-20.1c0.1-8.1-1.6-16.1-4.9-23.4c-2.9-6.7-7.5-12.5-13.4-16.9c-5.5-4.1-12.2-6.3-19.1-6.2
			c-5.7-0.1-11.2,1.6-15.9,4.9c-4.9,3.5-8.7,8.2-11,13.7c-2.6,5.9-4,12.6-4,20.3c-0.1,7.9,1.4,15.8,4.4,23.2
			c2.7,6.8,7.1,12.8,12.8,17.4c2.5,2,5.3,3.5,8.3,4.6c3.1-2.1,6.8-3.3,10.5-3.6C240.1,149.7,242.6,149.8,245,150.3z"/>
		<path d="M278.9,86.2c-4.1-7.4-10.3-13.5-17.7-17.6c-7.5-4.2-16.1-6.3-25.6-6.3c-8.8-0.1-17.4,2.1-25.1,6.4
			c-7.5,4.1-13.6,10.2-17.8,17.6c-4.3,7.5-6.5,16.1-6.5,25.7c-0.1,9,2,17.8,6.2,25.7c4,7.5,10.1,13.7,17.5,18c3.4,2,7,3.5,10.8,4.6
			c1.5-2.7,3.7-5.1,6.3-6.8l0.3-0.2c-3-1.1-5.8-2.7-8.3-4.6c-5.7-4.6-10.2-10.5-12.8-17.4c-3-7.4-4.5-15.2-4.4-23.2
			c0-7.7,1.3-14.5,4-20.3c2.3-5.5,6.1-10.2,11-13.7c4.7-3.3,10.2-5,15.9-4.9c6.9-0.1,13.5,2.1,19.1,6.2c5.9,4.3,10.5,10.2,13.4,16.9
			c3.3,7.4,5,15.4,4.9,23.4c0.1,6.9-1.2,13.7-3.7,20.1c-2.2,5.7-6,10.6-10.9,14.2c-1.2,0.9-2.4,1.6-3.7,2.3l0.7,0.3
			c0.6,0.3,1,0.9,0.9,1.6c-0.1,1.7-0.2,3.5-0.2,5.2c2.8-1,5.6-2.3,8.2-3.8c7.4-4.3,13.5-10.6,17.7-18.1c4.3-7.8,6.4-16.6,6.3-25.6
			C285.3,102.4,283.1,93.8,278.9,86.2z"/>
		<g id="text1180">
			<g>
				<path d="M136.8,134.7c-0.4,2.8-1.5,5.6-3.1,8c-2.6,3.7-6.3,5.5-11.2,5.5c-6.1,0-10.5-1.9-13-5.7c-2.6-3.8-3.8-9.7-3.8-17.6V94
					c0-1.7-0.1-3.4-0.3-5.1c-0.1-0.9-0.5-1.7-1.2-2.3c-0.8-0.5-1.7-0.9-2.6-1c-0.2-1.4-0.3-2.8-0.3-4.2c1.8,0.2,4.5,0.3,8,0.3
					c3.3,0,5.9-0.1,8-0.3c0,1.4-0.1,2.8-0.3,4.2c-1.1,0.1-2.2,0.4-3.2,0.9c-0.7,0.5-1.1,1.3-1.3,2.2c-0.3,1.7-0.4,3.5-0.3,5.3v29.5
					c0,6.1,0.9,10.8,2.6,14.3c1.8,3.5,4.8,5.2,9.1,5.2c1.4,0,2.7-0.3,4-0.9c1.3-0.6,2.5-1.6,3.3-2.8c1.2-1.8,2-3.9,2.3-6.1
					c0.5-3.7,0.7-7.5,0.7-11.3V97.9c0-2.5-0.1-4.9-0.3-7.4c-0.1-1.3-0.6-2.5-1.3-3.5c-0.8-0.8-1.9-1.3-3.1-1.4
					c-0.2-1.4-0.3-2.8-0.3-4.2c2.1,0.2,4.3,0.3,6.5,0.3c2.2,0,4.4-0.1,6.5-0.3c0,1.4-0.1,2.8-0.3,4.2c-1,0.1-1.9,0.6-2.5,1.4
					c-0.7,1.1-1.1,2.4-1.2,3.7c-0.3,2.4-0.4,4.9-0.3,7.3v23.2C137.7,125.7,137.5,130.2,136.8,134.7z"/>
			</g>
			<g>
				<path class="st1" d="M136.8,134.7c-0.4,2.8-1.5,5.6-3.1,8c-2.6,3.7-6.3,5.5-11.2,5.5c-6.1,0-10.5-1.9-13-5.7
					c-2.6-3.8-3.8-9.7-3.8-17.6V94c0-1.7-0.1-3.4-0.3-5.1c-0.1-0.9-0.5-1.7-1.2-2.3c-0.8-0.5-1.7-0.9-2.6-1
					c-0.2-1.4-0.3-2.8-0.3-4.2c1.8,0.2,4.5,0.3,8,0.3c3.3,0,5.9-0.1,8-0.3c0,1.4-0.1,2.8-0.3,4.2c-1.1,0.1-2.2,0.4-3.2,0.9
					c-0.7,0.5-1.1,1.3-1.3,2.2c-0.3,1.7-0.4,3.5-0.3,5.3v29.5c0,6.1,0.9,10.8,2.6,14.3c1.8,3.5,4.8,5.2,9.1,5.2c1.4,0,2.7-0.3,4-0.9
					c1.3-0.6,2.5-1.6,3.3-2.8c1.2-1.8,2-3.9,2.3-6.1c0.5-3.7,0.7-7.5,0.7-11.3V97.9c0-2.5-0.1-4.9-0.3-7.4c-0.1-1.3-0.6-2.5-1.3-3.5
					c-0.8-0.8-1.9-1.3-3.1-1.4c-0.2-1.4-0.3-2.8-0.3-4.2c2.1,0.2,4.3,0.3,6.5,0.3c2.2,0,4.4-0.1,6.5-0.3c0,1.4-0.1,2.8-0.3,4.2
					c-1,0.1-1.9,0.6-2.5,1.4c-0.7,1.1-1.1,2.4-1.2,3.7c-0.3,2.4-0.4,4.9-0.3,7.3v23.2C137.7,125.7,137.5,130.2,136.8,134.7z"/>
			</g>
		</g>
		<g id="text1197">
			<g>
				<path d="M185.4,80.7c0,1.4-0.1,2.8-0.3,4.1c-0.9,0-1.8,0.4-2.3,1.2c-0.7,1.3-1.1,2.7-1.2,4.2c-0.3,2.7-0.4,5.4-0.4,8.1v47.3
					c-0.9,0.4-1.8,0.6-2.8,0.6l-26.8-51.5v33.1c0,2.8,0.1,5.7,0.4,8.5c0.1,1.5,0.6,3,1.4,4.3c0.6,0.9,1.7,1.3,2.7,1.3
					c0.2,1.4,0.4,2.7,0.3,4.1c-2-0.2-4.1-0.3-6.4-0.3c-2.2,0-4.3,0.1-6.5,0.3c0-1.4,0.1-2.8,0.3-4.1c1.1,0,2.1-0.4,2.7-1.3
					c0.8-1.3,1.3-2.7,1.4-4.3c0.3-2.8,0.4-5.7,0.4-8.5V88.2l-0.3-0.5c-0.4-0.8-1-1.6-1.7-2.2c-0.8-0.4-1.6-0.7-2.5-0.7
					c-0.2-1.4-0.3-2.7-0.3-4.1c1.6,0.2,3.2,0.3,4.8,0.3c1.5,0,2.9-0.1,4.3-0.3l25.2,49.4V98.3c0-2.7-0.1-5.5-0.4-8.2
					c-0.1-1.5-0.6-2.9-1.4-4.1c-0.7-0.8-1.7-1.3-2.7-1.2c-0.2-1.4-0.3-2.7-0.3-4.1c2,0.2,4.1,0.3,6.1,0.3
					C181.3,81,183.3,80.9,185.4,80.7z"/>
			</g>
			<g>
				<path class="st2" d="M185.4,80.7c0,1.4-0.1,2.8-0.3,4.1c-0.9,0-1.8,0.4-2.3,1.2c-0.7,1.3-1.1,2.7-1.2,4.2
					c-0.3,2.7-0.4,5.4-0.4,8.1v47.3c-0.9,0.4-1.8,0.6-2.8,0.6l-26.8-51.5v33.1c0,2.8,0.1,5.7,0.4,8.5c0.1,1.5,0.6,3,1.4,4.3
					c0.6,0.9,1.7,1.3,2.7,1.3c0.2,1.4,0.4,2.7,0.3,4.1c-2-0.2-4.1-0.3-6.4-0.3c-2.2,0-4.3,0.1-6.5,0.3c0-1.4,0.1-2.8,0.3-4.1
					c1.1,0,2.1-0.4,2.7-1.3c0.8-1.3,1.3-2.7,1.4-4.3c0.3-2.8,0.4-5.7,0.4-8.5V88.2l-0.3-0.5c-0.4-0.8-1-1.6-1.7-2.2
					c-0.8-0.4-1.6-0.7-2.5-0.7c-0.2-1.4-0.3-2.7-0.3-4.1c1.6,0.2,3.2,0.3,4.8,0.3c1.5,0,2.9-0.1,4.3-0.3l25.2,49.4V98.3
					c0-2.7-0.1-5.5-0.4-8.2c-0.1-1.5-0.6-2.9-1.4-4.1c-0.7-0.8-1.7-1.3-2.7-1.2c-0.2-1.4-0.3-2.7-0.3-4.1c2,0.2,4.1,0.3,6.1,0.3
					C181.3,81,183.3,80.9,185.4,80.7z"/>
			</g>
		</g>
		<g id="text1205">
			<g>
				<path d="M136.8,134.7c-0.4,2.8-1.5,5.6-3.1,8c-2.6,3.7-6.3,5.5-11.2,5.5c-6.1,0-10.5-1.9-13-5.7c-2.6-3.8-3.8-9.7-3.8-17.6V94
					c0-1.7-0.1-3.4-0.3-5.1c-0.1-0.9-0.5-1.7-1.2-2.3c-0.8-0.5-1.7-0.9-2.6-1c-0.2-1.4-0.3-2.8-0.3-4.2c1.8,0.2,4.5,0.3,8,0.3
					c3.3,0,5.9-0.1,8-0.3c0,1.4-0.1,2.8-0.3,4.2c-1.1,0.1-2.2,0.4-3.2,0.9c-0.7,0.5-1.1,1.3-1.3,2.2c-0.3,1.7-0.4,3.5-0.3,5.3v29.5
					c0,6.1,0.9,10.8,2.6,14.3c1.8,3.5,4.8,5.2,9.1,5.2c1.4,0,2.7-0.3,4-0.9c1.3-0.6,2.5-1.6,3.3-2.8c1.2-1.8,2-3.9,2.3-6.1
					c0.5-3.7,0.7-7.5,0.7-11.3V97.9c0-2.5-0.1-4.9-0.3-7.4c-0.1-1.3-0.6-2.5-1.3-3.5c-0.8-0.8-1.9-1.3-3.1-1.4
					c-0.2-1.4-0.3-2.8-0.3-4.2c2.1,0.2,4.3,0.3,6.5,0.3c2.2,0,4.4-0.1,6.5-0.3c0,1.4-0.1,2.8-0.3,4.2c-1,0.1-1.9,0.6-2.5,1.4
					c-0.7,1.1-1.1,2.4-1.2,3.7c-0.3,2.4-0.4,4.9-0.3,7.3v23.2C137.7,125.7,137.5,130.2,136.8,134.7z"/>
			</g>
			<g>
				<path class="st1" d="M136.8,134.7c-0.4,2.8-1.5,5.6-3.1,8c-2.6,3.7-6.3,5.5-11.2,5.5c-6.1,0-10.5-1.9-13-5.7
					c-2.6-3.8-3.8-9.7-3.8-17.6V94c0-1.7-0.1-3.4-0.3-5.1c-0.1-0.9-0.5-1.7-1.2-2.3c-0.8-0.5-1.7-0.9-2.6-1
					c-0.2-1.4-0.3-2.8-0.3-4.2c1.8,0.2,4.5,0.3,8,0.3c3.3,0,5.9-0.1,8-0.3c0,1.4-0.1,2.8-0.3,4.2c-1.1,0.1-2.2,0.4-3.2,0.9
					c-0.7,0.5-1.1,1.3-1.3,2.2c-0.3,1.7-0.4,3.5-0.3,5.3v29.5c0,6.1,0.9,10.8,2.6,14.3c1.8,3.5,4.8,5.2,9.1,5.2c1.4,0,2.7-0.3,4-0.9
					c1.3-0.6,2.5-1.6,3.3-2.8c1.2-1.8,2-3.9,2.3-6.1c0.5-3.7,0.7-7.5,0.7-11.3V97.9c0-2.5-0.1-4.9-0.3-7.4c-0.1-1.3-0.6-2.5-1.3-3.5
					c-0.8-0.8-1.9-1.3-3.1-1.4c-0.2-1.4-0.3-2.8-0.3-4.2c2.1,0.2,4.3,0.3,6.5,0.3c2.2,0,4.4-0.1,6.5-0.3c0,1.4-0.1,2.8-0.3,4.2
					c-1,0.1-1.9,0.6-2.5,1.4c-0.7,1.1-1.1,2.4-1.2,3.7c-0.3,2.4-0.4,4.9-0.3,7.3v23.2C137.7,125.7,137.5,130.2,136.8,134.7z"/>
			</g>
		</g>
		<g id="text1209">
			<g>
				<path d="M185.4,80.7c0,1.4-0.1,2.8-0.3,4.1c-0.9,0-1.8,0.4-2.3,1.2c-0.7,1.3-1.1,2.7-1.2,4.2c-0.3,2.7-0.4,5.4-0.4,8.1v47.3
					c-0.9,0.4-1.8,0.6-2.8,0.6l-26.8-51.5v33.1c0,2.8,0.1,5.7,0.4,8.5c0.1,1.5,0.6,3,1.4,4.3c0.6,0.9,1.7,1.3,2.7,1.3
					c0.2,1.4,0.4,2.7,0.3,4.1c-2-0.2-4.1-0.3-6.4-0.3c-2.2,0-4.3,0.1-6.5,0.3c0-1.4,0.1-2.8,0.3-4.1c1.1,0,2.1-0.4,2.7-1.3
					c0.8-1.3,1.3-2.7,1.4-4.3c0.3-2.8,0.4-5.7,0.4-8.5V88.2l-0.3-0.5c-0.4-0.8-1-1.6-1.7-2.2c-0.8-0.4-1.6-0.7-2.5-0.7
					c-0.2-1.4-0.3-2.7-0.3-4.1c1.6,0.2,3.2,0.3,4.8,0.3c1.5,0,2.9-0.1,4.3-0.3l25.2,49.4V98.3c0-2.7-0.1-5.5-0.4-8.2
					c-0.1-1.5-0.6-2.9-1.4-4.1c-0.7-0.8-1.7-1.3-2.7-1.2c-0.2-1.4-0.3-2.7-0.3-4.1c2,0.2,4.1,0.3,6.1,0.3
					C181.3,81,183.3,80.9,185.4,80.7z"/>
			</g>
			<g>
				<path class="st2" d="M185.4,80.7c0,1.4-0.1,2.8-0.3,4.1c-0.9,0-1.8,0.4-2.3,1.2c-0.7,1.3-1.1,2.7-1.2,4.2
					c-0.3,2.7-0.4,5.4-0.4,8.1v47.3c-0.9,0.4-1.8,0.6-2.8,0.6l-26.8-51.5v33.1c0,2.8,0.1,5.7,0.4,8.5c0.1,1.5,0.6,3,1.4,4.3
					c0.6,0.9,1.7,1.3,2.7,1.3c0.2,1.4,0.4,2.7,0.3,4.1c-2-0.2-4.1-0.3-6.4-0.3c-2.2,0-4.3,0.1-6.5,0.3c0-1.4,0.1-2.8,0.3-4.1
					c1.1,0,2.1-0.4,2.7-1.3c0.8-1.3,1.3-2.7,1.4-4.3c0.3-2.8,0.4-5.7,0.4-8.5V88.2l-0.3-0.5c-0.4-0.8-1-1.6-1.7-2.2
					c-0.8-0.4-1.6-0.7-2.5-0.7c-0.2-1.4-0.3-2.7-0.3-4.1c1.6,0.2,3.2,0.3,4.8,0.3c1.5,0,2.9-0.1,4.3-0.3l25.2,49.4V98.3
					c0-2.7-0.1-5.5-0.4-8.2c-0.1-1.5-0.6-2.9-1.4-4.1c-0.7-0.8-1.7-1.3-2.7-1.2c-0.2-1.4-0.3-2.7-0.3-4.1c2,0.2,4.1,0.3,6.1,0.3
					C181.3,81,183.3,80.9,185.4,80.7z"/>
			</g>
		</g>
		<path class="st0" d="M303,73.2c0,1.5,0.1,3.1,0.1,4.7l2.1-1.3C304.4,75.5,303.7,74.3,303,73.2z"/>
		<path class="st0" d="M303,91l-0.7,22.9l26.6-4.7L314,89.1c-2.9-3.8-5.6-7.7-8.2-11.5l-2.7,1.7C303.1,83.1,303.1,87,303,91z"/>
		<path class="st3" d="M362.7,132.6c-1.3,0.1-2.7-0.2-3.9-0.8c-1.5-1.1-2.9-2.3-4.1-3.7c-1.6-1.8-3.8-4.6-6.7-8.3l-35-46.5l-7.3,4.4
			c2.5,3.8,5.3,7.7,8.2,11.5l14.9,20.2l-26.6,4.7L303,91c0.1-4,0.1-7.9,0.1-11.8c0-0.5,0-0.9,0-1.4c0-1.6,0-3.1-0.1-4.7
			c0.7,1.1,1.4,2.3,2.2,3.4l7.2-4.3l-12.6-16.6l-1.6-2c-1.8-2.1-4,0.8-2.4,2.5c0.5,0.9,1.3,2.5,1.5,2.8c0.1,0.5,0.2,0.9,0.2,1.4
			l-1,21.4l-0.1,1.5l-2.2,47.3c-0.4,6.1-0.9,10.2-1.5,12.4c-0.5,2-2,3.7-4,4.4c0,2.6,0.4,5.1,1.3,7.6c4.7-1.1,8.3-1.9,10.8-2.3
			c5.7-1,10.1-1.6,13-1.9c-0.8-2.6-1.9-5-3.3-7.3c-1.8,0.3-3.6-0.1-5.2-0.9c-1.4-1-2.4-2.5-2.9-4.1c-0.7-2.6-0.9-5.4-0.7-8.1
			l0.3-7.8c8.2-2,18.8-4.1,31.9-6.4l7.6,10.4c2.1,2.7,3.4,4.8,3.8,6.2c0.5,1.1,0.2,2.4-0.6,3.3c-0.7,0.8-2.1,1.6-4.1,2.2
			c-0.1,1.9,0.3,4.5,1.3,7.7c3.1-0.9,3.7-1,12.7-3.4c9-2.4,9-2.3,11.3-3.1C365.1,137,364,134.7,362.7,132.6z"/>
		<path d="M305.8,77.6l7.3-4.4l-0.7-1l-7.2,4.3L305.8,77.6z"/>
		<g id="layer34">
			<g id="layer11">
				<g id="layer15">
					<g id="layer17">
						<g id="layer19">
							<path id="path1258" class="st4" d="M239.2,146.2c0.7,0.5,1.5,1,2.3,1.5c1,0.5,2.1,1,3.2,1.3c0.9,0.3,1.9,0.4,2.8,0.4
								c1,0,2-0.1,3-0.4c0.9-0.2,1.7-0.6,2.4-1.1c0.6-0.4,1.1-0.9,1.5-1.5c0.3-0.4,0.5-0.8,0.7-1.3c0.1-0.4,0.1-0.9,0-1.3
								c-0.1-0.4-0.3-0.7-0.5-1c-0.2-0.3-0.5-0.5-0.8-0.7c-0.4-0.2-0.8-0.4-1.2-0.6c-0.6-0.2-1.3-0.4-2-0.4
								c-0.7-0.1-1.3-0.1-2.4-0.4c-1.2-0.2-2.9-0.6-4.3-0.2c-1.3,0.5-2.4,1.3-3.3,2.4c-0.5,0.6-1,1.2-1.5,1.9
								c-0.2,0.3-0.3,0.7-0.4,1C238.7,145.9,238.8,145.9,239.2,146.2L239.2,146.2z"/>
						</g>
						<g id="layer16">
							<path id="path1254" class="st5" d="M239.1,143.2c1.4-1.2,2.3-1.3,3.8-2.1c1.2-0.6,2.6-1,3.9-1.2c1.4,0,2.9,0.8,2.1,1.2
								c-0.8,0.5-1.6,0.9-2.4,1.2l-3.2,1.5c0,0-3.2,1.7-3.7,1.3S239.1,143.2,239.1,143.2z"/>
						</g>
					</g>
					<g id="layer18">
						<g id="layer20">
							<path id="path1258-3" class="st4" d="M235.1,146.3c-0.6,0.6-1.4,1.1-2.1,1.6c-0.9,0.5-1.9,0.9-2.9,1.1
								c-0.9,0.2-1.8,0.3-2.7,0.2c-1.1,0-2.2-0.1-3.3-0.3c-0.8-0.1-1.6-0.4-2.4-0.8c-0.6-0.3-1.2-0.7-1.7-1.2
								c-0.4-0.4-0.7-0.9-0.8-1.5c-0.1-0.5-0.1-1,0.1-1.6c0.1-0.3,0.3-0.7,0.6-0.9c0.2-0.2,0.4-0.4,0.7-0.6c0.4-0.2,0.7-0.3,1.1-0.5
								c0.5-0.2,1-0.3,1.9-0.5c0.9-0.2,2.2-0.5,3.5-0.8c1.2-0.4,2.4-0.4,3.6,0c1.2,0.6,2.2,1.4,3.1,2.4c0.8,0.7,1.4,1.1,1.7,1.5
								c0.3,0.3,0.4,0.6,0.4,1C235.7,145.7,235.5,145.9,235.1,146.3L235.1,146.3z"/>
						</g>
						<g id="g1246">
							<path id="path1254-0" class="st5" d="M234.4,143.4c-0.7-0.7-1.6-1.3-2.5-1.6c-1.5-0.6-2.7-1.8-4.2-1.9
								c-0.5,0.3-2,0.3-2.4,1.1c-0.1,0.3,1.5,1.1,2.8,1.7c1.2,0.6,2.4,1.1,3.7,1.6c0.7,0.2,3.4,1.2,3.9,0.7
								C236.2,144.5,234.5,143.3,234.4,143.4L234.4,143.4z"/>
						</g>
					</g>
				</g>
				<g id="layer9">
					<g id="layer12">
						<path id="path1149" class="st6" d="M237.6,113.2c3.8-0.1,7.6-0.9,11.1-2.4c1.8-0.8,3.4-1.9,4.7-3.2c1-1.1,1.8-2.3,2.5-3.6
							c0.5-0.9,0.9-1.9,1.2-2.9c0.3-1.2,0.6-2.3,0.8-3.5c0.1-0.9,0.2-1.7,0.2-2.6c0-1.2,0-2.4,0-3.7c-0.2-1-0.7-2-1.3-2.9
							c-1.5-2.1-4.1-3.2-6.4-4.1c-3.2-1.2-6.8-1.1-10.3-1.3c-3.8-0.2-7.6-0.4-11.3,0.4c-3,0.6-6.1,1.5-8.5,3.3
							c-1.3,1.2-2.4,2.6-3,4.3c-0.3,0.7-0.5,1.4-0.5,2.1c-0.2,1.3-0.2,2.7-0.1,4c0.2,2.1,0.4,4.3,1.4,6.1c1.8,3.3,4.6,6,8.1,7.6
							C229.5,112.7,233.7,113.2,237.6,113.2L237.6,113.2z"/>
					</g>
					<g id="g1023">
						<path id="path1019" class="st7" d="M213.1,88.7c-0.6,0.3-0.2-2.4,0.5-3.5s0.3-0.9,3.8-2.7s16.2-1.1,20.6-1.1
							c4.3,0,6.1,0.3,7.2,0.6c1.2,0.3,3.4,0.6,5.4,1.2c2,0.6,5.2,0.9,6.2,2.3c1,1.3,2,5.2,0.8,4.4s-11.6-2-14.4-2.1
							c-2.9-0.1-9.3-1.4-17.6-0.4C217.2,88.3,213.7,88.5,213.1,88.7L213.1,88.7z"/>
						<path id="path1021" class="st8" d="M233.2,87.3c0,0-0.7,7.3-0.5,10.1c-1.2,0.1-2,1.2-1.8,2.4c0,0.1,0,0.2,0.1,0.4
							c0.1,0.3,0.7,0.5,1.9,0.2c0,4.4,0.6,12.9,0.6,12.9s-4.3-0.4-7.2-1.9c-2.9-1.6-4-1.7-5.1-3.8c-0.5-2.1-0.6-7.8-0.6-7.8
							c-0.1-3.9,0.1-7.8,0.6-11.7L233.2,87.3z"/>
					</g>
					<g id="g141">
						<path id="path137" class="st7" d="M213.1,88.7c-0.6,0.3-0.2-2.4,0.5-3.5s0.3-0.9,3.8-2.7s16.2-1.1,20.6-1.1
							c4.3,0,6.1,0.3,7.2,0.6c1.2,0.3,3.4,0.6,5.4,1.2c2,0.6,5.2,0.9,6.2,2.3c1,1.3,2,5.2,0.8,4.4s-11.6-2-14.4-2.1
							c-2.9-0.1-9.3-1.4-17.6-0.4C217.2,88.3,213.7,88.5,213.1,88.7L213.1,88.7z"/>
						<path id="path139" class="st8" d="M233.2,87.3c0,0-0.6,7.9-0.5,10.1s0,0.1,0.1,2.9c0.1,2.8,0.6,12.9,0.6,12.9
							s-4.3-0.4-7.2-1.9c-2.9-1.6-4-1.7-5.1-3.8c-0.5-2.1-0.6-7.8-0.6-7.8c-0.1-3.9,0.1-7.8,0.6-11.7L233.2,87.3z"/>
					</g>
					<g id="layer4">
						<path id="path1872" class="st9" d="M236.2,74c-17.6,0-24.3,8-24,13c0.3,5.1,1.2,6.2,1.6,7.1c0.1,0.4,0.3,0.7,0.6,1.1
							c4-5.1,16.1-5.6,16.1-5.6l0.3-2.6c-2.2-0.2-12.8,0.7-17.4,1.7c-0.5-2.2,0.6-4.5,2.7-5.4l12.9-2l2.6,9l6.9,0.2l1.7-2.1
							l-0.1,1.8l2.9-0.4l0.3-3.9l0.7,4.4l5.3-0.2c0,0-2.5-12.5-0.7-6c1,3.6,4.4,8.7,7.1,10.8c0,0,0-0.1,0-0.1s0-0.2,0-0.2
							c0.1-0.1,0.2-0.1,0.3-0.1v-0.1h-0.1l0,0c0,0,0-0.1,0-0.1c0-0.1,0-0.3,0-0.4c0,0,0-0.1,0.1-0.1c0.1-0.1,0.1-0.1,0.1-0.2
							c0,0,0,0,0,0c0-0.1,0-0.2,0-0.3s0-0.3,0.1-0.5c0-0.1,0.1-0.2,0.1-0.2l0,0c0-0.1,0-0.2,0.1-0.2c0-0.1,0.1-0.3,0.2-0.4
							c0.2-0.5,0.6-0.8,1.1-0.8c0.1,0,0.2,0,0.2,0c0.1,0,0.2,0,0.2,0c0.2,0.1,0.4,0.2,0.6,0.3c0.2,0.1,0.5,0.3,0.7,0.5
							c0.1-0.3-2.4-2.2-2.3-2.5c0,0-0.4,0.9-0.3,0.9c0-0.3,2.9,3.1,3.3,2.4c-0.3-0.3,0.5,1.5,0-4.8c-0.1-0.9-0.3-1.8-0.6-2.7
							C256.8,78.4,249.5,73.9,236.2,74L236.2,74z"/>
						<path id="path4906" class="st9" d="M214.3,95.3l1.2-0.3c0.1,6.9,1.8,8.2,2.2,8.8c0.4,0.6,0.7,12.2,0.7,12.2l6,0.4l-0.3-3.1
							l2.1,2.8l4.9-0.3l1.7-0.3l2.4-0.7v-2c0,0-1-0.1-2.5-0.3c-2.2-0.4-4.3-1-6.3-1.8c-1.6-0.7-3.1-1.7-4.4-2.9
							c-1.1-1.1-2.1-2.3-3-3.7c-1-1.5-1.7-3.1-2-4.8c-0.3-1.2-0.5-2.5-0.5-3.8c0-0.7,0.2-1.6,0.2-1.6l1.6-0.7l0.2,2.2l4.5-0.2
							c6.9-0.4,4.8-0.2,6.9-0.4c8-0.8,8-0.9,14.8,0.2c2.1,0.2,4.1,0.2,6.2,0.2c2.2,0,4.9,0.2,4.9,0.2l2-4.5
							c-33.3,2.7-24.9-0.4-39.4,0.4L214.3,95.3z"/>
						<path id="path4908" class="st9" d="M221.2,101.1c0.1,0.1-0.1,0.3-0.1,0.3c5.5,1.5,11.1,3.4,16.1,3c7.2,0.2,12.2-1.5,15.3-3.5
							c0,0,0,0-0.3-0.7c0.3-0.2,0.7,0.7,0.7,0.7c0.2,0.3,0.5,0.6,0.7,0.8c-0.2,0.2-0.8-0.4-0.8-0.4c-4.1,2.1-8.5,3.5-15.6,3.9
							c-10-0.9-10.5-2-16.2-3.6c0,0,0,0.5-0.2,0.4c-0.2-0.1,0-0.5,0-0.5S221.1,101,221.2,101.1L221.2,101.1z"/>
						<path id="path4906-0" class="st9" d="M254,115l-3.3-0.1l-1.3-2.8l-0.9,2.5c-4.1,0.2-4.1,0.3-8.9,0.3v-2.1
							c0.9-0.1,1.8-0.3,2.7-0.5c2.1-0.5,4.1-1.1,6-2c1.4-0.7,2.8-1.6,4-2.6c1.2-1.2,2.2-2.5,3.2-3.9
							C254.9,109.4,255.1,109.8,254,115L254,115z"/>
						<path id="path4965" class="st9" d="M231.1,99.5c-0.3,0.3,0.2,0.6,0.2,0.6c3.5-1.2,3.9-1.2,6-1.2c2.3,0.1,4.5,0.6,6.6,1.5
							c0.2,0.1,0.2-0.7-0.2-0.9c-2.4-1.2-6.4-1.4-6.4-1.4C235.2,98.2,233.1,98.6,231.1,99.5L231.1,99.5z"/>
						<ellipse id="path1097-0" class="st10" cx="225" cy="96.8" rx="2.4" ry="2.3"/>
						<path id="path1092" class="st11" d="M246.7,97c0,0,1.6-0.2,2.4-0.1s2.1,0.2,2.1,0.2s0.1-0.1,0.1-0.1s-0.1-0.1-0.1-0.1
							c-0.7-0.1-1.5-0.2-2.2-0.2c-0.7,0-2.2,0.2-2.2,0.2l4.2-1.1c0,0,0-0.1,0-0.1c-0.3-0.2-0.7,0-1.1,0.1c-0.4,0.1-3.3,0.9-3.3,0.9
							c-0.1,0-0.2,0.2-0.2,0.3C246.4,97,246.8,97,246.7,97L246.7,97z"/>
					</g>
					<g id="layer10">
						<path id="path1073-2" class="st12" d="M265.1,119.5c-0.4-0.4-0.7-0.8-1.2-1.3c0,0-0.5-0.5-1-0.9c-0.4-0.5-1-1.3-1.5-1.9
							s-1-1.3-1.5-1.9c-0.1-0.2-0.2-0.4-0.2-0.6c0-0.2,0-0.3,0-0.7c0-1.2,0.1-1,0-1c-0.1,0-0.2,0.7-0.2,0.9l-0.1,0.7l-0.2-0.4
							l-0.2-0.4l0.8-2.6c0.5-1.5,0.9-2.8,0.9-2.8c0,0,0.4,1.5,0.9,3.3c0.2,1.1,0.6,2.2,1,3.3c0,0,0.1,0,0.1,0s-0.4-1.6-0.8-3.5
							c-0.4-1.9-0.8-3.5-0.8-3.5c0,0,3.1,1.2,3.1,1.3c0,0.1,0.1,0.1,0.1,0.2c0,0.5,0.2,2.9,0.4,4.5c0.2,2.2,0.7,4.3,1.5,6.4
							c0.3,0.7,0.6,1.4,1,2.1c0.1,0.1,0.3,0.4,0,0.4C266.9,121.2,265.6,119.9,265.1,119.5L265.1,119.5z"/>
						<path id="path1128" class="st5" d="M258.6,97.4l4.8,0.9c0.3,0.8,0.5,1.6,0.6,2.4c0.3,2.2,0.4,4.4,0.4,6.7l-3.6-1.4l-1.9,6.1
							l-1.8-3.3l-0.5-1.2l-0.5-1.5l-0.5-2l0-0.3C256.2,102.2,257.7,99.5,258.6,97.4L258.6,97.4z"/>
						<path id="path178" class="st13" d="M257.8,91.4c1.2,0.5,1.9,0.5,3.5,2.7c0.8,1.3,1.5,2.6,1.9,4c0.5,1.5,0.8,3,0.9,4.5
							c0.1,2.2,0.1,2.8,0.1,4.2c0.1,2.4,0.4,4.7,0.7,7.1c0.3,2.4,1,4.6,2.2,6.7c0,0,0.1,0.4-0.1,0.5c-0.2,0.1-0.7-0.3-0.9-0.3
							c-1.3-1.1-2.6-2.3-3.7-3.6l-2.9-3.8l0.2-2.2l-0.1,2.3c0,0-2-3.4-2.7-5c-0.5-1.1-0.9-2.3-1.2-3.4c-0.3-1.6-0.5-3.3-0.5-4.9
							c0-0.7,0-1.5,0-2.2c0.2-1.5,0.5-3.1,1-4.5C256.6,92.6,257.1,92,257.8,91.4L257.8,91.4"/>
						<path id="path182" class="st9" d="M257.5,91.7l0.8,5.1l0.7,3.1l3.6,13.2l-1.9-8.2l-1.7-7.5l-0.6-5.9l-0.5-0.2L257.5,91.7z"/>
						<path id="path1140" class="st14" d="M261.2,97.9l-2.1-0.4l0,0l-0.6-5.9l0.3,0.1c0.4,0.2,0.8,0.4,1.1,0.7
							c0.5,0.4,0.9,0.9,1.3,1.4c0.1,0.2,0.2,0.3,0.3,0.5c0.4,0.6,0.7,1.1,0.9,1.7c0.3,0.6,0.5,1.2,0.7,1.8l0.1,0.3
							c0.1,0.3,0.1,0.3,0.1,0.3L261.2,97.9L261.2,97.9z"/>
						<path id="path1142" class="st15" d="M255.5,103.2c-0.2-1.7-0.3-3.4-0.3-5.1c0.1-0.8,0.2-1.6,0.4-2.4c0.1-0.4,0.1-0.4,0.1-0.4
							c0.3-0.5,0.6-1.1,0.8-1.7c0.4-0.9,0.8-1.7,0.8-1.7c0,0,0.2,1.2,0.2,1.6c0.1,0.4,0.1,0.9,0.1,1.3c0,0.5,0,1-0.1,1.5
							c0,0.3-0.1,0.7-0.1,0.9c-0.2,1.3-0.5,2.6-0.9,3.9c-0.1,0.4-0.3,0.9-0.5,1.3l-0.4,0.8l-0.1,0.3
							C255.5,103.4,255.5,103.3,255.5,103.2L255.5,103.2z"/>
						<path id="path1144" class="st15" d="M255.5,103.2c-0.2-1.7-0.3-3.4-0.3-5.1c0.1-0.8,0.2-1.6,0.4-2.4c0.1-0.4,0.1-0.4,0.1-0.4
							c0.3-0.5,0.6-1.1,0.8-1.7c0.4-0.9,0.8-1.7,0.8-1.7c0,0,0.2,1.2,0.2,1.6c0.1,0.4,0.1,0.9,0.1,1.3c0,0.5,0,1-0.1,1.5
							c0,0.3-0.1,0.7-0.1,0.9c-0.2,1.3-0.5,2.6-0.9,3.9c-0.1,0.4-0.3,0.9-0.5,1.3l-0.4,0.8l-0.1,0.3
							C255.5,103.4,255.5,103.3,255.5,103.2L255.5,103.2z"/>
						<path id="path1031" class="st16" d="M261.5,97.8L261.5,97.8L261.5,97.8c-0.1,0-0.1,0-0.1,0c0,0-0.1,0-0.1-0.1
							c-0.4-0.2-0.8-0.2-1.2-0.2h-0.6h-0.1v-0.7h0.1c0.3,0,0.5-0.2,0.7-0.4c0.1-0.2,0.1-0.2,0.2-0.7l0.1-0.4l0.1,0
							c0.1,0,0.2-0.1,0.3-0.2c0-0.1,0-0.1,0-0.2l-0.1-0.2c0,0,0-0.1-0.1-0.1c-0.1,0-0.1-0.1-0.1-0.3c0-0.2,0-0.2,0.1-0.2
							c0.1,0,0,0,0,0.1c0,0.1,0,0.2,0.1,0.2c0,0,0,0,0,0.1c0,0.1,0,0.1,0.1,0.1c0.1,0,0.1,0,0.1,0.1c0,0,0,0.1,0,0.1
							c0,0,0,0.1,0,0.1c0,0.1,0,0.1,0.1,0.2c0.1,0,0.1,0.1,0.1,0.1c0,0.1,0.1,0.1,0.2,0.1h0.1v0.2c0,0.2,0.1,0.3,0.1,0.4l0.1,0
							c0.1,0,0.1,0,0.1,0.1c0,0.1,0,0.1,0,0v-0.1h-0.1c-0.1,0-0.1,0-0.1,0c0-0.1,0-0.2,0-0.3v-0.3h-0.3H261h0v0.9l-0.1,0.2
							c0,0.1-0.1,0.1-0.1,0.2c0,0,0,0.1-0.1,0.1l-0.1,0.1v0.6h0.1h0.5c0.4,0,0.4,0,0.4-0.1c0-0.1,0.1-0.1,0.1-0.2
							c0.1-0.1,0.1-0.1,0.2-0.1h0.1v0.2c0,0.2,0,0.2,0.3,0.2h0.1l-0.1-0.1c-0.1,0-0.1-0.1-0.2-0.2c-0.1-0.1-0.1-0.1-0.1-0.4v-0.3
							v0.2c0,0.2,0,0.2,0.1,0.2c0,0,0.1,0,0.1,0c0,0,0.1,0,0.1,0c0,0,0,0.1,0,0.2s0,0.2-0.1,0.2h-0.1c0,0,0,0-0.1,0h-0.1
							c0,0,0,0-0.1,0c0,0,0-0.1-0.1-0.1c0,0-0.1,0-0.1-0.1l-0.1,0l-0.1,0.1c-0.1,0.1-0.1,0.1-0.1,0.1c0,0.1,0,0,0,0l0,0l0,0
							c0,0,0,0,0,0L261.5,97.8z M260.9,94.7C260.9,94.7,260.9,94.6,260.9,94.7C260.9,94.6,260.9,94.6,260.9,94.7
							C261,94.8,260.9,94.8,260.9,94.7C260.9,94.7,260.9,94.7,260.9,94.7z M260.6,94.1C260.6,94.1,260.6,94.1,260.6,94.1
							c0,0.1,0,0.1,0,0.1C260.6,94.2,260.6,94.1,260.6,94.1z"/>
						<path id="path1037" class="st17" d="M261.1,97.9l-2.1-0.4v-0.1c0-0.1-0.6-5.6-0.6-5.6c0.1,0,0.1,0.1,0.2,0.1
							c0.3,0.3,0.7,0.5,1.1,0.6c0.1,0,0.2,0,0.2-0.1v0l0.1,0.1c0.5,0.4,0.9,0.9,1.3,1.5c0.4,0.6,0.8,1.2,1.1,1.9
							c0.3,0.5,0.5,1.1,0.7,1.7l0.2,0.6c0.1,0.1,0.1,0.1,0,0.1L261.1,97.9L261.1,97.9z"/>
						<path id="path1065" class="st18" d="M263,98.2l-2.1-0.4l-1.9-0.4c0,0-0.2-1.8-0.4-3.7c-0.2-1.9-0.2-1.9-0.2-1.9
							c0.1,0.1,0.2,0.1,0.2,0.2c0.3,0.3,0.6,0.5,1,0.6c0.1,0,0.2,0,0.3-0.1c0,0,0,0,0.1,0c0.5,0.5,1,1,1.4,1.6
							c0.5,0.8,1,1.7,1.4,2.6c0.1,0.2,0.6,1.5,0.6,1.6S263.2,98.3,263,98.2z"/>
						<path id="path1073" class="st12" d="M260,113.4c-0.1-0.1-0.2-0.3-0.2-0.5c0-0.2,0-0.3,0-0.7c0-1.2,0.1-1,0-1
							c-0.1,0-0.2,0.7-0.2,0.9l-0.1,0.6l-0.2-0.4l-0.2-0.4l0.8-2.6c0.5-1.5,0.9-2.8,0.9-2.8c0,0,0.4,1.5,0.9,3.3
							c0.2,1.1,0.6,2.2,1,3.3c0,0,0.1,0,0.1,0s-0.4-1.6-0.8-3.5c-0.4-1.9-0.8-3.5-0.8-3.5c0,0,3.1,1.2,3.1,1.3
							c0,0.1,0.1,0.1,0.1,0.2c0,0.5,0.2,2.9,0.4,4.5C263.1,113.8,263.1,113.7,260,113.4L260,113.4z"/>
						<path id="path1067" class="st18" d="M255.7,103.5c-0.1-1-0.2-2-0.3-3.1c0-0.2,0-0.9,0-1.4c0-0.7,0-1.3,0.1-2
							c0.1-0.5,0.2-1.2,0.3-1.5c0-0.1,0.1-0.1,0.1-0.2c0.2-0.6,0.4-1.3,0.7-1.8c0.5-1,0.7-1.7,0.8-1.7c0,0,0,0,0,0.1
							c0,0.1,0.5,2.9,0.7,4.3c0.1,0.4,0.1,0.9,0.2,1.1l0.1,0.4l-0.9,1.8c-1.2,2.3-1.4,3.1-1.7,3.8c0,0.1-0.1,0.2-0.1,0.3
							C255.7,103.6,255.7,103.5,255.7,103.5L255.7,103.5z"/>
					</g>
				</g>
				<g id="layer13">
					<g id="layer21">
						<path id="path1079-9" class="st19" d="M252.1,125.2c0.8,0.5,1.5,1.3,1.9,2.1c0.2,0.5,0.4,1.2,0,1.6c-0.4,0.4-1.2,0.7-1.3-0.1
							c0.1,0.6,0.1,1.2,0,1.8c-0.2,0.5-0.5,0.8-0.9,1c-0.3,0.1-0.6,0-0.9-0.1c-0.3-0.3-0.4-0.7-0.3-1c0.1-0.4-0.4,1.1-0.6,1.4
							c-0.2,0.3-0.5,0.5-0.9,0.6c-0.4,0.1-0.8,0-1.2-0.2c-0.3-0.3-0.3-0.8-0.2-1.2c0.1-0.5,0.8-0.7,0.8-1.2c0-0.5-0.3-0.9-0.7-1.2
							c-0.3-0.3-0.5-0.1-0.7,0.1c-0.2,0.2-0.6,0.4-0.8,0.1c-0.5-0.6-0.3-1.5,0.6-2.3c0.6-0.5,1.2-0.8,1.1-1.4
							c-0.2-0.7-0.7-1.3-1.3-1.7c-0.1-1,0.5-4.2-1.6-6c1.3,0.8,2.5,1.8,3.6,2.9c0.8,0.8,1.4,1.7,1.9,2.7c0.5,1.1,0.6,1.5,0.8,1.6
							L252.1,125.2L252.1,125.2z"/>
						<path id="path1079-0-7" class="st19" d="M220.8,125.2c-0.8,0.5-1.5,1.3-1.9,2.1c-0.2,0.5-0.4,1.2,0,1.6s1.2,0.7,1.3-0.1
							c-0.1,0.6-0.1,1.2,0,1.8c0.2,0.5,0.5,0.8,0.9,1c0.3,0.1,0.6,0,0.9-0.1c0.3-0.3,0.4-0.7,0.3-1c-0.1-0.4,0.4,1.1,0.6,1.4
							c0.2,0.3,0.5,0.5,0.9,0.6c0.4,0.1,0.8,0,1.2-0.2c0.3-0.3,0.4-0.8,0.2-1.2c-0.1-0.5-0.8-0.7-0.8-1.2c0-0.5,0.3-0.9,0.7-1.2
							c0.3-0.3,0.5-0.1,0.7,0.1c0.2,0.2,0.6,0.4,0.8,0.1c0.5-0.6,0.3-1.5-0.6-2.3c-0.6-0.5-1.2-0.8-1.1-1.4c0.2-1,1.3-1.8,1.8-2.2
							c0.5-0.4,0.7-0.6,0.9-0.7c0.5-6.4,6.3-6.5,4.1-6c-0.6,0.3-2.8,0.8-4.2,1.7c-1.2,0.8-2.3,1.6-3.2,2.6c-0.8,0.8-1.4,1.7-1.9,2.6
							c-0.5,1.1-0.6,1.5-0.8,1.6L220.8,125.2L220.8,125.2z"/>
					</g>
				</g>
				<g id="layer2">
					<path id="path1034" class="st20" d="M228.5,130.1c1.2,0.8,2.6,1.3,4.1,1.4c2.7,0.2,5.4,0.2,8.1-0.1c1.8-0.2,3.5-0.7,5.1-1.6
						c0.5-1.9,0.8-3.9,1-5.9c0.1-1.5,0-3-0.1-4.4c-0.4-2.2-2.6-3.7-4.8-4.1c-0.9-0.2-2.3-0.5-2.3-0.5s0-1.1,0-1.8
						c-1.4,0.1-2.9,0.1-4.4,0v1.6c-1.5,0.4-2.9,0.8-4.3,1.3c-1.1,0.5-2,1.4-2.4,2.5c-0.6,1.4-0.9,2.8-0.7,4.3
						C227.7,125.3,228,127.7,228.5,130.1L228.5,130.1z"/>
				</g>
				<g id="layer7">
					<g id="layer6">
						<path id="path977-4" class="st21" d="M246.2,129.4v9.2c0-0.2,2.6-0.2,2.2,1.6c-1.5,0.2-3.9,0.3-5.8,1.4
							c-0.5,0.4-1.6,0.6-3.9,4.3c-0.3-0.2-0.7-0.4-1-0.6c-0.1,0.1-0.6-2.5,0-2.9h-1c0.4,0.8,0.5,1.8,0.1,2.7
							c-0.3,0.1-0.5,0.3-0.7,0.4c-2.6-2.8-3.2-3.1-4.7-3.6c-1.7-0.8-3.2-1-5.4-1.6c-0.8-1.6,1.8-1.7,1.8-1.7s-0.6-5.9-0.6-8.9
							c-0.2-0.4,4.8,1.4,5.3,1.5c1.4,0.2,2.8,0.4,4.1,0.5c2.2-0.1,4.4-0.4,6.6-1C246.1,129.8,246.2,129,246.2,129.4L246.2,129.4z"/>
					</g>
					<g id="layer8">
						<path id="path1017-1" class="st22" d="M231.9,130.9c3.3,0.8,6.6,0.8,9.9,0l0.3,8.7c-4,1.8-7.3,0.9-10.6,0L231.9,130.9z"/>
					</g>
					<g id="layer14">
						<path id="path1160" class="st23" d="M242.4,130.8c0,0,0.5,5.6,0.4,9.4c-1.8,0.7-3.7,1.1-5.6,1.1c-2-0.1-4-0.5-6-1.1
							c-0.2-3.2-0.2-6.3-0.1-9.5l0.7,0.2c-0.3,3.4-0.2,8,0.1,8.7c1.7,0.5,3.4,0.8,5.2,0.9c1.6-0.1,3.2-0.5,4.8-0.9
							c0.1-2.9,0-5.8-0.4-8.6C241.9,131,242.2,130.9,242.4,130.8z"/>
						<path id="path1160-9" class="st24" d="M242.1,130.9c0,0,0.4,5.4,0.3,9.1c-1.7,0.7-3.5,1.1-5.3,1c-1.9-0.1-3.8-0.5-5.7-1.1
							c-0.1-2.2-0.2-6.3,0-9.2l0.1,0c-0.2,3.1,0,7.9,0,9c1.8,0.5,3.7,0.8,5.5,1c1.8,0,3.5-0.3,5.2-1c0.1-3-0.1-6-0.4-8.9
							L242.1,130.9L242.1,130.9z"/>
					</g>
				</g>
			</g>
			<path class="st25" d="M259.2,82.4c-0.5,2.5,3.3,6-0.1,8.4c-2.7,1.9-17.3,1.8-21.8,2.3s-26.6,1.9-25.5-0.7
				c1.4-3.3-2.5-9.2,1.6-9.9c1.8-0.3,22-0.4,30.4-1.2c8.4-0.8,11.4-2,12.9-1.9C258.3,79.5,259.7,80.1,259.2,82.4z"/>
			<g>
				<defs>
					<path id="SVGID_1_" d="M259.2,82.4c-0.5,2.5,3.3,6-0.1,8.4c-2.7,1.9-17.3,1.8-21.8,2.3s-26.6,1.9-25.5-0.7
						c1.4-3.3-2.5-9.2,1.6-9.9c1.8-0.3,22-0.4,30.4-1.2c8.4-0.8,11.4-2,12.9-1.9C258.3,79.5,259.7,80.1,259.2,82.4z"/>
				</defs>
				<clipPath id="SVGID_2_">
					<use xlink:href="#SVGID_1_"  style="overflow:visible;"/>
				</clipPath>
				<g class="st26">
					<path class="st27" d="M209.4,92.8c0.7-1.1,1.7-5.7,1.9-3.7c0.3,2.7,6.3,3.3,12.4,3.4c5.4,0.1,27.2-1.5,30.7-2.4
						c3.5-0.9,4.2-1.5,5-2.6c0.8-1.2,2.2-1.2,2.3,0.2c0.1,1.4-0.1,3.4-1.1,4.1c-1.1,0.7-32.7,3.7-35.4,3.7s-14.4,0.6-14.9-0.1
						C209.9,94.5,208.7,93.8,209.4,92.8z"/>
				</g>
			</g>
			<path class="st28" d="M257,80.6c-1-1-8.9-10.4-11.8-12c-2.9-1.6-10.7-5-13-3.5c-2.3,1.5-6.8,1.3-9.4,2.9
				c-2.6,1.6-9.5,12.6-10,13.2s-1.3,8.3,0.8,12.4c1.6,3.3,3,6.7,4.2,10.3c0,0,2.9-1.8,2.9-2.8c0.1-1,3.5-16.8,3.5-16.8
				s13-0.4,20.5-1.6C252.3,81.5,258,81.7,257,80.6z"/>
			<g>
				<defs>
					<path id="SVGID_3_" d="M257,80.6c-1-1-8.9-10.4-11.8-12c-2.9-1.6-10.7-5-13-3.5c-2.3,1.5-6.8,1.3-9.4,2.9
						c-2.6,1.6-9.5,12.6-10,13.2s-1.3,8.3,0.8,12.4c1.6,3.3,3,6.7,4.2,10.3c0,0,2.9-1.8,2.9-2.8c0.1-1,3.5-16.8,3.5-16.8
						s13-0.4,20.5-1.6C252.3,81.5,258,81.7,257,80.6z"/>
				</defs>
				<clipPath id="SVGID_4_">
					<use xlink:href="#SVGID_3_"  style="overflow:visible;"/>
				</clipPath>
				<g class="st29">
					<path class="st30" d="M212.4,104c1.2-0.2,4.5-0.6,5.3-2c0.8-1.4,3-13.5,4.1-16.3c1.1-2.8,1.9-3.6,1.9-3.6s2.1-9.8,2.7-8.5
						c0.6,1.3-0.5,6.8-0.3,7.6c0.4,1,1.5,1.7,2.6,1.7c1.3,0,8-0.4,11.2-0.9s4.6-0.2,6.4-0.4c1.8-0.2,1.8-1,5.2-1.1
						c1.8-0.1,3.7,0,5.5,0.5c0,0-30.6,4.5-30.6,5.8s-2.1,8.6-2,12.9c0.1,4.3-6.5,7-9.5,6S211.3,104.3,212.4,104z"/>
				</g>
			</g>
			<path class="st25" d="M218.5,99.6c2.2,0,4.1,1.5,4.1,3.3c0,1.8-1.8,3.3-4.1,3.3c-2.2,0-4.1-1.5-4.1-3.3
				C214.4,101.1,216.3,99.6,218.5,99.6z"/>
			<path class="st31" d="M251.1,76.5c-1.2-1.3-8.7-7.4-12.2-9s-7.4-1.4-9.8,0c-2.4,1.4-6.2,1.1-5.4,2.4c0.8,1.3,4.7-1.7,7.8,0.6
				c3.1,2.3,0.7,7.1,3.1,9c2.4,1.9,6.8,1,9.4,0.4s7.3,1,9.2-0.1C255,78.8,252.3,77.8,251.1,76.5z"/>
			<path class="st32" d="M248.2,122.8c1.1,0.8,2.3,1.4,3.3,2.2c1.7,1.5,3.1,3.2,4.2,5.1c0.4,0.6,0.8,1.3,1,2
				c0.2,1.1-0.2,2.2,0.2,3.3c2.6-0.2,4.4-2.2,5.9-4.1c0.2-0.2,0.3-0.4,0.3-0.6c0-0.2,0-0.4-0.1-0.5c-0.8-2.2-2.1-4.2-3.8-5.9
				c-2.5-2.6-5.7-4.4-8.9-6.2c-1-0.4-1.8-1-2.5-1.8c-0.6-0.7-0.8-1.7-1.5-2.4c-0.8-0.8-2,0.5-2.4,1.1c-0.3,0.7-0.2,1.5,0.1,2.1
				C244.9,119.4,246.3,121.3,248.2,122.8z"/>
			<path class="st0" d="M245.8,120.4c0.6-0.3,1.2-0.5,1.8-0.8c0.9-0.4,1.7-0.9,2.4-1.6c-0.9-0.4-1.6-1-2.3-1.7
				c-0.6-0.7-0.8-1.7-1.5-2.4c-0.8-0.8-2,0.5-2.4,1.1c-0.3,0.7-0.2,1.5,0.1,2.1C244.5,118.3,245.1,119.4,245.8,120.4z"/>
			<path class="st0" d="M250.3,124.2c0.4,0.3,0.8,0.5,1.2,0.8c0.5,0.4,0.9,0.8,1.3,1.2c0.6-0.3,1.2-0.6,1.8-0.9
				c1.2-0.5,2.3-1.3,3.1-2.4c-1.1-0.9-2.2-1.8-3.5-2.5c-0.6,0.7-1.2,1.5-1.9,2.1C251.8,123.1,251.1,123.7,250.3,124.2z"/>
			<path class="st0" d="M257.2,129c-0.6,0.3-1.2,0.5-1.8,0.7l0.3,0.4c0.4,0.6,0.8,1.3,1,2c0,0.1,0,0.1,0,0.2c0.7-0.3,1.5-0.7,2.2-1
				c1.3-0.5,2.5-1.3,3.6-2.2c-0.5-1.1-1.1-2.1-1.8-3c-0.3,0.3-0.5,0.5-0.7,0.7C259.2,127.7,258.2,128.4,257.2,129z"/>
			<path class="st33" d="M245.8,120.4c0.7,0.9,1.4,1.7,2.3,2.4c0.7,0.5,1.5,1,2.2,1.4c0.8-0.5,1.5-1,2.1-1.6
				c0.7-0.7,1.3-1.4,1.9-2.1c-1.3-0.8-2.6-1.6-3.9-2.3l-0.2-0.1c-0.7,0.7-1.5,1.2-2.5,1.6C247,119.9,246.4,120.1,245.8,120.4z"/>
			<path class="st33" d="M254.6,125.3c-0.6,0.3-1.2,0.6-1.8,0.9c1,1.1,1.8,2.2,2.6,3.5c0.6-0.1,1.3-0.4,1.8-0.7
				c1-0.6,1.9-1.3,2.8-2.1c0.3-0.2,0.5-0.5,0.7-0.7c-0.5-0.6-1-1.3-1.5-1.8c-0.5-0.5-1-1-1.5-1.4C256.9,124,255.9,124.8,254.6,125.3
				z"/>
			<path class="st33" d="M256.7,132.4c0.1,1-0.2,2.1,0.2,3c2.6-0.2,4.4-2.2,5.9-4.1c0.2-0.2,0.3-0.4,0.3-0.6c0-0.2,0-0.4-0.1-0.5
				c-0.1-0.3-0.3-0.7-0.5-1c-1.1,0.9-2.3,1.7-3.6,2.2C258.2,131.7,257.4,132.1,256.7,132.4z"/>
			<path class="st32" d="M247.8,117.8c1,0.2,2,0.2,2.9,0.5c1.6,0.5,3.1,1.2,4.5,2.1c0.5,0.3,1,0.6,1.3,1.1c0.5,0.7,0.7,1.5,1.3,2.1
				c1.6-0.9,2.1-2.8,2.4-4.5c0-0.2,0-0.3,0-0.5c-0.1-0.1-0.2-0.2-0.3-0.3c-1.3-1.2-2.8-2.1-4.5-2.7c-2.6-0.9-5.2-1.3-7.9-1.4
				c-0.8,0-1.5-0.1-2.2-0.4c-0.6-0.4-1.2-0.8-1.8-1.2c-0.8-0.3-1.1,0.9-1.1,1.5c0,0.5,0.4,0.9,0.8,1.4
				C244.5,116.5,246.1,117.4,247.8,117.8z"/>
			<path class="st0" d="M245.5,116.9c0.3-0.4,0.6-0.7,0.9-1.1c0.5-0.5,0.8-1.1,1-1.8c-0.7,0-1.4-0.2-2-0.4c-0.6-0.4-1.2-0.8-1.8-1.2
				c-0.8-0.3-1.1,0.9-1.1,1.5c0,0.5,0.4,0.9,0.8,1.4C243.9,115.9,244.7,116.5,245.5,116.9z"/>
			<path class="st0" d="M249.7,118c0.4,0.1,0.7,0.1,1,0.2c0.4,0.1,0.9,0.2,1.3,0.4l0.9-1.1c0.6-0.7,1-1.6,1.2-2.5
				c-1-0.3-2.1-0.5-3.1-0.6c-0.1,0.7-0.3,1.3-0.5,2C250.3,116.9,250,117.5,249.7,118z"/>
			<path class="st0" d="M255.9,119.1c-0.3,0.4-0.6,0.7-1,1l0.3,0.2c0.5,0.3,1,0.6,1.3,1.1l0.1,0.1l1.1-1.3c0.7-0.8,1.2-1.6,1.5-2.6
				c-0.7-0.6-1.4-1-2.2-1.5c-0.1,0.2-0.1,0.5-0.2,0.7C256.7,117.7,256.3,118.4,255.9,119.1z"/>
			<path class="st33" d="M245.5,116.9c0.7,0.4,1.5,0.7,2.3,0.9c0.6,0.1,1.3,0.2,1.9,0.3c0.3-0.5,0.6-1.1,0.7-1.7
				c0.2-0.7,0.4-1.3,0.5-2c-1.1-0.1-2.2-0.2-3.3-0.3h-0.2c-0.2,0.7-0.5,1.3-1,1.8C246.1,116.2,245.8,116.5,245.5,116.9z"/>
			<path class="st33" d="M252.9,117.5l-0.9,1.1c1,0.4,2,0.9,2.9,1.5c0.4-0.3,0.7-0.6,1-1c0.5-0.7,0.8-1.4,1-2.2
				c0.1-0.2,0.1-0.5,0.2-0.7c-0.5-0.3-1.1-0.5-1.6-0.7c-0.5-0.2-1-0.3-1.5-0.5C253.9,115.9,253.5,116.8,252.9,117.5z"/>
			<path class="st33" d="M256.7,121.5c0.4,0.6,0.6,1.5,1.2,2c1.6-0.9,2.1-2.8,2.4-4.5c0-0.2,0-0.3,0-0.5c-0.1-0.1-0.2-0.2-0.3-0.3
				c-0.2-0.2-0.4-0.4-0.6-0.5c-0.4,0.9-0.9,1.8-1.5,2.6L256.7,121.5z"/>
			<path class="st34" d="M231.4,117.5c3.1,1.2,6.5,2.1,9.8,1.6c3.3-0.5,6.4-2.6,7-5.7c0.2-0.7,0.1-1.5-0.2-2.2
				c-0.4-0.7-1.1-1.2-1.9-1.2c-0.8,0.1-1.5,0.5-2.1,1c-1.7,1-3.6,1.5-5.6,1.6c-2.1,0.2-4.2,0.2-6.3-0.1c-1.2-0.2-3.1-1.2-4.3-1
				c-1.5,0.2-1.1,2.2-0.6,3.2C228.1,116.2,229.9,116.9,231.4,117.5z"/>
			<path class="st0" d="M235.8,117.1c-0.5-1.4-0.5-2.9,0-4.3c-0.9,0-1.7,0-2.6-0.1c-0.2,0.3-0.3,0.6-0.4,1c-0.2,1,0.6,4,0.7,4.5v0.1
				c1.1,0.4,2.3,0.6,3.5,0.8C236.5,118.5,236.1,117.8,235.8,117.1z"/>
			<path class="st0" d="M241,118.6c0.1,0.2,0.3,0.4,0.5,0.5c1.1-0.2,2.2-0.6,3.2-1.2l-0.5-0.4c-0.6-0.5-1.2-1.1-1.7-1.7
				c-0.7-1.1-1.1-2.4-1.1-3.7c-0.9,0.2-1.9,0.4-2.8,0.5c-0.1,0.5-0.1,0.9-0.1,1.4C238.7,115.3,240.8,118.1,241,118.6z"/>
			<path class="st0" d="M230.8,112.2c-0.9-0.4-1.9-0.6-2.9-0.7c-1.5,0.2-1.1,2.2-0.6,3.2c0.7,1,1.6,1.7,2.7,2.2
				c-0.1-0.4-0.2-0.9-0.2-1.3C229.8,114.4,230.1,113.2,230.8,112.2z"/>
			<path class="st0" d="M247,116c0.6-0.7,1-1.6,1.2-2.5c0.2-0.7,0.1-1.5-0.2-2.2c-0.4-0.7-1.1-1.2-1.9-1.2c-0.8,0.1-1.5,0.5-2.1,1
				c-0.1,0.1-0.2,0.1-0.3,0.2c0,0.5,0.1,1,0.3,1.4C244.4,113.6,246.4,115.4,247,116z"/>
			<path class="st33" d="M232.8,113.7c0.1-0.3,0.2-0.7,0.4-1c-0.4,0-0.7-0.1-1.1-0.1c-0.4-0.1-0.9-0.2-1.3-0.4
				c-0.7,1-1.1,2.2-1.1,3.4c0,0.4,0.1,0.9,0.2,1.3c0.5,0.2,1,0.4,1.5,0.6c0.7,0.3,1.4,0.5,2.1,0.7v-0.1
				C233.4,117.7,232.6,114.7,232.8,113.7z"/>
			<path class="st33" d="M235.8,117.1c0.3,0.7,0.7,1.4,1.2,2c1.4,0.2,2.8,0.2,4.2,0.1l0.3-0.1c-0.2-0.1-0.4-0.3-0.5-0.5
				c-0.3-0.4-2.3-3.3-2.5-4.5c0-0.5,0-0.9,0.1-1.4h-0.2c-0.9,0.1-1.8,0.1-2.6,0.1C235.3,114.2,235.2,115.7,235.8,117.1z"/>
			<path class="st33" d="M244.3,117.5l0.5,0.4c0.9-0.5,1.6-1.1,2.3-1.9c-0.7-0.6-2.6-2.4-3-3.3c-0.2-0.5-0.3-0.9-0.3-1.4
				c-0.7,0.4-1.4,0.7-2.2,0.9c0,1.3,0.4,2.6,1.1,3.7C243.1,116.5,243.7,117,244.3,117.5z"/>
		</g>
		<g>
			<path class="st35" d="M280.4,188.5c-0.8-0.1-1.7-0.1-2.5-0.1c-1.1,0-2.1,0-2.8,0.1c0-0.7,0-1.4,0.1-2c0.3,0,0.6-0.1,0.8-0.4
				c0.2-0.3,0.4-0.7,0.4-1.1c0.1-0.7,0.1-1.5,0.1-2.2v-4.7c0.1-1.2-0.1-2.3-0.4-3.4c-0.2-0.6-0.7-1-1.3-1c-0.6,0-1.2,0.5-1.6,1.6
				c-0.5,1.5-0.7,3.1-0.6,4.6v3.2c-0.1,0.9,0,1.8,0.3,2.6c0.2,0.4,0.6,0.7,1.1,0.7c0.1,0.7,0.1,1.3,0.1,2c-0.9-0.1-1.8-0.1-2.7-0.1
				c-1.1,0-2,0-2.7,0.1c0-0.7,0-1.4,0.1-2c0.3,0,0.6-0.2,0.8-0.4c0.2-0.3,0.4-0.7,0.4-1.1c0.1-0.8,0.1-1.6,0.1-2.4v-4.8
				c0.1-1.1-0.1-2.3-0.4-3.3c-0.2-0.6-0.7-1-1.3-1c-0.5,0-0.9,0.3-1.1,0.7c-0.4,0.6-0.7,1.4-0.8,2.1c-0.2,1.1-0.3,2.3-0.3,3.4v3.3
				c0,0.7,0,1.4,0.1,2c0,0.4,0.2,0.7,0.4,1c0.2,0.2,0.5,0.3,0.8,0.4c0.1,0.7,0.2,1.3,0.1,2c-0.9-0.1-1.9-0.1-2.8-0.1
				c-0.9,0-1.8,0-2.7,0.1c0-0.7,0-1.3,0.1-2c0.5,0,0.9-0.3,1.1-0.8c0.3-0.8,0.4-1.7,0.3-2.6v-6.5c0-0.6,0-1.2-0.1-1.8
				c0-0.3-0.2-0.7-0.4-0.9c-0.3-0.2-0.7-0.4-1-0.4c0-0.6,0.1-1.2,0.2-1.8c0.6-0.1,1.2-0.2,1.8-0.5c0.5-0.2,1-0.5,1.5-0.8
				c0.4,0.2,0.5,0.8,0.5,1.8c0,0.5-0.1,1.3-0.1,2.5c0.1-0.6,0.3-1.1,0.5-1.7c0.3-0.7,0.7-1.3,1.2-1.8c0.5-0.5,1.1-0.7,1.8-0.7
				c0.7,0,1.3,0.3,1.7,0.7c0.6,0.7,1,1.5,1.1,2.3c0.1,0.4,0.2,0.8,0.2,1.1c0.2-1.2,0.8-2.4,1.7-3.3c0.4-0.5,1.1-0.7,1.7-0.7
				c1,0,1.9,0.6,2.3,1.5c0.6,1,0.8,2.6,0.8,4.8v5.5c0,0.8,0,1.6,0.1,2.4c0,0.4,0.2,0.8,0.4,1.1c0.2,0.2,0.5,0.3,0.7,0.4
				C280.3,187.1,280.4,187.8,280.4,188.5z"/>
			<path class="st35" d="M290.3,184.8c0.1,0.3,0.2,0.6,0.2,0.9c-0.4,0.9-1,1.6-1.7,2.2c-0.6,0.5-1.4,0.7-2.2,0.7
				c-1.6,0-2.8-0.8-3.6-2.5c-0.9-2.1-1.3-4.3-1.2-6.5c0-1.6,0.2-3.1,0.6-4.7c0.3-1.2,0.8-2.3,1.6-3.3c0.6-0.7,1.5-1.2,2.5-1.2
				c1.4,0,2.6,0.9,3.1,2.2c0.8,1.9,1.1,3.9,1.1,5.9c-0.1,0.5-0.2,1.1-0.4,1.6c-2.2,0-4.1,0.1-5.8,0.2c0,1.5,0.3,2.9,0.9,4.2
				c0.3,0.9,1.2,1.6,2.1,1.6c0.5,0,1-0.2,1.4-0.5c0.5-0.4,0.9-0.9,1.2-1.5C290.2,184.4,290.3,184.6,290.3,184.8z M284.9,173.9
				c-0.4,1.4-0.6,2.8-0.6,4.2h3.7c0-1.4-0.1-2.7-0.5-4c-0.3-1-0.7-1.5-1.3-1.5C285.7,172.6,285.3,173,284.9,173.9L284.9,173.9z"/>
			<path class="st35" d="M300.4,174.2c0,1-0.1,1.8,0,2.6c-0.2,0.1-0.4,0.2-0.7,0.3c-0.3,0.1-0.5,0.1-0.8,0.1c0-0.7-0.1-1.5-0.3-2.2
				c-0.2-0.4-0.4-0.6-0.7-0.6c-0.3,0-0.5,0.2-0.7,0.7c-0.3,0.6-0.5,1.2-0.7,1.9c-0.2,0.8-0.3,1.6-0.3,2.5v2.8c0,0.9,0,1.7,0.2,2.5
				c0.1,0.5,0.3,0.9,0.6,1.3c0.3,0.3,0.8,0.4,1.2,0.4c0.1,0.7,0.1,1.3,0.1,2c-0.7-0.1-1.7-0.1-3-0.1c-1.5,0-2.5,0-3.2,0.1
				c0-0.7,0-1.4,0.1-2c0.3,0,0.7-0.2,0.9-0.4c0.2-0.3,0.4-0.7,0.4-1c0.1-0.7,0.1-1.4,0.1-2.2v-6.3c0-0.6,0-1.1-0.1-1.7
				c0-0.3-0.2-0.7-0.4-0.9c-0.3-0.2-0.7-0.3-1-0.3c0-0.6,0-1.2,0.2-1.8c0.6,0,1.3-0.2,1.9-0.4c0.5-0.2,1-0.5,1.5-0.9
				c0.4,0.3,0.5,0.9,0.5,1.9c0,0.6,0,1.2-0.1,1.8c-0.1,0.6-0.1,1.2-0.2,1.9l0.2-1.1c0.1-0.4,0.2-0.7,0.3-1.1
				c0.3-0.8,0.6-1.6,1.2-2.2c0.3-0.5,0.9-0.8,1.5-0.8c0.6,0.1,1.1,0.4,1.5,0.9C300.5,172.4,300.4,173.2,300.4,174.2z"/>
			<path class="st35" d="M304.1,187.7c-0.8-0.9-1.4-1.9-1.7-3.1c-0.5-1.6-0.7-3.3-0.6-4.9c0-1.5,0.2-3,0.5-4.5
				c0.3-1.2,0.8-2.4,1.6-3.4c0.6-0.8,1.5-1.3,2.5-1.3c1.3,0,2.6,0.6,3.4,1.6c-0.1,1.3-0.2,2.8-0.2,4.6c-0.4,0.3-0.8,0.5-1.3,0.4
				c0-1.1-0.2-2.3-0.6-3.4c-0.4-0.8-0.8-1.2-1.4-1.2c-0.5,0-1.1,0.6-1.5,1.8c-0.4,1.6-0.6,3.2-0.5,4.8c0,1.7,0.2,3.4,0.8,5
				c0.5,1.4,1.3,2.1,2.2,2.1c0.5,0,0.9-0.2,1.3-0.5c0.4-0.4,0.8-0.8,1-1.4c0.3,0.4,0.5,0.9,0.5,1.5c-0.8,2-2,2.9-3.5,2.9
				C305.6,188.7,304.8,188.3,304.1,187.7z"/>
			<path class="st35" d="M311.6,186.4c0.5,0,1-0.3,1.1-0.7c0.3-0.8,0.4-1.7,0.3-2.6v-6.8c0-0.5,0-1-0.1-1.5
				c-0.1-0.3-0.2-0.6-0.5-0.8c-0.3-0.2-0.7-0.3-1-0.3c0-0.6,0-1.2,0.2-1.8c0.6,0,1.3-0.2,1.9-0.4c0.6-0.2,1.1-0.5,1.5-0.9
				c0.4,0.3,0.5,0.9,0.5,1.8v10.8c0,0.9,0,1.7,0.3,2.6c0.1,0.4,0.6,0.7,1,0.7c0.1,0.7,0.1,1.3,0.1,2c-0.9-0.1-1.8-0.1-2.7-0.1
				c-0.9,0-1.8,0-2.8,0.1C311.4,187.8,311.5,187.1,311.6,186.4z M312.9,166.2c-0.3-0.5-0.4-1.1-0.4-1.7c0-0.7,0.1-1.3,0.4-1.9
				c0.3-0.6,1-0.9,1.7-0.6c0.3,0.1,0.5,0.3,0.6,0.6c0.3,0.6,0.4,1.3,0.4,1.9c0,0.6-0.1,1.2-0.4,1.8c-0.2,0.4-0.7,0.7-1.1,0.7
				C313.6,166.9,313.1,166.6,312.9,166.2z"/>
			<path class="st35" d="M328.1,185.9c0,0.5-0.1,1.1-0.2,1.6c-0.5,0.1-1,0.2-1.4,0.4c-0.5,0.2-0.9,0.5-1.3,0.8
				c-0.2-0.2-0.4-0.4-0.4-0.7c-0.1-0.5-0.2-1-0.2-1.5c0-0.4,0-0.8,0.1-1.3c-0.1,0.7-0.4,1.4-0.8,2.1c-0.5,0.8-1.4,1.4-2.4,1.3
				c-0.9,0-1.7-0.4-2.1-1.1c-0.5-0.9-0.8-2-0.7-3.1c0-2.2,0.6-3.7,1.7-4.6c1.2-0.9,2.6-1.6,4.1-2c0-1.3,0-2.3-0.1-2.9
				c0-0.5-0.2-1-0.4-1.5c-0.3-0.7-0.7-1-1.3-1c-0.6,0-1,0.4-1.3,1.3c-0.3,1-0.5,2-0.5,3c-0.5,0-1-0.1-1.5-0.3c0-0.6,0-1.1,0-1.5
				c0-1,0-2-0.1-2.9c0.6-0.5,1.2-0.9,1.9-1.2c0.6-0.3,1.3-0.4,2-0.4c1.1,0,2.2,0.6,2.7,1.6c0.4,0.8,0.6,1.6,0.7,2.4
				c0.2,1.4,0.2,2.7,0.2,4.1v3.7c0,0.6,0,1.2,0.1,1.8c0,0.3,0.2,0.6,0.4,0.9c0.2,0.2,0.5,0.3,0.8,0.3L328.1,185.9z M324.3,179.7
				c-0.9,0.2-1.7,0.6-2.3,1.2c-0.6,0.7-0.9,1.7-0.8,2.7c0,0.6,0.1,1.2,0.3,1.8c0.1,0.3,0.4,0.6,0.8,0.6c0.4,0,0.7-0.2,0.9-0.6
				c0.4-0.5,0.6-1.1,0.7-1.7c0.2-0.9,0.3-1.8,0.3-2.8L324.3,179.7z"/>
			<path class="st35" d="M329.6,186.4c0.5,0,1-0.3,1.2-0.7c0.3-0.8,0.4-1.7,0.3-2.6v-16.5c0-0.7-0.1-1.3-0.3-2
				c-0.3-0.4-0.8-0.7-1.3-0.6c0-0.6,0-1.2,0.2-1.8c0.6,0,1.3-0.2,1.9-0.4c0.6-0.2,1.1-0.5,1.5-0.9c0.4,0.2,0.5,0.9,0.5,1.8v20.4
				c0,0.9,0,1.7,0.3,2.6c0.1,0.4,0.5,0.7,1,0.7c0.1,0.7,0.1,1.3,0.1,2c-0.9-0.1-1.8-0.1-2.7-0.1c-0.9,0-1.8,0-2.8,0.1
				C329.4,187.8,329.5,187.1,329.6,186.4z"/>
			<path class="st35" d="M345,184.8c0.1,0.3,0.2,0.6,0.2,0.9c-0.4,0.9-1,1.6-1.7,2.2c-0.6,0.5-1.4,0.7-2.2,0.7
				c-1.6,0-2.8-0.8-3.6-2.5c-0.9-2.1-1.3-4.3-1.2-6.5c0-1.6,0.2-3.1,0.6-4.7c0.3-1.2,0.9-2.3,1.6-3.3c0.6-0.7,1.5-1.2,2.5-1.2
				c1.4,0,2.6,0.9,3.1,2.2c0.8,1.9,1.1,3.9,1.1,5.9c-0.1,0.5-0.2,1.1-0.4,1.6c-2.2,0-4.1,0.1-5.8,0.2c0,1.5,0.3,2.9,0.9,4.2
				c0.3,0.9,1.2,1.6,2.1,1.6c0.5,0,1-0.2,1.4-0.5c0.5-0.4,0.9-0.9,1.2-1.5C344.8,184.4,344.9,184.6,345,184.8z M339.6,173.9
				c-0.4,1.3-0.6,2.8-0.6,4.2h3.7c0-1.4-0.1-2.7-0.5-4c-0.3-1-0.7-1.5-1.3-1.5C340.4,172.6,339.9,173,339.6,173.9L339.6,173.9z"/>
			<path class="st35" d="M352.7,176.3c0-1-0.3-1.9-0.7-2.8c-0.2-0.7-0.8-1.1-1.5-1.1c-0.4,0-0.7,0.2-0.9,0.5
				c-0.2,0.4-0.4,0.9-0.3,1.4c0,0.4,0,0.7,0.2,1.1c0.2,0.4,0.4,0.7,0.7,1c0.5,0.5,1,0.9,1.6,1.3c0.7,0.5,1.3,1,1.8,1.6
				c0.4,0.5,0.7,1.1,0.9,1.7c0.2,0.7,0.3,1.5,0.3,2.3c0.1,1.4-0.3,2.8-1.2,3.9c-0.7,0.9-1.8,1.5-3,1.5c-1.4,0.1-2.7-0.4-3.7-1.4
				c0-0.7,0.1-1.6,0.1-2.6c0-0.7,0-1.4,0-2.1c0.4-0.4,0.9-0.6,1.4-0.5c0,1.2,0.3,2.3,0.7,3.4c0.3,0.7,0.9,1.1,1.6,1.1
				c0.5,0,0.9-0.2,1.2-0.6c0.3-0.5,0.5-1,0.4-1.5c0-0.6-0.1-1.1-0.4-1.6c-0.5-0.6-1.1-1.2-1.7-1.6c-0.6-0.4-1.2-0.9-1.8-1.5
				c-0.4-0.5-0.8-1.1-1-1.7c-0.2-0.8-0.3-1.7-0.3-2.6c0-0.9,0.2-1.8,0.5-2.7c0.3-0.7,0.8-1.2,1.4-1.6c0.5-0.4,1.2-0.5,1.8-0.6
				c0.6,0,1.2,0.1,1.8,0.3c0.5,0.2,1,0.5,1.5,1c0,0.3,0,0.8,0,1.5c0,0.9,0,1.8,0.1,2.5C353.7,176.2,353.2,176.4,352.7,176.3z"/>
			<path class="st35" d="M363.2,188.1c-0.8-0.5-1.6-1.1-2.2-1.8c0.1-1.5,0.2-3.4,0.2-5.7c0.5-0.2,1-0.3,1.5-0.3
				c0,1.6,0.2,3.2,0.8,4.7c0.3,0.9,1.2,1.5,2.2,1.5c0.8,0,1.5-0.3,1.9-1c0.4-0.8,0.7-1.7,0.6-2.6c0-0.8-0.1-1.5-0.4-2.2
				c-0.2-0.6-0.6-1.1-1-1.5c-0.5-0.5-1-1-1.6-1.5c-0.8-0.6-1.5-1.3-2.1-2c-0.6-0.7-1.1-1.6-1.4-2.5c-0.4-1.3-0.6-2.6-0.6-3.9
				c-0.1-1.8,0.3-3.7,1.2-5.3c0.7-1.2,1.9-1.9,3.3-1.9c0.7,0,1.5,0.2,2.1,0.5c0.6,0.3,1.2,0.7,1.7,1.2c0,2.4,0,4.2,0.1,5.2
				c-0.4,0.4-1,0.5-1.5,0.5c-0.1-1.4-0.4-2.9-0.9-4.2c-0.3-0.7-0.9-1.1-1.6-1.1c-0.7,0-1.3,0.3-1.6,0.9c-0.4,0.7-0.6,1.6-0.6,2.5
				c0,0.8,0.1,1.6,0.4,2.3c0.2,0.6,0.6,1.1,1,1.6c0.5,0.6,1.1,1.1,1.7,1.6c0.7,0.6,1.4,1.3,2.1,2c0.6,0.7,1.1,1.5,1.4,2.4
				c0.4,1.2,0.6,2.4,0.6,3.7c0,1.3-0.2,2.6-0.6,3.8c-0.3,1-0.9,2-1.7,2.7c-0.8,0.7-1.8,1-2.8,1C364.7,188.7,363.9,188.5,363.2,188.1
				z"/>
			<path class="st35" d="M373.1,187.9c-0.6-1.4-0.6-2.9,0.1-4.3c0.2-0.5,0.7-0.8,1.3-0.8c0.5,0,1,0.4,1.2,0.9
				c0.3,0.6,0.5,1.3,0.5,1.9c0,0.8-0.1,1.6-0.5,2.2c-0.2,0.5-0.7,0.8-1.2,0.8C373.8,188.7,373.3,188.4,373.1,187.9z"/>
			<path class="st35" d="M391.6,188.5c-0.9-0.1-1.8-0.1-2.7-0.1c-0.9,0-1.9,0-2.8,0.1c0-0.7,0-1.4,0.2-2c0.3,0,0.6-0.2,0.8-0.4
				c0.2-0.2,0.3-0.5,0.2-0.8c0-0.6-0.1-1.2-0.3-1.8l-0.7-3c-2.2,0-4,0.1-5.4,0.2l-0.4,2c-0.2,0.7-0.3,1.4-0.3,2.1
				c0,0.4,0.1,0.8,0.2,1.2c0.2,0.3,0.5,0.4,0.8,0.5c0.1,0.7,0.2,1.3,0.2,2c-0.7-0.1-1.5-0.1-2.2-0.1c-0.4,0-1,0-1.8,0.1
				c0-0.7,0-1.3,0.2-2c0.4-0.2,0.7-0.5,0.9-1c0.3-1,0.6-2,0.8-3.1l4.4-19.9c0.3-0.1,0.7-0.2,1-0.2l5,20.2c0.3,1.1,0.5,1.9,0.7,2.4
				c0.1,0.4,0.3,0.8,0.5,1.1c0.1,0.2,0.3,0.3,0.6,0.4C391.6,187.1,391.6,187.8,391.6,188.5z M385.9,178.6l-1.4-5.8
				c-0.4-1.5-0.7-3-1-4.5c-0.3,1.5-0.5,3-0.9,4.5l-1.2,5.8H385.9z"/>
			<path class="st35" d="M393.6,187.9c-0.6-1.4-0.6-2.9,0.1-4.3c0.2-0.5,0.7-0.8,1.3-0.8c0.5,0,1,0.4,1.2,0.9
				c0.3,0.6,0.5,1.3,0.5,1.9c0,0.8-0.1,1.6-0.5,2.2c-0.2,0.5-0.7,0.8-1.2,0.8C394.4,188.7,393.9,188.4,393.6,187.9z"/>
			<path class="st35" d="M401.1,188.1c-0.8-0.5-1.6-1.1-2.2-1.8c0.1-1.5,0.2-3.4,0.2-5.7c0.5-0.2,1-0.3,1.5-0.3
				c0,1.6,0.2,3.2,0.8,4.7c0.3,0.9,1.2,1.5,2.2,1.5c0.8,0,1.5-0.3,1.9-1c0.4-0.8,0.7-1.7,0.6-2.6c0-0.8-0.1-1.5-0.4-2.2
				c-0.2-0.6-0.6-1.1-1-1.5c-0.5-0.5-1-1-1.6-1.5c-0.8-0.6-1.5-1.3-2.1-2c-0.6-0.7-1.1-1.6-1.4-2.5c-0.4-1.3-0.6-2.6-0.6-3.9
				c-0.1-1.8,0.3-3.7,1.2-5.3c0.7-1.2,1.9-1.9,3.3-1.9c0.7,0,1.5,0.2,2.1,0.5c0.6,0.3,1.2,0.7,1.7,1.2c0,2.4,0,4.2,0.1,5.2
				c-0.4,0.4-1,0.5-1.6,0.5c-0.1-1.4-0.4-2.9-0.9-4.2c-0.3-0.7-0.9-1.1-1.6-1.1c-0.7,0-1.3,0.3-1.6,0.9c-0.4,0.8-0.6,1.6-0.6,2.5
				c0,0.8,0.1,1.6,0.4,2.3c0.2,0.6,0.6,1.1,1,1.6c0.5,0.5,1.1,1.1,1.7,1.6c0.7,0.6,1.4,1.3,2.1,2c0.6,0.7,1.1,1.5,1.4,2.4
				c0.4,1.2,0.6,2.4,0.6,3.7c0,1.3-0.2,2.6-0.6,3.8c-0.3,1-0.9,2-1.7,2.7c-0.8,0.7-1.8,1-2.8,1C402.6,188.7,401.8,188.5,401.1,188.1
				z"/>
		</g>
		<g id="text1225">
			<path id="path2041" class="st36" d="M76.7,189c-1.2,0-2.3-0.2-3.3-0.7c-1.1-0.6-2.2-1.3-3.1-2.1c0.2-2.2,0.3-4.5,0.3-6.7
				c0.7-0.3,1.4-0.4,2.2-0.4c0.1,2.5,0.5,4.4,1.1,5.5c0.6,1.1,1.8,1.8,3.1,1.7c1,0.1,2-0.4,2.7-1.2c0.6-0.9,0.9-2,0.9-3
				c0-0.9-0.2-1.8-0.6-2.6c-0.3-0.7-0.8-1.3-1.4-1.8c-0.7-0.6-1.4-1.2-2.2-1.7c-1.1-0.7-2.1-1.5-3-2.3c-0.8-0.8-1.5-1.8-2-2.9
				c-0.6-1.5-0.8-3-0.8-4.6c0-2.6,0.6-4.7,1.8-6.2c1.1-1.4,2.8-2.3,4.7-2.2c1,0,2.1,0.2,3,0.6c0.9,0.3,1.7,0.8,2.4,1.4
				c0,2.9,0.1,4.9,0.2,6.1c-0.7,0.4-1.4,0.6-2.2,0.6c-0.3-2.4-0.7-4-1.2-4.9c-0.4-0.8-1.3-1.4-2.3-1.3c-0.9,0-1.7,0.3-2.3,1
				c-0.6,0.9-0.9,1.9-0.8,2.9c0,0.9,0.2,1.8,0.6,2.7c0.4,0.7,0.9,1.3,1.5,1.9c0.6,0.5,1.4,1.1,2.4,1.8c1,0.7,2,1.5,3,2.4
				c0.8,0.8,1.5,1.8,1.9,2.9c0.6,1.4,0.9,2.8,0.8,4.3c0,1.5-0.3,3-0.8,4.5c-0.5,1.3-1.3,2.3-2.4,3.1C79.6,188.7,78.2,189.1,76.7,189
				L76.7,189z"/>
			<path id="path2043" class="st36" d="M92.4,189.2c-1.8,0-3.6-0.9-4.6-2.4c-1.1-1.6-1.6-3.8-1.6-6.6c0-1.6,0.2-3.3,0.8-4.8
				c0.4-1.3,1.2-2.4,2.2-3.2c0.9-0.8,2.1-1.2,3.3-1.2c1.9-0.1,3.6,0.9,4.6,2.5c1.1,1.6,1.6,3.8,1.6,6.5c0,1.6-0.2,3.2-0.8,4.8
				c-0.4,1.3-1.2,2.4-2.2,3.2C94.8,188.8,93.6,189.2,92.4,189.2z M92.7,187.1c0.9,0,1.6-0.6,2-1.7c0.5-1.5,0.8-3.1,0.7-4.6
				c0-1.4-0.1-2.7-0.4-4.1c-0.2-1-0.6-1.9-1.2-2.6c-0.4-0.6-1-0.9-1.6-0.9c-0.9,0-1.5,0.6-2,1.7c-0.5,1.4-0.7,2.9-0.7,4.4
				c-0.1,2,0.2,3.9,0.9,5.8C90.9,186.3,91.7,187,92.7,187.1L92.7,187.1z"/>
			<path id="path2045" class="st36" d="M100.3,188.9c0-0.7,0-1.4,0.2-2c0.6,0,1.1-0.2,1.4-0.7c0.3-0.8,0.4-1.7,0.4-2.6v-16.5
				c0.1-0.7-0.1-1.4-0.4-1.9c-0.4-0.5-1-0.7-1.6-0.7c0-0.6,0.1-1.2,0.3-1.8c0.8,0,1.5-0.2,2.3-0.4c0.7-0.2,1.3-0.5,1.8-0.9
				c0.4,0.2,0.7,0.9,0.7,1.8v20.4c-0.1,0.9,0.1,1.8,0.3,2.6c0.3,0.5,0.7,0.7,1.3,0.7c0.1,0.7,0.2,1.3,0.2,2c-0.8-0.1-2-0.1-3.4-0.1
				C102.3,188.8,101.1,188.9,100.3,188.9L100.3,188.9z"/>
			<path id="path2047" class="st36" d="M122.5,185.9c0.1,0.7,0,1.4-0.2,2.1c-0.6,0.1-1.2,0.2-1.8,0.4c-0.6,0.2-1.2,0.5-1.7,0.8
				c-0.3-0.1-0.5-0.4-0.6-0.7c-0.2-0.5-0.2-1-0.2-1.6c0-0.5,0-1.1,0.1-1.6c-0.2,0.7-0.5,1.3-0.9,1.8c-0.4,0.6-0.9,1.1-1.5,1.4
				c-0.6,0.3-1.3,0.5-1.9,0.5c-1.2,0.1-2.3-0.5-2.9-1.6c-0.6-1.1-0.9-2.9-0.9-5.3V177c0-0.6,0-1.1-0.1-1.7c0-0.3-0.2-0.7-0.5-0.9
				c-0.3-0.2-0.7-0.4-1.1-0.3c0-0.6,0-1.2,0.2-1.8c0.7,0,1.5-0.2,2.2-0.4c0.6-0.2,1.2-0.5,1.8-0.9c0.4,0.3,0.7,0.9,0.7,1.9v8.3
				c-0.1,1.3,0.1,2.6,0.4,3.8c0.2,0.7,0.8,1.2,1.5,1.2c0.8,0,1.5-0.5,2-1.6c0.6-1.5,0.9-3.1,0.8-4.7v-3.1c0-0.6,0-1.1-0.2-1.6
				c-0.1-0.4-0.3-0.7-0.5-0.9c-0.4-0.2-0.8-0.4-1.2-0.3c0-0.4,0-0.8,0-1c0-0.3,0.1-0.5,0.2-0.7c0.8,0,1.6-0.1,2.4-0.3
				c0.6-0.2,1.2-0.4,1.8-0.8c0.4,0.3,0.7,0.9,0.7,1.9V183c-0.1,0.8,0,1.5,0.3,2.2C121.5,185.7,122,185.9,122.5,185.9L122.5,185.9z"
				/>
			<path id="path2049" class="st36" d="M130.2,189.2c-1.1,0-2.1-0.4-2.9-1c-1-0.8-1.7-1.9-2.2-3.1c-0.6-1.6-0.8-3.3-0.8-5
				c0-1.5,0.2-3,0.7-4.5c0.4-1.3,1-2.5,2-3.4c0.8-0.8,2-1.3,3.1-1.3c1.6-0.1,3.1,0.5,4.2,1.6c-0.2,1.5-0.2,3-0.2,4.5
				c-0.5,0.3-1.1,0.5-1.6,0.4c0-1.2-0.2-2.3-0.7-3.4c-0.3-0.7-0.9-1.1-1.7-1.2c-0.8,0-1.4,0.6-1.9,1.8c-0.5,1.5-0.7,3.2-0.7,4.8
				c0,1.7,0.3,3.4,1,4.9c0.6,1.4,1.5,2.1,2.7,2.1c0.6,0,1.1-0.2,1.6-0.5c0.5-0.4,0.9-0.8,1.2-1.3c0.4,0.4,0.6,0.9,0.7,1.5
				C133.6,188.2,132.2,189.2,130.2,189.2L130.2,189.2z"/>
			<path id="path2051" class="st36" d="M139.5,167.4c-0.5,0-1-0.3-1.3-0.7c-0.4-0.5-0.5-1.1-0.5-1.8c0-0.7,0.2-1.4,0.5-1.9
				c0.3-0.5,0.8-0.7,1.4-0.7c0.5,0,1.1,0.2,1.4,0.7c0.4,0.6,0.6,1.2,0.5,1.9c0,0.6-0.2,1.3-0.5,1.8
				C140.6,167.1,140.1,167.4,139.5,167.4z M136.3,188.9c0-0.7,0-1.4,0.2-2c0.6,0,1.1-0.2,1.4-0.7c0.3-0.8,0.4-1.7,0.4-2.6v-6.8
				c0-0.5,0-1-0.2-1.5c-0.1-0.3-0.3-0.6-0.5-0.8c-0.4-0.2-0.8-0.4-1.3-0.3c0-0.6,0.1-1.2,0.3-1.8c0.8,0,1.5-0.2,2.3-0.4
				c0.7-0.2,1.3-0.5,1.8-0.9c0.4,0.3,0.7,0.9,0.7,1.8v10.8c-0.1,0.9,0.1,1.8,0.3,2.6c0.3,0.5,0.7,0.7,1.3,0.7c0.1,0.7,0.2,1.3,0.2,2
				c-0.8-0.1-2-0.1-3.4-0.1C138.3,188.8,137.1,188.8,136.3,188.9z"/>
			<path id="path2054" class="st36" d="M151,189.2c-1.8,0-3.6-0.9-4.6-2.4c-1.1-1.6-1.7-3.8-1.7-6.6c0-1.6,0.2-3.3,0.8-4.8
				c0.4-1.3,1.2-2.4,2.2-3.2c0.9-0.8,2.1-1.2,3.3-1.2c1.9-0.1,3.6,0.9,4.6,2.5c1.1,1.6,1.6,3.8,1.6,6.5c0,1.6-0.2,3.2-0.8,4.8
				c-0.4,1.3-1.2,2.4-2.2,3.2C153.4,188.8,152.2,189.2,151,189.2L151,189.2z M151.3,187.1c0.9,0,1.6-0.6,2.1-1.7
				c0.5-1.5,0.8-3.1,0.7-4.6c0-1.4-0.1-2.7-0.4-4.1c-0.2-1-0.6-1.9-1.2-2.6c-0.4-0.5-1-0.9-1.6-0.9c-0.9,0-1.6,0.6-2,1.7
				c-0.5,1.4-0.7,2.9-0.7,4.4c-0.1,2,0.2,3.9,0.9,5.7C149.5,186.3,150.3,187,151.3,187.1L151.3,187.1z"/>
			<path id="path2056" class="st36" d="M173.7,186.9c0.1,0.7,0.2,1.3,0.2,2c-0.8-0.1-1.8-0.1-3.1-0.1c-0.7,0-1.8,0-3.4,0.1
				c0-0.7,0-1.4,0.2-2c0.5,0,1-0.3,1.3-0.7c0.3-0.9,0.5-1.8,0.4-2.7v-4.9c0.1-1.2-0.1-2.3-0.6-3.4c-0.4-0.9-1.4-1.3-2.3-0.9
				c-0.3,0.1-0.5,0.3-0.7,0.5c-0.5,0.6-0.8,1.3-1,2.1c-0.3,1.1-0.4,2.3-0.4,3.4v3.2c-0.1,0.9,0.1,1.8,0.4,2.6
				c0.3,0.5,0.8,0.7,1.3,0.7c0.1,0.7,0.2,1.3,0.2,2c-1.5-0.1-2.6-0.1-3.4-0.1c-1.6,0-2.7,0-3.5,0.1c0-0.7,0-1.4,0.2-2
				c0.6,0.1,1.1-0.2,1.4-0.7c0.3-0.8,0.5-1.7,0.4-2.6V177c0-0.6,0-1.1-0.1-1.6c-0.1-0.4-0.3-0.7-0.5-0.9c-0.4-0.2-0.8-0.4-1.3-0.3
				c0-0.6,0.1-1.2,0.3-1.8c0.8,0,1.5-0.2,2.3-0.4c0.6-0.2,1.3-0.5,1.8-0.9c0.4,0.3,0.7,0.9,0.7,1.9c0,0.8-0.1,1.5-0.2,2.3
				c0-0.1,0.1-0.3,0.2-0.5c0.1-0.3,0.2-0.6,0.4-0.9c0.4-0.7,0.9-1.3,1.5-1.8c0.6-0.5,1.4-0.8,2.2-0.8c1.1,0,2.2,0.6,2.9,1.5
				c0.7,1,1.1,2.6,1.1,4.7v6.2c-0.1,0.9,0.1,1.8,0.3,2.6C172.7,186.7,173.2,187,173.7,186.9L173.7,186.9z"/>
			<path id="path2058" class="st36" d="M185.8,184.7c0.2,0.2,0.3,0.4,0.4,0.7c0.1,0.3,0.2,0.6,0.2,0.9c-0.5,0.9-1.3,1.7-2.2,2.3
				c-0.8,0.5-1.8,0.7-2.8,0.7c-1.8,0.1-3.6-0.9-4.5-2.5c-1.1-2-1.6-4.3-1.5-6.5c0-1.6,0.2-3.2,0.7-4.7c0.4-1.2,1.1-2.4,2-3.2
				c0.8-0.8,1.9-1.2,3-1.2c1.6-0.1,3.1,0.8,3.8,2.2c0.9,1.8,1.4,3.8,1.4,5.9c-0.1,0.6-0.3,1.1-0.5,1.6c-2.7,0-5.1,0.1-7.2,0.2
				c0,1.5,0.4,2.9,1,4.2c0.5,1,1.5,1.6,2.7,1.6c0.6,0,1.2-0.2,1.8-0.5C184.9,185.8,185.4,185.3,185.8,184.7L185.8,184.7z
				 M181.2,173.1c-0.7,0-1.2,0.4-1.7,1.3c-0.5,1.3-0.8,2.7-0.7,4.2h4.6c0.1-1.4-0.1-2.7-0.6-4C182.4,173.6,181.8,173.1,181.2,173.1z
				"/>
			<path id="path2060" class="st36" d="M197.4,176.3c-0.5,0.4-1.1,0.6-1.7,0.6c0-1-0.3-1.9-0.8-2.7c-0.4-0.7-1.1-1.1-1.9-1.2
				c-0.4,0-0.9,0.2-1.1,0.5c-0.3,0.4-0.4,0.9-0.4,1.3c0,0.4,0.1,0.8,0.2,1.1c0.2,0.4,0.5,0.7,0.8,1c0.6,0.5,1.3,0.9,2,1.3
				c0.8,0.4,1.6,1,2.3,1.6c0.5,0.5,0.9,1,1.2,1.7c0.3,0.7,0.4,1.5,0.4,2.3c0.1,1.5-0.5,2.9-1.5,4c-1,1-2.3,1.5-3.7,1.5
				c-0.9,0-1.7-0.1-2.5-0.3c-0.7-0.2-1.4-0.6-2-1c0.1-0.7,0.1-1.6,0.1-2.6c0-0.7,0-1.4-0.1-2.1c0.5-0.4,1.1-0.6,1.7-0.5
				c0,1.2,0.4,2.3,0.9,3.4c0.4,0.7,1.2,1.1,2,1.2c0.6,0,1.1-0.2,1.5-0.6c0.4-0.4,0.6-1,0.6-1.6c0-0.6-0.2-1.2-0.5-1.6
				c-0.6-0.6-1.4-1.2-2.2-1.6c-0.8-0.4-1.6-0.9-2.3-1.5c-0.5-0.5-0.9-1.1-1.2-1.7c-0.3-0.8-0.4-1.7-0.4-2.6c0-0.9,0.2-1.8,0.7-2.6
				c0.4-0.7,1-1.3,1.7-1.6c0.7-0.4,1.5-0.6,2.2-0.6c0.7,0,1.5,0.1,2.2,0.3c0.7,0.2,1.3,0.5,1.8,1c0,0.3,0,0.8,0,1.5
				C197.3,174.6,197.3,175.4,197.4,176.3L197.4,176.3z"/>
		</g>
		<g id="text1237">
			<g>
				<path class="st37" d="M240.3,187.7c-2.2-2.1-3.3-5-3.3-8.6c0-2.2,0.5-4.3,1.6-6.3c1-1.8,2.6-3.2,4.4-4.2c2-1,4.1-1.5,6.3-1.5
					c3.9,0,6.9,1.1,9,3.2s3.2,5,3.2,8.5c0,2.2-0.5,4.3-1.5,6.2c-1,1.8-2.5,3.2-4.3,4.2c-2,1.1-4.2,1.6-6.5,1.5
					C245.4,190.9,242.5,189.9,240.3,187.7z M253.8,185.9c1-1.8,1.5-3.9,1.4-6c0-1.8-0.3-3.6-0.9-5.3c-0.5-1.3-1.3-2.5-2.3-3.4
					c-0.9-0.8-2-1.2-3.2-1.2c-1.6-0.1-3.1,0.8-3.9,2.2c-1,1.8-1.4,3.8-1.3,5.8c0,3.2,0.6,5.6,1.7,7.5c0.9,1.7,2.7,2.8,4.6,2.7
					C251.4,188.2,253,187.3,253.8,185.9z"/>
			</g>
		</g>
		<path class="st35" d="M229.9,197.6c-3.3-2-5.9-4.8-7.7-8.2c-2-3.9-3.2-8.2-3.4-12.6c-0.4-5.1,0.3-9.6,1.9-13.3
			c2.9-6.9,9.5-11.6,17-12.1c2.3-0.2,4.7,0,6.9,0.4c2.4,0.5,4.6,1.3,6.8,2.3c-0.3,3.6-0.2,7.3,0.1,10.9c-1.2,0.6-2.6,1-4,1
			c-0.4-4.3-1.3-7.3-2.9-8.9s-3.6-2.3-6.3-2.1c-4.4,0.3-7.5,2.3-9.3,6c-1.9,3.7-2.6,8.2-2.2,13.4c0.2,3.8,1.1,7.5,2.5,10.9
			c1.2,2.9,3.1,5.4,5.6,7.3c2.3,1.7,5.2,2.5,8.1,2.3c1.9-0.1,3.7-0.6,5.4-1.4c1.9-0.8,3.6-1.9,5.2-3.2c0.4,0.3,0.7,0.7,0.9,1.1
			c0.3,0.4,0.5,0.9,0.6,1.4c-1.9,2.1-4.1,3.8-6.6,5.1c-2.5,1.2-5.2,1.9-8,2.1C236.7,200.3,233.1,199.5,229.9,197.6z"/>
		<path class="st36" d="M64,192.3v1.8h159.5c-0.5-0.6-0.9-1.2-1.3-1.8H64z"/>
		<path class="st36" d="M414.8,192.3H256.5c0,0.1,0.1,0.2,0.1,0.3l0.2,0.9l-0.6,0.7c0,0,0,0-0.1,0.1h158.6V192.3z"/>
	</g>
</g>
</svg>
