<?xml version="1.0" encoding="utf-8"?>
<!-- Generator: Adobe Illustrator 23.0.0, SVG Export Plug-In . SVG Version: 6.00 Build 0)  -->
<svg version="1.1" id="Capa_1" xmlns="http://www.w3.org/2000/svg" xmlns:xlink="http://www.w3.org/1999/xlink" x="0px" y="0px"
	 viewBox="0 0 48.14 46.02" style="enable-background:new 0 0 48.14 46.02;" xml:space="preserve">
<g>
	<path d="M17.47,40.9c1.62,1.66,1.74,3.29,0.38,4.45c-1.27,1.08-2.96,0.79-3.89-0.44c-0.45-0.59-0.64-1.28-0.51-2.01
		c0.21-1.16,0.96-1.87,2.04-2.24c-0.03-0.08-0.04-0.12-0.06-0.13c-0.14-0.08-0.28-0.15-0.43-0.23c-1.04-0.57-1.84-1.38-2.08-2.56
		c-0.37-1.78,0.38-3.21,1.71-4.34c1.07-0.91,2.2-1.77,3.31-2.63c0.25-0.19,0.3-0.35,0.18-0.65c-0.38-0.91-0.73-1.83-1.09-2.75
		c-1.5-3.86-3-7.73-4.51-11.58C11,11.92,9.48,8.07,7.98,4.2C7.83,3.81,7.63,3.65,7.24,3.58c-2.01-0.32-4.02-0.66-6.03-1
		c-0.72-0.12-1.29-0.82-1.2-1.43c0.13-0.79,0.82-1.27,1.63-1.13c2.34,0.4,4.69,0.81,7.03,1.19c0.71,0.11,1.12,0.48,1.37,1.14
		c1.03,2.69,2.08,5.37,3.12,8.06c0.14,0.36,0.34,0.51,0.75,0.52c3.34,0.07,6.67,0.17,10.01,0.26c3.29,0.08,6.58,0.15,9.87,0.22
		c3.43,0.07,6.87,0.14,10.31,0.21c0.89,0.02,1.78,0.05,2.67,0.09c0.81,0.04,1.45,0.69,1.37,1.4c-0.09,0.8-0.18,1.61-0.28,2.41
		c-0.25,2.04-0.51,4.08-0.76,6.11c-0.28,2.26-0.56,4.53-0.85,6.79c-0.09,0.67-0.46,1.05-1.14,1.12c-1.74,0.17-3.48,0.32-5.22,0.47
		c-2.86,0.24-5.71,0.46-8.57,0.68c-3.21,0.25-6.42,0.48-9.63,0.73c-0.22,0.02-0.47,0.07-0.63,0.2c-1.6,1.24-3.21,2.47-4.77,3.76
		c-0.38,0.32-0.65,0.84-0.83,1.33c-0.22,0.61,0.11,1.18,0.67,1.37c0.3,0.1,0.63,0.17,0.95,0.17c4.86,0.03,9.73,0.04,14.59,0.06
		c4.7,0.01,9.4,0.02,14.1,0.04c0.85,0,1.42,0.5,1.43,1.24c0.01,0.77-0.56,1.3-1.43,1.32c-0.42,0.01-0.84,0-1.26,0
		c-0.21,0-0.42,0.03-0.77,0.05c0.75,0.62,1.2,1.25,1.28,2.09c0.07,0.84-0.17,1.58-0.78,2.16c-1.06,1-2.41,1.08-3.57,0.19
		c-0.54-0.42-0.88-0.99-0.97-1.68c-0.16-1.13,0.33-2,1.13-2.82C33.05,40.9,25.28,40.9,17.47,40.9z M19.74,17.51
		c-0.01,0.31,0.11,0.43,0.43,0.43c1.31-0.01,2.62-0.01,3.93,0c0.33,0,0.41-0.14,0.41-0.44c-0.01-1.33-0.01-2.65,0-3.98
		c0-0.31-0.1-0.43-0.42-0.43c-1.28-0.02-2.56-0.05-3.83-0.1c-0.42-0.02-0.53,0.15-0.52,0.53c0.02,0.65,0.01,1.29,0.01,1.94
		C19.75,16.15,19.75,16.83,19.74,17.51z M29.61,17.95c0.37,0.01,0.52-0.11,0.52-0.5c-0.02-1.25-0.01-2.49,0-3.74
		c0-0.33-0.13-0.47-0.45-0.48c-1.31-0.03-2.62-0.07-3.93-0.11c-0.32-0.01-0.43,0.13-0.43,0.44c0.01,1.31,0.01,2.62,0,3.94
		c0,0.33,0.12,0.47,0.46,0.46c0.65-0.02,1.3,0,1.94,0C28.35,17.94,28.98,17.93,29.61,17.95z M35.29,17.95
		c0.31,0.01,0.45-0.12,0.45-0.42c0-1.25,0-2.49,0-3.74c0-0.28-0.12-0.4-0.41-0.41c-1.34-0.02-2.69-0.05-4.03-0.08
		c-0.29-0.01-0.36,0.13-0.35,0.39c0.01,1.28,0.01,2.56,0,3.84c0,0.36,0.15,0.44,0.47,0.43c0.65-0.01,1.29,0,1.94,0
		C33.99,17.94,34.64,17.93,35.29,17.95z M24.51,24.5c0.01-0.33-0.09-0.47-0.43-0.47c-1.3,0.01-2.59,0.01-3.89,0
		c-0.34,0-0.45,0.14-0.44,0.47c0.02,0.68-0.1,1.38,0.03,2.04c0.16,0.8,0.51,1.56,0.8,2.33c0.03,0.08,0.21,0.15,0.32,0.14
		c1.1-0.08,2.19-0.19,3.29-0.28c0.29-0.02,0.32-0.2,0.32-0.44c-0.01-0.65,0-1.3,0-1.95C24.5,25.73,24.49,25.11,24.51,24.5z
		 M36.96,18.74c-0.34-0.01-0.46,0.14-0.46,0.46c0.01,1.2,0.01,2.39,0,3.59c0,0.33,0.13,0.47,0.46,0.47c1.31-0.01,2.62-0.01,3.93,0
		c0.31,0,0.43-0.14,0.42-0.44c-0.01-1.21-0.01-2.43,0-3.64c0-0.35-0.16-0.44-0.48-0.43c-0.66,0.01-1.33,0-1.99,0
		C38.22,18.75,37.59,18.76,36.96,18.74z M31.37,18.74c-0.31-0.01-0.44,0.1-0.43,0.42c0.01,1.22,0.01,2.43,0,3.65
		c0,0.35,0.15,0.45,0.46,0.45c1.3-0.01,2.59-0.01,3.89,0c0.3,0,0.45-0.11,0.45-0.43c-0.01-1.22-0.01-2.43,0-3.65
		c0-0.33-0.15-0.45-0.48-0.44c-0.66,0.02-1.33,0-1.99,0C32.63,18.75,32,18.76,31.37,18.74z M29.62,23.26c0.33,0,0.51-0.1,0.51-0.47
		c-0.01-1.2-0.01-2.4,0-3.6c0-0.34-0.14-0.45-0.47-0.45c-1.3,0.01-2.59,0.01-3.89,0c-0.34,0-0.46,0.13-0.46,0.46
		c0.01,1.2,0.01,2.4,0,3.6c0,0.33,0.14,0.47,0.47,0.46c0.65-0.01,1.3,0,1.94,0C28.36,23.26,28.99,23.25,29.62,23.26z M40.85,17.95
		c0.32,0.01,0.48-0.09,0.47-0.44c-0.01-1.2-0.01-2.4,0-3.59c0-0.29-0.12-0.41-0.4-0.41c-1.31-0.03-2.62-0.05-3.93-0.1
		c-0.36-0.01-0.48,0.14-0.48,0.49c0.01,1.18,0.01,2.36,0,3.55c0,0.37,0.12,0.53,0.51,0.51c0.63-0.02,1.26-0.01,1.89-0.01
		C39.55,17.94,40.2,17.93,40.85,17.95z M25.78,24.03c-0.33,0-0.46,0.14-0.46,0.47c0.01,1.23,0.01,2.46,0,3.69
		c0,0.34,0.14,0.46,0.47,0.43c1.31-0.11,2.61-0.22,3.92-0.31c0.3-0.02,0.42-0.17,0.42-0.47c-0.01-1.12-0.01-2.24,0-3.35
		c0-0.34-0.14-0.47-0.46-0.46c-0.65,0.01-1.3,0-1.94,0C27.07,24.03,26.42,24.04,25.78,24.03z M24.02,23.26
		c0.34,0.01,0.49-0.1,0.49-0.47c-0.02-1.2-0.02-2.39,0-3.59c0-0.33-0.1-0.46-0.44-0.46c-1.29,0.01-2.59,0.01-3.88,0
		c-0.34,0-0.45,0.14-0.45,0.46c0.01,1.2,0.01,2.39,0,3.59c0,0.34,0.13,0.47,0.45,0.46c0.65-0.01,1.29,0,1.94,0
		C22.76,23.26,23.39,23.25,24.02,23.26z M30.93,27.71c-0.01,0.32,0.07,0.48,0.43,0.45c1.34-0.11,2.68-0.2,4.01-0.32
		c0.12-0.01,0.33-0.2,0.33-0.31c0.03-1.05,0.03-2.1,0-3.15c0-0.12-0.24-0.32-0.36-0.32c-1.34-0.02-2.69-0.01-4.03-0.02
		c-0.3,0-0.39,0.14-0.38,0.42c0.01,0.55,0,1.1,0,1.65C30.94,26.64,30.95,27.17,30.93,27.71z M15.22,15.19
		c0.29,0.75,0.6,1.5,0.87,2.26c0.13,0.35,0.3,0.53,0.7,0.5c0.58-0.04,1.16-0.02,1.75-0.01c0.29,0,0.41-0.12,0.41-0.4
		c-0.01-1.39,0-2.78-0.01-4.17c0-0.12-0.17-0.35-0.26-0.36c-1.4-0.02-2.8-0.02-4.29-0.02C14.65,13.72,14.93,14.46,15.22,15.19z
		 M37,24.02c-0.34-0.01-0.5,0.12-0.5,0.48c0.01,0.92,0.01,1.85,0,2.77c0,0.29,0.07,0.45,0.42,0.42c1.35-0.12,2.71-0.2,4.06-0.33
		c0.12-0.01,0.31-0.23,0.32-0.36c0.03-0.86,0.01-1.72,0.02-2.57c0-0.31-0.16-0.39-0.43-0.39c-0.66,0-1.33,0-1.99,0c0,0,0,0,0,0
		C38.27,24.03,37.64,24.04,37,24.02z M42.12,17.52c-0.01,0.31,0.11,0.43,0.43,0.43c0.91-0.01,1.81-0.01,2.72,0
		c0.28,0,0.41-0.1,0.44-0.39c0.13-1.16,0.28-2.31,0.42-3.47c0.03-0.27-0.04-0.42-0.36-0.42c-1.07-0.02-2.14-0.05-3.2-0.09
		c-0.34-0.01-0.46,0.1-0.45,0.44c0.02,0.58,0.01,1.17,0.01,1.75C42.13,16.35,42.14,16.94,42.12,17.52z M42.12,22.76
		c-0.01,0.35,0.1,0.51,0.46,0.5c0.66-0.01,1.33-0.01,1.99,0c0.32,0.01,0.47-0.12,0.51-0.44c0.13-1.19,0.27-2.38,0.42-3.56
		c0.05-0.37-0.07-0.53-0.47-0.52c-0.81,0.02-1.62,0.02-2.43,0c-0.35-0.01-0.5,0.11-0.48,0.47c0.02,0.6,0.01,1.2,0.01,1.8
		C42.13,21.59,42.14,22.18,42.12,22.76z M42.39,24.06c-0.09,0-0.25,0.2-0.25,0.32c-0.02,0.86-0.02,1.72,0,2.57
		c0,0.11,0.23,0.31,0.34,0.31c0.56-0.01,1.13-0.04,1.69-0.14c0.16-0.03,0.38-0.26,0.41-0.42c0.13-0.84,0.21-1.7,0.31-2.66
		C44,24.04,43.2,24.03,42.39,24.06z M16.11,45.02c0.93-0.01,1.68-0.78,1.67-1.72c-0.01-0.94-0.77-1.7-1.7-1.69
		c-0.92,0.01-1.69,0.79-1.68,1.72C14.41,44.25,15.19,45.03,16.11,45.02z M42.34,41.61c-0.92,0-1.71,0.79-1.71,1.7
		c0,0.91,0.79,1.71,1.71,1.71c0.91,0,1.71-0.79,1.7-1.71C44.04,42.39,43.26,41.61,42.34,41.61z M17.12,20.07
		c0.36,0.92,0.72,1.84,1.08,2.76c0.09,0.24,0.21,0.5,0.5,0.38c0.13-0.05,0.23-0.32,0.23-0.49c0.02-1.15,0-2.3,0.02-3.45
		c0.01-0.41-0.14-0.54-0.54-0.53c-0.55,0.02-1.09,0.01-1.77,0.01C16.82,19.26,16.96,19.67,17.12,20.07z"/>
	<path d="M15.32,43.34c0,0.46,0.32,0.79,0.78,0.79c0.44,0,0.8-0.37,0.8-0.79c0-0.43-0.37-0.8-0.81-0.79
		C15.64,42.55,15.32,42.88,15.32,43.34z"/>
	<path d="M41.52,43.36c0.01,0.42,0.4,0.78,0.83,0.77c0.45-0.01,0.79-0.36,0.78-0.81c-0.01-0.45-0.37-0.79-0.82-0.78
		C41.88,42.56,41.51,42.94,41.52,43.36z"/>
</g>
</svg>
