<?xml version="1.0" encoding="utf-8"?>
<!-- Generator: Adobe Illustrator 24.1.0, SVG Export Plug-In . SVG Version: 6.00 Build 0)  -->
<svg version="1.1" id="Capa_1" xmlns="http://www.w3.org/2000/svg" xmlns:xlink="http://www.w3.org/1999/xlink" x="0px" y="0px"
	 viewBox="0 0 213.3 128" style="enable-background:new 0 0 213.3 128;" xml:space="preserve">
<style type="text/css">
	.st0{fill:none;}
	.st1{fill:#FFFFFF;}
	.st2{fill:#413C3D;}
	.st3{fill:#EBEAE9;}
	.st4{fill:#C0815E;}
	.st5{fill:#852626;}
	.st6{fill:#81B8B2;}
	.st7{fill:#070308;}
	.st8{fill:#B6D3D4;}
</style>
<g>
	<path class="st0" d="M87.7,93.8c0.6-0.4,0.9-0.7,0.9-1.2c-0.3-1-0.7-1.5-1.3-1.9c-0.1,1.6-0.3,2.8-0.4,3.9c0.1-0.1,0.3-0.3,0.3-0.3
		C87.4,94.1,87.5,93.9,87.7,93.8z"/>
	<path class="st0" d="M108.8,67c0.3,0.1,2,0.9,2.2,0.9l0,0l0,0l0,0v-0.1l-3.5-1.3C107.8,66.7,108.2,66.8,108.8,67z"/>
	<path class="st0" d="M78.5,78.2c0.6,0.1,1.3,0.3,1.9,0.4c0,0,0,0,0.1,0l0.7-0.4C80.5,78.2,79.5,78.2,78.5,78.2z"/>
	<path class="st0" d="M106.6,66.3L106.6,66.3L106.6,66.3L106.6,66.3L106.6,66.3L106.6,66.3L106.6,66.3
		C106.6,66.3,106.6,66.1,106.6,66.3C106.6,66.1,106.6,66.1,106.6,66.3L106.6,66.3L106.6,66.3L106.6,66.3v0.1
		C106.6,66.3,106.6,66.3,106.6,66.3L106.6,66.3z"/>
	<path class="st0" d="M60.7,88.8L60.7,88.8c-0.3,0.3-0.6,0.4-1,0.9l-0.1,0.1c-0.7,0.6-2,1.6-2.3,2.9l0,0l3.5-2c0-0.4,0-0.9,0-1.3
		C60.7,89.1,60.7,89,60.7,88.8z"/>
	<path class="st0" d="M106.2,54.8l3.3,0.6l0,0c0,0,0,0,0.1,0h0.1l0,0l0,0c0,0-0.7-1.9-0.9-2.2c-0.1-0.1-0.1-0.4-0.3-0.6
		c-0.4-1-1.2-2.2-1.6-2.9l-0.1-0.1c0,0-0.1-0.1-0.1-0.3c0,0,0,0-0.1-0.1l-0.1-0.1c0,0,0,0-0.1-0.1l-0.1-0.1l-0.1-0.1l-0.1-0.1
		c0,0-0.1,0-0.1-0.1l-0.1-0.1c0,0,0,0-0.1-0.1l-0.1-0.1c0,0,0,0-0.1,0s-0.1-0.1-0.1-0.1l0,0l0,0l-0.1-0.1h-0.1l0,0c0,0,0,0-0.1,0
		l0,0c0,0,0,0-0.1,0c-0.3,0.1-1-0.3-1.7-1h-0.1l0.9,7.7l0,0l0.4,0.1L106.2,54.8z"/>
	<path class="st0" d="M98.6,67.9l1.2-0.7c-0.3-0.7-0.4-1.5-0.7-2.3c0-0.1-0.1-0.3-0.1-0.4l0,0C98.9,65.7,98.7,66.8,98.6,67.9z"/>
	<path class="st0" d="M106,67.1c0.1-0.3,0.1-0.3,0.1-0.3l0,0l0,0l0,0c0,0,0,0,0,0.1l-0.1-0.3V67.1L106,67.1z"/>
	<g>
		<path class="st1" d="M115,86.4L115,86.4c0-0.1,0-0.1,0-0.1c-1.9-3.5-2.5-6-3.1-9.2c-0.1-0.7-0.3-1.5-0.3-2.3v-0.1l0,0l0,0l0,0l0,0
			c-0.3-2.2-0.6-5.4-0.6-6.1v-0.1l0,0l0,0l0,0l0,0l0,0c0,0-1.7-0.7-2.2-0.9c-0.6-0.3-0.9-0.4-1.3-0.4c-0.4-0.1-0.7-0.3-0.9-0.3h-0.1
			l0,0l0,0l0,0l0,0l0,0l0,0l0,0l0,0c0,0,0,0,0,0.1l0,0c0,0.3,0.3,1.3,1,4.7c0.1,0.4,0.1,0.9,0.3,1.3c0.1,0.7,0.3,1.5,0.4,2
			c0.1,0.9,0.3,1.5,0.3,1.6l0,0c0,0,0,0,0-0.1l0,0c-0.1-0.4-0.6-1.9-1.2-4.4c0-0.1,0-0.1-0.1-0.3c-0.4-1.5-1-3.6-1.2-4.2
			c0-0.1,0-0.1,0-0.1l0,0l0,0l0,0c0,0,0,0-0.1,0.3c0,0,0,0,0,0.1c-0.3,0.7-0.6,2-1,3.2v0.1l-1,3.5l0,0l0,0l0,0l0.4,0.7
			c0,0.1,0.1,0.1,0.1,0.3l0,0l0.1,0.1l0,0l0.1-1c0-0.1,0.1-1,0.3-1.2l0,0l0,0l0,0l0,0c0,0,0,0.1,0,0.3c0,0.3,0,0.6,0,1s0,0.6,0,0.7
			c0,0.1,0,0.1,0,0.3l0,0l0,0c0,0.1,0,0.3,0.1,0.4c0,0.1,0.1,0.1,0.1,0.1l0,0l0,0l0,0l0,0l0.3,0.3l3.6,4.7c0,0,0.7,0.9,1.7,1.7
			c0.3,0.3,0.6,0.6,0.9,0.9c1,1,2,2,2.6,2.3h0.1c0.6,0.4,0.7,0.4,0.9,0.4C115,86.5,115,86.5,115,86.4z"/>
		<path class="st1" d="M102.5,51L102.5,51c0,0.1,0,0.1,0,0.3l0,0C102.5,51.1,102.5,51,102.5,51z"/>
		<path class="st1" d="M103,54c-0.1-0.3-0.1-1-0.3-1.5c0-0.3-0.1-0.7-0.1-1.2l-0.1,0.7l0,0c0,0.7-0.1,1.6-0.1,2.3
			c-0.1,1-0.3,2-0.6,2.9c0.1-0.1,0.1-0.3,0.3-0.6l1.2-2.5l0,0l0,0l0,0L103,54z"/>
		<path class="st1" d="M81.3,100.6c-0.1,0-0.6,0.1-0.9,0.1c-0.1,0-0.3,0-0.3,0c0.4,3.8,0.7,10.2,0.4,11.4c-0.3,0.1-1.7,0.4-3.3,0.9
			c-0.3,0.1-0.7,0.1-1.2,0.1c-0.7,0.1-1.5,0.3-2,0.3h-0.1c-0.6,0-1.3-0.1-1.9-0.1c-0.4-0.1-1-0.1-1.5-0.3c-1.7-0.3-3.3-0.7-3.5-0.9
			c-0.4-1-0.6-6.7-0.1-11.2c0-0.1,0-0.1,0-0.3c0-0.1,0-0.1,0-0.3l0,0c-0.1,0-0.1,0-0.3,0h-0.1l0,0l0,0c-0.1,0-0.1,0-0.1,0
			c-0.1,0-0.3,0-0.4-0.1c0,0.1,0,0.1,0,0.1s0,0.1,0,0.3c-0.1,3.5,0,8,0.1,11.1c0,0.4,0,0.9,0,1.2l0,0l0,0l0,0h0.1
			c1.2,0.4,2.6,0.7,3.9,1c0.7,0.1,1.5,0.3,2,0.3c0.9,0.1,1.6,0.1,2,0.1l0,0c0.4,0,1.2,0,2-0.1c0.7,0,1.6-0.1,2.6-0.4
			c0.9-0.1,1.6-0.4,2.5-0.7c0.1,0,0.3-0.1,0.4-0.1l0,0l0,0l0,0c0-0.4,0-0.9,0-1.3v-0.3C81.7,107.2,81.4,102.2,81.3,100.6z"/>
	</g>
	<path class="st2" d="M66.3,100.6h-0.1l0,0H66.3L66.3,100.6z"/>
	<path class="st3" d="M98.4,118c-0.1-0.4-0.3-0.9-0.7-1.3c-0.3-0.3-0.6-0.6-1-0.9c-0.4-0.3-1-0.6-1.6-0.7c-0.7-0.3-1.7-0.4-2.6-0.6
		c-0.3,0-0.6-0.1-1-0.1c-0.3,0-0.4,0-0.7-0.1c0,0.1-0.1,0.3-0.4,0.3l-0.3,0.1c-0.9,0.4-1,0.6-3.1,1.5l-4.4,2
		c-0.3,0.1-1.3,0.6-2.3,0.9c-1.2,0.6-2.5,1-2.9,0.7c-0.1-0.1-0.1-0.3-0.3-0.4c-0.1-0.1-0.1-0.3-0.1-0.6c-0.1,0.1-0.1,0.1-0.1,0.3
		c-0.3,0.4-0.4,1-0.6,1.2l0.1,0.1c0.3,0.3,0.4,0.4,0.6,0.4l0.1,0.1c0.6,0.4,1.7,1.2,2.9,1.7c1.3,0.7,3.1,1.5,4.4,1.7
		c1.3,0.4,2.5,0.6,3.8,0.6c1.5,0,2.8-0.1,4.1-0.4c1.2-0.3,2.3-0.9,3.2-1.5c0.9-0.6,1.6-1.5,2-2c0.4-0.6,0.7-1.2,0.9-1.6
		C98.6,119.1,98.6,118.5,98.4,118z"/>
	<path class="st3" d="M76,120.7C76,120.7,76.2,120.9,76,120.7C76.2,120.9,76.2,120.9,76,120.7C76.2,120.7,76.2,120.7,76,120.7z"/>
	<path class="st3" d="M76.3,120.6l-0.1-0.1c0,0.1,0,0.1,0,0.3c0,0,0,0,0,0.1c0,0,0,0,0.1,0.1C76.2,120.7,76.3,120.7,76.3,120.6z"/>
	<path class="st3" d="M66.8,119c-0.1,0-0.3-0.1-0.4-0.1l0,0c-1.3-0.4-4.2-1.7-5-2.2c-2.5-1.2-3.6-1.9-3.9-2.3
		c-0.9,0.1-1.6,0.4-2.3,0.6c-1.2,0.3-1.9,0.4-2.6,0.7c-0.7,0.3-1.2,0.4-1.5,0.6c-0.3,0.3-0.6,0.4-0.9,0.7c-0.3,0.3-0.6,0.6-0.7,1.2
		c-0.1,0.6-0.1,1.3-0.1,2c0.1,0.7,0.6,1.3,1,1.9c0.6,0.6,1.3,1.2,2.3,1.6c1,0.6,2,0.9,3.2,1.2c1.6,0.3,3.6,0.4,4.5,0.4
		c1.3,0,2.3,0,3.6-0.3s2.8-0.9,3.9-1.5c1.3-0.7,2.5-1.7,2.9-2.2c0.6-0.6,0.7-0.9,0.7-1v-0.1C70.9,120.1,69.2,119.7,66.8,119z"/>
	<g>
		<path class="st4" d="M94.4,92.6l-0.3-0.1c-0.1-0.1-0.4-0.3-0.7-0.3c-0.3-0.1-0.4-0.4-0.6-1c-0.1-0.3-0.3-0.7-0.6-1.3
			c-0.7-1.5-1.6-2.5-2.6-3.6c-0.7-0.9-1.6-1.6-2.5-2.3c0,0.1,0.1,0.3,0.1,0.6c0.1,1.7,0.3,4.4,0.1,5.8c0,0,0,0,0.1,0
			c0.6,0.4,1.3,0.9,1.6,2.2c0.1,0.7-0.4,1.2-1,1.6c-0.1,0.1-0.3,0.3-0.6,0.4c-0.3,0.3-0.6,0.6-0.9,0.9c-0.1,0.4-0.1,1-0.3,1.5l0,0
			c0,0.1,0.1,0.3,0.3,0.4c0,0,0.1,0,0.1,0.1l0,0c0.3,0,0.4-0.1,0.6-0.3c0.1-0.1,0.4-0.4,0.7-0.4c0.1,0,0.3,0.1,0.6,0.3
			c0.4,0.4,1,1,1,1.7c0,0.4-0.3,0.7-0.6,1s-0.4,0.4-0.6,0.7c-0.1,0.4-0.1,1.2,0.3,1.5c0.3,0.3,1,0.3,1.5,0.3c0.4,0,0.9-0.3,1-0.7
			c0.1-0.1,0.3-0.7,0.6-1.2c0.3-0.9,0.4-1,0.6-0.9c0.1,0,0.1,0.3,0.1,0.3c-0.1,0.6,0,1,0.3,1.3c0.1,0.1,0.6,0.3,1,0.1
			c0.4-0.1,0.9-0.6,1.2-1.3c0.1-0.3,0.1-1.6,0-2.2v-0.1c0-0.3,0-0.3,0.1-0.4h0.1l0.1,0.1v0.1l0,0l0,0c0,0.1,0,0.1,0,0.3
			c0,0.1,0.1,0.1,0.1,0.3c0.3,0.1,0.9-0.1,1.2-0.4c0.4-0.4,0.3-1.2,0-2C96.4,94.2,94.5,92.8,94.4,92.6z"/>
		<path class="st4" d="M62.6,81.7c-0.6,0.3-1.3,0.6-1.9,0.9c-1.7,1.2-3.3,2.5-4.4,3.6c-1,1.2-1.9,2.2-2.6,3.6
			c-0.3,0.6-0.4,1-0.6,1.3c-0.3,0.6-0.3,0.9-0.6,1c-0.1,0.1-0.4,0.1-0.6,0.3c-0.1,0-0.1,0.1-0.3,0.1c-0.1,0.1-2,1.6-2.5,2.8
			c-0.3,0.7-0.4,1.6,0,2c0,0,0,0,0.1,0l7.7-4.7c0-0.1,0-0.3,0-0.4c0.3-1.5,1.6-2.5,2.5-3.1l0.1-0.1c0.4-0.4,0.7-0.6,0.9-0.7
			c0.1,0,0.1-0.1,0.1-0.1c0-0.6,0.1-1,0.1-1.5c0.1-1.3,0.4-2.6,1-3.6C62,82.7,62.3,82.1,62.6,81.7z"/>
		<path class="st4" d="M58,94.1l-7.1,4.2c0,0.6,0,1.3,0.1,1.6c0.3,0.7,0.7,1.2,1.2,1.3c0.3,0.1,0.7,0,1-0.1c0.3-0.3,0.4-0.7,0.3-1.3
			c0-0.1,0-0.3,0.1-0.3c0,0,0,0,0.1,0s0.1,0.1,0.6,0.9c0.1,0.4,0.4,1,0.6,1.2c0.3,0.4,0.6,0.6,1,0.7c0.4,0.1,1,0.1,1.5-0.3
			c0.3-0.3,0.3-1,0.3-1.5c0-0.3-0.3-0.4-0.6-0.7c-0.3-0.3-0.6-0.6-0.6-1c0-0.7,0.6-1.3,1-1.7c0.6-0.6,1-0.1,1.3,0.1
			c0.1,0.1,0.4,0.3,0.6,0.3c0.1,0,0.1,0,0.1-0.1c0.3-0.3,0.3-0.6,0.3-0.9c0-0.6-0.4-1.3-1.2-1.9C58.2,94.4,58.1,94.2,58,94.1z"/>
		<path class="st4" d="M86.8,90.4c0.1-1,0-2.6,0-4.2c0-0.6-0.1-1.2-0.1-1.6c0,0,0,0,0-0.1c-0.1-0.4-0.1-0.7-0.3-1.2
			c0-0.1-0.1-0.3-0.1-0.4c-0.1-0.1-0.1-0.3-0.3-0.4c-0.9-1.3-2.3-2.3-3.8-2.9L61.5,91.9c0.1,2.2,0.4,4.2,0.9,6.3
			c4.2,1.2,8.6,1.7,13,1.6c4.2-0.1,7.7-0.9,10.6-2.2c0.1-0.3,0.1-0.6,0.1-0.9l0,0c0.1-0.4,0.1-0.9,0.3-1.3c0.3-1.3,0.6-2.8,0.7-5
			C86.8,90.6,86.8,90.4,86.8,90.4z"/>
		<path class="st4" d="M94.8,45.7c-0.9-1.2-1.7-2.6-2.5-3.9c-1.2-2.2-2.2-4.2-2.8-6.1l0,0c-0.3-0.9-0.4-1.5-0.6-1.9
			c-0.3-1-0.4-0.9-0.3,0c0,0.4,0.1,1,0.3,1.7c0.3,1.7,0.7,4.2,1.2,6.1c0.3,1.5,0.4,2.5,0.4,2.5l-7.1,0.3l-0.6-3.3l-0.4-2.6l-0.1,2.6
			l-0.1,2.8l-4.1,0.6l0.1-2.5l-2.3,2.9l-7.4-0.3c0,0.7-0.1,1.5-0.1,2.2C73,46.9,80.4,46.7,94.8,45.7z"/>
		<polygon class="st4" points="65.1,40.2 64.9,40.5 65.1,40.5 		"/>
		<path class="st4" d="M77.2,78.5H77v-0.1c0,0,0-1.5,0-2.5c0.1,0,0.1,0,0.3,0v-0.1v-0.3c0,0,1.3-0.1,3.3-0.6
			c-3.2,0.4-6.3,0.7-9.5,0.7v0.1v0.1c0.1,0,0.1,0,0.3,0c0,1.5,0,2.2,0,2.2v0.1h-0.1c0,0-4.4,1.2-5.8,1.7c-0.4,0.1-0.7,0.4-1,0.6
			c-0.1,0.1-0.3,0.3-0.4,0.3c-0.1,0.1-0.3,0.3-0.3,0.3c-0.4,0.4-0.9,1-1.2,1.6c0,0.1-0.1,0.3-0.1,0.3c-0.1,0.3-0.3,0.7-0.4,1
			c-0.1,0.6-0.4,1.3-0.4,2c-0.1,0.9-0.1,1.9-0.1,2.8c0,0.3,0,0.7,0,1l18.6-11.2C78.8,78.8,77.2,78.5,77.2,78.5z"/>
		<path class="st4" d="M47.3,60.7c0.3-1.2,0.7-2,1-3.1c-0.7-0.1-1.6-0.4-2.3-0.7C46.5,58.2,46.9,59.4,47.3,60.7z"/>
		<path class="st4" d="M50.8,56.4c0,0,0.1,0,0.4,0c0-1.7,0-3.3,0-5.1c-3.1,0.1-3.1,0.1-3.1,0.1l-0.1-2.9l-2.3,1c0,0-0.1,0.6-0.1,1.3
			c0,0.3,0,0.6-0.1,0.9c0,0.7,0,2.2,0.3,3.8l0,0c1.2,0.4,2.3,0.7,3.6,1L50.8,56.4z"/>
		<path class="st4" d="M102.4,46v-0.1c-0.1,0-0.1-0.1-0.3-0.3c0,0,0,0-0.1-0.1l-0.1,0.3l-0.9,1.9l-1.2,2.6l-0.6,1.2c0,0-0.1,0-0.4,0
			c-1-0.1-3.9-0.3-6.4-0.3c-3.1,0-3.1,0.1-8.4-0.1c-8-1.2-9.2-1.3-16.2-0.6c-0.1,1.6-0.1,2.9-0.1,3.9c2-0.3,3.6-0.3,4.7-0.3
			c4.5,0.1,18.8,2.8,22.9,2.9l0,0c0.4-0.1,1.5-0.4,3.1-1.6c0.1-0.1,0.4-0.3,0.6-0.4c0.6-0.4,2.8-2.6,3.5-3.3c0-0.1,0-0.1,0-0.3l0,0
			C102.5,49.2,102.5,47.6,102.4,46z M93.2,53.7c0,0-1.9-0.3-2.9-0.3c-1,0-3.2,0.1-3.2,0.1s-0.4,0-0.4-0.1c0.1-0.4,0.4-0.4,0.4-0.4
			s4.1-1.2,4.5-1.3c0.6-0.1,1.2-0.6,1.5-0.1v0.1l-5.8,1.5c0,0,2-0.3,3.1-0.3c1,0,3.1,0.3,3.1,0.3l0.1,0.1
			C93.3,53.6,93.2,53.7,93.2,53.7z"/>
		<path class="st4" d="M100.6,54.2c-0.7,0.7-1.5,1.2-1.7,1.3c-0.1,0.1-0.4,0.3-0.6,0.4c-0.6,0.3-1.3,0.7-2.5,1.3
			c0.1,0.1,0.3,0.3,0.3,0.6c0.7,1.9,1.2,2.9,1.2,5.7c-0.1,0.7-0.3,1.7-0.7,2.9c0.7-0.9,1.6-1.9,2.2-2.9c0.1-0.1,0.1-0.3,0.3-0.4
			c0,0.4-0.1,0.9-0.1,1.2c0,0,0,0,0,0.1l0,0c0.1-0.3,0.3-0.6,0.4-0.9l0,0c0.7-1.3,1.2-2.6,1.6-3.9c0.1-0.6,0.3-1.2,0.4-1.9
			c0.3-1,0.4-2,0.6-2.9c0.1-0.7,0.1-1.6,0.1-2.3C102.1,52.4,101.4,53.4,100.6,54.2z"/>
	</g>
	<g>
		<path class="st5" d="M111,67.9C111,67.7,111,67.7,111,67.9c0-0.3,0-0.4,0-0.6c0-0.3,0-0.7,0-1c0-0.3,0-0.6,0-1
			c0-0.7,0-1.6-0.1-2.8l-4.5,2.6l0.1,0.9l0,0l0,0h0.1h0.1c0.1,0,0.3,0.1,0.9,0.3L111,67.9L111,67.9z"/>
		<path class="st5" d="M104,54.5l2,9l4.8-2.9c-0.1-2.2-0.7-4.1-1-5.1l0,0l0,0l-3.3-0.6l-1.9-0.3L104,54.5L104,54.5L104,54.5z"/>
		<path class="st5" d="M103.8,57.7l-0.6-2.9v-0.1v-0.1l-1.2,2.5c-0.1,0.1-0.1,0.3-0.3,0.6c-0.1,0.6-0.3,1.3-0.4,1.9
			c-0.4,1.3-1,2.6-1.6,3.9l0,0c0.1,0.4,0.1,0.9,0.3,1.3c0.1,0.9,0.4,1.5,0.6,2.2l5.1-3.1L103.8,57.7z"/>
		<path class="st5" d="M106.2,66.4v-0.3l-0.1-0.7l-5,2.9c0.1,0.3,0.3,0.6,0.4,1c0.6,1.2,1.6,3.2,2.5,4.7c0,0,0,0,0,0.1s0,0,0,0l0,0
			l0,0l0,0l1-3.5v-0.1c0.4-1.2,0.7-2.6,1-3.2l0.1-0.6V66.4L106.2,66.4z"/>
		<path class="st5" d="M80.5,112.3c0.1-1.2,0-7.6-0.4-11.4c-1.6,0.3-3.2,0.4-5,0.4c-0.3,0-0.6,0-0.7,0c-2.5,0-5.1-0.1-7.6-0.6l0,0
			c0,0.1,0,0.1,0,0.3c0,0.1,0,0.1,0,0.3c-0.3,4.5-0.3,10,0.1,11.2c0.3,0,1.7,0.4,3.5,0.9c0.4,0.1,1,0.1,1.5,0.3
			c0.7,0.1,1.3,0.1,1.9,0.1H74c0.6,0,1.3-0.1,2-0.3c0.3,0,0.7-0.1,1.2-0.1C78.8,112.9,80.2,112.3,80.5,112.3z"/>
		<path class="st5" d="M90.1,113.6c-0.1-0.1-0.4-0.3-0.7-0.4c0,0-0.1,0-0.1-0.1c-0.6-0.3-1.3-0.4-2-0.4c-0.9,0.1-1.6,0.3-2.3,0.4
			l0,0c-0.6,0-1.2,0.1-1.6,0.3c-1,0.3-1.9,0.9-2.8,1.6l-0.1,0.1c-1.3,0.6-2.3,1-3.8,2.2c0,0,0,0.1,0,0.4c0,0.1,0,0.3,0,0.3
			c0,0.1,0,0.3,0,0.4s0.1,0.4,0.1,0.6c0,0.1,0.1,0.4,0.1,0.6c0,0.1,0.1,0.3,0.3,0.4c0.4,0.3,1.7-0.1,2.9-0.7c1.2-0.4,2.2-1,2.2-1
			l4.4-2c2.2-1,2.3-1,3.3-1.7c0.3-0.1,0.3-0.3,0.3-0.4C90.4,113.7,90.3,113.6,90.1,113.6z"/>
		<path class="st5" d="M71.9,119.1c-0.3-0.7-1.7-1.7-1.7-1.7c-1.5-1.2-1.5-1.3-2.2-1.7c-0.9-0.9-2-1.7-3.1-2.2
			c-0.6-0.3-1.2-0.3-1.7-0.3l0,0c-0.6-0.3-1.3-0.6-2-0.6c-0.4,0.3-1.3,0.3-2,0.6H59c-0.3,0.1-0.7,0.3-0.9,0.6
			c-0.1,0.1-0.1,0.1-0.3,0.3l0,0c0,0.4,2,1.5,3.8,2.3c1.9,0.9,3.9,1.9,5,2.2c1,0.3,4.7,1.6,5.4,1l0,0c0,0,0,0,0.1-0.1l0,0
			C71.9,119.4,71.9,119.4,71.9,119.1C71.9,119.3,71.9,119.3,71.9,119.1z"/>
		<path class="st5" d="M64.9,39.8l-1.5-5l-0.9-2.9l-17.8,2.8c0,0-4.5,1.7-3.8,7.4c2-0.4,5-0.9,8-1.2C55.6,40.2,62.8,39.6,64.9,39.8z
			"/>
		<path class="st5" d="M67.9,50.2c-1.2,0.1-2.5,0.3-4.1,0.4c-2.2,0.1-1,0-4.5,0.3c0.7,0.6,1.2,1.5,1.2,2.5c0,0.6-0.1,1.2-0.6,1.7
			c2.6-0.3,5.5-0.7,7.9-1l0,0C67.9,53.2,67.9,51.7,67.9,50.2L67.9,50.2z"/>
		<path class="st5" d="M54,53.3c0-0.9,0.3-1.6,0.9-2.2c-0.1,0-0.3,0-0.6,0c-0.9,0-1.5,0-2,0.1c-0.4,0-0.7,0-1,0c0,1.7,0,3.3,0,5.1
			c0.1,0,0.4,0,0.7-0.1c0.7-0.1,1.9-0.3,3.3-0.4C54.5,55.2,54,54.3,54,53.3z"/>
		<path class="st5" d="M52,45.6c8-0.1,9.6,0.7,16.2,1l0,0c0-0.7,0.1-1.5,0.1-2.2l0,0h-2l-1.2-3.8h-0.1l-0.3,2.8
			C64.7,43.4,58.1,43.5,52,45.6z"/>
	</g>
	<path class="st6" d="M52.9,70c0.3,0.1,0.6,0.1,0.9,0.3c0.7,0.3,1.3,0.4,2,0.7c0.4,0.1,0.9,0.3,1.3,0.4c3.6,1.2,7.4,2,11.8,2.5l0,0
		c1.3,0.1,2.6,0.1,4.1,0.1c6.8,0,13.1-1.7,18.9-3.9c0.9-0.7,1.5-1.6,2-2.5c0.3-0.4,0.6-1,0.7-1.6c0.3-1,0.6-2,0.6-2.9l0,0
		c0-0.9,0-1.7-0.1-2.6c0-0.1-0.1-0.4-0.1-0.6c0-0.1-0.1-0.4-0.1-0.6l0,0v-0.1c0,0,0,0,0-0.1c-0.1-0.3-0.1-0.4-0.3-0.7
		c-0.3,0-6.6-0.9-13-1.7c-3.2-0.4-6.6-0.7-9.2-1l-2.2,0.3l-2,0.3l-2.5,0.3L51.4,58h-0.3c0,0.4-1.7,3.1-1.6,6.1c0,0.3,0,0.7,0.1,1
		C49.7,66.7,50.7,68.4,52.9,70z"/>
	<g>
		<path class="st7" d="M93.1,51.5c-0.3-0.3-1,0-1.5,0.1C91,51.8,87.1,53,87.1,53s-0.3,0-0.4,0.4c0,0.1,0.4,0.1,0.4,0.1
			s2.2-0.1,3.2-0.1c1,0,2.9,0.3,2.9,0.3l0.1-0.1l-0.1-0.1c0,0-2-0.3-3.1-0.3c-1,0-3.1,0.3-3.1,0.3l5.8-1.5
			C93.1,51.8,93.2,51.7,93.1,51.5z"/>
		<g>
			<path class="st0" d="M80.5,78.8l0.7-0.4c-0.7,0-1.6,0-2.8,0C79.1,78.3,79.8,78.6,80.5,78.8C80.4,78.6,80.4,78.6,80.5,78.8z"/>
			<path class="st0" d="M60.7,88.8L60.7,88.8c-0.3,0.3-0.6,0.4-1,0.9l-0.1,0.1c-0.7,0.6-2,1.6-2.3,2.9l0,0l3.5-2c0-0.4,0-0.9,0-1.3
				C60.7,89.1,60.7,89,60.7,88.8z"/>
			<path class="st0" d="M62.6,81.7c-0.6,0.3-1.3,0.6-1.9,0.9c-1.7,1.2-3.3,2.5-4.4,3.6c-1,1.2-1.9,2.2-2.6,3.6
				c-0.3,0.6-0.4,1-0.6,1.3c-0.3,0.6-0.3,0.9-0.6,1c-0.1,0.1-0.4,0.1-0.6,0.3c-0.1,0-0.1,0.1-0.3,0.1c-0.1,0.1-2,1.6-2.5,2.8
				c-0.3,0.7-0.4,1.6,0,2c0,0,0,0,0.1,0l7.7-4.7c0-0.1,0-0.3,0-0.4c0.3-1.5,1.6-2.5,2.5-3.1l0.1-0.1c0.4-0.4,0.7-0.6,0.9-0.7
				c0.1,0,0.1-0.1,0.1-0.1c0-0.6,0.1-1,0.1-1.5c0.1-1.3,0.4-2.6,1-3.6C62,82.7,62.3,82.1,62.6,81.7z"/>
			<path class="st0" d="M66.8,119c-0.1,0-0.3-0.1-0.4-0.1l0,0c-1.3-0.4-4.2-1.7-5-2.2c-2.5-1.2-3.6-1.9-3.9-2.3
				c-0.9,0.1-1.6,0.4-2.3,0.6c-1.2,0.3-1.9,0.4-2.6,0.7c-0.7,0.3-1.2,0.4-1.5,0.6c-0.3,0.3-0.6,0.4-0.9,0.7
				c-0.3,0.3-0.6,0.6-0.7,1.2c-0.1,0.6-0.1,1.3-0.1,2c0.1,0.7,0.6,1.3,1,1.9c0.6,0.6,1.3,1.2,2.3,1.6c1,0.6,2,0.9,3.2,1.2
				c1.6,0.3,3.6,0.4,4.5,0.4c1.3,0,2.3,0,3.6-0.3s2.8-0.9,3.9-1.5c1.3-0.7,2.5-1.7,2.9-2.2c0.6-0.6,0.7-0.9,0.7-1v-0.1
				C70.9,120.1,69.2,119.7,66.8,119z"/>
			<path class="st0" d="M50.8,98.4c0,0.6,0,1.3,0.1,1.6c0.3,0.7,0.7,1.2,1.2,1.3c0.3,0.1,0.7,0,1-0.1c0.3-0.3,0.4-0.7,0.3-1.3
				c0-0.1,0-0.3,0.1-0.3c0,0,0,0,0.1,0s0.1,0.1,0.6,0.9c0.1,0.4,0.4,1,0.6,1.2c0.3,0.4,0.6,0.6,1,0.7c0.4,0.1,1,0.1,1.5-0.3
				c0.3-0.3,0.3-1,0.3-1.5c0-0.3-0.3-0.4-0.6-0.7s-0.6-0.6-0.6-1c0-0.7,0.6-1.3,1-1.7c0.6-0.6,1-0.1,1.3,0.1
				c0.1,0.1,0.4,0.3,0.6,0.3c0.1,0,0.1,0,0.1-0.1c0.3-0.3,0.3-0.6,0.3-0.9c0-0.6-0.4-1.3-1.2-1.9c-0.1-0.1-0.3-0.3-0.6-0.4
				L50.8,98.4z"/>
			<path class="st0" d="M71.5,76.5L71.5,76.5c0,1.3,0,1.6,0,1.6v0.1h-0.1c0,0-4.4,1.2-5.8,1.7c-0.4,0.1-0.7,0.4-1,0.6
				c-0.1,0.1-0.3,0.3-0.4,0.3c-0.1,0.1-0.3,0.3-0.3,0.3c-0.4,0.4-0.9,1-1.2,1.6c0,0.1-0.1,0.3-0.1,0.3c-0.1,0.3-0.3,0.7-0.4,1
				c-0.1,0.6-0.4,1.3-0.4,2c-0.1,0.9-0.1,1.9-0.1,2.8c0,0.3,0,0.7,0,1l18.6-11.2c-1.2-0.3-2.8-0.6-2.8-0.6h-0.1v-0.1c0,0,0-1.2,0-2
				V76L71.5,76.5z"/>
			<path class="st0" d="M64.9,39.8l-1.5-5l-0.9-2.9l-17.8,2.8c0,0-4.5,1.7-3.8,7.4c2-0.4,5-0.9,8-1.2C55.6,40.2,62.8,39.6,64.9,39.8
				z"/>
			<path class="st0" d="M89.6,35.7L89.6,35.7c-0.3-0.9-0.4-1.5-0.6-1.9c-0.3-1-0.4-0.9-0.3,0c0,0.4,0.1,1,0.3,1.7
				c0.3,1.7,0.7,4.2,1.2,6.1c0.3,1.5,0.4,2.5,0.4,2.5l-7.1,0.3l-0.6-3.3l-0.4-2.6l-0.1,2.6l-0.1,2.8l-4.1,0.6l0.1-2.5l-2.3,2.9
				l-7.4-0.3l0,0h-2l-1.2-3.8l-0.1-0.3v0.3l-0.3,2.8c0,0-6.6,0.3-12.7,2.2c8-0.1,9.6,0.7,16.2,1l0,0c4.8,0.3,12.2,0.1,26.6-0.9
				c-0.9-1.2-1.7-2.6-2.5-3.9C91.2,39.8,90.1,37.6,89.6,35.7z"/>
			<path class="st0" d="M111,68.2L111,68.2L111,68.2c0-0.1,0-0.1,0-0.3l0,0l0,0c0-0.1,0-0.4,0-0.6c0-0.3,0-0.7,0-1c0-0.3,0-0.6,0-1
				c0-0.7,0-1.6-0.1-2.8l-4.5,2.6l0.1,0.9l0,0l0,0l0,0v0.1l0,0c0,0.3,0.3,1.3,1,4.7c0.1,0.4,0.1,0.9,0.3,1.3c0.1,0.7,0.3,1.5,0.4,2
				c0.1,0.9,0.3,1.5,0.3,1.6l0,0c0,0,0,0,0-0.1l0,0c-0.1-0.4-0.6-1.9-1.2-4.4c0-0.1,0-0.1-0.1-0.3c-0.4-1.5-1-3.6-1.2-4.2l-0.1-0.3
				v-0.1v-0.1v-0.3l-0.1-0.7l-5,2.9c0.1,0.3,0.3,0.6,0.4,1c0.6,1.2,1.6,3.2,2.5,4.7c0,0,0,0,0,0.1c0,0.1,0,0,0,0l0,0l0,0l0,0l0,0
				l0.4,0.7c0,0.1,0.1,0.1,0.1,0.3l0,0l0.1,0.1l0,0l0.1-1c0-0.1,0.1-1,0.3-1.2l0,0l0,0l0,0l0,0c0,0,0,0.1,0,0.3c0,0.3,0,0.6,0,1
				c0,0.4,0,0.6,0,0.7c0,0.1,0,0.1,0,0.3l0,0l0,0c0,0.1,0,0.3,0.1,0.4c0,0.1,0.1,0.1,0.1,0.1l0,0l0,0l0,0l0,0l0.3,0.3l3.6,4.7
				c0,0,0.7,0.9,1.7,1.7c0.3,0.3,0.6,0.6,0.9,0.9c1,1,2,2,2.6,2.3h0.1c0.6,0.4,0.7,0.4,0.9,0.4v-0.1v-0.1c0,0,0,0,0-0.1
				c-1.9-3.5-2.5-6-3.1-9.2c-0.1-0.7-0.3-1.5-0.3-2.3V74l0,0l0,0l0,0l0,0c-0.3-2.2-0.6-5.4-0.6-6.1C111,68.3,111,68.2,111,68.2z"/>
			<path class="st0" d="M110.7,60.6c-0.1-2.2-0.7-4.1-1-5.1l0,0l0,0l0,0c0,0,0,0,0.1,0h0.1l0,0l0,0c0,0-0.7-1.9-0.9-2.2
				c-0.1-0.1-0.1-0.4-0.3-0.6c-0.4-1-1.2-2.2-1.6-2.9l-0.1-0.1c0,0-0.1-0.1-0.1-0.3c0,0,0,0-0.1-0.1l-0.1-0.1c0,0,0,0-0.1-0.1
				l-0.1-0.1l-0.1-0.1l-0.1-0.1c0,0-0.1,0-0.1-0.1l-0.1-0.1c0,0,0,0-0.1-0.1l-0.1-0.1c0,0,0,0-0.1,0s-0.1-0.1-0.1-0.1l0,0l0,0
				l-0.1-0.1h-0.1l0,0c0,0,0,0-0.1,0l0,0c0,0,0,0-0.1,0c-0.3,0.1-1-0.3-1.7-1h-0.1l0.9,7.7l0,0l0,0l0,0l2,9L110.7,60.6z"/>
			<path class="st0" d="M80.8,100.8c-0.1,0-0.1,0-0.1,0c-0.1,0-0.3,0-0.4,0.1c-1.6,0.3-3.2,0.4-5,0.4c-0.3,0-0.6,0-0.7,0
				c-2.5,0-5.1-0.1-7.6-0.6c-0.1,0-0.3,0-0.4-0.1h-0.1c-0.1,0-0.3,0-0.4-0.1c0,0.1,0,0.1,0,0.1s0,0.1,0,0.3c-0.1,3.5,0,8,0.1,11.1
				c0,0.4,0,0.9,0,1.2l0,0l0,0l0,0h0.1c1.2,0.4,2.6,0.7,3.9,1c0.7,0.1,1.5,0.3,2,0.3c0.9,0.1,1.6,0.1,2,0.1l0,0c0.4,0,1.2,0,2-0.1
				c0.7,0,1.6-0.1,2.6-0.4c0.9-0.1,1.6-0.4,2.5-0.7c0.1,0,0.3-0.1,0.4-0.1l0,0l0,0l0,0c0-0.4,0-0.9,0-1.3v-0.3
				c0-4.2-0.3-9.3-0.4-10.8C81.1,100.6,81,100.8,80.8,100.8z"/>
			<path class="st0" d="M88.5,92.6c-0.3-1-0.7-1.5-1.3-1.9c-0.1,1.6-0.3,2.8-0.4,3.9c0.1-0.1,0.3-0.3,0.3-0.3
				c0.1-0.1,0.4-0.3,0.6-0.4C88.4,93.3,88.7,93.1,88.5,92.6z"/>
			<path class="st0" d="M87.4,90.3L87.4,90.3c0.7,0.4,1.3,1,1.6,2.3c0.1,0.7-0.4,1.2-1,1.6c-0.1,0.1-0.3,0.3-0.6,0.4
				c-0.3,0.3-0.6,0.6-0.9,0.9c-0.1,0.4-0.1,1-0.3,1.5l0,0c0,0.1,0.1,0.3,0.3,0.4c0,0,0.1,0,0.1,0.1l0,0c0.3,0,0.4-0.1,0.6-0.3
				c0.1-0.1,0.4-0.4,0.7-0.4c0.1,0,0.3,0.1,0.6,0.3c0.4,0.4,1,1,1,1.7c0,0.4-0.3,0.7-0.6,1c-0.3,0.3-0.4,0.4-0.6,0.7
				c-0.1,0.4-0.1,1.2,0.3,1.5c0.3,0.3,1,0.3,1.5,0.3s0.9-0.3,1-0.7c0.1-0.1,0.3-0.7,0.6-1.2c0.3-0.9,0.4-1,0.6-0.9
				c0.1,0,0.1,0.3,0.1,0.3c-0.1,0.6,0,1,0.3,1.3c0.1,0.1,0.6,0.3,1,0.1c0.4-0.1,0.9-0.6,1.2-1.3c0.1-0.3,0.1-1.6,0-2.2v-0.1
				c0-0.3,0-0.3,0.1-0.4h0.1l0.1,0.1v0.1l0,0l0,0c0,0.1,0,0.1,0,0.3c0,0.1,0.1,0.1,0.1,0.3c0.3,0.1,0.9-0.1,1.2-0.4
				c0.4-0.4,0.3-1.2,0-2c-0.4-1.3-2.3-2.8-2.5-2.8l-0.3-0.1c-0.1-0.1-0.4-0.3-0.7-0.3c-0.3-0.1-0.4-0.4-0.6-1
				c-0.1-0.3-0.3-0.7-0.6-1.3c-0.7-1.5-1.6-2.5-2.6-3.6c-0.7-0.9-1.6-1.6-2.5-2.3c0,0.1,0.1,0.3,0.1,0.6
				C87.4,86.2,87.4,88.8,87.4,90.3z"/>
			<path class="st0" d="M61.3,92c0.1,2.2,0.4,4.2,0.9,6.3c4.2,1.2,8.6,1.7,13,1.6c4.2-0.1,7.7-0.9,10.6-2.2c0.1-0.3,0.1-0.6,0.1-0.9
				l0,0c0.1-0.4,0.1-0.9,0.3-1.3c0.3-1.3,0.6-2.8,0.7-5v-0.1c0.1-1,0-2.6,0-4.2c0-0.6-0.1-1.2-0.1-1.6c0,0,0,0,0-0.1
				c-0.1-0.4-0.1-0.7-0.3-1.2c0-0.1-0.1-0.3-0.1-0.4c-0.1-0.1-0.1-0.3-0.3-0.4c-0.9-1.3-2.3-2.3-3.8-2.9L61.3,92z"/>
			<path class="st7" d="M213.2,0.1c0-0.1-0.1-0.1-0.3-0.1l-7.7,0.4c-0.1,0-0.1,0.1-0.3,0.1c0,0.1,0,0.3,0.1,0.3l1,0.6h-3.2
				c-0.1,0-0.1,0-0.3,0.1c0,0.1,0,0.3,0.1,0.3l2.6,1.7L111.3,60c-0.3-2.5-0.9-4.5-1.2-5.2c-0.1-0.1-0.1-0.4-0.1-0.6
				c-0.1-0.6-0.6-1.5-1.2-2.8c-0.3-0.6-0.7-1.3-1.2-2.2c0,0,0-0.1-0.1-0.1c-0.9-1.2-1.6-1.9-2.2-2.5c0.1-0.7,0.1-2.5-0.1-6.1
				c-0.1-1.5-0.6-2.5-0.9-3.6c-3.3-8.9-13.4-15.1-31.6-15.1c-24.2,0-33.3,10.9-32.9,17.9c0.4,7,1.6,8.6,2.2,9.8
				c0.6,1.2,0.9,1.6,0.9,1.6l1.7-0.4c0,1.5,0.1,2.8,0.1,3.8c0,0,0,0,0,0.1c0,0,0,0,0,0.1c0,0.3,0.1,0.6,0.1,0.9c0,0,0,0,0,0.1
				s0,0,0,0.1c0.6,4.4,1.7,6,2.3,6.7c0-0.4,0.1-0.7,0.1-1.2c0-0.3,0.1-0.6,0.1-0.7c-0.6-1.3-0.9-2.5-1.2-3.6l0,0
				c-0.1-0.6-0.3-1-0.3-1.5l0,0l0,0c-0.3-1.6-0.3-3.1-0.3-3.8c0-0.3,0-0.6,0.1-0.9c0.1-0.7,0.1-1.3,0.1-1.3l2.3-1l0.1,2.9
				c0,0,0,0,3.1-0.1c0.3,0,0.7,0,1,0c0.6,0,1.3,0,2-0.1c0.1,0,0.4,0,0.6,0c-0.6,0.6-0.9,1.3-0.9,2.2c0,1,0.4,1.9,1.2,2.5
				c1.5-0.1,3.1-0.4,4.8-0.7c0.3-0.4,0.6-1.2,0.6-1.7c0-1-0.4-1.9-1.2-2.5c3.5-0.1,2.3-0.1,4.5-0.3c1.6-0.1,2.9-0.3,4.1-0.4l0,0
				c7-0.7,8.2-0.6,16.2,0.6c5.4,0.3,5.4,0.1,8.4,0.1c2.5,0,5.2,0.3,6.4,0.3c0.3,0,0.4,0,0.4,0l0.6-1.2l1.2-2.6l0.9-1.9l0.1-0.3
				c0,0,0,0,0.1,0.1c0.1,0,0.1,0.1,0.3,0.3v0.1c0.1,1.6,0.1,3.3,0,5c0,0.1,0,0.1,0,0.3l0,0v0.1c0.1,0.4,0.1,0.9,0.1,1.2
				c0.1,0.4,0.1,1.2,0.3,1.5l0.1,0.6l0,0l0,0l0,0v0.1v0.1l0.6,2.9l1.6,6.1l-5.1,3.1c-0.3-0.7-0.4-1.3-0.6-2.2
				c-0.1-0.4-0.1-0.7-0.3-1.3c-0.1,0.3-0.3,0.6-0.4,0.9c0,0.1,0.1,0.3,0.1,0.4c0.1,0.9,0.4,1.6,0.7,2.3L99,67.6
				c0.1-1,0.1-2.2,0.4-3.6c0,0,0,0,0-0.1c0-0.4,0.1-0.7,0.1-1.2c-0.1,0.1-0.1,0.3-0.3,0.4c-0.7,1-1.5,2-2.2,2.9
				c-0.3,0.9-0.9,1.9-1.6,2.8c-0.4,0.6-1,1.2-1.6,1.7c-0.1,0.1-0.1,0.1-0.3,0.3c-0.1,0.1-0.3,0.1-0.4,0.3c-0.4,0.1-0.7,0.3-1.6,0.6
				l0,0c-2.6,0.7-6.1,1.9-10,2.6c-0.1,0-0.1,0-0.3,0c-2.2,0.4-3.3,0.6-3.3,0.6v0.3v0.1c-0.1,0-0.1,0-0.3,0v0.3c0,0.9,0,2,0,2v0.7
				h0.1c0,0,1.6,0.3,2.8,0.6L61.9,90.1c0-0.3,0-0.7,0-1c-0.1-1,0-1.9,0.1-2.8c0.1-0.7,0.3-1.3,0.4-2c0.1-0.3,0.3-0.7,0.4-1
				c0-0.1,0.1-0.3,0.1-0.3c0.3-0.6,0.7-1.2,1.2-1.6c0.1-0.1,0.3-0.3,0.3-0.3c0.1-0.1,0.3-0.3,0.4-0.3c0.3-0.3,0.7-0.4,1-0.6
				c1.6-0.7,5.8-1.7,5.8-1.7h0.1v-0.1c0,0,0-0.3,0-1.6v-0.6c-0.1,0-0.1,0-0.3,0V76v-0.6c-0.7,0-1.5,0-2.3-0.1l0,0
				c-1.7-0.1-3.5-0.4-5.4-0.9c-0.7-0.1-1.5-0.4-2-0.6c-1-0.3-1.9-0.4-2.6-0.7c-1.6-0.4-2.8-0.7-5-1.6c-1.2-0.3-1.9-0.6-2.5-0.9
				c-1-0.6-2.8-2.2-3.6-4.1c0.3,5,0.4,13,0.4,13l8.2,0.6l-0.4-4.2l2.8,3.8l6.7-0.4l0.4-0.1c-0.3,0.1-0.4,0.1-0.6,0.3
				c-0.7,0.4-1.5,0.9-2,1.5c-0.9,0.3-1.9,0.7-2.6,1.2c-1,0.6-2.9,2-4.5,3.6c-1.2,1.2-2,2.3-2.8,3.8c-0.3,0.6-0.4,1-0.6,1.3
				c-0.1,0.4-0.3,0.7-0.4,0.7c-0.1,0.1-0.4,0.1-0.7,0.3c-0.1,0-0.1,0.1-0.3,0.1c-0.3,0.1-2.2,1.6-2.6,3.1c-0.1,0.6-0.6,1.7,0.1,2.3
				L0.1,126.7C0,126.8,0,127,0,127l0.6,0.9l0.1,0.1l0,0h0.1l49.9-30c0,0.6,0,1.3,0.1,1.5c0.3,0.9,0.9,1.3,1.5,1.5
				c0.4,0.1,1,0,1.3-0.3c0.1-0.1,0.3-0.4,0.4-0.7c0.1,0.4,0.4,1,0.6,1.2c0.3,0.4,0.7,0.9,1.3,0.9c0.1,0,0.3,0,0.6,0
				c0.4,0,0.9-0.1,1.2-0.4c0.4-0.4,0.4-1.3,0.3-1.9c-0.1-0.4-0.3-0.6-0.6-0.9c-0.3-0.3-0.4-0.4-0.6-0.7c0-0.6,0.6-1.2,0.9-1.5
				c0.3-0.3,0.4-0.1,0.7,0.1c0.1,0.1,0.6,0.4,0.9,0.4c0.1,0,0.3-0.1,0.4-0.1c0.3-0.3,0.4-0.7,0.4-1.2c0-0.7-0.4-1.5-1.3-2.2
				c-0.1-0.1-0.3-0.3-0.4-0.3l2.6-1.6c0.1,2,0.4,4.1,0.7,5.8c-0.3-0.1-0.7-0.1-1-0.3L60.7,98l0,0c0,0,0,0,0,0.1l-0.1,0.4h0.1
				c0,4.2,0.7,11.6,0.7,11.6s-3.6,0.1-2.5,2.3l0,0h0.1h0.1c0.7-0.3,1.6-0.4,2-0.6c0.7,0.1,1.5,0.3,2,0.6l0,0c0.6,0,1.2,0.1,1.7,0.3
				c1.2,0.4,2.2,1.3,3.1,2.2c0.7,0.4,0.9,0.4,2.2,1.7c0,0,1.5,1,1.7,1.7l0,0c0,0.1,0,0.1,0,0.3l0,0c0,0,0,0-0.1,0.1l0,0
				c-0.7,0.6-4.4-0.7-5.4-1s-3.1-1.3-5-2.2c-1.9-0.9-3.9-1.9-3.8-2.3l0,0c0.1-0.1,0.1-0.1,0.3-0.3l-0.3,0.1
				c-0.9,0.1-1.7,0.4-2.5,0.6c-1.2,0.3-2,0.4-2.6,0.7c-0.7,0.3-1.2,0.4-1.6,0.7c-0.4,0.3-0.7,0.6-1,0.9c-0.3,0.3-0.6,0.7-0.7,1.2
				c0,0,0,0.1-0.1,0.1c-0.1,0.7-0.3,1.6-0.1,2.3c0,0.1,0.1,0.3,0.1,0.4c0.1,0.6,0.6,1.2,1,1.7c0.7,0.7,1.7,1.3,2.3,1.7
				c1,0.6,2.2,0.9,3.3,1.2c0.4,0.1,0.7,0.1,1.2,0.1c1.3,0.1,2.8,0.3,3.3,0.3c0.3,0,0.4,0,0.7,0c0.9,0,1.7,0,2.6-0.3
				c0.1,0,0.3,0,0.4-0.1c1.5-0.3,2.9-0.9,4.1-1.6c1.3-0.7,2.5-1.7,3.1-2.2c0.3-0.3,0.6-0.4,0.7-0.7c0.1-0.3,0.3-0.4,0.3-0.7
				c0-0.1,0-0.3,0-0.4c0.1,0.1,0.3,0.3,0.4,0.4c0.3-0.1,0.7-0.3,1-0.6c0.3-0.3,0.7-2.5-0.1-3.6H75c-0.7,0.4-0.4,2.9-0.1,3.8l0,0l0,0
				c0,0.1,0.1,0.3,0.1,0.3c0.1,0.1,0.3,0.3,0.4,0.3c0.3,0.3,0.6,0.4,0.7,0.7c0.3,0.1,0.4,0.3,0.6,0.4l0.1,0.1
				c0.6,0.4,1.7,1.2,2.9,1.9c1.3,0.7,3.1,1.5,4.5,1.9c0.4,0.1,0.9,0.3,1.3,0.3c0.9,0.1,1.6,0.3,2.6,0.3c0,0,0,0,0.1,0
				c1,0,1.9-0.1,2.8-0.3c0.4-0.1,0.9-0.1,1.3-0.3c1.3-0.3,2.5-0.9,3.3-1.6c1-0.7,1.7-1.6,2.2-2.2c0.4-0.6,0.7-1,0.9-1.5
				c0-0.1,0.1-0.3,0.1-0.3c0.1-0.6,0.1-1.3,0-1.9c0-0.1-0.1-0.3-0.1-0.6c-0.1-0.3-0.3-0.7-0.6-1c-0.3-0.4-0.7-0.7-1.2-1
				c-0.3-0.3-0.9-0.6-1.7-0.9c-0.7-0.3-1.7-0.4-2.8-0.6c-0.3,0-0.6-0.1-1-0.1c-0.3,0-0.6-0.1-1-0.1h-0.3c0.1,0.1,0.1,0.1,0.3,0.3
				c0,0.1,0,0.3-0.3,0.4c-1.2,0.6-1.2,0.7-3.3,1.7l-4.4,2c0,0-1,0.6-2.2,1c1-0.3,2-0.7,2.3-0.9l4.4-2c2-0.9,2.2-1,3.1-1.5l0.3-0.1
				c0.3-0.1,0.3-0.3,0.4-0.3c0.3,0,0.6,0.1,0.7,0.1c0.3,0,0.7,0.1,1,0.1c0.9,0.1,1.9,0.4,2.6,0.6c0.6,0.1,1.2,0.4,1.6,0.7
				s0.9,0.6,1,0.9c0.3,0.4,0.6,0.9,0.7,1.3c0.1,0.4,0.1,1.2,0,1.7c-0.1,0.6-0.4,1-0.9,1.6c-0.4,0.6-1.2,1.3-2,2
				c-0.9,0.6-2,1.2-3.2,1.5c-1.2,0.3-2.6,0.4-4.1,0.4c-1.3,0-2.5-0.1-3.8-0.6c-1.3-0.4-3.1-1-4.4-1.7c-1.2-0.6-2.3-1.3-2.9-1.7
				l-0.1-0.1c-0.1-0.1-0.3-0.3-0.6-0.4c0,0.1-0.1,0.1-0.1,0.1l0,0v-0.1c0,0,0,0,0-0.1c0,0,0-0.1,0-0.3c0.1-0.3,0.3-0.7,0.6-1.2
				c0-0.1,0.1-0.1,0.1-0.3c0-0.1-0.1-0.4-0.1-0.6c0-0.1,0-0.3,0-0.4s0-0.3,0-0.3c0-0.3,0-0.4,0-0.4c1.5-1.2,2.5-1.6,3.8-2.2l0.1-0.1
				c0.9-0.6,1.7-1.3,2.8-1.6c0.6-0.1,1-0.1,1.6-0.3l0,0c0.7-0.1,1.5-0.3,2.3-0.4c0.7,0,1.5,0.1,2,0.4h0.1c0.6-2.5-3.1-2.5-3.1-2.2
				V98.3c0.1-0.1,0.4-0.1,0.6-0.3l-0.3-0.6h0.1c0.3,0,0.7-0.1,0.9-0.4c0.3-0.3,0.4-0.4,0.7-0.1c0.3,0.3,0.9,0.9,0.9,1.5
				c0,0.3-0.3,0.4-0.6,0.7c-0.3,0.3-0.6,0.4-0.6,0.9c-0.1,0.6-0.1,1.3,0.3,1.9c0.3,0.3,0.7,0.4,1.2,0.4c0.1,0,0.4,0,0.6,0
				c0.6-0.1,1-0.4,1.3-0.9c0.1-0.3,0.3-0.7,0.6-1.2c0.1,0.3,0.1,0.6,0.4,0.7c0.3,0.3,0.9,0.4,1.3,0.3c0.6-0.1,1-0.7,1.5-1.5
				c0.1-0.3,0.1-1.2,0.1-1.9l0,0c0.6,0.1,1.3-0.3,1.6-0.4c0.7-0.6,0.3-1.7,0.1-2.5c-0.4-1.5-2.5-2.9-2.6-3.1l-0.3-0.1
				c-0.1-0.1-0.4-0.3-0.7-0.3c-0.1,0-0.3-0.3-0.4-0.7c-0.1-0.3-0.3-0.7-0.6-1.3c-0.7-1.5-1.6-2.6-2.8-3.8c-0.9-1-2-1.9-3.1-2.8
				c-0.9-1.7-2.5-3.1-4.2-3.8l2-1.2c1.3-0.1,2.6-0.1,5-0.3l1.3-3.3l1.7,3.8l4.5,0.1c0.9-4.2,1.2-6.1,1.3-8.6l2-1.2
				c0.1,0.3,0.3,0.6,0.4,0.9c0.7,1.6,2.2,4.2,3.1,5.8c0.3,0.4,0.4,0.7,0.6,1c0,0,0,0,0,0.1l0,0l0,0c0,0,0,0,0,0.1l0,0l3.9,5.1
				c0.1,0.1,4.1,4.2,5.2,5l0,0c0.4,0.3,0.7,0.4,1.2,0.4c0.1,0,0.1,0,0.3-0.1c0.4-0.1,0.4-0.7,0.3-1c0,0,0,0,0-0.1
				c-1.9-3.5-2.5-6-3.1-9.2c-0.6-3.1-0.9-7.3-1-9.3c0-0.1,0-0.3,0-0.4c0-0.3,0-0.7,0-1c0-0.3,0-0.6,0-1c0-0.9,0-1.7-0.1-3.2
				l94.8-56.8v3.5c0,0.1,0,0.1,0.1,0.3c0.1,0,0.3,0,0.3-0.1l1.7-3.1v1.5c0,0.1,0,0.1,0.1,0.3c0.1,0,0.3,0,0.3-0.1l4.2-6.8
				C213.3,0.4,213.3,0.3,213.2,0.1z M49.2,40.9c-3.1,0.3-6,0.7-8,1.2c-0.9-5.7,3.8-7.4,3.8-7.4l17.8-2.8l0.9,2.9l1.5,5
				C62.8,39.6,55.6,40.2,49.2,40.9z M68.2,46.6L68.2,46.6c-6.6-0.3-8.2-1.3-16.2-1c6.3-1.9,12.7-2.2,12.7-2.2l0.3-2.8v-0.3l0.1,0.3
				l1.2,3.8h2l0,0l7.4,0.3l2.3-2.9l-0.1,2.5l4.1-0.6l0.1-2.8l0.1-2.6l0.4,2.6l0.6,3.3l7.1-0.3c0,0-0.1-1-0.4-2.5
				c-0.3-1.7-0.9-4.2-1.2-6.1c-0.1-0.7-0.1-1.3-0.3-1.7c-0.1-0.7,0-0.9,0.3,0c0.1,0.4,0.3,1,0.6,1.9l0,0c0.6,1.9,1.5,4.1,2.8,6.1
				c0.7,1.3,1.6,2.6,2.5,3.9C80.4,46.7,73,46.9,68.2,46.6z M58.4,94.7c0.7,0.7,1.2,1.3,1.2,1.9c0,0.3-0.1,0.7-0.3,0.9
				c0,0-0.1,0-0.1,0.1c-0.1,0-0.6-0.1-0.6-0.3c-0.3-0.3-0.7-0.7-1.3-0.1c-0.4,0.4-1,1-1,1.7c0,0.4,0.3,0.7,0.6,1s0.4,0.4,0.6,0.7
				c0.1,0.4,0.1,1.2-0.3,1.5c-0.3,0.3-1,0.3-1.5,0.3c-0.4,0-0.9-0.3-1-0.7c-0.1-0.1-0.3-0.7-0.6-1.2c-0.3-0.7-0.3-0.9-0.6-0.9
				c0,0,0,0-0.1,0c-0.1,0-0.1,0.3-0.1,0.3c0.1,0.6,0,1-0.3,1.3c-0.1,0.1-0.6,0.3-1,0.1c-0.4-0.1-0.9-0.6-1.2-1.3
				c-0.1-0.3-0.1-1-0.1-1.6l7.1-4.2C58.1,94.2,58.2,94.4,58.4,94.7z M57.2,92.6L57.2,92.6c0.3-1.3,1.6-2.3,2.3-2.9l0.1-0.1
				c0.6-0.4,0.7-0.6,0.9-0.9c0,0,0,0,0.1,0c0,0.1,0,0.3,0,0.4c0,0.4,0,0.9,0,1.3L57.2,92.6z M60.9,86.8c-0.1,0.4-0.1,1-0.1,1.5
				l-0.1,0.1c-0.1,0.1-0.4,0.4-0.9,0.7l-0.1,0.1c-0.9,0.6-2.2,1.7-2.5,3.1c0,0.1,0,0.3,0,0.4l-7.7,4.7c0,0,0,0-0.1,0
				c-0.4-0.4-0.3-1.2,0-2c0.4-1.3,2.3-2.8,2.5-2.8c0.1,0,0.1-0.1,0.3-0.1c0.1-0.1,0.4-0.3,0.6-0.3c0.3-0.1,0.4-0.4,0.6-1
				c0.1-0.3,0.3-0.7,0.6-1.3c0.7-1.5,1.6-2.5,2.6-3.6c1.2-1.2,2.8-2.5,4.4-3.6c0.6-0.3,1.2-0.6,1.9-0.9c-0.3,0.4-0.6,1-0.9,1.5
				C61.3,84.3,61,85.5,60.9,86.8z M70.9,121.3c-0.4,0.4-1.6,1.3-2.9,2.2c-1.2,0.6-2.6,1.2-3.9,1.5s-2.3,0.3-3.6,0.3
				c-0.7,0-2.8-0.1-4.5-0.4c-1.2-0.3-2.2-0.6-3.2-1.2c-0.9-0.4-1.7-1-2.3-1.6c-0.6-0.6-0.9-1.2-1-1.9c-0.1-0.6-0.1-1.5,0.1-2
				c0.1-0.6,0.4-0.9,0.7-1.2c0.3-0.3,0.6-0.6,0.9-0.7c0.3-0.1,0.7-0.4,1.5-0.6c0.7-0.3,1.5-0.4,2.6-0.7c0.6-0.1,1.5-0.3,2.3-0.6
				c0.3,0.4,1.3,1,3.9,2.3c0.9,0.4,3.8,1.7,5,2.2l0,0c0.1,0,0.3,0.1,0.4,0.1c2.3,0.7,4.1,1.2,4.8,1c0,0.1,0,0.1,0,0.1
				C71.6,120.4,71.5,120.7,70.9,121.3z M78.5,78.2c1.2,0,2,0,2.8,0l-0.7,0.4c0,0,0,0-0.1,0C79.8,78.6,79.1,78.3,78.5,78.2z
				 M81.7,111.8c0,0.4,0,0.9,0,1.3l0,0l0,0l0,0c-0.1,0.1-0.3,0.1-0.4,0.1c-0.9,0.3-1.7,0.6-2.5,0.7c-1,0.3-1.9,0.3-2.6,0.4
				c-0.9,0.1-1.6,0.1-2,0.1l0,0c-0.4,0-1.2,0-2-0.1c-0.6-0.1-1.3-0.1-2-0.3c-1.3-0.3-2.8-0.6-3.9-1H66l0,0l0,0l0,0
				c0-0.3,0-0.7,0-1.2c-0.1-3.1-0.3-7.6-0.1-11.1c0-0.1,0-0.1,0-0.3c0-0.1,0-0.1,0-0.1c0.1,0,0.3,0,0.4,0.1h0.1c0.1,0,0.3,0,0.4,0.1
				c2.5,0.4,5,0.6,7.6,0.6c0.3,0,0.6,0,0.7,0c1.7,0,3.5-0.1,5-0.4c0.1,0,0.3,0,0.4-0.1c0.1,0,0.1,0,0.1,0c0.1,0,0.3,0,0.6-0.1
				c0.1,1.6,0.4,6.6,0.4,10.8L81.7,111.8L81.7,111.8z M89.4,86.2c1.2,1.2,1.9,2.2,2.6,3.6c0.3,0.6,0.4,1,0.6,1.3
				c0.3,0.6,0.3,0.9,0.6,1c0.1,0.1,0.4,0.1,0.7,0.3l0.3,0.1c0.1,0.1,2,1.6,2.5,2.8c0.3,0.7,0.4,1.6,0,2c-0.3,0.3-0.9,0.6-1.2,0.4
				c0,0-0.1,0-0.1-0.3c0-0.1,0-0.3,0-0.3l0,0l0,0c0-0.1,0-0.1,0-0.1L95.2,97h-0.1c-0.1,0-0.1,0.1-0.1,0.4v0.1c0,0.6,0.1,1.9,0,2.2
				c-0.3,0.7-0.7,1.2-1.2,1.3c-0.3,0.1-0.7,0-1-0.1c-0.3-0.3-0.4-0.7-0.3-1.3c0-0.1,0-0.3-0.1-0.3s-0.3,0-0.6,0.9
				c-0.1,0.4-0.4,1-0.6,1.2c-0.3,0.4-0.6,0.6-1,0.7s-1,0.1-1.5-0.3c-0.3-0.3-0.3-1-0.3-1.5c0-0.3,0.3-0.4,0.6-0.7
				c0.3-0.3,0.6-0.6,0.6-1c0-0.7-0.6-1.3-1-1.7c-0.1-0.1-0.4-0.3-0.6-0.3c-0.3,0-0.6,0.3-0.7,0.4c-0.1,0.1-0.4,0.3-0.6,0.3l0,0
				c-0.1,0-0.1,0-0.1-0.1c-0.1-0.1-0.3-0.3-0.3-0.4l0,0c0.1-0.4,0.1-1,0.3-1.5c0.1-0.3,0.4-0.6,0.9-0.9c0.1-0.1,0.3-0.3,0.6-0.4
				c0.6-0.4,1.2-0.9,1-1.6c-0.3-1.3-0.9-1.7-1.6-2.2c0,0,0,0-0.1,0c0.1-1.5,0-3.9-0.1-5.8c0-0.1-0.1-0.3-0.1-0.6
				C87.8,84.6,88.7,85.3,89.4,86.2z M86.8,94.7c0.1-1.2,0.4-2.3,0.4-3.9c0.6,0.4,1,0.9,1.3,1.9c0.1,0.4-0.3,0.7-0.9,1.2
				c-0.1,0.1-0.4,0.3-0.6,0.4C87.1,94.4,86.9,94.5,86.8,94.7z M85.8,82.6c0.1,0.1,0.1,0.3,0.3,0.4c0.1,0.1,0.1,0.3,0.1,0.4
				c0.1,0.3,0.3,0.7,0.3,1.2c0,0,0,0,0,0.1c0,0.4,0.1,1,0.1,1.6c0.1,1.6,0.1,3.2,0,4.2c0,0.1,0,0.1,0,0.1c-0.1,2-0.4,3.5-0.7,5
				c-0.1,0.4-0.1,0.9-0.3,1.3l0,0c-0.1,0.3-0.1,0.6-0.1,0.9c-2.8,1.5-6.3,2.2-10.6,2.2c-4.4,0.1-8.7-0.4-13-1.6
				c-0.4-1.9-0.7-4.1-0.9-6.3l20.7-12.4C83.6,80.2,84.9,81.3,85.8,82.6z M104,54.5L104,54.5L104,54.5v-0.1l-0.9-7.7h0.1
				c0.7,0.6,1.3,1,1.7,1c0,0,0,0,0.1,0l0,0h0.1l0,0c0,0,0,0,0.1,0c0,0,0.1,0,0.1,0.1l0,0l0,0l0.1,0.1c0,0,0,0,0.1,0l0.1,0.1
				c0,0,0,0,0.1,0.1l0.1,0.1c0,0,0.1,0,0.1,0.1l0.1,0.1c0,0,0.1,0,0.1,0.1l0.1,0.1c0,0,0,0,0.1,0.1l0.1,0.1c0,0,0,0,0.1,0.1
				s0.1,0.1,0.1,0.3l0.1,0.1c0.4,0.7,1.2,1.9,1.6,2.9c0.1,0.3,0.1,0.4,0.3,0.6c0.1,0.3,0.9,2,0.9,2.2l0,0l0,0c0,0,0,0-0.1,0
				c0,0,0,0-0.1,0l0,0l0,0l0,0c0.3,1,0.9,2.9,1,5.1l-4.8,2.9L104,54.5z M111.5,74.4L111.5,74.4L111.5,74.4L111.5,74.4L111.5,74.4
				c0,0.1,0,0.1,0,0.1c0.1,0.9,0.1,1.6,0.3,2.3c0.6,3.2,1,5.8,3.1,9.2c0,0,0,0,0,0.1v0.1c0,0.1,0,0.1,0,0.1s-0.3,0-0.9-0.4h-0.1
				c-0.4-0.3-1.6-1.3-2.6-2.3c-0.3-0.3-0.6-0.6-0.9-0.9c-0.9-1-1.7-1.7-1.7-1.7l-3.6-4.7l-0.3-0.3l0,0l0,0l0,0l0,0l-0.1-0.1
				c-0.1-0.1-0.1-0.3-0.1-0.4l0,0l0,0c0-0.1,0-0.1,0-0.3c0-0.1,0-0.3,0-0.7c0-0.6,0-0.9,0-1c0-0.1,0-0.3,0-0.3l0,0l0,0l0,0l0,0
				c0,0.1-0.1,1-0.3,1.2l-0.1,1l0,0l-0.1-0.1l0,0c0-0.1-0.1-0.1-0.1-0.3l-0.4-0.7l0,0l0,0l0,0l0,0l0,0c0,0,0,0,0-0.1
				c-0.9-1.5-1.9-3.5-2.5-4.7c-0.1-0.3-0.3-0.6-0.4-1l5-2.9l0.1,0.7v0.3v0.1v0.1l0.1,0.3c0.1,0.6,0.7,2.6,1.2,4.2
				c0,0.1,0,0.1,0.1,0.3c0.7,2.5,1,3.9,1.2,4.4l0,0v0.1l0,0c0-0.1-0.1-0.7-0.3-1.6c-0.1-0.6-0.3-1.2-0.4-2c-0.1-0.4-0.1-0.9-0.3-1.3
				c-0.7-3.3-1-4.4-1-4.7l0,0v-0.1l0,0l0,0l0,0l-0.1-0.9l4.5-2.6c0,1.2,0.1,2,0.1,2.8c0,0.3,0,0.6,0,1c0,0.3,0,0.6,0,1
				c0,0.1,0,0.3,0,0.6l0,0l0,0v0.1l0,0l0,0v0.1C111,69,111.3,72.2,111.5,74.4z"/>
		</g>
	</g>
	<g>
		<path class="st0" d="M94.9,59.8c0-0.1-0.1-0.4-0.1-0.6l0,0v-0.1c0,0,0,0,0-0.1c-0.1-0.3-0.1-0.4-0.3-0.7c-0.3,0-6.6-0.9-13-1.7
			c-3.2-0.4-6.6-0.7-9.2-1l-2.2,0.3l-2,0.3l-2.5,0.3l-14.3,1.5h-0.3c0,0.4-1.7,3.1-1.6,6.1c0,0.3,0,0.7,0.1,1
			c0.3,1.7,1.3,3.5,3.5,5.1c0.3,0.1,0.6,0.1,0.9,0.3c0.7,0.3,1.3,0.4,2,0.7c0.4,0.1,0.9,0.3,1.3,0.4c3.6,1.2,7.4,2,11.8,2.5l0,0
			c1.3,0.1,2.6,0.1,4.1,0.1c6.8,0,13.1-1.7,18.9-3.9c0.9-0.7,1.5-1.6,2-2.5c0.3-0.4,0.6-1,0.7-1.6c0.3-1,0.6-2,0.6-2.9l0,0
			c0-0.9,0-1.7-0.1-2.6C94.9,60.1,94.9,60,94.9,59.8z"/>
		<path class="st8" d="M102.5,51.3L102.5,51.3c-0.7,0.7-3.1,2.9-3.5,3.3c-0.1,0.1-0.4,0.3-0.6,0.4c-1.6,1.2-2.6,1.5-3.1,1.6l0,0
			c-4.1-0.1-18.2-2.8-22.9-2.9c-1,0-2.6,0.1-4.7,0.3l0,0c-2.3,0.3-5.2,0.6-7.9,1c-1.7,0.3-3.3,0.4-4.8,0.7c-1.3,0.1-2.5,0.4-3.3,0.4
			c-0.3,0-0.6,0-0.7,0.1c-0.3,0-0.4,0-0.4,0l-1.2,0.1c-1.2-0.3-2.5-0.6-3.6-1c0.1,0.4,0.1,1,0.3,1.5c0.7,0.3,1.5,0.4,2.3,0.6
			c-0.4,1-0.9,1.9-1,3.1c0,0.3-0.1,0.4-0.1,0.7c-0.1,0.3-0.1,0.7-0.1,1.2c0,0.4-0.1,0.9-0.1,1.3c0,1,0.3,2,0.9,2.9
			c1,1.9,2.6,3.5,3.6,4.1c0.6,0.3,1.3,0.4,2.5,0.9c2.2,0.7,3.3,1.2,5,1.6c0.7,0.1,1.6,0.4,2.6,0.7c0.6,0.1,1.3,0.3,2,0.6
			c1.7,0.4,3.6,0.6,5.4,0.9l0,0c0.7,0,1.5,0.1,2.3,0.1c3.2,0.1,6.4-0.1,9.5-0.7c0.1,0,0.1,0,0.3,0c3.9-0.9,7.4-1.9,10-2.6l0,0
			c0.9-0.3,1.2-0.4,1.6-0.6c0.1,0,0.3-0.1,0.4-0.3c0.1-0.1,0.1-0.1,0.3-0.3c0.6-0.6,1.2-1.2,1.6-1.7c0.7-1,1.2-1.9,1.6-2.8
			c0.4-1.2,0.6-2.2,0.7-2.9c0-2.8-0.4-3.8-1.2-5.7c-0.1-0.1-0.1-0.3-0.3-0.6c1.2-0.6,1.9-0.9,2.5-1.3c0.1-0.1,0.4-0.3,0.6-0.4
			c0.3-0.1,1-0.7,1.7-1.3c0.7-0.7,1.3-1.6,1.7-2l0,0L102.5,51.3L102.5,51.3C102.5,51.1,102.5,51.1,102.5,51.3z M95.2,63.1L95.2,63.1
			c0,1-0.3,2-0.6,3.1c-0.1,0.6-0.4,1-0.7,1.6c-0.6,0.9-1.2,1.7-2,2.5c-5.8,2.2-12.1,3.9-18.9,3.9c-1.5,0-2.8,0-4.1-0.1l0,0
			c-4.4-0.3-8.2-1.3-11.8-2.5c-0.4-0.1-0.9-0.3-1.3-0.4c-0.7-0.3-1.3-0.4-2-0.7c-0.3-0.1-0.6-0.1-0.9-0.3c-2.2-1.6-3.2-3.3-3.5-5.1
			c-0.1-0.3-0.1-0.7-0.1-1c-0.1-3.1,1.7-5.7,1.6-6.1h0.3l14.3-1.5l2.5-0.3l2-0.3l2.2-0.3c2.6,0.3,6,0.6,9.2,1
			c6.4,0.7,12.5,1.6,13,1.7c0.1,0.3,0.1,0.4,0.3,0.7c0,0,0,0,0,0.1v0.1l0,0c0.1,0.1,0.1,0.4,0.1,0.6c0,0.1,0.1,0.4,0.1,0.6
			C95.2,61.2,95.2,62,95.2,63.1z"/>
	</g>
</g>
</svg>
