<?xml version="1.0" encoding="utf-8"?>
<!-- Generator: Adobe Illustrator 24.1.0, SVG Export Plug-In . SVG Version: 6.00 Build 0)  -->
<svg version="1.1" id="Capa_1" xmlns="http://www.w3.org/2000/svg" xmlns:xlink="http://www.w3.org/1999/xlink" x="0px" y="0px"
	 viewBox="0 0 26.9 26.9" style="enable-background:new 0 0 26.9 26.9;" xml:space="preserve">
<style type="text/css">
	.st0{fill:#B3B3B3;}
</style>
<g>
	<path class="st0" d="M24.1,26.9c-0.8-0.1-1.4-0.6-1.9-1.1c-1.8-1.9-3.7-3.7-5.5-5.5c-0.1-0.1-0.1-0.1-0.2-0.2
		c1.5-1,2.6-2.1,3.6-3.7c0.1,0.1,0.1,0.2,0.2,0.3c1.8,1.8,3.7,3.7,5.5,5.5c0.6,0.6,1.1,1.1,1.2,2c0,0.2,0,0.4,0,0.5c0,0,0,0.1,0,0.1
		c-0.1,0.6-0.4,1.1-0.9,1.6c-0.4,0.3-0.8,0.5-1.3,0.5C24.5,26.9,24.3,26.9,24.1,26.9z"/>
	<path class="st0" d="M10.1,0c5.6,0,10.1,4.6,10.1,10.1s-4.6,10.1-10.1,10.1C4.5,20.1,0,15.6,0,10.1S4.6,0,10.1,0z M10.1,2.5
		c-4.2,0-7.6,3.4-7.5,7.6c0,4.2,3.4,7.5,7.6,7.5c4.2,0,7.6-3.4,7.6-7.6S14.2,2.5,10.1,2.5z"/>
</g>
</svg>
