<?xml version="1.0" encoding="utf-8"?>
<!-- Generator: Adobe Illustrator 23.0.0, SVG Export Plug-In . SVG Version: 6.00 Build 0)  -->
<svg version="1.1" id="Capa_1" xmlns="http://www.w3.org/2000/svg" xmlns:xlink="http://www.w3.org/1999/xlink" x="0px" y="0px"
	 viewBox="0 0 26.88 26.88" style="enable-background:new 0 0 26.88 26.88;" xml:space="preserve">
<style type="text/css">
	.st0{fill:#B3B3B3;}
</style>
<g>
	<path class="st0" d="M24.1,26.88c-0.81-0.11-1.39-0.59-1.94-1.15c-1.83-1.85-3.68-3.69-5.52-5.53c-0.07-0.07-0.14-0.13-0.24-0.21
		c1.45-0.95,2.64-2.12,3.63-3.66c0.07,0.12,0.09,0.22,0.16,0.29c1.84,1.84,3.68,3.69,5.53,5.52c0.56,0.56,1.06,1.14,1.17,1.96
		c0,0.17,0,0.35,0,0.52c-0.01,0.05-0.03,0.1-0.04,0.15c-0.11,0.63-0.42,1.15-0.92,1.56c-0.38,0.31-0.83,0.45-1.3,0.55
		C24.45,26.88,24.27,26.88,24.1,26.88z"/>
	<path class="st0" d="M24.62,26.88c0.47-0.1,0.92-0.24,1.3-0.55c0.5-0.41,0.8-0.92,0.92-1.56c0.01-0.05,0.03-0.1,0.04-0.15
		c0,0.75,0,1.5,0,2.26C26.13,26.88,25.37,26.88,24.62,26.88z"/>
	<path class="st0" d="M10.09,0c5.55,0.01,10.08,4.55,10.07,10.1c-0.01,5.55-4.56,10.08-10.1,10.06C4.51,20.14,0,15.61,0,10.07
		C0,4.53,4.55-0.01,10.09,0z M10.07,2.52C5.9,2.54,2.5,5.95,2.52,10.1c0.02,4.16,3.41,7.54,7.56,7.54c4.16,0,7.57-3.41,7.56-7.57
		C17.63,5.91,14.22,2.51,10.07,2.52z"/>
</g>
</svg>
