<?xml version="1.0" encoding="utf-8"?>
<!-- Generator: Adobe Illustrator 24.1.0, SVG Export Plug-In . SVG Version: 6.00 Build 0)  -->
<svg version="1.1" id="Capa_1" xmlns="http://www.w3.org/2000/svg" xmlns:xlink="http://www.w3.org/1999/xlink" x="0px" y="0px"
	 viewBox="0 0 208.4 208.4" style="enable-background:new 0 0 208.4 208.4;" xml:space="preserve">
<style type="text/css">
	.st0{fill:#C9232C;}
	.st1{fill:#FFFFFF;}
</style>
<g>
	<circle class="st0" cx="104.2" cy="104.2" r="104.2"/>
	<g id="g4167" transform="matrix(7.8701756,0,0,7.8701756,695.19553,-948.4235)">
		<path id="path4156" class="st1" d="M-75.1,128.5c0,0-4.7,0-5.9,0.3c-0.6,0.2-1.2,0.7-1.3,1.3c-0.3,1.2-0.3,3.6-0.3,3.6
			s0,2.5,0.3,3.6c0.2,0.6,0.7,1.2,1.3,1.3c1.2,0.3,5.9,0.3,5.9,0.3s4.7,0,5.9-0.3c0.6-0.2,1.2-0.7,1.3-1.3c0.3-1.2,0.3-3.6,0.3-3.6
			s0-2.5-0.3-3.6c-0.2-0.6-0.7-1.2-1.3-1.3C-70.4,128.5-75.1,128.5-75.1,128.5z M-76.6,131.5l3.9,2.3l-3.9,2.3V131.5z"/>
	</g>
</g>
</svg>
