<?xml version="1.0" encoding="utf-8"?>
<!-- Generator: Adobe Illustrator 24.1.0, SVG Export Plug-In . SVG Version: 6.00 Build 0)  -->
<svg version="1.1" id="Capa_1" xmlns="http://www.w3.org/2000/svg" xmlns:xlink="http://www.w3.org/1999/xlink" x="0px" y="0px"
	 viewBox="0 0 208.4 208.4" style="enable-background:new 0 0 208.4 208.4;" xml:space="preserve">
<style type="text/css">
	.st0{fill:#C9232C;}
	.st1{fill:#FFFFFF;}
</style>
<g>
	<circle class="st0" cx="104.2" cy="104.2" r="104.2"/>
	<g>
		<path class="st1" d="M114.4,170.9c-8.1,0-15.9,0-23.9,0c0-20.3,0-40.4,0-60.8c-6.7,0-13.2,0-19.9,0c0-8,0-15.7,0-23.6
			c6.6,0,13.1,0,19.9,0c0-0.7,0-1.2,0-1.7c0-5.4,0-10.8,0-16.2c0-5.2,0.8-10.3,3-15.1c4.1-9.1,11.4-14,20.8-15.4
			c7.6-1.1,15.3-0.3,22.9,0.3c0.2,0,0.4,0.1,0.6,0.2c0,7,0,14,0,21.1c-1.4,0-2.8,0-4.2,0c-3.8,0.1-7.6-0.1-11.4,0.3
			c-5,0.5-7.6,3.5-7.8,8.7c-0.2,5.5-0.1,11.1-0.2,16.6c0,1.1,0.6,1.1,1.4,1.1c6.5,0,13,0,19.6,0c0.6,0,1.1,0,1.8,0
			c-1,8-2,15.7-3,23.6c-6.6,0-13.1,0-19.7,0C114.4,130.4,114.4,150.6,114.4,170.9z"/>
	</g>
</g>
</svg>
