<?xml version="1.0" encoding="utf-8"?>
<!-- Generator: Adobe Illustrator 24.1.0, SVG Export Plug-In . SVG Version: 6.00 Build 0)  -->
<svg version="1.1" id="Capa_1" xmlns="http://www.w3.org/2000/svg" xmlns:xlink="http://www.w3.org/1999/xlink" x="0px" y="0px"
	 viewBox="0 0 208.4 208.4" style="enable-background:new 0 0 208.4 208.4;" xml:space="preserve">
<style type="text/css">
	.st0{fill:#C9232C;}
	.st1{fill:#FFFFFF;}
</style>
<circle class="st0" cx="104.2" cy="104.2" r="104.2"/>
<path class="st1" d="M122.6,160c-12.3,0-24.5,0-36.8,0c-0.4-0.1-0.7-0.1-1.1-0.2c-3.6-0.3-7.2-0.3-10.7-1
	c-12.8-2.4-20.9-9.9-24.2-22.5c-1.4-5.5-1.4-11.1-1.5-16.7c-0.1-11-0.1-21.9,0.1-32.9c0.1-4.3,0.2-8.6,1-12.8
	c2.4-12.7,9.9-20.8,22.5-24.1c5.4-1.4,11-1.4,16.5-1.5c11.7-0.1,23.4,0,35.1,0.1c4.4,0,8.7,0.3,13,1.4c9.3,2.4,16.2,7.8,20.1,16.6
	c2.2,5,2.9,10.3,3.1,15.7c0.1,1.2,0.2,2.3,0.2,3.5c0,12.3,0,24.5,0,36.8c-0.1,0.4-0.2,0.7-0.2,1.1c-0.1,4.3-0.3,8.6-1.4,12.8
	c-2.4,9.5-7.9,16.4-17,20.3c-4.9,2.1-10.1,2.7-15.4,3C124.9,159.8,123.7,159.9,122.6,160z M150,104.3c-0.1,0-0.1,0-0.2,0
	c0-4.7,0.1-9.4,0-14.1c-0.1-4.4-0.3-8.8-0.7-13.1c-0.4-4.2-1.9-8-4.7-11.2c-3.9-4.5-9.1-6.4-14.9-6.8c-6.5-0.4-13.1-0.5-19.7-0.6
	c-6.5-0.1-13.1-0.1-19.6,0.1c-4.4,0.1-8.8,0.3-13.1,0.7c-4.2,0.4-8,1.9-11.2,4.7c-4.5,3.9-6.4,9.1-6.8,14.9
	c-0.4,6.6-0.5,13.1-0.6,19.7c-0.1,6.5-0.1,13.1,0.1,19.6c0.1,4.4,0.3,8.8,0.7,13.1c0.4,4.2,1.9,8,4.7,11.2c3.9,4.5,9.1,6.4,14.9,6.8
	c6.6,0.4,13.1,0.5,19.7,0.6c6.5,0.1,13.1,0.1,19.6-0.1c4.8-0.1,9.7-0.2,14.4-1c8.1-1.3,13.6-6,15.8-14c0.7-2.6,1.1-5.4,1.2-8.1
	C149.8,119.3,149.9,111.8,150,104.3z"/>
<path class="st1" d="M75.5,104.2c0-15.9,12.9-28.7,28.8-28.6c15.8,0,28.6,12.9,28.6,28.7c0,15.9-12.9,28.7-28.8,28.6
	C88.3,132.8,75.5,120,75.5,104.2z M104.2,122.8c10.2,0,18.6-8.3,18.6-18.3c0-10.4-8.2-18.8-18.4-18.8c-10.4,0-18.8,8.2-18.8,18.5
	C85.6,114.4,93.9,122.7,104.2,122.8z"/>
<path class="st1" d="M134,67.7c3.7,0,6.7,3,6.7,6.8c0,3.7-3.1,6.7-6.8,6.7c-3.7,0-6.6-3.1-6.7-6.7C127.2,70.7,130.3,67.7,134,67.7z"
	/>
</svg>
