<?xml version="1.0" encoding="utf-8"?>
<!-- Generator: Adobe Illustrator 25.0.0, SVG Export Plug-In . SVG Version: 6.00 Build 0)  -->
<svg version="1.1" id="Layer_1" xmlns="http://www.w3.org/2000/svg" xmlns:xlink="http://www.w3.org/1999/xlink" x="0px" y="0px"
	 viewBox="0 0 350.8 147.2" style="enable-background:new 0 0 350.8 147.2;" xml:space="preserve">
<style type="text/css">
	.st0{fill:none;}
	.st1{fill:none;stroke:#000000;stroke-width:0.7182;}
	.st2{fill:none;stroke:#000000;stroke-width:0.6962;}
	.st3{fill:#EB1E28;}
	.st4{fill:#EBEBEB;fill-opacity:0.99;stroke:#000000;stroke-width:0.3811;stroke-miterlimit:11.34;}
	.st5{fill:#A11E22;stroke:#A11E22;stroke-width:9.526519e-02;stroke-miterlimit:11.34;}
	.st6{fill:#DE845C;stroke:#000000;stroke-width:0.7621;stroke-miterlimit:11.34;}
	.st7{fill:#A11E22;stroke:#000000;stroke-width:9.526519e-02;stroke-miterlimit:11.34;}
	.st8{fill:#A11E22;stroke:#9B1E21;stroke-width:0.1026;stroke-miterlimit:11.34;stroke-opacity:0;}
	.st9{stroke:#000000;stroke-width:9.526519e-02;stroke-miterlimit:11.34;}
	.st10{stroke:#000000;stroke-width:8.793709e-02;stroke-miterlimit:11.34;}
	.st11{stroke:#000000;stroke-width:0.2785;stroke-miterlimit:11.34;}
	.st12{fill:#FFFFFF;stroke:#FFFFFF;stroke-width:7.328092e-02;stroke-miterlimit:11.34;}
	.st13{fill:none;stroke:#000000;stroke-width:0.4617;stroke-linecap:round;stroke-linejoin:round;}
	.st14{fill-opacity:0;stroke:#A11E22;stroke-width:7.328091e-03;stroke-miterlimit:11.34;stroke-opacity:0;}
	.st15{fill-opacity:0;stroke:#A11E22;stroke-width:2.198427e-02;stroke-miterlimit:11.34;stroke-opacity:0;}
	.st16{fill:#FFFFFF;fill-opacity:0.55;stroke:#A11E22;stroke-width:2.198427e-02;stroke-miterlimit:11.34;stroke-opacity:0;}
	.st17{stroke:#A11E22;stroke-width:2.198427e-02;stroke-miterlimit:11.34;stroke-opacity:0;}
	.st18{fill:#FFFFFF;stroke:#FFFFFF;stroke-width:2.198427e-02;stroke-miterlimit:11.34;}
	.st19{fill:#DE845C;stroke:#000000;stroke-width:0.2931;stroke-miterlimit:11.34;}
	.st20{fill:#DE845C;stroke:#000000;stroke-width:0.3298;stroke-miterlimit:11.34;}
	.st21{stroke:#000000;stroke-width:9.526519e-02;stroke-miterlimit:11.34;stroke-opacity:0;}
	.st22{fill:#A11E22;stroke:#000000;stroke-width:9.526519e-02;stroke-miterlimit:11.34;stroke-opacity:0;}
	.st23{opacity:0.91;fill:#FFFFFF;stroke:#FFFFFF;stroke-width:9.526519e-02;stroke-miterlimit:11.34;enable-background:new    ;}
	.st24{opacity:0.91;fill:#42393B;enable-background:new    ;}
	.st25{fill-rule:evenodd;clip-rule:evenodd;fill:#FFFFFF;}
	.st26{clip-path:url(#SVGID_2_);}
	.st27{fill-rule:evenodd;clip-rule:evenodd;fill:#F0EFEF;}
	.st28{fill-rule:evenodd;clip-rule:evenodd;fill:#ED243B;}
	.st29{clip-path:url(#SVGID_4_);}
	.st30{fill-rule:evenodd;clip-rule:evenodd;fill:#E11E2C;}
	.st31{fill-rule:evenodd;clip-rule:evenodd;fill:#ED3248;}
	.st32{fill:#BF2126;}
	.st33{fill:#F8E7D3;}
	.st34{fill:#D91F26;}
	.st35{fill:#1F1B1A;}
	.st36{fill:#E12027;}
	.st37{fill:#E82125;}
</style>
<g id="Layer_2_1_">
	<g id="Layer_1-2">
		<path d="M275.5,3.9c0-0.1-0.1-0.1-0.2-0.1l-5.7,0.3c-0.1,0-0.2,0.1-0.2,0.2s0,0.2,0.1,0.2l0.7,0.4h-2.3c-0.1,0-0.2,0.1-0.2,0.1
			c0,0.1,0,0.2,0.1,0.2l1.9,1.4l-151.8,91c-0.1,0-0.1,0.2-0.1,0.2l0,0l0.4,0.7l0.1,0.1l0,0h0.1l151.8-91v2.6c0,0.1,0.1,0.2,0.2,0.2
			s0.1,0,0.2-0.1l1.3-2.3v1.1c0,0.1,0.1,0.2,0.1,0.2c0.1,0,0.2,0,0.2-0.1l3.1-5.1C275.6,4,275.6,3.9,275.5,3.9z"/>
		<path class="st0" d="M181,97.4c2.2,0.5,4.4,1.2,6.5,2.1c1.3-0.7,2.5-1.4,3.7-2.3c4.9-3.6,8.6-8.5,10.9-14.2
			c2.6-6.4,3.8-13.2,3.7-20.1c0.1-8.1-1.6-16.1-4.9-23.4c-2.9-6.7-7.5-12.5-13.4-16.9c-5.5-4.1-12.2-6.3-19.1-6.2
			c-5.7-0.1-11.2,1.6-15.9,4.9c-4.9,3.5-8.7,8.2-11,13.7c-2.6,5.9-4,12.6-4,20.3c-0.1,7.9,1.4,15.8,4.4,23.2
			c2.7,6.8,7.1,12.8,12.8,17.4c2.5,2,5.3,3.5,8.3,4.6c3.1-2.1,6.8-3.3,10.5-3.6C176.1,96.8,178.6,96.9,181,97.4z"/>
		<path d="M214.9,33.3c-4.1-7.4-10.3-13.5-17.7-17.6c-7.5-4.2-16.1-6.3-25.6-6.3c-8.8-0.1-17.4,2.1-25.1,6.4
			c-7.5,4.1-13.6,10.2-17.8,17.6c-4.3,7.5-6.5,16.1-6.5,25.7c-0.1,9,2,17.8,6.2,25.7c4,7.5,10.1,13.7,17.5,18c3.4,2,7,3.5,10.8,4.6
			c1.5-2.7,3.7-5.1,6.3-6.8l0.3-0.2c-3-1.1-5.8-2.7-8.3-4.6c-5.7-4.6-10.2-10.5-12.8-17.4c-3-7.4-4.5-15.2-4.4-23.2
			c0-7.7,1.3-14.5,4-20.3c2.3-5.5,6.1-10.2,11-13.7c4.7-3.3,10.2-5,15.9-4.9c6.9-0.1,13.5,2.1,19.1,6.2c5.9,4.3,10.5,10.2,13.4,16.9
			c3.3,7.4,5,15.4,4.9,23.4c0.1,6.9-1.2,13.7-3.7,20.1c-2.2,5.7-6,10.6-10.9,14.2c-1.2,0.9-2.4,1.6-3.7,2.3l0.7,0.3
			c0.6,0.3,1,0.9,0.9,1.6c-0.1,1.7-0.2,3.5-0.2,5.2c2.8-1,5.6-2.3,8.2-3.8c7.4-4.3,13.5-10.6,17.7-18.1c4.3-7.8,6.4-16.6,6.3-25.6
			C221.3,49.5,219.1,40.9,214.9,33.3z"/>
		<g id="text1180">
			<g>
				<path d="M72.8,81.8c-0.4,2.8-1.5,5.6-3.1,8c-2.6,3.7-6.3,5.5-11.2,5.5c-6.1,0-10.5-1.9-13-5.7c-2.6-3.8-3.8-9.7-3.8-17.6V41.1
					c0-1.7-0.1-3.4-0.3-5.1c-0.1-0.9-0.5-1.7-1.2-2.3c-0.8-0.5-1.7-0.9-2.6-1c-0.2-1.4-0.3-2.8-0.3-4.2c1.8,0.2,4.5,0.3,8,0.3
					c3.3,0,5.9-0.1,8-0.3c0,1.4-0.1,2.8-0.3,4.2c-1.1,0.1-2.2,0.4-3.2,0.9c-0.7,0.5-1.1,1.3-1.3,2.2c-0.3,1.7-0.4,3.5-0.3,5.3v29.5
					c0,6.1,0.9,10.8,2.6,14.3c1.8,3.5,4.8,5.2,9.1,5.2c1.4,0,2.7-0.3,4-0.9c1.3-0.6,2.5-1.6,3.3-2.8c1.2-1.8,2-3.9,2.3-6.1
					c0.5-3.7,0.7-7.5,0.7-11.3V45c0-2.5-0.1-4.9-0.3-7.4c-0.1-1.3-0.6-2.5-1.3-3.5c-0.8-0.8-1.9-1.3-3.1-1.4
					c-0.2-1.4-0.3-2.8-0.3-4.2c2.1,0.2,4.3,0.3,6.5,0.3s4.4-0.1,6.5-0.3c0,1.4-0.1,2.8-0.3,4.2c-1,0.1-1.9,0.6-2.5,1.4
					c-0.7,1.1-1.1,2.4-1.2,3.7c-0.3,2.4-0.4,4.9-0.3,7.3v23.2C73.7,72.8,73.5,77.3,72.8,81.8z"/>
			</g>
			<g>
				<path class="st1" d="M72.8,81.8c-0.4,2.8-1.5,5.6-3.1,8c-2.6,3.7-6.3,5.5-11.2,5.5c-6.1,0-10.5-1.9-13-5.7
					c-2.6-3.8-3.8-9.7-3.8-17.6V41.1c0-1.7-0.1-3.4-0.3-5.1c-0.1-0.9-0.5-1.7-1.2-2.3c-0.8-0.5-1.7-0.9-2.6-1
					c-0.2-1.4-0.3-2.8-0.3-4.2c1.8,0.2,4.5,0.3,8,0.3c3.3,0,5.9-0.1,8-0.3c0,1.4-0.1,2.8-0.3,4.2c-1.1,0.1-2.2,0.4-3.2,0.9
					c-0.7,0.5-1.1,1.3-1.3,2.2c-0.3,1.7-0.4,3.5-0.3,5.3v29.5c0,6.1,0.9,10.8,2.6,14.3c1.8,3.5,4.8,5.2,9.1,5.2c1.4,0,2.7-0.3,4-0.9
					c1.3-0.6,2.5-1.6,3.3-2.8c1.2-1.8,2-3.9,2.3-6.1c0.5-3.7,0.7-7.5,0.7-11.3V45c0-2.5-0.1-4.9-0.3-7.4c-0.1-1.3-0.6-2.5-1.3-3.5
					c-0.8-0.8-1.9-1.3-3.1-1.4c-0.2-1.4-0.3-2.8-0.3-4.2c2.1,0.2,4.3,0.3,6.5,0.3s4.4-0.1,6.5-0.3c0,1.4-0.1,2.8-0.3,4.2
					c-1,0.1-1.9,0.6-2.5,1.4c-0.7,1.1-1.1,2.4-1.2,3.7c-0.3,2.4-0.4,4.9-0.3,7.3v23.2C73.7,72.8,73.5,77.3,72.8,81.8z"/>
			</g>
		</g>
		<g id="text1197">
			<g>
				<path d="M121.4,27.8c0,1.4-0.1,2.8-0.3,4.1c-0.9,0-1.8,0.4-2.3,1.2c-0.7,1.3-1.1,2.7-1.2,4.2c-0.3,2.7-0.4,5.4-0.4,8.1v47.3
					c-0.9,0.4-1.8,0.6-2.8,0.6L87.6,41.8v33.1c0,2.8,0.1,5.7,0.4,8.5c0.1,1.5,0.6,3,1.4,4.3c0.6,0.9,1.7,1.3,2.7,1.3
					c0.2,1.4,0.4,2.7,0.3,4.1c-2-0.2-4.1-0.3-6.4-0.3c-2.2,0-4.3,0.1-6.5,0.3c0-1.4,0.1-2.8,0.3-4.1c1.1,0,2.1-0.4,2.7-1.3
					c0.8-1.3,1.3-2.7,1.4-4.3c0.3-2.8,0.4-5.7,0.4-8.5V35.3L84,34.8c-0.4-0.8-1-1.6-1.7-2.2c-0.8-0.4-1.6-0.7-2.5-0.7
					c-0.2-1.4-0.3-2.7-0.3-4.1c1.6,0.2,3.2,0.3,4.8,0.3c1.5,0,2.9-0.1,4.3-0.3l25.2,49.4V45.4c0-2.7-0.1-5.5-0.4-8.2
					c-0.1-1.5-0.6-2.9-1.4-4.1c-0.7-0.8-1.7-1.3-2.7-1.2c-0.2-1.4-0.3-2.7-0.3-4.1c2,0.2,4.1,0.3,6.1,0.3
					C117.3,28.1,119.3,28,121.4,27.8z"/>
			</g>
			<g>
				<path class="st2" d="M121.4,27.8c0,1.4-0.1,2.8-0.3,4.1c-0.9,0-1.8,0.4-2.3,1.2c-0.7,1.3-1.1,2.7-1.2,4.2
					c-0.3,2.7-0.4,5.4-0.4,8.1v47.3c-0.9,0.4-1.8,0.6-2.8,0.6L87.6,41.8v33.1c0,2.8,0.1,5.7,0.4,8.5c0.1,1.5,0.6,3,1.4,4.3
					c0.6,0.9,1.7,1.3,2.7,1.3c0.2,1.4,0.4,2.7,0.3,4.1c-2-0.2-4.1-0.3-6.4-0.3c-2.2,0-4.3,0.1-6.5,0.3c0-1.4,0.1-2.8,0.3-4.1
					c1.1,0,2.1-0.4,2.7-1.3c0.8-1.3,1.3-2.7,1.4-4.3c0.3-2.8,0.4-5.7,0.4-8.5V35.3L84,34.8c-0.4-0.8-1-1.6-1.7-2.2
					c-0.8-0.4-1.6-0.7-2.5-0.7c-0.2-1.4-0.3-2.7-0.3-4.1c1.6,0.2,3.2,0.3,4.8,0.3c1.5,0,2.9-0.1,4.3-0.3l25.2,49.4V45.4
					c0-2.7-0.1-5.5-0.4-8.2c-0.1-1.5-0.6-2.9-1.4-4.1c-0.7-0.8-1.7-1.3-2.7-1.2c-0.2-1.4-0.3-2.7-0.3-4.1c2,0.2,4.1,0.3,6.1,0.3
					C117.3,28.1,119.3,28,121.4,27.8z"/>
			</g>
		</g>
		<g id="text1205">
			<g>
				<path d="M72.8,81.8c-0.4,2.8-1.5,5.6-3.1,8c-2.6,3.7-6.3,5.5-11.2,5.5c-6.1,0-10.5-1.9-13-5.7c-2.6-3.8-3.8-9.7-3.8-17.6V41.1
					c0-1.7-0.1-3.4-0.3-5.1c-0.1-0.9-0.5-1.7-1.2-2.3c-0.8-0.5-1.7-0.9-2.6-1c-0.2-1.4-0.3-2.8-0.3-4.2c1.8,0.2,4.5,0.3,8,0.3
					c3.3,0,5.9-0.1,8-0.3c0,1.4-0.1,2.8-0.3,4.2c-1.1,0.1-2.2,0.4-3.2,0.9c-0.7,0.5-1.1,1.3-1.3,2.2c-0.3,1.7-0.4,3.5-0.3,5.3v29.5
					c0,6.1,0.9,10.8,2.6,14.3c1.8,3.5,4.8,5.2,9.1,5.2c1.4,0,2.7-0.3,4-0.9c1.3-0.6,2.5-1.6,3.3-2.8c1.2-1.8,2-3.9,2.3-6.1
					c0.5-3.7,0.7-7.5,0.7-11.3V45c0-2.5-0.1-4.9-0.3-7.4c-0.1-1.3-0.6-2.5-1.3-3.5c-0.8-0.8-1.9-1.3-3.1-1.4
					c-0.2-1.4-0.3-2.8-0.3-4.2c2.1,0.2,4.3,0.3,6.5,0.3s4.4-0.1,6.5-0.3c0,1.4-0.1,2.8-0.3,4.2c-1,0.1-1.9,0.6-2.5,1.4
					c-0.7,1.1-1.1,2.4-1.2,3.7c-0.3,2.4-0.4,4.9-0.3,7.3v23.2C73.7,72.8,73.5,77.3,72.8,81.8z"/>
			</g>
			<g>
				<path class="st1" d="M72.8,81.8c-0.4,2.8-1.5,5.6-3.1,8c-2.6,3.7-6.3,5.5-11.2,5.5c-6.1,0-10.5-1.9-13-5.7
					c-2.6-3.8-3.8-9.7-3.8-17.6V41.1c0-1.7-0.1-3.4-0.3-5.1c-0.1-0.9-0.5-1.7-1.2-2.3c-0.8-0.5-1.7-0.9-2.6-1
					c-0.2-1.4-0.3-2.8-0.3-4.2c1.8,0.2,4.5,0.3,8,0.3c3.3,0,5.9-0.1,8-0.3c0,1.4-0.1,2.8-0.3,4.2c-1.1,0.1-2.2,0.4-3.2,0.9
					c-0.7,0.5-1.1,1.3-1.3,2.2c-0.3,1.7-0.4,3.5-0.3,5.3v29.5c0,6.1,0.9,10.8,2.6,14.3c1.8,3.5,4.8,5.2,9.1,5.2c1.4,0,2.7-0.3,4-0.9
					c1.3-0.6,2.5-1.6,3.3-2.8c1.2-1.8,2-3.9,2.3-6.1c0.5-3.7,0.7-7.5,0.7-11.3V45c0-2.5-0.1-4.9-0.3-7.4c-0.1-1.3-0.6-2.5-1.3-3.5
					c-0.8-0.8-1.9-1.3-3.1-1.4c-0.2-1.4-0.3-2.8-0.3-4.2c2.1,0.2,4.3,0.3,6.5,0.3s4.4-0.1,6.5-0.3c0,1.4-0.1,2.8-0.3,4.2
					c-1,0.1-1.9,0.6-2.5,1.4c-0.7,1.1-1.1,2.4-1.2,3.7c-0.3,2.4-0.4,4.9-0.3,7.3v23.2C73.7,72.8,73.5,77.3,72.8,81.8z"/>
			</g>
		</g>
		<g id="text1209">
			<g>
				<path d="M121.4,27.8c0,1.4-0.1,2.8-0.3,4.1c-0.9,0-1.8,0.4-2.3,1.2c-0.7,1.3-1.1,2.7-1.2,4.2c-0.3,2.7-0.4,5.4-0.4,8.1v47.3
					c-0.9,0.4-1.8,0.6-2.8,0.6L87.6,41.8v33.1c0,2.8,0.1,5.7,0.4,8.5c0.1,1.5,0.6,3,1.4,4.3c0.6,0.9,1.7,1.3,2.7,1.3
					c0.2,1.4,0.4,2.7,0.3,4.1c-2-0.2-4.1-0.3-6.4-0.3c-2.2,0-4.3,0.1-6.5,0.3c0-1.4,0.1-2.8,0.3-4.1c1.1,0,2.1-0.4,2.7-1.3
					c0.8-1.3,1.3-2.7,1.4-4.3c0.3-2.8,0.4-5.7,0.4-8.5V35.3L84,34.8c-0.4-0.8-1-1.6-1.7-2.2c-0.8-0.4-1.6-0.7-2.5-0.7
					c-0.2-1.4-0.3-2.7-0.3-4.1c1.6,0.2,3.2,0.3,4.8,0.3c1.5,0,2.9-0.1,4.3-0.3l25.2,49.4V45.4c0-2.7-0.1-5.5-0.4-8.2
					c-0.1-1.5-0.6-2.9-1.4-4.1c-0.7-0.8-1.7-1.3-2.7-1.2c-0.2-1.4-0.3-2.7-0.3-4.1c2,0.2,4.1,0.3,6.1,0.3
					C117.3,28.1,119.3,28,121.4,27.8z"/>
			</g>
			<g>
				<path class="st2" d="M121.4,27.8c0,1.4-0.1,2.8-0.3,4.1c-0.9,0-1.8,0.4-2.3,1.2c-0.7,1.3-1.1,2.7-1.2,4.2
					c-0.3,2.7-0.4,5.4-0.4,8.1v47.3c-0.9,0.4-1.8,0.6-2.8,0.6L87.6,41.8v33.1c0,2.8,0.1,5.7,0.4,8.5c0.1,1.5,0.6,3,1.4,4.3
					c0.6,0.9,1.7,1.3,2.7,1.3c0.2,1.4,0.4,2.7,0.3,4.1c-2-0.2-4.1-0.3-6.4-0.3c-2.2,0-4.3,0.1-6.5,0.3c0-1.4,0.1-2.8,0.3-4.1
					c1.1,0,2.1-0.4,2.7-1.3c0.8-1.3,1.3-2.7,1.4-4.3c0.3-2.8,0.4-5.7,0.4-8.5V35.3L84,34.8c-0.4-0.8-1-1.6-1.7-2.2
					c-0.8-0.4-1.6-0.7-2.5-0.7c-0.2-1.4-0.3-2.7-0.3-4.1c1.6,0.2,3.2,0.3,4.8,0.3c1.5,0,2.9-0.1,4.3-0.3l25.2,49.4V45.4
					c0-2.7-0.1-5.5-0.4-8.2c-0.1-1.5-0.6-2.9-1.4-4.1c-0.7-0.8-1.7-1.3-2.7-1.2c-0.2-1.4-0.3-2.7-0.3-4.1c2,0.2,4.1,0.3,6.1,0.3
					C117.3,28.1,119.3,28,121.4,27.8z"/>
			</g>
		</g>
		<path class="st0" d="M239,20.3c0,1.5,0.1,3.1,0.1,4.7l2.1-1.3C240.4,22.6,239.7,21.4,239,20.3z"/>
		<path class="st0" d="M239,38.1L238.3,61l26.6-4.7L250,36.2c-2.9-3.8-5.6-7.7-8.2-11.5l-2.7,1.7C239.1,30.2,239.1,34.1,239,38.1z"
			/>
		<path class="st3" d="M298.7,79.7c-1.3,0.1-2.7-0.2-3.9-0.8c-1.5-1.1-2.9-2.3-4.1-3.7c-1.6-1.8-3.8-4.6-6.7-8.3l-35-46.5l-7.3,4.4
			c2.5,3.8,5.3,7.7,8.2,11.5l14.9,20.2l-26.6,4.7l0.8-23.1c0.1-4,0.1-7.9,0.1-11.8c0-0.5,0-0.9,0-1.4c0-1.6,0-3.1-0.1-4.7
			c0.7,1.1,1.4,2.3,2.2,3.4l7.2-4.3L235.8,2.7l-1.6-2c-1.8-2.1-4,0.8-2.4,2.5c0.5,0.9,1.3,2.5,1.5,2.8c0.1,0.5,0.2,0.9,0.2,1.4
			l-1,21.4l-0.1,1.5l-2.2,47.3c-0.4,6.1-0.9,10.2-1.5,12.4c-0.5,2-2,3.7-4,4.4c0,2.6,0.4,5.1,1.3,7.6c4.7-1.1,8.3-1.9,10.8-2.3
			c5.7-1,10.1-1.6,13-1.9c-0.8-2.6-1.9-5-3.3-7.3c-1.8,0.3-3.6-0.1-5.2-0.9c-1.4-1-2.4-2.5-2.9-4.1c-0.7-2.6-0.9-5.4-0.7-8.1
			l0.3-7.8c8.2-2,18.8-4.1,31.9-6.4l7.6,10.4c2.1,2.7,3.4,4.8,3.8,6.2c0.5,1.1,0.2,2.4-0.6,3.3c-0.7,0.8-2.1,1.6-4.1,2.2
			c-0.1,1.9,0.3,4.5,1.3,7.7c3.1-0.9,3.7-1,12.7-3.4s9-2.3,11.3-3.1C301.1,84.1,300,81.8,298.7,79.7z"/>
		<path d="M241.8,24.7l7.3-4.4l-0.7-1l-7.2,4.3L241.8,24.7z"/>
		<g id="layer34">
			<g id="layer11">
				<g id="layer15">
					<g id="layer17">
						<g id="layer19">
							<path id="path1258" class="st4" d="M175.2,93.3c0.7,0.5,1.5,1,2.3,1.5c1,0.5,2.1,1,3.2,1.3c0.9,0.3,1.9,0.4,2.8,0.4
								c1,0,2-0.1,3-0.4c0.9-0.2,1.7-0.6,2.4-1.1c0.6-0.4,1.1-0.9,1.5-1.5c0.3-0.4,0.5-0.8,0.7-1.3c0.1-0.4,0.1-0.9,0-1.3
								s-0.3-0.7-0.5-1s-0.5-0.5-0.8-0.7c-0.4-0.2-0.8-0.4-1.2-0.6c-0.6-0.2-1.3-0.4-2-0.4c-0.7-0.1-1.3-0.1-2.4-0.4
								c-1.2-0.2-2.9-0.6-4.3-0.2c-1.3,0.5-2.4,1.3-3.3,2.4c-0.5,0.6-1,1.2-1.5,1.9c-0.2,0.3-0.3,0.7-0.4,1
								C174.7,93,174.8,93,175.2,93.3L175.2,93.3z"/>
						</g>
						<g id="layer16">
							<path id="path1254" class="st5" d="M175.1,90.3c1.4-1.2,2.3-1.3,3.8-2.1c1.2-0.6,2.6-1,3.9-1.2c1.4,0,2.9,0.8,2.1,1.2
								c-0.8,0.5-1.6,0.9-2.4,1.2l-3.2,1.5c0,0-3.2,1.7-3.7,1.3S175.1,90.3,175.1,90.3z"/>
						</g>
					</g>
					<g id="layer18">
						<g id="layer20">
							<path id="path1258-3" class="st4" d="M171.1,93.4c-0.6,0.6-1.4,1.1-2.1,1.6c-0.9,0.5-1.9,0.9-2.9,1.1
								c-0.9,0.2-1.8,0.3-2.7,0.2c-1.1,0-2.2-0.1-3.3-0.3c-0.8-0.1-1.6-0.4-2.4-0.8c-0.6-0.3-1.2-0.7-1.7-1.2
								c-0.4-0.4-0.7-0.9-0.8-1.5c-0.1-0.5-0.1-1,0.1-1.6c0.1-0.3,0.3-0.7,0.6-0.9c0.2-0.2,0.4-0.4,0.7-0.6c0.4-0.2,0.7-0.3,1.1-0.5
								c0.5-0.2,1-0.3,1.9-0.5s2.2-0.5,3.5-0.8c1.2-0.4,2.4-0.4,3.6,0c1.2,0.6,2.2,1.4,3.1,2.4c0.8,0.7,1.4,1.1,1.7,1.5
								c0.3,0.3,0.4,0.6,0.4,1C171.7,92.8,171.5,93,171.1,93.4L171.1,93.4z"/>
						</g>
						<g id="g1246">
							<path id="path1254-0" class="st5" d="M170.4,90.5c-0.7-0.7-1.6-1.3-2.5-1.6c-1.5-0.6-2.7-1.8-4.2-1.9c-0.5,0.3-2,0.3-2.4,1.1
								c-0.1,0.3,1.5,1.1,2.8,1.7c1.2,0.6,2.4,1.1,3.7,1.6c0.7,0.2,3.4,1.2,3.9,0.7S170.5,90.4,170.4,90.5L170.4,90.5z"/>
						</g>
					</g>
				</g>
				<g id="layer9">
					<g id="layer12">
						<path id="path1149" class="st6" d="M173.6,60.3c3.8-0.1,7.6-0.9,11.1-2.4c1.8-0.8,3.4-1.9,4.7-3.2c1-1.1,1.8-2.3,2.5-3.6
							c0.5-0.9,0.9-1.9,1.2-2.9c0.3-1.2,0.6-2.3,0.8-3.5c0.1-0.9,0.2-1.7,0.2-2.6c0-1.2,0-2.4,0-3.7c-0.2-1-0.7-2-1.3-2.9
							c-1.5-2.1-4.1-3.2-6.4-4.1c-3.2-1.2-6.8-1.1-10.3-1.3c-3.8-0.2-7.6-0.4-11.3,0.4c-3,0.6-6.1,1.5-8.5,3.3
							c-1.3,1.2-2.4,2.6-3,4.3c-0.3,0.7-0.5,1.4-0.5,2.1c-0.2,1.3-0.2,2.7-0.1,4c0.2,2.1,0.4,4.3,1.4,6.1c1.8,3.3,4.6,6,8.1,7.6
							C165.5,59.8,169.7,60.3,173.6,60.3L173.6,60.3z"/>
					</g>
					<g id="g1023">
						<path id="path1019" class="st7" d="M149.1,35.8c-0.6,0.3-0.2-2.4,0.5-3.5s0.3-0.9,3.8-2.7s16.2-1.1,20.6-1.1
							c4.3,0,6.1,0.3,7.2,0.6c1.2,0.3,3.4,0.6,5.4,1.2s5.2,0.9,6.2,2.3c1,1.3,2,5.2,0.8,4.4s-11.6-2-14.4-2.1
							c-2.9-0.1-9.3-1.4-17.6-0.4C153.2,35.4,149.7,35.6,149.1,35.8L149.1,35.8z"/>
						<path id="path1021" class="st8" d="M169.2,34.4c0,0-0.7,7.3-0.5,10.1c-1.2,0.1-2,1.2-1.8,2.4c0,0.1,0,0.2,0.1,0.4
							c0.1,0.3,0.7,0.5,1.9,0.2c0,4.4,0.6,12.9,0.6,12.9s-4.3-0.4-7.2-1.9c-2.9-1.6-4-1.7-5.1-3.8c-0.5-2.1-0.6-7.8-0.6-7.8
							c-0.1-3.9,0.1-7.8,0.6-11.7L169.2,34.4z"/>
					</g>
					<g id="g141">
						<path id="path137" class="st7" d="M149.1,35.8c-0.6,0.3-0.2-2.4,0.5-3.5s0.3-0.9,3.8-2.7s16.2-1.1,20.6-1.1
							c4.3,0,6.1,0.3,7.2,0.6c1.2,0.3,3.4,0.6,5.4,1.2s5.2,0.9,6.2,2.3c1,1.3,2,5.2,0.8,4.4s-11.6-2-14.4-2.1
							c-2.9-0.1-9.3-1.4-17.6-0.4C153.2,35.4,149.7,35.6,149.1,35.8L149.1,35.8z"/>
						<path id="path139" class="st8" d="M169.2,34.4c0,0-0.6,7.9-0.5,10.1s0,0.1,0.1,2.9s0.6,12.9,0.6,12.9s-4.3-0.4-7.2-1.9
							c-2.9-1.6-4-1.7-5.1-3.8c-0.5-2.1-0.6-7.8-0.6-7.8c-0.1-3.9,0.1-7.8,0.6-11.7L169.2,34.4z"/>
					</g>
					<g id="layer4">
						<path id="path1872" class="st9" d="M172.2,21.1c-17.6,0-24.3,8-24,13c0.3,5.1,1.2,6.2,1.6,7.1c0.1,0.4,0.3,0.7,0.6,1.1
							c4-5.1,16.1-5.6,16.1-5.6l0.3-2.6c-2.2-0.2-12.8,0.7-17.4,1.7c-0.5-2.2,0.6-4.5,2.7-5.4l12.9-2l2.6,9l6.9,0.2l1.7-2.1
							l-0.1,1.8l2.9-0.4l0.3-3.9l0.7,4.4l5.3-0.2c0,0-2.5-12.5-0.7-6c1,3.6,4.4,8.7,7.1,10.8v-0.1v-0.2c0.1-0.1,0.2-0.1,0.3-0.1
							v-0.1h-0.1l0,0v-0.1c0-0.1,0-0.3,0-0.4c0,0,0-0.1,0.1-0.1c0.1-0.1,0.1-0.1,0.1-0.2l0,0c0-0.1,0-0.2,0-0.3s0-0.3,0.1-0.5
							c0-0.1,0.1-0.2,0.1-0.2l0,0c0-0.1,0-0.2,0.1-0.2c0-0.1,0.1-0.3,0.2-0.4c0.2-0.5,0.6-0.8,1.1-0.8c0.1,0,0.2,0,0.2,0
							c0.1,0,0.2,0,0.2,0c0.2,0.1,0.4,0.2,0.6,0.3c0.2,0.1,0.5,0.3,0.7,0.5c0.1-0.3-2.4-2.2-2.3-2.5c0,0-0.4,0.9-0.3,0.9
							c0-0.3,2.9,3.1,3.3,2.4c-0.3-0.3,0.5,1.5,0-4.8c-0.1-0.9-0.3-1.8-0.6-2.7C192.8,25.5,185.5,21,172.2,21.1L172.2,21.1z"/>
						<path id="path4906" class="st9" d="M150.3,42.4l1.2-0.3c0.1,6.9,1.8,8.2,2.2,8.8s0.7,12.2,0.7,12.2l6,0.4l-0.3-3.1l2.1,2.8
							l4.9-0.3l1.7-0.3l2.4-0.7v-2c0,0-1-0.1-2.5-0.3c-2.2-0.4-4.3-1-6.3-1.8c-1.6-0.7-3.1-1.7-4.4-2.9c-1.1-1.1-2.1-2.3-3-3.7
							c-1-1.5-1.7-3.1-2-4.8c-0.3-1.2-0.5-2.5-0.5-3.8c0-0.7,0.2-1.6,0.2-1.6l1.6-0.7l0.2,2.2l4.5-0.2c6.9-0.4,4.8-0.2,6.9-0.4
							c8-0.8,8-0.9,14.8,0.2c2.1,0.2,4.1,0.2,6.2,0.2c2.2,0,4.9,0.2,4.9,0.2l2-4.5c-33.3,2.7-24.9-0.4-39.4,0.4L150.3,42.4z"/>
						<path id="path4908" class="st9" d="M157.2,48.2c0.1,0.1-0.1,0.3-0.1,0.3c5.5,1.5,11.1,3.4,16.1,3c7.2,0.2,12.2-1.5,15.3-3.5
							c0,0,0,0-0.3-0.7c0.3-0.2,0.7,0.7,0.7,0.7c0.2,0.3,0.5,0.6,0.7,0.8c-0.2,0.2-0.8-0.4-0.8-0.4c-4.1,2.1-8.5,3.5-15.6,3.9
							c-10-0.9-10.5-2-16.2-3.6c0,0,0,0.5-0.2,0.4s0-0.5,0-0.5S157.1,48.1,157.2,48.2L157.2,48.2z"/>
						<path id="path4906-0" class="st9" d="M190,62.1l-3.3-0.1l-1.3-2.8l-0.9,2.5c-4.1,0.2-4.1,0.3-8.9,0.3v-2.1
							c0.9-0.1,1.8-0.3,2.7-0.5c2.1-0.5,4.1-1.1,6-2c1.4-0.7,2.8-1.6,4-2.6c1.2-1.2,2.2-2.5,3.2-3.9C190.9,56.5,191.1,56.9,190,62.1
							L190,62.1z"/>
						<path id="path4965" class="st9" d="M167.1,46.6c-0.3,0.3,0.2,0.6,0.2,0.6c3.5-1.2,3.9-1.2,6-1.2c2.3,0.1,4.5,0.6,6.6,1.5
							c0.2,0.1,0.2-0.7-0.2-0.9c-2.4-1.2-6.4-1.4-6.4-1.4C171.2,45.3,169.1,45.7,167.1,46.6L167.1,46.6z"/>
						<ellipse id="path1097-0" class="st10" cx="161" cy="43.9" rx="2.4" ry="2.3"/>
						<path id="path1092" class="st11" d="M182.7,44.1c0,0,1.6-0.2,2.4-0.1s2.1,0.2,2.1,0.2l0.1-0.1l-0.1-0.1
							c-0.7-0.1-1.5-0.2-2.2-0.2s-2.2,0.2-2.2,0.2l4.2-1.1v-0.1c-0.3-0.2-0.7,0-1.1,0.1c-0.4,0.1-3.3,0.9-3.3,0.9
							c-0.1,0-0.2,0.2-0.2,0.3C182.4,44.1,182.8,44.1,182.7,44.1L182.7,44.1z"/>
					</g>
					<g id="layer10">
						<path id="path1073-2" class="st12" d="M201.1,66.6c-0.4-0.4-0.7-0.8-1.2-1.3c0,0-0.5-0.5-1-0.9c-0.4-0.5-1-1.3-1.5-1.9
							s-1-1.3-1.5-1.9c-0.1-0.2-0.2-0.4-0.2-0.6s0-0.3,0-0.7c0-1.2,0.1-1,0-1s-0.2,0.7-0.2,0.9l-0.1,0.7l-0.2-0.4l-0.2-0.4l0.8-2.6
							c0.5-1.5,0.9-2.8,0.9-2.8s0.4,1.5,0.9,3.3c0.2,1.1,0.6,2.2,1,3.3h0.1c0,0-0.4-1.6-0.8-3.5s-0.8-3.5-0.8-3.5s3.1,1.2,3.1,1.3
							s0.1,0.1,0.1,0.2c0,0.5,0.2,2.9,0.4,4.5c0.2,2.2,0.7,4.3,1.5,6.4c0.3,0.7,0.6,1.4,1,2.1c0.1,0.1,0.3,0.4,0,0.4
							C202.9,68.3,201.6,67,201.1,66.6L201.1,66.6z"/>
						<path id="path1128" class="st5" d="M194.6,44.5l4.8,0.9c0.3,0.8,0.5,1.6,0.6,2.4c0.3,2.2,0.4,4.4,0.4,6.7l-3.6-1.4l-1.9,6.1
							l-1.8-3.3l-0.5-1.2l-0.5-1.5l-0.5-2v-0.3C192.2,49.3,193.7,46.6,194.6,44.5L194.6,44.5z"/>
						<path id="path178" class="st13" d="M193.8,38.5c1.2,0.5,1.9,0.5,3.5,2.7c0.8,1.3,1.5,2.6,1.9,4c0.5,1.5,0.8,3,0.9,4.5
							c0.1,2.2,0.1,2.8,0.1,4.2c0.1,2.4,0.4,4.7,0.7,7.1c0.3,2.4,1,4.6,2.2,6.7c0,0,0.1,0.4-0.1,0.5s-0.7-0.3-0.9-0.3
							c-1.3-1.1-2.6-2.3-3.7-3.6l-2.9-3.8l0.2-2.2l-0.1,2.3c0,0-2-3.4-2.7-5c-0.5-1.1-0.9-2.3-1.2-3.4c-0.3-1.6-0.5-3.3-0.5-4.9
							c0-0.7,0-1.5,0-2.2c0.2-1.5,0.5-3.1,1-4.5C192.6,39.7,193.1,39.1,193.8,38.5L193.8,38.5"/>
						<path id="path182" class="st9" d="M193.5,38.8l0.8,5.1L195,47l3.6,13.2l-1.9-8.2l-1.7-7.5l-0.6-5.9l-0.5-0.2L193.5,38.8z"/>
						<path id="path1140" class="st14" d="M197.2,45l-2.1-0.4l0,0l-0.6-5.9l0.3,0.1c0.4,0.2,0.8,0.4,1.1,0.7
							c0.5,0.4,0.9,0.9,1.3,1.4c0.1,0.2,0.2,0.3,0.3,0.5c0.4,0.6,0.7,1.1,0.9,1.7c0.3,0.6,0.5,1.2,0.7,1.8l0.1,0.3
							c0.1,0.3,0.1,0.3,0.1,0.3L197.2,45L197.2,45z"/>
						<path id="path1142" class="st15" d="M191.5,50.3c-0.2-1.7-0.3-3.4-0.3-5.1c0.1-0.8,0.2-1.6,0.4-2.4c0.1-0.4,0.1-0.4,0.1-0.4
							c0.3-0.5,0.6-1.1,0.8-1.7c0.4-0.9,0.8-1.7,0.8-1.7s0.2,1.2,0.2,1.6c0.1,0.4,0.1,0.9,0.1,1.3c0,0.5,0,1-0.1,1.5
							c0,0.3-0.1,0.7-0.1,0.9c-0.2,1.3-0.5,2.6-0.9,3.9c-0.1,0.4-0.3,0.9-0.5,1.3l-0.4,0.8l-0.1,0.3
							C191.5,50.5,191.5,50.4,191.5,50.3L191.5,50.3z"/>
						<path id="path1144" class="st15" d="M191.5,50.3c-0.2-1.7-0.3-3.4-0.3-5.1c0.1-0.8,0.2-1.6,0.4-2.4c0.1-0.4,0.1-0.4,0.1-0.4
							c0.3-0.5,0.6-1.1,0.8-1.7c0.4-0.9,0.8-1.7,0.8-1.7s0.2,1.2,0.2,1.6c0.1,0.4,0.1,0.9,0.1,1.3c0,0.5,0,1-0.1,1.5
							c0,0.3-0.1,0.7-0.1,0.9c-0.2,1.3-0.5,2.6-0.9,3.9c-0.1,0.4-0.3,0.9-0.5,1.3l-0.4,0.8l-0.1,0.3
							C191.5,50.5,191.5,50.4,191.5,50.3L191.5,50.3z"/>
						<path id="path1031" class="st16" d="M197.5,44.9L197.5,44.9L197.5,44.9c-0.1,0-0.1,0-0.1,0s-0.1,0-0.1-0.1
							c-0.4-0.2-0.8-0.2-1.2-0.2h-0.6h-0.1v-0.7h0.1c0.3,0,0.5-0.2,0.7-0.4c0.1-0.2,0.1-0.2,0.2-0.7l0.1-0.4h0.1
							c0.1,0,0.2-0.1,0.3-0.2c0-0.1,0-0.1,0-0.2l-0.1-0.2c0,0,0-0.1-0.1-0.1s-0.1-0.1-0.1-0.3s0-0.2,0.1-0.2s0,0,0,0.1
							s0,0.2,0.1,0.2c0,0,0,0,0,0.1s0,0.1,0.1,0.1s0.1,0,0.1,0.1v0.1V42c0,0.1,0,0.1,0.1,0.2c0.1,0,0.1,0.1,0.1,0.1
							c0,0.1,0.1,0.1,0.2,0.1h0.1v0.2c0,0.2,0.1,0.3,0.1,0.4h0.1c0.1,0,0.1,0,0.1,0.1s0,0.1,0,0V43h-0.1c-0.1,0-0.1,0-0.1,0
							c0-0.1,0-0.2,0-0.3v-0.3h-0.3H197l0,0v0.9l-0.1,0.2c0,0.1-0.1,0.1-0.1,0.2c0,0,0,0.1-0.1,0.1l-0.1,0.1v0.6h0.1h0.5
							c0.4,0,0.4,0,0.4-0.1s0.1-0.1,0.1-0.2c0.1-0.1,0.1-0.1,0.2-0.1h0.1v0.2c0,0.2,0,0.2,0.3,0.2h0.1l-0.1-0.1
							c-0.1,0-0.1-0.1-0.2-0.2s-0.1-0.1-0.1-0.4v-0.3v0.2c0,0.2,0,0.2,0.1,0.2h0.1h0.1c0,0,0,0.1,0,0.2s0,0.2-0.1,0.2h-0.1
							c0,0,0,0-0.1,0h-0.1c0,0,0,0-0.1,0c0,0,0-0.1-0.1-0.1c0,0-0.1,0-0.1-0.1h-0.1l-0.1,0.1c-0.1,0.1-0.1,0.1-0.1,0.1
							c0,0.1,0,0,0,0l0,0l0,0l0,0L197.5,44.9z M196.9,41.8C196.9,41.8,196.9,41.7,196.9,41.8C196.9,41.7,196.9,41.7,196.9,41.8
							C197,41.9,196.9,41.9,196.9,41.8L196.9,41.8z M196.6,41.2L196.6,41.2C196.6,41.3,196.6,41.3,196.6,41.2L196.6,41.2z"/>
						<path id="path1037" class="st17" d="M197.1,45l-2.1-0.4v-0.1c0-0.1-0.6-5.6-0.6-5.6c0.1,0,0.1,0.1,0.2,0.1
							c0.3,0.3,0.7,0.5,1.1,0.6c0.1,0,0.2,0,0.2-0.1l0,0l0.1,0.1c0.5,0.4,0.9,0.9,1.3,1.5s0.8,1.2,1.1,1.9c0.3,0.5,0.5,1.1,0.7,1.7
							l0.2,0.6c0.1,0.1,0.1,0.1,0,0.1L197.1,45L197.1,45z"/>
						<path id="path1065" class="st18" d="M199,45.3l-2.1-0.4l-1.9-0.4c0,0-0.2-1.8-0.4-3.7s-0.2-1.9-0.2-1.9
							c0.1,0.1,0.2,0.1,0.2,0.2c0.3,0.3,0.6,0.5,1,0.6c0.1,0,0.2,0,0.3-0.1c0,0,0,0,0.1,0c0.5,0.5,1,1,1.4,1.6
							c0.5,0.8,1,1.7,1.4,2.6c0.1,0.2,0.6,1.5,0.6,1.6S199.2,45.4,199,45.3z"/>
						<path id="path1073" class="st12" d="M196,60.5c-0.1-0.1-0.2-0.3-0.2-0.5s0-0.3,0-0.7c0-1.2,0.1-1,0-1s-0.2,0.7-0.2,0.9
							l-0.1,0.6l-0.2-0.4l-0.2-0.4l0.8-2.6c0.5-1.5,0.9-2.8,0.9-2.8s0.4,1.5,0.9,3.3c0.2,1.1,0.6,2.2,1,3.3h0.1c0,0-0.4-1.6-0.8-3.5
							s-0.8-3.5-0.8-3.5s3.1,1.2,3.1,1.3s0.1,0.1,0.1,0.2c0,0.5,0.2,2.9,0.4,4.5C199.1,60.9,199.1,60.8,196,60.5L196,60.5z"/>
						<path id="path1067" class="st18" d="M191.7,50.6c-0.1-1-0.2-2-0.3-3.1c0-0.2,0-0.9,0-1.4c0-0.7,0-1.3,0.1-2
							c0.1-0.5,0.2-1.2,0.3-1.5c0-0.1,0.1-0.1,0.1-0.2c0.2-0.6,0.4-1.3,0.7-1.8c0.5-1,0.7-1.7,0.8-1.7c0,0,0,0,0,0.1
							s0.5,2.9,0.7,4.3c0.1,0.4,0.1,0.9,0.2,1.1l0.1,0.4l-0.9,1.8c-1.2,2.3-1.4,3.1-1.7,3.8C191.8,50.5,191.7,50.6,191.7,50.6
							C191.7,50.7,191.7,50.6,191.7,50.6L191.7,50.6z"/>
					</g>
				</g>
				<g id="layer13">
					<g id="layer21">
						<path id="path1079-9" class="st19" d="M188.1,72.3c0.8,0.5,1.5,1.3,1.9,2.1c0.2,0.5,0.4,1.2,0,1.6s-1.2,0.7-1.3-0.1
							c0.1,0.6,0.1,1.2,0,1.8c-0.2,0.5-0.5,0.8-0.9,1c-0.3,0.1-0.6,0-0.9-0.1c-0.3-0.3-0.4-0.7-0.3-1c0.1-0.4-0.4,1.1-0.6,1.4
							c-0.2,0.3-0.5,0.5-0.9,0.6s-0.8,0-1.2-0.2c-0.3-0.3-0.3-0.8-0.2-1.2c0.1-0.5,0.8-0.7,0.8-1.2s-0.3-0.9-0.7-1.2
							c-0.3-0.3-0.5-0.1-0.7,0.1s-0.6,0.4-0.8,0.1c-0.5-0.6-0.3-1.5,0.6-2.3c0.6-0.5,1.2-0.8,1.1-1.4c-0.2-0.7-0.7-1.3-1.3-1.7
							c-0.1-1,0.5-4.2-1.6-6c1.3,0.8,2.5,1.8,3.6,2.9c0.8,0.8,1.4,1.7,1.9,2.7c0.5,1.1,0.6,1.5,0.8,1.6L188.1,72.3L188.1,72.3z"/>
						<path id="path1079-0-7" class="st19" d="M156.8,72.3c-0.8,0.5-1.5,1.3-1.9,2.1c-0.2,0.5-0.4,1.2,0,1.6s1.2,0.7,1.3-0.1
							c-0.1,0.6-0.1,1.2,0,1.8c0.2,0.5,0.5,0.8,0.9,1c0.3,0.1,0.6,0,0.9-0.1c0.3-0.3,0.4-0.7,0.3-1c-0.1-0.4,0.4,1.1,0.6,1.4
							c0.2,0.3,0.5,0.5,0.9,0.6s0.8,0,1.2-0.2c0.3-0.3,0.4-0.8,0.2-1.2c-0.1-0.5-0.8-0.7-0.8-1.2s0.3-0.9,0.7-1.2
							c0.3-0.3,0.5-0.1,0.7,0.1s0.6,0.4,0.8,0.1c0.5-0.6,0.3-1.5-0.6-2.3c-0.6-0.5-1.2-0.8-1.1-1.4c0.2-1,1.3-1.8,1.8-2.2
							c0.5-0.4,0.7-0.6,0.9-0.7c0.5-6.4,6.3-6.5,4.1-6c-0.6,0.3-2.8,0.8-4.2,1.7c-1.2,0.8-2.3,1.6-3.2,2.6c-0.8,0.8-1.4,1.7-1.9,2.6
							c-0.5,1.1-0.6,1.5-0.8,1.6L156.8,72.3L156.8,72.3z"/>
					</g>
				</g>
				<g id="layer2">
					<path id="path1034" class="st20" d="M164.5,77.2c1.2,0.8,2.6,1.3,4.1,1.4c2.7,0.2,5.4,0.2,8.1-0.1c1.8-0.2,3.5-0.7,5.1-1.6
						c0.5-1.9,0.8-3.9,1-5.9c0.1-1.5,0-3-0.1-4.4c-0.4-2.2-2.6-3.7-4.8-4.1c-0.9-0.2-2.3-0.5-2.3-0.5s0-1.1,0-1.8
						c-1.4,0.1-2.9,0.1-4.4,0v1.6c-1.5,0.4-2.9,0.8-4.3,1.3c-1.1,0.5-2,1.4-2.4,2.5c-0.6,1.4-0.9,2.8-0.7,4.3
						C163.7,72.4,164,74.8,164.5,77.2L164.5,77.2z"/>
				</g>
				<g id="layer7">
					<g id="layer6">
						<path id="path977-4" class="st21" d="M182.2,76.5v9.2c0-0.2,2.6-0.2,2.2,1.6c-1.5,0.2-3.9,0.3-5.8,1.4
							c-0.5,0.4-1.6,0.6-3.9,4.3c-0.3-0.2-0.7-0.4-1-0.6c-0.1,0.1-0.6-2.5,0-2.9h-1c0.4,0.8,0.5,1.8,0.1,2.7
							c-0.3,0.1-0.5,0.3-0.7,0.4c-2.6-2.8-3.2-3.1-4.7-3.6c-1.7-0.8-3.2-1-5.4-1.6c-0.8-1.6,1.8-1.7,1.8-1.7s-0.6-5.9-0.6-8.9
							c-0.2-0.4,4.8,1.4,5.3,1.5c1.4,0.2,2.8,0.4,4.1,0.5c2.2-0.1,4.4-0.4,6.6-1C182.1,76.9,182.2,76.1,182.2,76.5L182.2,76.5z"/>
					</g>
					<g id="layer8">
						<path id="path1017-1" class="st22" d="M167.9,78c3.3,0.8,6.6,0.8,9.9,0l0.3,8.7c-4,1.8-7.3,0.9-10.6,0L167.9,78z"/>
					</g>
					<g id="layer14">
						<path id="path1160" class="st23" d="M178.4,77.9c0,0,0.5,5.6,0.4,9.4c-1.8,0.7-3.7,1.1-5.6,1.1c-2-0.1-4-0.5-6-1.1
							c-0.2-3.2-0.2-6.3-0.1-9.5l0.7,0.2c-0.3,3.4-0.2,8,0.1,8.7c1.7,0.5,3.4,0.8,5.2,0.9c1.6-0.1,3.2-0.5,4.8-0.9
							c0.1-2.9,0-5.8-0.4-8.6C177.9,78.1,178.2,78,178.4,77.9z"/>
						<path id="path1160-9" class="st24" d="M178.1,78c0,0,0.4,5.4,0.3,9.1c-1.7,0.7-3.5,1.1-5.3,1c-1.9-0.1-3.8-0.5-5.7-1.1
							c-0.1-2.2-0.2-6.3,0-9.2h0.1c-0.2,3.1,0,7.9,0,9c1.8,0.5,3.7,0.8,5.5,1c1.8,0,3.5-0.3,5.2-1c0.1-3-0.1-6-0.4-8.9L178.1,78
							L178.1,78z"/>
					</g>
				</g>
			</g>
			<path class="st25" d="M195.2,29.5c-0.5,2.5,3.3,6-0.1,8.4c-2.7,1.9-17.3,1.8-21.8,2.3s-26.6,1.9-25.5-0.7
				c1.4-3.3-2.5-9.2,1.6-9.9c1.8-0.3,22-0.4,30.4-1.2c8.4-0.8,11.4-2,12.9-1.9C194.3,26.6,195.7,27.2,195.2,29.5z"/>
			<g>
				<g>
					<g>
						<defs>
							<path id="SVGID_1_" d="M195.2,29.5c-0.5,2.5,3.3,6-0.1,8.4c-2.7,1.9-17.3,1.8-21.8,2.3s-26.6,1.9-25.5-0.7
								c1.4-3.3-2.5-9.2,1.6-9.9c1.8-0.3,22-0.4,30.4-1.2c8.4-0.8,11.4-2,12.9-1.9C194.3,26.6,195.7,27.2,195.2,29.5z"/>
						</defs>
						<clipPath id="SVGID_2_">
							<use xlink:href="#SVGID_1_"  style="overflow:visible;"/>
						</clipPath>
						<g class="st26">
							<path class="st27" d="M145.4,39.9c0.7-1.1,1.7-5.7,1.9-3.7c0.3,2.7,6.3,3.3,12.4,3.4c5.4,0.1,27.2-1.5,30.7-2.4
								s4.2-1.5,5-2.6c0.8-1.2,2.2-1.2,2.3,0.2s-0.1,3.4-1.1,4.1c-1.1,0.7-32.7,3.7-35.4,3.7s-14.4,0.6-14.9-0.1
								C145.9,41.6,144.7,40.9,145.4,39.9z"/>
						</g>
					</g>
				</g>
			</g>
			<path class="st28" d="M193,27.7c-1-1-8.9-10.4-11.8-12c-2.9-1.6-10.7-5-13-3.5s-6.8,1.3-9.4,2.9c-2.6,1.6-9.5,12.6-10,13.2
				s-1.3,8.3,0.8,12.4c1.6,3.3,3,6.7,4.2,10.3c0,0,2.9-1.8,2.9-2.8c0.1-1,3.5-16.8,3.5-16.8s13-0.4,20.5-1.6
				C188.3,28.6,194,28.8,193,27.7z"/>
			<g>
				<g>
					<g>
						<defs>
							<path id="SVGID_3_" d="M193,27.7c-1-1-8.9-10.4-11.8-12c-2.9-1.6-10.7-5-13-3.5s-6.8,1.3-9.4,2.9c-2.6,1.6-9.5,12.6-10,13.2
								s-1.3,8.3,0.8,12.4c1.6,3.3,3,6.7,4.2,10.3c0,0,2.9-1.8,2.9-2.8c0.1-1,3.5-16.8,3.5-16.8s13-0.4,20.5-1.6
								C188.3,28.6,194,28.8,193,27.7z"/>
						</defs>
						<clipPath id="SVGID_4_">
							<use xlink:href="#SVGID_3_"  style="overflow:visible;"/>
						</clipPath>
						<g class="st29">
							<path class="st30" d="M148.4,51.1c1.2-0.2,4.5-0.6,5.3-2s3-13.5,4.1-16.3s1.9-3.6,1.9-3.6s2.1-9.8,2.7-8.5
								c0.6,1.3-0.5,6.8-0.3,7.6c0.4,1,1.5,1.7,2.6,1.7c1.3,0,8-0.4,11.2-0.9s4.6-0.2,6.4-0.4c1.8-0.2,1.8-1,5.2-1.1
								c1.8-0.1,3.7,0,5.5,0.5c0,0-30.6,4.5-30.6,5.8s-2.1,8.6-2,12.9s-6.5,7-9.5,6S147.3,51.4,148.4,51.1z"/>
						</g>
					</g>
				</g>
			</g>
			<path class="st25" d="M154.5,46.7c2.2,0,4.1,1.5,4.1,3.3s-1.8,3.3-4.1,3.3c-2.2,0-4.1-1.5-4.1-3.3S152.3,46.7,154.5,46.7z"/>
			<path class="st31" d="M187.1,23.6c-1.2-1.3-8.7-7.4-12.2-9s-7.4-1.4-9.8,0c-2.4,1.4-6.2,1.1-5.4,2.4s4.7-1.7,7.8,0.6
				s0.7,7.1,3.1,9c2.4,1.9,6.8,1,9.4,0.4s7.3,1,9.2-0.1C191,25.9,188.3,24.9,187.1,23.6z"/>
			<path class="st32" d="M184.2,69.9c1.1,0.8,2.3,1.4,3.3,2.2c1.7,1.5,3.1,3.2,4.2,5.1c0.4,0.6,0.8,1.3,1,2c0.2,1.1-0.2,2.2,0.2,3.3
				c2.6-0.2,4.4-2.2,5.9-4.1c0.2-0.2,0.3-0.4,0.3-0.6s0-0.4-0.1-0.5c-0.8-2.2-2.1-4.2-3.8-5.9c-2.5-2.6-5.7-4.4-8.9-6.2
				c-1-0.4-1.8-1-2.5-1.8c-0.6-0.7-0.8-1.7-1.5-2.4c-0.8-0.8-2,0.5-2.4,1.1c-0.3,0.7-0.2,1.5,0.1,2.1
				C180.9,66.5,182.3,68.4,184.2,69.9z"/>
			<path class="st0" d="M181.8,67.5c0.6-0.3,1.2-0.5,1.8-0.8c0.9-0.4,1.7-0.9,2.4-1.6c-0.9-0.4-1.6-1-2.3-1.7
				c-0.6-0.7-0.8-1.7-1.5-2.4c-0.8-0.8-2,0.5-2.4,1.1c-0.3,0.7-0.2,1.5,0.1,2.1C180.5,65.4,181.1,66.5,181.8,67.5z"/>
			<path class="st0" d="M186.3,71.3c0.4,0.3,0.8,0.5,1.2,0.8c0.5,0.4,0.9,0.8,1.3,1.2c0.6-0.3,1.2-0.6,1.8-0.9
				c1.2-0.5,2.3-1.3,3.1-2.4c-1.1-0.9-2.2-1.8-3.5-2.5c-0.6,0.7-1.2,1.5-1.9,2.1C187.8,70.2,187.1,70.8,186.3,71.3z"/>
			<path class="st0" d="M193.2,76.1c-0.6,0.3-1.2,0.5-1.8,0.7l0.3,0.4c0.4,0.6,0.8,1.3,1,2c0,0.1,0,0.1,0,0.2c0.7-0.3,1.5-0.7,2.2-1
				c1.3-0.5,2.5-1.3,3.6-2.2c-0.5-1.1-1.1-2.1-1.8-3c-0.3,0.3-0.5,0.5-0.7,0.7C195.2,74.8,194.2,75.5,193.2,76.1z"/>
			<path class="st33" d="M181.8,67.5c0.7,0.9,1.4,1.7,2.3,2.4c0.7,0.5,1.5,1,2.2,1.4c0.8-0.5,1.5-1,2.1-1.6c0.7-0.7,1.3-1.4,1.9-2.1
				c-1.3-0.8-2.6-1.6-3.9-2.3l-0.2-0.1c-0.7,0.7-1.5,1.2-2.5,1.6C183,67,182.4,67.2,181.8,67.5z"/>
			<path class="st33" d="M190.6,72.4c-0.6,0.3-1.2,0.6-1.8,0.9c1,1.1,1.8,2.2,2.6,3.5c0.6-0.1,1.3-0.4,1.8-0.7
				c1-0.6,1.9-1.3,2.8-2.1c0.3-0.2,0.5-0.5,0.7-0.7c-0.5-0.6-1-1.3-1.5-1.8s-1-1-1.5-1.4C192.9,71.1,191.9,71.9,190.6,72.4z"/>
			<path class="st33" d="M192.7,79.5c0.1,1-0.2,2.1,0.2,3c2.6-0.2,4.4-2.2,5.9-4.1c0.2-0.2,0.3-0.4,0.3-0.6s0-0.4-0.1-0.5
				c-0.1-0.3-0.3-0.7-0.5-1c-1.1,0.9-2.3,1.7-3.6,2.2C194.2,78.8,193.4,79.2,192.7,79.5z"/>
			<path class="st32" d="M183.8,64.9c1,0.2,2,0.2,2.9,0.5c1.6,0.5,3.1,1.2,4.5,2.1c0.5,0.3,1,0.6,1.3,1.1c0.5,0.7,0.7,1.5,1.3,2.1
				c1.6-0.9,2.1-2.8,2.4-4.5c0-0.2,0-0.3,0-0.5c-0.1-0.1-0.2-0.2-0.3-0.3c-1.3-1.2-2.8-2.1-4.5-2.7c-2.6-0.9-5.2-1.3-7.9-1.4
				c-0.8,0-1.5-0.1-2.2-0.4c-0.6-0.4-1.2-0.8-1.8-1.2c-0.8-0.3-1.1,0.9-1.1,1.5c0,0.5,0.4,0.9,0.8,1.4
				C180.5,63.6,182.1,64.5,183.8,64.9z"/>
			<path class="st0" d="M181.5,64c0.3-0.4,0.6-0.7,0.9-1.1c0.5-0.5,0.8-1.1,1-1.8c-0.7,0-1.4-0.2-2-0.4c-0.6-0.4-1.2-0.8-1.8-1.2
				c-0.8-0.3-1.1,0.9-1.1,1.5c0,0.5,0.4,0.9,0.8,1.4C179.9,63,180.7,63.6,181.5,64z"/>
			<path class="st0" d="M185.7,65.1c0.4,0.1,0.7,0.1,1,0.2c0.4,0.1,0.9,0.2,1.3,0.4l0.9-1.1c0.6-0.7,1-1.6,1.2-2.5
				c-1-0.3-2.1-0.5-3.1-0.6c-0.1,0.7-0.3,1.3-0.5,2C186.3,64,186,64.6,185.7,65.1z"/>
			<path class="st0" d="M191.9,66.2c-0.3,0.4-0.6,0.7-1,1l0.3,0.2c0.5,0.3,1,0.6,1.3,1.1l0.1,0.1l1.1-1.3c0.7-0.8,1.2-1.6,1.5-2.6
				c-0.7-0.6-1.4-1-2.2-1.5c-0.1,0.2-0.1,0.5-0.2,0.7C192.7,64.8,192.3,65.5,191.9,66.2z"/>
			<path class="st33" d="M181.5,64c0.7,0.4,1.5,0.7,2.3,0.9c0.6,0.1,1.3,0.2,1.9,0.3c0.3-0.5,0.6-1.1,0.7-1.7c0.2-0.7,0.4-1.3,0.5-2
				c-1.1-0.1-2.2-0.2-3.3-0.3h-0.2c-0.2,0.7-0.5,1.3-1,1.8C182.1,63.3,181.8,63.6,181.5,64z"/>
			<path class="st33" d="M188.9,64.6l-0.9,1.1c1,0.4,2,0.9,2.9,1.5c0.4-0.3,0.7-0.6,1-1c0.5-0.7,0.8-1.4,1-2.2
				c0.1-0.2,0.1-0.5,0.2-0.7c-0.5-0.3-1.1-0.5-1.6-0.7s-1-0.3-1.5-0.5C189.9,63,189.5,63.9,188.9,64.6z"/>
			<path class="st33" d="M192.7,68.6c0.4,0.6,0.6,1.5,1.2,2c1.6-0.9,2.1-2.8,2.4-4.5c0-0.2,0-0.3,0-0.5c-0.1-0.1-0.2-0.2-0.3-0.3
				c-0.2-0.2-0.4-0.4-0.6-0.5c-0.4,0.9-0.9,1.8-1.5,2.6L192.7,68.6z"/>
			<path class="st34" d="M167.4,64.6c3.1,1.2,6.5,2.1,9.8,1.6s6.4-2.6,7-5.7c0.2-0.7,0.1-1.5-0.2-2.2c-0.4-0.7-1.1-1.2-1.9-1.2
				c-0.8,0.1-1.5,0.5-2.1,1c-1.7,1-3.6,1.5-5.6,1.6c-2.1,0.2-4.2,0.2-6.3-0.1c-1.2-0.2-3.1-1.2-4.3-1c-1.5,0.2-1.1,2.2-0.6,3.2
				C164.1,63.3,165.9,64,167.4,64.6z"/>
			<path class="st0" d="M171.8,64.2c-0.5-1.4-0.5-2.9,0-4.3c-0.9,0-1.7,0-2.6-0.1c-0.2,0.3-0.3,0.6-0.4,1c-0.2,1,0.6,4,0.7,4.5v0.1
				c1.1,0.4,2.3,0.6,3.5,0.8C172.5,65.6,172.1,64.9,171.8,64.2z"/>
			<path class="st0" d="M177,65.7c0.1,0.2,0.3,0.4,0.5,0.5c1.1-0.2,2.2-0.6,3.2-1.2l-0.5-0.4c-0.6-0.5-1.2-1.1-1.7-1.7
				c-0.7-1.1-1.1-2.4-1.1-3.7c-0.9,0.2-1.9,0.4-2.8,0.5c-0.1,0.5-0.1,0.9-0.1,1.4C174.7,62.4,176.8,65.2,177,65.7z"/>
			<path class="st0" d="M166.8,59.3c-0.9-0.4-1.9-0.6-2.9-0.7c-1.5,0.2-1.1,2.2-0.6,3.2c0.7,1,1.6,1.7,2.7,2.2
				c-0.1-0.4-0.2-0.9-0.2-1.3C165.8,61.5,166.1,60.3,166.8,59.3z"/>
			<path class="st0" d="M183,63.1c0.6-0.7,1-1.6,1.2-2.5c0.2-0.7,0.1-1.5-0.2-2.2c-0.4-0.7-1.1-1.2-1.9-1.2c-0.8,0.1-1.5,0.5-2.1,1
				c-0.1,0.1-0.2,0.1-0.3,0.2c0,0.5,0.1,1,0.3,1.4C180.4,60.7,182.4,62.5,183,63.1z"/>
			<path class="st33" d="M168.8,60.8c0.1-0.3,0.2-0.7,0.4-1c-0.4,0-0.7-0.1-1.1-0.1c-0.4-0.1-0.9-0.2-1.3-0.4
				c-0.7,1-1.1,2.2-1.1,3.4c0,0.4,0.1,0.9,0.2,1.3c0.5,0.2,1,0.4,1.5,0.6c0.7,0.3,1.4,0.5,2.1,0.7v-0.1
				C169.4,64.8,168.6,61.8,168.8,60.8z"/>
			<path class="st33" d="M171.8,64.2c0.3,0.7,0.7,1.4,1.2,2c1.4,0.2,2.8,0.2,4.2,0.1l0.3-0.1c-0.2-0.1-0.4-0.3-0.5-0.5
				c-0.3-0.4-2.3-3.3-2.5-4.5c0-0.5,0-0.9,0.1-1.4h-0.2c-0.9,0.1-1.8,0.1-2.6,0.1C171.3,61.3,171.2,62.8,171.8,64.2z"/>
			<path class="st33" d="M180.3,64.6l0.5,0.4c0.9-0.5,1.6-1.1,2.3-1.9c-0.7-0.6-2.6-2.4-3-3.3c-0.2-0.5-0.3-0.9-0.3-1.4
				c-0.7,0.4-1.4,0.7-2.2,0.9c0,1.3,0.4,2.6,1.1,3.7C179.1,63.6,179.7,64.1,180.3,64.6z"/>
		</g>
		<g>
			<path class="st35" d="M216.4,135.6c-0.8-0.1-1.7-0.1-2.5-0.1c-1.1,0-2.1,0-2.8,0.1c0-0.7,0-1.4,0.1-2c0.3,0,0.6-0.1,0.8-0.4
				c0.2-0.3,0.4-0.7,0.4-1.1c0.1-0.7,0.1-1.5,0.1-2.2v-4.7c0.1-1.2-0.1-2.3-0.4-3.4c-0.2-0.6-0.7-1-1.3-1s-1.2,0.5-1.6,1.6
				c-0.5,1.5-0.7,3.1-0.6,4.6v3.2c-0.1,0.9,0,1.8,0.3,2.6c0.2,0.4,0.6,0.7,1.1,0.7c0.1,0.7,0.1,1.3,0.1,2c-0.9-0.1-1.8-0.1-2.7-0.1
				c-1.1,0-2,0-2.7,0.1c0-0.7,0-1.4,0.1-2c0.3,0,0.6-0.2,0.8-0.4c0.2-0.3,0.4-0.7,0.4-1.1c0.1-0.8,0.1-1.6,0.1-2.4v-4.8
				c0.1-1.1-0.1-2.3-0.4-3.3c-0.2-0.6-0.7-1-1.3-1c-0.5,0-0.9,0.3-1.1,0.7c-0.4,0.6-0.7,1.4-0.8,2.1c-0.2,1.1-0.3,2.3-0.3,3.4v3.3
				c0,0.7,0,1.4,0.1,2c0,0.4,0.2,0.7,0.4,1c0.2,0.2,0.5,0.3,0.8,0.4c0.1,0.7,0.2,1.3,0.1,2c-0.9-0.1-1.9-0.1-2.8-0.1s-1.8,0-2.7,0.1
				c0-0.7,0-1.3,0.1-2c0.5,0,0.9-0.3,1.1-0.8c0.3-0.8,0.4-1.7,0.3-2.6v-6.5c0-0.6,0-1.2-0.1-1.8c0-0.3-0.2-0.7-0.4-0.9
				c-0.3-0.2-0.7-0.4-1-0.4c0-0.6,0.1-1.2,0.2-1.8c0.6-0.1,1.2-0.2,1.8-0.5c0.5-0.2,1-0.5,1.5-0.8c0.4,0.2,0.5,0.8,0.5,1.8
				c0,0.5-0.1,1.3-0.1,2.5c0.1-0.6,0.3-1.1,0.5-1.7c0.3-0.7,0.7-1.3,1.2-1.8s1.1-0.7,1.8-0.7s1.3,0.3,1.7,0.7c0.6,0.7,1,1.5,1.1,2.3
				c0.1,0.4,0.2,0.8,0.2,1.1c0.2-1.2,0.8-2.4,1.7-3.3c0.4-0.5,1.1-0.7,1.7-0.7c1,0,1.9,0.6,2.3,1.5c0.6,1,0.8,2.6,0.8,4.8v5.5
				c0,0.8,0,1.6,0.1,2.4c0,0.4,0.2,0.8,0.4,1.1c0.2,0.2,0.5,0.3,0.7,0.4C216.3,134.2,216.4,134.9,216.4,135.6z"/>
			<path class="st35" d="M226.3,131.9c0.1,0.3,0.2,0.6,0.2,0.9c-0.4,0.9-1,1.6-1.7,2.2c-0.6,0.5-1.4,0.7-2.2,0.7
				c-1.6,0-2.8-0.8-3.6-2.5c-0.9-2.1-1.3-4.3-1.2-6.5c0-1.6,0.2-3.1,0.6-4.7c0.3-1.2,0.8-2.3,1.6-3.3c0.6-0.7,1.5-1.2,2.5-1.2
				c1.4,0,2.6,0.9,3.1,2.2c0.8,1.9,1.1,3.9,1.1,5.9c-0.1,0.5-0.2,1.1-0.4,1.6c-2.2,0-4.1,0.1-5.8,0.2c0,1.5,0.3,2.9,0.9,4.2
				c0.3,0.9,1.2,1.6,2.1,1.6c0.5,0,1-0.2,1.4-0.5c0.5-0.4,0.9-0.9,1.2-1.5C226.2,131.5,226.3,131.7,226.3,131.9z M220.9,121
				c-0.4,1.4-0.6,2.8-0.6,4.2h3.7c0-1.4-0.1-2.7-0.5-4c-0.3-1-0.7-1.5-1.3-1.5C221.7,119.7,221.3,120.1,220.9,121L220.9,121z"/>
			<path class="st35" d="M236.4,121.3c0,1-0.1,1.8,0,2.6c-0.2,0.1-0.4,0.2-0.7,0.3c-0.3,0.1-0.5,0.1-0.8,0.1c0-0.7-0.1-1.5-0.3-2.2
				c-0.2-0.4-0.4-0.6-0.7-0.6s-0.5,0.2-0.7,0.7c-0.3,0.6-0.5,1.2-0.7,1.9c-0.2,0.8-0.3,1.6-0.3,2.5v2.8c0,0.9,0,1.7,0.2,2.5
				c0.1,0.5,0.3,0.9,0.6,1.3c0.3,0.3,0.8,0.4,1.2,0.4c0.1,0.7,0.1,1.3,0.1,2c-0.7-0.1-1.7-0.1-3-0.1c-1.5,0-2.5,0-3.2,0.1
				c0-0.7,0-1.4,0.1-2c0.3,0,0.7-0.2,0.9-0.4c0.2-0.3,0.4-0.7,0.4-1c0.1-0.7,0.1-1.4,0.1-2.2v-6.3c0-0.6,0-1.1-0.1-1.7
				c0-0.3-0.2-0.7-0.4-0.9c-0.3-0.2-0.7-0.3-1-0.3c0-0.6,0-1.2,0.2-1.8c0.6,0,1.3-0.2,1.9-0.4c0.5-0.2,1-0.5,1.5-0.9
				c0.4,0.3,0.5,0.9,0.5,1.9c0,0.6,0,1.2-0.1,1.8s-0.1,1.2-0.2,1.9l0.2-1.1c0.1-0.4,0.2-0.7,0.3-1.1c0.3-0.8,0.6-1.6,1.2-2.2
				c0.3-0.5,0.9-0.8,1.5-0.8c0.6,0.1,1.1,0.4,1.5,0.9C236.5,119.5,236.4,120.3,236.4,121.3z"/>
			<path class="st35" d="M240.1,134.8c-0.8-0.9-1.4-1.9-1.7-3.1c-0.5-1.6-0.7-3.3-0.6-4.9c0-1.5,0.2-3,0.5-4.5
				c0.3-1.2,0.8-2.4,1.6-3.4c0.6-0.8,1.5-1.3,2.5-1.3c1.3,0,2.6,0.6,3.4,1.6c-0.1,1.3-0.2,2.8-0.2,4.6c-0.4,0.3-0.8,0.5-1.3,0.4
				c0-1.1-0.2-2.3-0.6-3.4c-0.4-0.8-0.8-1.2-1.4-1.2c-0.5,0-1.1,0.6-1.5,1.8c-0.4,1.6-0.6,3.2-0.5,4.8c0,1.7,0.2,3.4,0.8,5
				c0.5,1.4,1.3,2.1,2.2,2.1c0.5,0,0.9-0.2,1.3-0.5c0.4-0.4,0.8-0.8,1-1.4c0.3,0.4,0.5,0.9,0.5,1.5c-0.8,2-2,2.9-3.5,2.9
				C241.6,135.8,240.8,135.4,240.1,134.8z"/>
			<path class="st35" d="M247.6,133.5c0.5,0,1-0.3,1.1-0.7c0.3-0.8,0.4-1.7,0.3-2.6v-6.8c0-0.5,0-1-0.1-1.5
				c-0.1-0.3-0.2-0.6-0.5-0.8s-0.7-0.3-1-0.3c0-0.6,0-1.2,0.2-1.8c0.6,0,1.3-0.2,1.9-0.4s1.1-0.5,1.5-0.9c0.4,0.3,0.5,0.9,0.5,1.8
				v10.8c0,0.9,0,1.7,0.3,2.6c0.1,0.4,0.6,0.7,1,0.7c0.1,0.7,0.1,1.3,0.1,2c-0.9-0.1-1.8-0.1-2.7-0.1s-1.8,0-2.8,0.1
				C247.4,134.9,247.5,134.2,247.6,133.5z M248.9,113.3c-0.3-0.5-0.4-1.1-0.4-1.7c0-0.7,0.1-1.3,0.4-1.9c0.3-0.6,1-0.9,1.7-0.6
				c0.3,0.1,0.5,0.3,0.6,0.6c0.3,0.6,0.4,1.3,0.4,1.9s-0.1,1.2-0.4,1.8c-0.2,0.4-0.7,0.7-1.1,0.7C249.6,114,249.1,113.7,248.9,113.3
				z"/>
			<path class="st35" d="M264.1,133c0,0.5-0.1,1.1-0.2,1.6c-0.5,0.1-1,0.2-1.4,0.4c-0.5,0.2-0.9,0.5-1.3,0.8
				c-0.2-0.2-0.4-0.4-0.4-0.7c-0.1-0.5-0.2-1-0.2-1.5c0-0.4,0-0.8,0.1-1.3c-0.1,0.7-0.4,1.4-0.8,2.1c-0.5,0.8-1.4,1.4-2.4,1.3
				c-0.9,0-1.7-0.4-2.1-1.1c-0.5-0.9-0.8-2-0.7-3.1c0-2.2,0.6-3.7,1.7-4.6c1.2-0.9,2.6-1.6,4.1-2c0-1.3,0-2.3-0.1-2.9
				c0-0.5-0.2-1-0.4-1.5c-0.3-0.7-0.7-1-1.3-1c-0.6,0-1,0.4-1.3,1.3c-0.3,1-0.5,2-0.5,3c-0.5,0-1-0.1-1.5-0.3c0-0.6,0-1.1,0-1.5
				c0-1,0-2-0.1-2.9c0.6-0.5,1.2-0.9,1.9-1.2c0.6-0.3,1.3-0.4,2-0.4c1.1,0,2.2,0.6,2.7,1.6c0.4,0.8,0.6,1.6,0.7,2.4
				c0.2,1.4,0.2,2.7,0.2,4.1v3.7c0,0.6,0,1.2,0.1,1.8c0,0.3,0.2,0.6,0.4,0.9c0.2,0.2,0.5,0.3,0.8,0.3L264.1,133z M260.3,126.8
				c-0.9,0.2-1.7,0.6-2.3,1.2c-0.6,0.7-0.9,1.7-0.8,2.7c0,0.6,0.1,1.2,0.3,1.8c0.1,0.3,0.4,0.6,0.8,0.6s0.7-0.2,0.9-0.6
				c0.4-0.5,0.6-1.1,0.7-1.7c0.2-0.9,0.3-1.8,0.3-2.8L260.3,126.8z"/>
			<path class="st35" d="M265.6,133.5c0.5,0,1-0.3,1.2-0.7c0.3-0.8,0.4-1.7,0.3-2.6v-16.5c0-0.7-0.1-1.3-0.3-2
				c-0.3-0.4-0.8-0.7-1.3-0.6c0-0.6,0-1.2,0.2-1.8c0.6,0,1.3-0.2,1.9-0.4s1.1-0.5,1.5-0.9c0.4,0.2,0.5,0.9,0.5,1.8v20.4
				c0,0.9,0,1.7,0.3,2.6c0.1,0.4,0.5,0.7,1,0.7c0.1,0.7,0.1,1.3,0.1,2c-0.9-0.1-1.8-0.1-2.7-0.1c-0.9,0-1.8,0-2.8,0.1
				C265.4,134.9,265.5,134.2,265.6,133.5z"/>
			<path class="st35" d="M281,131.9c0.1,0.3,0.2,0.6,0.2,0.9c-0.4,0.9-1,1.6-1.7,2.2c-0.6,0.5-1.4,0.7-2.2,0.7
				c-1.6,0-2.8-0.8-3.6-2.5c-0.9-2.1-1.3-4.3-1.2-6.5c0-1.6,0.2-3.1,0.6-4.7c0.3-1.2,0.9-2.3,1.6-3.3c0.6-0.7,1.5-1.2,2.5-1.2
				c1.4,0,2.6,0.9,3.1,2.2c0.8,1.9,1.1,3.9,1.1,5.9c-0.1,0.5-0.2,1.1-0.4,1.6c-2.2,0-4.1,0.1-5.8,0.2c0,1.5,0.3,2.9,0.9,4.2
				c0.3,0.9,1.2,1.6,2.1,1.6c0.5,0,1-0.2,1.4-0.5c0.5-0.4,0.9-0.9,1.2-1.5C280.8,131.5,280.9,131.7,281,131.9z M275.6,121
				c-0.4,1.3-0.6,2.8-0.6,4.2h3.7c0-1.4-0.1-2.7-0.5-4c-0.3-1-0.7-1.5-1.3-1.5C276.4,119.7,275.9,120.1,275.6,121L275.6,121z"/>
			<path class="st35" d="M288.7,123.4c0-1-0.3-1.9-0.7-2.8c-0.2-0.7-0.8-1.1-1.5-1.1c-0.4,0-0.7,0.2-0.9,0.5
				c-0.2,0.4-0.4,0.9-0.3,1.4c0,0.4,0,0.7,0.2,1.1s0.4,0.7,0.7,1c0.5,0.5,1,0.9,1.6,1.3c0.7,0.5,1.3,1,1.8,1.6
				c0.4,0.5,0.7,1.1,0.9,1.7c0.2,0.7,0.3,1.5,0.3,2.3c0.1,1.4-0.3,2.8-1.2,3.9c-0.7,0.9-1.8,1.5-3,1.5c-1.4,0.1-2.7-0.4-3.7-1.4
				c0-0.7,0.1-1.6,0.1-2.6c0-0.7,0-1.4,0-2.1c0.4-0.4,0.9-0.6,1.4-0.5c0,1.2,0.3,2.3,0.7,3.4c0.3,0.7,0.9,1.1,1.6,1.1
				c0.5,0,0.9-0.2,1.2-0.6c0.3-0.5,0.5-1,0.4-1.5c0-0.6-0.1-1.1-0.4-1.6c-0.5-0.6-1.1-1.2-1.7-1.6c-0.6-0.4-1.2-0.9-1.8-1.5
				c-0.4-0.5-0.8-1.1-1-1.7c-0.2-0.8-0.3-1.7-0.3-2.6s0.2-1.8,0.5-2.7c0.3-0.7,0.8-1.2,1.4-1.6c0.5-0.4,1.2-0.5,1.8-0.6
				c0.6,0,1.2,0.1,1.8,0.3c0.5,0.2,1,0.5,1.5,1c0,0.3,0,0.8,0,1.5c0,0.9,0,1.8,0.1,2.5C289.7,123.3,289.2,123.5,288.7,123.4z"/>
			<path class="st35" d="M299.2,135.2c-0.8-0.5-1.6-1.1-2.2-1.8c0.1-1.5,0.2-3.4,0.2-5.7c0.5-0.2,1-0.3,1.5-0.3
				c0,1.6,0.2,3.2,0.8,4.7c0.3,0.9,1.2,1.5,2.2,1.5c0.8,0,1.5-0.3,1.9-1c0.4-0.8,0.7-1.7,0.6-2.6c0-0.8-0.1-1.5-0.4-2.2
				c-0.2-0.6-0.6-1.1-1-1.5c-0.5-0.5-1-1-1.6-1.5c-0.8-0.6-1.5-1.3-2.1-2s-1.1-1.6-1.4-2.5c-0.4-1.3-0.6-2.6-0.6-3.9
				c-0.1-1.8,0.3-3.7,1.2-5.3c0.7-1.2,1.9-1.9,3.3-1.9c0.7,0,1.5,0.2,2.1,0.5s1.2,0.7,1.7,1.2c0,2.4,0,4.2,0.1,5.2
				c-0.4,0.4-1,0.5-1.5,0.5c-0.1-1.4-0.4-2.9-0.9-4.2c-0.3-0.7-0.9-1.1-1.6-1.1s-1.3,0.3-1.6,0.9c-0.4,0.7-0.6,1.6-0.6,2.5
				c0,0.8,0.1,1.6,0.4,2.3c0.2,0.6,0.6,1.1,1,1.6c0.5,0.6,1.1,1.1,1.7,1.6c0.7,0.6,1.4,1.3,2.1,2c0.6,0.7,1.1,1.5,1.4,2.4
				c0.4,1.2,0.6,2.4,0.6,3.7s-0.2,2.6-0.6,3.8c-0.3,1-0.9,2-1.7,2.7c-0.8,0.7-1.8,1-2.8,1C300.7,135.8,299.9,135.6,299.2,135.2z"/>
			<path class="st35" d="M309.1,135c-0.6-1.4-0.6-2.9,0.1-4.3c0.2-0.5,0.7-0.8,1.3-0.8c0.5,0,1,0.4,1.2,0.9c0.3,0.6,0.5,1.3,0.5,1.9
				c0,0.8-0.1,1.6-0.5,2.2c-0.2,0.5-0.7,0.8-1.2,0.8C309.8,135.8,309.3,135.5,309.1,135z"/>
			<path class="st35" d="M327.6,135.6c-0.9-0.1-1.8-0.1-2.7-0.1c-0.9,0-1.9,0-2.8,0.1c0-0.7,0-1.4,0.2-2c0.3,0,0.6-0.2,0.8-0.4
				c0.2-0.2,0.3-0.5,0.2-0.8c0-0.6-0.1-1.2-0.3-1.8l-0.7-3c-2.2,0-4,0.1-5.4,0.2l-0.4,2c-0.2,0.7-0.3,1.4-0.3,2.1
				c0,0.4,0.1,0.8,0.2,1.2c0.2,0.3,0.5,0.4,0.8,0.5c0.1,0.7,0.2,1.3,0.2,2c-0.7-0.1-1.5-0.1-2.2-0.1c-0.4,0-1,0-1.8,0.1
				c0-0.7,0-1.3,0.2-2c0.4-0.2,0.7-0.5,0.9-1c0.3-1,0.6-2,0.8-3.1l4.4-19.9c0.3-0.1,0.7-0.2,1-0.2l5,20.2c0.3,1.1,0.5,1.9,0.7,2.4
				c0.1,0.4,0.3,0.8,0.5,1.1c0.1,0.2,0.3,0.3,0.6,0.4C327.6,134.2,327.6,134.9,327.6,135.6z M321.9,125.7l-1.4-5.8
				c-0.4-1.5-0.7-3-1-4.5c-0.3,1.5-0.5,3-0.9,4.5l-1.2,5.8H321.9z"/>
			<path class="st35" d="M329.6,135c-0.6-1.4-0.6-2.9,0.1-4.3c0.2-0.5,0.7-0.8,1.3-0.8c0.5,0,1,0.4,1.2,0.9c0.3,0.6,0.5,1.3,0.5,1.9
				c0,0.8-0.1,1.6-0.5,2.2c-0.2,0.5-0.7,0.8-1.2,0.8C330.4,135.8,329.9,135.5,329.6,135z"/>
			<path class="st35" d="M337.1,135.2c-0.8-0.5-1.6-1.1-2.2-1.8c0.1-1.5,0.2-3.4,0.2-5.7c0.5-0.2,1-0.3,1.5-0.3
				c0,1.6,0.2,3.2,0.8,4.7c0.3,0.9,1.2,1.5,2.2,1.5c0.8,0,1.5-0.3,1.9-1c0.4-0.8,0.7-1.7,0.6-2.6c0-0.8-0.1-1.5-0.4-2.2
				c-0.2-0.6-0.6-1.1-1-1.5c-0.5-0.5-1-1-1.6-1.5c-0.8-0.6-1.5-1.3-2.1-2s-1.1-1.6-1.4-2.5c-0.4-1.3-0.6-2.6-0.6-3.9
				c-0.1-1.8,0.3-3.7,1.2-5.3c0.7-1.2,1.9-1.9,3.3-1.9c0.7,0,1.5,0.2,2.1,0.5s1.2,0.7,1.7,1.2c0,2.4,0,4.2,0.1,5.2
				c-0.4,0.4-1,0.5-1.6,0.5c-0.1-1.4-0.4-2.9-0.9-4.2c-0.3-0.7-0.9-1.1-1.6-1.1s-1.3,0.3-1.6,0.9c-0.4,0.8-0.6,1.6-0.6,2.5
				c0,0.8,0.1,1.6,0.4,2.3c0.2,0.6,0.6,1.1,1,1.6c0.5,0.5,1.1,1.1,1.7,1.6c0.7,0.6,1.4,1.3,2.1,2c0.6,0.7,1.1,1.5,1.4,2.4
				c0.4,1.2,0.6,2.4,0.6,3.7s-0.2,2.6-0.6,3.8c-0.3,1-0.9,2-1.7,2.7c-0.8,0.7-1.8,1-2.8,1C338.6,135.8,337.8,135.6,337.1,135.2z"/>
		</g>
		<g id="text1225">
			<path id="path2041" class="st36" d="M12.7,136.1c-1.2,0-2.3-0.2-3.3-0.7c-1.1-0.6-2.2-1.3-3.1-2.1c0.2-2.2,0.3-4.5,0.3-6.7
				c0.7-0.3,1.4-0.4,2.2-0.4c0.1,2.5,0.5,4.4,1.1,5.5s1.8,1.8,3.1,1.7c1,0.1,2-0.4,2.7-1.2c0.6-0.9,0.9-2,0.9-3
				c0-0.9-0.2-1.8-0.6-2.6c-0.3-0.7-0.8-1.3-1.4-1.8c-0.7-0.6-1.4-1.2-2.2-1.7c-1.1-0.7-2.1-1.5-3-2.3c-0.8-0.8-1.5-1.8-2-2.9
				c-0.6-1.5-0.8-3-0.8-4.6c0-2.6,0.6-4.7,1.8-6.2c1.1-1.4,2.8-2.3,4.7-2.2c1,0,2.1,0.2,3,0.6c0.9,0.3,1.7,0.8,2.4,1.4
				c0,2.9,0.1,4.9,0.2,6.1c-0.7,0.4-1.4,0.6-2.2,0.6c-0.3-2.4-0.7-4-1.2-4.9c-0.4-0.8-1.3-1.4-2.3-1.3c-0.9,0-1.7,0.3-2.3,1
				c-0.6,0.9-0.9,1.9-0.8,2.9c0,0.9,0.2,1.8,0.6,2.7c0.4,0.7,0.9,1.3,1.5,1.9c0.6,0.5,1.4,1.1,2.4,1.8s2,1.5,3,2.4
				c0.8,0.8,1.5,1.8,1.9,2.9c0.6,1.4,0.9,2.8,0.8,4.3c0,1.5-0.3,3-0.8,4.5c-0.5,1.3-1.3,2.3-2.4,3.1
				C15.6,135.8,14.2,136.2,12.7,136.1L12.7,136.1z"/>
			<path id="path2043" class="st36" d="M28.4,136.3c-1.8,0-3.6-0.9-4.6-2.4c-1.1-1.6-1.6-3.8-1.6-6.6c0-1.6,0.2-3.3,0.8-4.8
				c0.4-1.3,1.2-2.4,2.2-3.2c0.9-0.8,2.1-1.2,3.3-1.2c1.9-0.1,3.6,0.9,4.6,2.5c1.1,1.6,1.6,3.8,1.6,6.5c0,1.6-0.2,3.2-0.8,4.8
				c-0.4,1.3-1.2,2.4-2.2,3.2C30.8,135.9,29.6,136.3,28.4,136.3z M28.7,134.2c0.9,0,1.6-0.6,2-1.7c0.5-1.5,0.8-3.1,0.7-4.6
				c0-1.4-0.1-2.7-0.4-4.1c-0.2-1-0.6-1.9-1.2-2.6c-0.4-0.6-1-0.9-1.6-0.9c-0.9,0-1.5,0.6-2,1.7c-0.5,1.4-0.7,2.9-0.7,4.4
				c-0.1,2,0.2,3.9,0.9,5.8C26.9,133.4,27.7,134.1,28.7,134.2L28.7,134.2z"/>
			<path id="path2045" class="st36" d="M36.3,136c0-0.7,0-1.4,0.2-2c0.6,0,1.1-0.2,1.4-0.7c0.3-0.8,0.4-1.7,0.4-2.6v-16.5
				c0.1-0.7-0.1-1.4-0.4-1.9c-0.4-0.5-1-0.7-1.6-0.7c0-0.6,0.1-1.2,0.3-1.8c0.8,0,1.5-0.2,2.3-0.4c0.7-0.2,1.3-0.5,1.8-0.9
				c0.4,0.2,0.7,0.9,0.7,1.8v20.4c-0.1,0.9,0.1,1.8,0.3,2.6c0.3,0.5,0.7,0.7,1.3,0.7c0.1,0.7,0.2,1.3,0.2,2c-0.8-0.1-2-0.1-3.4-0.1
				C38.3,135.9,37.1,136,36.3,136L36.3,136z"/>
			<path id="path2047" class="st36" d="M58.5,133c0.1,0.7,0,1.4-0.2,2.1c-0.6,0.1-1.2,0.2-1.8,0.4s-1.2,0.5-1.7,0.8
				c-0.3-0.1-0.5-0.4-0.6-0.7c-0.2-0.5-0.2-1-0.2-1.6c0-0.5,0-1.1,0.1-1.6c-0.2,0.7-0.5,1.3-0.9,1.8c-0.4,0.6-0.9,1.1-1.5,1.4
				c-0.6,0.3-1.3,0.5-1.9,0.5c-1.2,0.1-2.3-0.5-2.9-1.6s-0.9-2.9-0.9-5.3v-5.1c0-0.6,0-1.1-0.1-1.7c0-0.3-0.2-0.7-0.5-0.9
				s-0.7-0.4-1.1-0.3c0-0.6,0-1.2,0.2-1.8c0.7,0,1.5-0.2,2.2-0.4c0.6-0.2,1.2-0.5,1.8-0.9c0.4,0.3,0.7,0.9,0.7,1.9v8.3
				c-0.1,1.3,0.1,2.6,0.4,3.8c0.2,0.7,0.8,1.2,1.5,1.2c0.8,0,1.5-0.5,2-1.6c0.6-1.5,0.9-3.1,0.8-4.7v-3.1c0-0.6,0-1.1-0.2-1.6
				c-0.1-0.4-0.3-0.7-0.5-0.9c-0.4-0.2-0.8-0.4-1.2-0.3c0-0.4,0-0.8,0-1c0-0.3,0.1-0.5,0.2-0.7c0.8,0,1.6-0.1,2.4-0.3
				c0.6-0.2,1.2-0.4,1.8-0.8c0.4,0.3,0.7,0.9,0.7,1.9v9.9c-0.1,0.8,0,1.5,0.3,2.2C57.5,132.8,58,133,58.5,133L58.5,133z"/>
			<path id="path2049" class="st36" d="M66.2,136.3c-1.1,0-2.1-0.4-2.9-1c-1-0.8-1.7-1.9-2.2-3.1c-0.6-1.6-0.8-3.3-0.8-5
				c0-1.5,0.2-3,0.7-4.5c0.4-1.3,1-2.5,2-3.4c0.8-0.8,2-1.3,3.1-1.3c1.6-0.1,3.1,0.5,4.2,1.6c-0.2,1.5-0.2,3-0.2,4.5
				c-0.5,0.3-1.1,0.5-1.6,0.4c0-1.2-0.2-2.3-0.7-3.4c-0.3-0.7-0.9-1.1-1.7-1.2c-0.8,0-1.4,0.6-1.9,1.8c-0.5,1.5-0.7,3.2-0.7,4.8
				c0,1.7,0.3,3.4,1,4.9c0.6,1.4,1.5,2.1,2.7,2.1c0.6,0,1.1-0.2,1.6-0.5c0.5-0.4,0.9-0.8,1.2-1.3c0.4,0.4,0.6,0.9,0.7,1.5
				C69.6,135.3,68.2,136.3,66.2,136.3L66.2,136.3z"/>
			<path id="path2051" class="st36" d="M75.5,114.5c-0.5,0-1-0.3-1.3-0.7c-0.4-0.5-0.5-1.1-0.5-1.8s0.2-1.4,0.5-1.9s0.8-0.7,1.4-0.7
				c0.5,0,1.1,0.2,1.4,0.7c0.4,0.6,0.6,1.2,0.5,1.9c0,0.6-0.2,1.3-0.5,1.8C76.6,114.2,76.1,114.5,75.5,114.5z M72.3,136
				c0-0.7,0-1.4,0.2-2c0.6,0,1.1-0.2,1.4-0.7c0.3-0.8,0.4-1.7,0.4-2.6v-6.8c0-0.5,0-1-0.2-1.5c-0.1-0.3-0.3-0.6-0.5-0.8
				c-0.4-0.2-0.8-0.4-1.3-0.3c0-0.6,0.1-1.2,0.3-1.8c0.8,0,1.5-0.2,2.3-0.4c0.7-0.2,1.3-0.5,1.8-0.9c0.4,0.3,0.7,0.9,0.7,1.8v10.8
				c-0.1,0.9,0.1,1.8,0.3,2.6c0.3,0.5,0.7,0.7,1.3,0.7c0.1,0.7,0.2,1.3,0.2,2c-0.8-0.1-2-0.1-3.4-0.1
				C74.3,135.9,73.1,135.9,72.3,136z"/>
			<path id="path2054" class="st36" d="M87,136.3c-1.8,0-3.6-0.9-4.6-2.4c-1.1-1.6-1.7-3.8-1.7-6.6c0-1.6,0.2-3.3,0.8-4.8
				c0.4-1.3,1.2-2.4,2.2-3.2c0.9-0.8,2.1-1.2,3.3-1.2c1.9-0.1,3.6,0.9,4.6,2.5c1.1,1.6,1.6,3.8,1.6,6.5c0,1.6-0.2,3.2-0.8,4.8
				c-0.4,1.3-1.2,2.4-2.2,3.2C89.4,135.9,88.2,136.3,87,136.3L87,136.3z M87.3,134.2c0.9,0,1.6-0.6,2.1-1.7c0.5-1.5,0.8-3.1,0.7-4.6
				c0-1.4-0.1-2.7-0.4-4.1c-0.2-1-0.6-1.9-1.2-2.6c-0.4-0.5-1-0.9-1.6-0.9c-0.9,0-1.6,0.6-2,1.7c-0.5,1.4-0.7,2.9-0.7,4.4
				c-0.1,2,0.2,3.9,0.9,5.7C85.5,133.4,86.3,134.1,87.3,134.2L87.3,134.2z"/>
			<path id="path2056" class="st36" d="M109.7,134c0.1,0.7,0.2,1.3,0.2,2c-0.8-0.1-1.8-0.1-3.1-0.1c-0.7,0-1.8,0-3.4,0.1
				c0-0.7,0-1.4,0.2-2c0.5,0,1-0.3,1.3-0.7c0.3-0.9,0.5-1.8,0.4-2.7v-4.9c0.1-1.2-0.1-2.3-0.6-3.4c-0.4-0.9-1.4-1.3-2.3-0.9
				c-0.3,0.1-0.5,0.3-0.7,0.5c-0.5,0.6-0.8,1.3-1,2.1c-0.3,1.1-0.4,2.3-0.4,3.4v3.2c-0.1,0.9,0.1,1.8,0.4,2.6
				c0.3,0.5,0.8,0.7,1.3,0.7c0.1,0.7,0.2,1.3,0.2,2c-1.5-0.1-2.6-0.1-3.4-0.1c-1.6,0-2.7,0-3.5,0.1c0-0.7,0-1.4,0.2-2
				c0.6,0.1,1.1-0.2,1.4-0.7c0.3-0.8,0.5-1.7,0.4-2.6v-6.5c0-0.6,0-1.1-0.1-1.6c-0.1-0.4-0.3-0.7-0.5-0.9c-0.4-0.2-0.8-0.4-1.3-0.3
				c0-0.6,0.1-1.2,0.3-1.8c0.8,0,1.5-0.2,2.3-0.4c0.6-0.2,1.3-0.5,1.8-0.9c0.4,0.3,0.7,0.9,0.7,1.9c0,0.8-0.1,1.5-0.2,2.3
				c0-0.1,0.1-0.3,0.2-0.5c0.1-0.3,0.2-0.6,0.4-0.9c0.4-0.7,0.9-1.3,1.5-1.8s1.4-0.8,2.2-0.8c1.1,0,2.2,0.6,2.9,1.5
				c0.7,1,1.1,2.6,1.1,4.7v6.2c-0.1,0.9,0.1,1.8,0.3,2.6C108.7,133.8,109.2,134.1,109.7,134L109.7,134z"/>
			<path id="path2058" class="st36" d="M121.8,131.8c0.2,0.2,0.3,0.4,0.4,0.7s0.2,0.6,0.2,0.9c-0.5,0.9-1.3,1.7-2.2,2.3
				c-0.8,0.5-1.8,0.7-2.8,0.7c-1.8,0.1-3.6-0.9-4.5-2.5c-1.1-2-1.6-4.3-1.5-6.5c0-1.6,0.2-3.2,0.7-4.7c0.4-1.2,1.1-2.4,2-3.2
				c0.8-0.8,1.9-1.2,3-1.2c1.6-0.1,3.1,0.8,3.8,2.2c0.9,1.8,1.4,3.8,1.4,5.9c-0.1,0.6-0.3,1.1-0.5,1.6c-2.7,0-5.1,0.1-7.2,0.2
				c0,1.5,0.4,2.9,1,4.2c0.5,1,1.5,1.6,2.7,1.6c0.6,0,1.2-0.2,1.8-0.5C120.9,132.9,121.4,132.4,121.8,131.8L121.8,131.8z
				 M117.2,120.2c-0.7,0-1.2,0.4-1.7,1.3c-0.5,1.3-0.8,2.7-0.7,4.2h4.6c0.1-1.4-0.1-2.7-0.6-4C118.4,120.7,117.8,120.2,117.2,120.2z
				"/>
			<path id="path2060" class="st36" d="M133.4,123.4c-0.5,0.4-1.1,0.6-1.7,0.6c0-1-0.3-1.9-0.8-2.7c-0.4-0.7-1.1-1.1-1.9-1.2
				c-0.4,0-0.9,0.2-1.1,0.5c-0.3,0.4-0.4,0.9-0.4,1.3s0.1,0.8,0.2,1.1c0.2,0.4,0.5,0.7,0.8,1c0.6,0.5,1.3,0.9,2,1.3
				c0.8,0.4,1.6,1,2.3,1.6c0.5,0.5,0.9,1,1.2,1.7s0.4,1.5,0.4,2.3c0.1,1.5-0.5,2.9-1.5,4c-1,1-2.3,1.5-3.7,1.5
				c-0.9,0-1.7-0.1-2.5-0.3c-0.7-0.2-1.4-0.6-2-1c0.1-0.7,0.1-1.6,0.1-2.6c0-0.7,0-1.4-0.1-2.1c0.5-0.4,1.1-0.6,1.7-0.5
				c0,1.2,0.4,2.3,0.9,3.4c0.4,0.7,1.2,1.1,2,1.2c0.6,0,1.1-0.2,1.5-0.6c0.4-0.4,0.6-1,0.6-1.6s-0.2-1.2-0.5-1.6
				c-0.6-0.6-1.4-1.2-2.2-1.6c-0.8-0.4-1.6-0.9-2.3-1.5c-0.5-0.5-0.9-1.1-1.2-1.7c-0.3-0.8-0.4-1.7-0.4-2.6s0.2-1.8,0.7-2.6
				c0.4-0.7,1-1.3,1.7-1.6c0.7-0.4,1.5-0.6,2.2-0.6s1.5,0.1,2.2,0.3s1.3,0.5,1.8,1c0,0.3,0,0.8,0,1.5
				C133.3,121.7,133.3,122.5,133.4,123.4L133.4,123.4z"/>
		</g>
		<g id="text1237">
			<g>
				<path class="st37" d="M176.3,134.8c-2.2-2.1-3.3-5-3.3-8.6c0-2.2,0.5-4.3,1.6-6.3c1-1.8,2.6-3.2,4.4-4.2c2-1,4.1-1.5,6.3-1.5
					c3.9,0,6.9,1.1,9,3.2s3.2,5,3.2,8.5c0,2.2-0.5,4.3-1.5,6.2c-1,1.8-2.5,3.2-4.3,4.2c-2,1.1-4.2,1.6-6.5,1.5
					C181.4,138,178.5,137,176.3,134.8z M189.8,133c1-1.8,1.5-3.9,1.4-6c0-1.8-0.3-3.6-0.9-5.3c-0.5-1.3-1.3-2.5-2.3-3.4
					c-0.9-0.8-2-1.2-3.2-1.2c-1.6-0.1-3.1,0.8-3.9,2.2c-1,1.8-1.4,3.8-1.3,5.8c0,3.2,0.6,5.6,1.7,7.5c0.9,1.7,2.7,2.8,4.6,2.7
					C187.4,135.3,189,134.4,189.8,133z"/>
			</g>
		</g>
		<path class="st35" d="M165.9,144.7c-3.3-2-5.9-4.8-7.7-8.2c-2-3.9-3.2-8.2-3.4-12.6c-0.4-5.1,0.3-9.6,1.9-13.3
			c2.9-6.9,9.5-11.6,17-12.1c2.3-0.2,4.7,0,6.9,0.4c2.4,0.5,4.6,1.3,6.8,2.3c-0.3,3.6-0.2,7.3,0.1,10.9c-1.2,0.6-2.6,1-4,1
			c-0.4-4.3-1.3-7.3-2.9-8.9s-3.6-2.3-6.3-2.1c-4.4,0.3-7.5,2.3-9.3,6c-1.9,3.7-2.6,8.2-2.2,13.4c0.2,3.8,1.1,7.5,2.5,10.9
			c1.2,2.9,3.1,5.4,5.6,7.3c2.3,1.7,5.2,2.5,8.1,2.3c1.9-0.1,3.7-0.6,5.4-1.4c1.9-0.8,3.6-1.9,5.2-3.2c0.4,0.3,0.7,0.7,0.9,1.1
			c0.3,0.4,0.5,0.9,0.6,1.4c-1.9,2.1-4.1,3.8-6.6,5.1c-2.5,1.2-5.2,1.9-8,2.1C172.7,147.4,169.1,146.6,165.9,144.7z"/>
		<path class="st36" d="M0,139.4v1.8h159.5c-0.5-0.6-0.9-1.2-1.3-1.8H0z"/>
		<path class="st36" d="M350.8,139.4H192.5c0,0.1,0.1,0.2,0.1,0.3l0.2,0.9l-0.6,0.7c0,0,0,0-0.1,0.1h158.6L350.8,139.4L350.8,139.4z
			"/>
	</g>
</g>
</svg>
