<?xml version="1.0" encoding="utf-8"?>
<!-- Generator: Adobe Illustrator 25.0.0, SVG Export Plug-In . SVG Version: 6.00 Build 0)  -->
<svg version="1.1" id="Layer_1" xmlns="http://www.w3.org/2000/svg" xmlns:xlink="http://www.w3.org/1999/xlink" x="0px" y="0px"
	 viewBox="0 0 34.5 34.5" style="enable-background:new 0 0 34.5 34.5;" xml:space="preserve">
<style type="text/css">
	.st0{fill:#FAFDFC;}
	.st1{fill:#6A6B6B;}
</style>
<g>
	<g id="Layer_2_1_">
		<g id="Layer_1-2">
			<path class="st0" d="M2.3,32.2L3.8,27c0.2-0.7,0.4-1.3,0.6-2c0.1-0.2,0-0.4-0.1-0.5c-1.2-2.2-1.9-4.6-1.9-7.2
				c0-3.1,0.9-6.1,2.7-8.7S9.5,4.1,12.5,3c2.3-0.8,4.8-1,7.3-0.6c5.3,1,9,3.9,11.2,8.9c1.2,2.6,1.5,5.5,1,8.3
				c-0.8,4.7-3.4,8.3-7.5,10.6c-4.5,2.5-9.2,2.5-13.8,0.2c-0.4-0.2-0.8-0.2-1.2-0.1C7.1,31,4.7,31.6,2.3,32.2z M29.6,17.6
				c0-1.6-0.3-3.1-0.8-4.6C26.5,6.5,19.4,3.3,13,5.6c-4.3,1.6-7.4,5.5-8,10.1c-0.4,2.9,0.3,5.9,2,8.4c0.1,0.2,0.2,0.5,0.1,0.7
				c-0.3,1.2-0.6,2.3-1,3.5c-0.1,0.4,0,0.4,0.3,0.3c1.2-0.3,2.4-0.6,3.6-0.9c0.3-0.1,0.6,0,0.8,0.1c3,1.9,6.7,2.4,10.2,1.3
				C26,27.5,29.6,22.6,29.6,17.6z"/>
			<path class="st1" d="M29.6,17.6c0,5.1-3.6,9.9-8.7,11.5c-3.4,1.1-7.1,0.6-10.2-1.3c-0.2-0.2-0.5-0.2-0.8-0.1
				c-1.2,0.3-2.4,0.6-3.6,0.9C6,28.7,5.9,28.7,6,28.3c0.4-1.2,0.7-2.3,1-3.5c0.1-0.2,0-0.5-0.1-0.7c-1.6-2.5-2.3-5.4-2-8.4
				C5.8,8.9,12,4.1,18.8,5c4.6,0.6,8.5,3.6,10.1,8C29.4,14.4,29.6,16,29.6,17.6z M12.5,10.3c-0.4-0.1-0.9,0-1.3,0.3
				c-1.3,1-1.8,2.7-1.3,4.3c0.4,1.4,1,2.7,2,3.8c2,2.6,4.7,4.6,7.9,5.5c2.2,0.6,4.7-0.2,5.1-2.9c0.1-0.4-0.1-0.7-0.4-0.9l0,0
				c-1-0.4-2-0.9-2.9-1.4c-0.3-0.2-0.7-0.1-0.9,0.2l0,0c-0.4,0.5-0.7,0.9-1.1,1.4c-0.1,0.2-0.4,0.3-0.6,0.2
				c-2.2-0.8-4.1-2.4-5.3-4.5c-0.1-0.2-0.1-0.5,0.1-0.7c0.3-0.4,0.6-0.7,1-1.1c0.3-0.2,0.3-0.6,0.1-0.9c-0.4-0.8-0.8-1.6-1.1-2.5
				C13.5,10.5,13.2,10.1,12.5,10.3L12.5,10.3z"/>
			<path class="st0" d="M12.5,10.3c0.7-0.2,1,0.2,1.3,0.9c0.3,0.8,0.7,1.7,1.1,2.5c0.2,0.3,0.1,0.7-0.1,1c-0.3,0.4-0.6,0.7-1,1.1
				c-0.2,0.2-0.2,0.4-0.1,0.7c1.2,2.1,3,3.7,5.3,4.5c0.2,0.1,0.5,0,0.6-0.2c0.4-0.5,0.7-0.9,1.1-1.4c0.2-0.3,0.5-0.4,0.8-0.2l0,0
				c1,0.5,2,0.9,2.9,1.4c0.4,0.1,0.5,0.5,0.4,0.9l0,0c-0.4,2.7-2.9,3.5-5.1,2.9c-3.2-1-5.9-2.9-7.9-5.5c-0.9-1.1-1.6-2.4-2-3.8
				c-0.4-1.6,0.1-3.2,1.3-4.3C11.6,10.3,12.1,10.2,12.5,10.3z"/>
		</g>
	</g>
</g>
</svg>
